<?xml version="1.0" encoding="utf-8"?>
<!-- Generator: Adobe Illustrator 21.1.0, SVG Export Plug-In . SVG Version: 6.00 Build 0)  -->
<svg version="1.1" id="Layer_1" xmlns="http://www.w3.org/2000/svg" xmlns:xlink="http://www.w3.org/1999/xlink" x="0px" y="0px"
	 viewBox="0 0 3532.9 1998.8" style="enable-background:new 0 0 3532.9 1998.8;" xml:space="preserve">
<style type="text/css">
	.st0{fill:#D7421C;}
	.st1{fill:#F57820;}
	.st2{fill:#A7A5A6;}
	.st3{fill:#B1C1F2;}
	.st4{fill:#FFFFFF;}
	.st5{fill:#B59B00;}
	.st6{fill:#ABAD23;}
	.st7{fill:#E5F1EF;}
	.st8{fill:#298FC2;}
	.st9{fill:none;stroke:#FFFFFF;stroke-width:5;stroke-linecap:round;stroke-miterlimit:10;}
	.st10{fill:none;stroke:#423C52;stroke-width:5;stroke-linecap:round;stroke-miterlimit:10;}
	.st11{fill:#423C52;}
	.st12{fill:#907B00;}
	.st13{fill:none;stroke:#FFFFFF;stroke-width:4;stroke-miterlimit:10;}
	.st14{fill:#FFDB00;}
	.st15{fill:none;stroke:#423C52;stroke-width:5;stroke-linecap:round;stroke-linejoin:round;}
	.st16{fill:#FE552F;}
	.st17{fill:none;stroke:#FE552F;stroke-width:5;stroke-miterlimit:10;}
	.st18{fill:#EB7500;}
	.st19{fill:none;stroke:#423C52;stroke-width:6;stroke-linecap:round;stroke-miterlimit:10;}
</style>
<g>
	<polyline class="st0" points="2180,823.1 2177.6,1615.8 3082.8,1619.3 3082.8,816 2180,823.1 	"/>
	<rect x="2172.5" y="1579" class="st1" width="917.8" height="43.6"/>
	<rect x="2130" y="822.7" class="st1" width="1003.7" height="52.7"/>
	<path class="st2" d="M2146,831c0,0,10.7-236,115.1-240.3c85.9-3.6,526.6-0.4,678.3,1.6c89.4,1.2,165.9,99,176.9,230.4
		c0.3,2.8,0.5,5.9,0.5,8.7L2146,831z"/>
	<polygon class="st1" points="3027.4,1179.8 3081,1179.8 3081,1231.3 3030.1,1231.3 	"/>
	<polygon class="st1" points="3049.6,964.8 3081.8,964.8 3081.8,1016.3 3052.3,1016.3 	"/>
	<rect x="2219.3" y="1349.3" class="st1" width="85.6" height="47.5"/>
	<rect x="2189.1" y="1140.3" class="st1" width="85.6" height="47.5"/>
	<rect x="2242.1" y="971.6" class="st1" width="85.6" height="47.5"/>
	<rect x="2546.6" y="929.6" class="st1" width="85.6" height="47.5"/>
	<rect x="2978.7" y="1087.6" class="st1" width="85.6" height="47.5"/>
	<rect x="2932.4" y="1454.6" class="st3" width="85.6" height="47.5"/>
	<rect x="2729.1" y="891.6" class="st1" width="85.6" height="47.5"/>
	<path class="st1" d="M2344.6,1231.3h46.3l516.4-0.4c0,0,42-96.2-71.4-148.9s-299.7-37.6-384.5-13.5
		C2366.5,1092.7,2341.4,1122,2344.6,1231.3z"/>
	<polyline class="st2" points="2351.3,1233.3 2346.7,1578.2 2905.7,1578.2 2905.7,1224.6 2342.2,1217.5 2351.3,1233.3 	"/>
	<rect x="2551.9" y="1238.1" class="st4" width="319" height="175.8"/>
	<rect x="2551.9" y="1442" class="st4" width="141.8" height="86.3"/>
	<rect x="2381.8" y="1241.2" class="st4" width="141.8" height="288.6"/>
	<rect x="2724.3" y="1443.5" class="st4" width="141.8" height="86.3"/>
	<polyline class="st0" points="2396.8,1096.3 2386.6,1221 2434.7,1219.4 2443.3,1068.2 2415.2,1078.1 2399.4,1087.6 	"/>
	<polyline class="st0" points="2476.2,1097.5 2468.2,1219.8 2516.6,1219 2525.2,1053.1 2501.6,1057.1 2480.5,1060.3 	"/>
	<polyline class="st0" points="2836.4,1095.1 2844.1,1220.2 2806.4,1218.6 2799.7,1067.4 2821.9,1077.3 2834.2,1086.8 	"/>
	<polyline class="st0" points="2773.5,1096.7 2780.2,1219 2739.8,1217.9 2732.6,1052.3 2752.1,1056.3 2770,1059.5 	"/>
	<polyline class="st0" points="2699.4,1095.5 2706.3,1217.9 2665.9,1217.1 2658.4,1047.6 2677.4,1048.8 2695.6,1050.4 	"/>
	<polyline class="st0" points="2611.9,1100.3 2618.6,1222.6 2578.4,1221.4 2570.9,1052 2591,1051.2 2609.7,1050.4 	"/>
	<g>
		<defs>
			<path id="SVGID_1_" d="M3195,1336.7l25.6-52h75.1C3295.8,1284.6,3245.8,1294.7,3195,1336.7 M3518.4,1337
				c-51.2-42.3-101.4-53.1-101.4-53.1h0.1h75.1L3518.4,1337 M3235.1,1267.3v-6.1h242.8v6.1H3235.1 M3126.1,1202.2v-30.6h6.2v30.6
				H3126.1 M3143.2,1202.2v-30.6h9.8v30.6H3143.2 M3163.9,1202.2v-30.6h9.9v30.6H3163.9 M3184.6,1202.2l-0.1-30.6h9.9v30.6H3184.6
				 M3205.3,1202.2v-30.6h9.9v30.6H3205.3 M3226,1202.2v-30.6h9.9v30.6H3226 M3246.9,1202.2l-0.1-30.6h9.8v30.6H3246.9
				 M3267.4,1202.2v-30.6h9.9v30.6H3267.4 M3288.1,1202.2v-30.6h10v30.6H3288.1 M3308.9,1202.2v-30.6h9.9v30.6H3308.9
				 M3329.6,1202.2v-30.6h9.9v30.6H3329.6 M3350.4,1202.2v-30.6h9.9v30.6H3350.4 M3371.1,1202.2v-30.6h9.9v30.6H3371.1
				 M3391.9,1202.2v-30.6h9.9v30.6H3391.9 M3412.6,1202.2v-30.6h9.9v30.6H3412.6 M3433.3,1202.2v-30.6h9.9v30.6H3433.3
				 M3454.3,1202.2v-30.6h9.8v30.6H3454.3 M3475,1202.2v-30.6h9.9v30.6H3475 M3495.8,1202.2v-30.6h9.9v30.6H3495.8 M3516.6,1201.8
				v-30.6h9.9v30.6H3516.6 M3537.4,1201.8v-30.6h9.9v30.6H3537.4 M3558.1,1201.8v-30.6h9.9v30.6H3558.1 M3578.9,1201.8v-30.6h8.1
				v30.6H3578.9 M3344.8,987.8h22.8c5,13.4,32.9,86.9,67.7,171.7h-158.2C3311.7,1075.1,3339.3,1002.3,3344.8,987.8 M3345,987.3
				L3345,987.3 M3259.3,981.8v-15.6h5v15.6H3259.3 M3269.7,981.8v-15.6h5v15.6H3269.7 M3280.2,981.8v-15.6h5v15.6H3280.2
				 M3291.1,981.8l-0.4-15.6h5v15.6H3291.1 M3301.1,981.8v-15.6h5v15.6H3301.1 M3311.5,981.8v-15.6h5v15.6H3311.5 M3322.2,981.8
				l-0.2-15.6h5v15.6H3322.2 M3332.4,981.8v-15.6h5v15.6H3332.4 M3342.8,981.8v-15.6h5v15.6H3342.8 M3353.3,981.8v-15.6h4.9v15.6
				H3353.3 M3363.7,981.8v-15.6h5v15.6H3363.7 M3374.1,981.8v-15.6h5v15.6H3374.1 M3384.6,981.8v-15.6h5v15.6H3384.6 M3395,981.8
				v-15.6h5v15.6H3395 M3405.5,981.8v-15.6h5v15.6H3405.5 M3415.9,981.8v-15.6h5v15.6H3415.9 M3426.4,981.8v-15.6h5v15.6H3426.4
				 M3437,981.8v-15.6h5v15.6H3437 M3447.5,981.8v-15.6h5v15.6H3447.5 M3240.4,981.6v-15.6h3.2v15.6H3240.4 M3249.1,981.6v-15.6h5
				v15.6H3249.1 M3457.9,981.6v-15.6h4.9v15.6H3457.9 M3468.4,981.6v-15.6h4v15.6H3468.4 M3347.8,947.7c0,0,7.1-63.2,8.5-111.4
				c1.3,48.3,8.4,111.4,8.4,111.4h-8.4H3347.8 M3357,0c-0.8,13.4-1.6,28.1-2.2,42.5c-2.7,0.7-4.6,2.8-4.7,5.2c0,2.3,1.7,4.3,4.2,5.2
				c0,1.7,0,3.4,0,5.2c-3.7,1.1-6.3,4-6.2,7.3c0,3.2,2.3,6,5.9,7.2c0,2.2,0,4.3,0,6.4c-4.2,1.6-5.9,5.8-4,9.3c0.7,1.3,2,2.4,3.5,3.1
				c0,4.8-0.4,9.1-0.6,13c-13.8,2.4-24.3,15-24.3,30.3c0,1.9,0.2,3.8,0.5,5.7h-18.7l24.5,19.3c-5.4,149.5-28.8,738-64.4,800.1h-35.4
				v27.7l20.6,7.7c-9.5,24.2-41.6,90-78.9,163.9h-61.6v55h33.8c-23.1,45.7-46.5,91.3-66.2,129.7v110.9h77.2v-31.1h-7.7
				c6.2-9.6,13.1-21.2,20.4-34.4c71.3-89.3,159.7-94.6,179.7-94.6c2.7,0,4.2,0.1,4.2,0.1s1.5-0.1,4.2-0.1
				c20.1,0,108.5,5.3,179.6,94.6c7.2,13.2,14,24.8,20.3,34.4h-7.7v31.1H3695v-31.1l-23.7,0.2c-19.2-37.2-63.7-123.3-107.4-209.5
				h33.8V1159h-61.6c-37.3-73.9-69.3-139.7-78.9-163.9l20.6-7.7v-27.7h-34.3c-35.6-62.3-59-650.6-64.4-800.1l24.5-19.3H3385
				c0.3-1.9,0.5-3.8,0.5-5.7c0-15.3-10.5-27.9-24.3-30.3c0-3.9-0.4-8.3-0.6-13c4-1.9,5.5-6.1,3.2-9.5c-0.8-1.3-2.1-2.3-3.7-2.9
				c0-2.1,0-4.2,0-6.4c3.5-1.2,5.8-4.1,5.8-7.2c0-3.3-2.5-6.2-6.2-7.3c0-1.7,0-3.4,0-5.2c3.4-1.3,4.9-4.6,3.4-7.4
				c-0.8-1.4-2.1-2.4-3.8-3C3358.4,28.1,3357.7,13.4,3357,0"/>
		</defs>
		<clipPath id="SVGID_2_">
			<use xlink:href="#SVGID_1_"  style="overflow:visible;"/>
		</clipPath>
		<g style="clip-path:url(#SVGID_2_);">
			
				<image style="overflow:visible;" width="428" height="742" xlink:href="14D733068E3B6EE2.jpg"  transform="matrix(0.24 0 0 -0.24 3082.5598 1455.0211)">
			</image>
		</g>
		<g style="clip-path:url(#SVGID_2_);">
			
				<image style="overflow:visible;" width="569" height="594" xlink:href="14D733068E3B6EE6.jpg"  transform="matrix(0.24 0 0 -0.24 3524.6399 1455.0211)">
			</image>
		</g>
		<g style="clip-path:url(#SVGID_2_);">
			
				<image style="overflow:visible;" width="144" height="1333" xlink:href="14D733068E3B6EE1.jpg"  transform="matrix(0.24 0 0 -0.24 3184.5598 1383.9811)">
			</image>
		</g>
		<g style="clip-path:url(#SVGID_2_);">
			
				<image style="overflow:visible;" width="145" height="1333" xlink:href="14D733068E3B6EE3.jpg"  transform="matrix(0.24 0 0 -0.24 3490.5598 1383.9811)">
			</image>
		</g>
		<g style="clip-path:url(#SVGID_2_);">
			
				<image style="overflow:visible;" width="287" height="1629" xlink:href="14D733068E3B6EE0.jpg"  transform="matrix(0.24 0 0 -0.24 3218.3997 1348.4611)">
			</image>
		</g>
		<g style="clip-path:url(#SVGID_2_);">
			
				<image style="overflow:visible;" width="286" height="1629" xlink:href="14D733068E3B6EEE.jpg"  transform="matrix(0.24 0 0 -0.24 3422.6396 1348.4611)">
			</image>
		</g>
		<g style="clip-path:url(#SVGID_2_);">
			
				<image style="overflow:visible;" width="570" height="743" xlink:href="14D733068E3B6EE5.jpg"  transform="matrix(0.24 0 0 -0.24 3286.5598 1313.1812)">
			</image>
		</g>
		<g style="clip-path:url(#SVGID_2_);">
			
				<image style="overflow:visible;" width="428" height="743" xlink:href="14D733068E3B6EE7.jpg"  transform="matrix(0.24 0 0 -0.24 3524.6396 1313.1812)">
			</image>
		</g>
		<g style="clip-path:url(#SVGID_2_);">
			
				<image style="overflow:visible;" width="287" height="595" xlink:href="14D733068E3B6EE4.jpg"  transform="matrix(0.24 0 0 -0.24 3116.3997 1277.6611)">
			</image>
		</g>
		<g style="clip-path:url(#SVGID_2_);">
			
				<image style="overflow:visible;" width="144" height="447" xlink:href="31A5FF28E9706F5.jpg"  transform="matrix(0.24 0 0 -0.24 3082.5598 1242.1411)">
			</image>
		</g>
		<g style="clip-path:url(#SVGID_2_);">
			
				<image style="overflow:visible;" width="144" height="2811" xlink:href="31A5FF28E97070B.jpg"  transform="matrix(0.24 0 0 -0.24 3286.5598 1135.5812)">
			</image>
		</g>
		<g style="clip-path:url(#SVGID_2_);">
			
				<image style="overflow:visible;" width="145" height="3107" xlink:href="31A5FF28E97070D.jpg"  transform="matrix(0.24 0 0 -0.24 3388.5598 1135.5812)">
			</image>
		</g>
		<g style="clip-path:url(#SVGID_2_);">
			
				<image style="overflow:visible;" width="287" height="2960" xlink:href="31A5FF28E97070F.jpg"  transform="matrix(0.24 0 0 -0.24 3320.3997 1064.7811)">
			</image>
		</g>
		<g style="clip-path:url(#SVGID_2_);">
			
				<image style="overflow:visible;" width="145" height="298" xlink:href="31A5FF28E97070C.jpg"  transform="matrix(0.24 0 0 -0.24 3252.4797 958.2211)">
			</image>
		</g>
		<g style="clip-path:url(#SVGID_2_);">
			
				<image style="overflow:visible;" width="144" height="446" xlink:href="31A5FF28E970714.jpg"  transform="matrix(0.24 0 0 -0.24 3422.6399 958.2211)">
			</image>
		</g>
		<g style="clip-path:url(#SVGID_2_);">
			
				<image style="overflow:visible;" width="287" height="1333" xlink:href="31A5FF28E970715.jpg"  transform="matrix(0.24 0 0 -0.24 3320.3997 355.1012)">
			</image>
		</g>
		<g style="clip-path:url(#SVGID_2_);">
			
				<image style="overflow:visible;" width="144" height="299" xlink:href="31A5FF28E970717.jpg"  transform="matrix(0.24 0 0 -0.24 3286.5598 177.7411)">
			</image>
		</g>
		<g style="clip-path:url(#SVGID_2_);">
			
				<image style="overflow:visible;" width="145" height="299" xlink:href="31A5FF28E970713.jpg"  transform="matrix(0.24 0 0 -0.24 3388.5598 177.7411)">
			</image>
		</g>
		<g style="clip-path:url(#SVGID_2_);">
			
				<image style="overflow:visible;" width="145" height="151" xlink:href="31A5FF28E97071B.jpg"  transform="matrix(0.24 0 0 -0.24 3354.4797 35.9012)">
			</image>
		</g>
	</g>
	<g>
		<defs>
			<path id="SVGID_3_" d="M3082.8,1343.7c-17.5,34-32.2,62.3-41.2,79.8h-23.6v31.1h64.8V1343.7"/>
		</defs>
		<clipPath id="SVGID_4_">
			<use xlink:href="#SVGID_3_"  style="overflow:visible;"/>
		</clipPath>
		<g style="clip-path:url(#SVGID_4_);">
			
				<image style="overflow:visible;" width="273" height="465" xlink:href="31A5FF28E970730.jpg"  transform="matrix(0.24 0 0 -0.24 3017.76 1455.0211)">
			</image>
		</g>
	</g>
	<path class="st5" d="M215.8,1616.8c45.5,7.8,26.7-146.4,160-187.7c56.8-17.6,105.3-0.9,148.7,19.9c63.4,30.3,104.1,41.6,167.8-33.5
		c88.8-104.7,204.5-108,271.2-91.3c58.5,12.6,170.7,44,250.9,235.9c16.1,38.5,39.3,75.1,88.9,65.3
		c103.3-20.3,172.6,50.2,139.5,117.7H0C0,1743.1,25,1584,215.8,1616.8z"/>
	<path class="st6" d="M2453.2,1641.3c34.9-77,59-136.3,145.9-138.3c156.6-3.7,135.9,137.7,192.8,128.3s-17.1-290.6,261-315.9
		c254.1-23.1,251,236.9,327.5,235.2c41.5-0.9,62.9-136.8,193.8-103.9c113.3,28.5,67.4,206.6,196.4,166.8s107.8,49.9,107.8,49.9
		c251.3-75.6,259.5,35.8,259.5,35.8H2146C2146,1699.2,2326.5,1541.5,2453.2,1641.3z"/>
	<path class="st7" d="M2164.2,1784.1h-215.5c0,0,113.4-47.7,147.9-47.7C2131.1,1736.4,2159.5,1752.8,2164.2,1784.1z"/>
	<path class="st8" d="M1091.9,411.5c-5.6-47.7-41.4-86.1-88.4-94.7c25.5-73.8,100.6-127.3,189.2-127.3c109.7,0,198.6,82,198.6,183.1
		c0,0-64.4,21.7-68.2,82.7c1.9-4.9,24-54.5,81.2-59.1c43.4-3.5,93.6,26.1,99.5,69.6c0,0,235.4-64.2,236.8,41.4h-996
		c0-0.5,0-0.9,0-1.4c0-38.5,36-69.6,80.4-69.6c15.9-0.1,31.5,4.1,45.2,12.1c3.3-60,55.4-107.9,119.1-107.7
		C1061.8,340.9,1091.9,411.5,1091.9,411.5z"/>
	<ellipse class="st4" cx="1153.1" cy="58.8" rx="23.8" ry="23.9"/>
	<ellipse class="st7" cx="2900.7" cy="1983.2" rx="412.3" ry="15.6"/>
	<path class="st9" d="M2958.6,1866.7c0,0-42.6-33.5-41.7-67"/>
	<line class="st5" x1="2862.5" y1="1801.7" x2="2859.2" y2="1801.7"/>
	<line class="st5" x1="2894.9" y1="1800.7" x2="2891.7" y2="1800.8"/>
	<line class="st5" x1="2927.4" y1="1799.2" x2="2924.1" y2="1799.4"/>
	<line class="st5" x1="2992.3" y1="1793.9" x2="2989" y2="1794.3"/>
	<line class="st5" x1="3024.8" y1="1789.8" x2="3021.5" y2="1790.3"/>
	<path class="st5" d="M3057.3,1750.3c-1.2,3.6-2.2,6.9-3.3,10"/>
	<path class="st5" d="M3050.1,1772c-0.4,1.2-0.8,2.2-1.1,3.3"/>
	<line class="st5" x1="2706.3" y1="1775.2" x2="2707.3" y2="1772"/>
	<ellipse class="st10" cx="1117.2" cy="1686.6" rx="223.3" ry="198.2"/>
	<path class="st10" d="M984.8,1874.9c-68.7-35.2-114.9-101.1-114.9-176.6"/>
	<ellipse class="st10" cx="1811.3" cy="1686.6" rx="223.3" ry="198.2"/>
	<path class="st10" d="M1933.7,1496.1c79.8,37.9,130.5,115.5,121.8,200.4"/>
	<path class="st10" d="M1811.3,1686.6l-130.2-349.2c-2.9-7.7,1.8-16.1,10.6-18.7c1.7-0.5,3.5-0.7,5.2-0.7h121.7
		c33.1,0,59.9,23.8,59.9,53.2v0c0,29.4-26.8,53.2-59.9,53.2h-21.4c-7,0-13.5-3.1-17.4-8.2"/>
	<ellipse class="st4" cx="1811.1" cy="1687.1" rx="9.3" ry="8.2"/>
	<ellipse class="st10" cx="1811.1" cy="1687.1" rx="9.3" ry="8.2"/>
	<path class="st10" d="M1270.1,1467.1l-153.4,219.4h396.2l120.1-171.7c20.7-29.6,57.3-47.7,96.6-47.7H1270.1z"/>
	<path class="st10" d="M1692.3,1365.7c20.7-29.6,57.3-47.7,96.6-47.7"/>
	<rect x="1344.7" y="1762.4" class="st10" width="113.8" height="15"/>
	<path class="st10" d="M1207.7,1407.7h123.9c6.2,0,11.3,4.5,11.3,10v1.9c0,5.5-5,10-11.3,10h-123.9c-6.2,0-11.3-4.5-11.3-10v-1.9
		C1196.4,1412.2,1201.5,1407.7,1207.7,1407.7z"/>
	<line class="st10" x1="1269.6" y1="1467.1" x2="1269.6" y2="1429.6"/>
	<ellipse class="st4" cx="1116.7" cy="1686.6" rx="9.3" ry="8.2"/>
	<ellipse class="st10" cx="1116.7" cy="1686.6" rx="9.3" ry="8.2"/>
	<path class="st11" d="M1455.3,1686.6h-127.2c-15.6,0-28.2-11.2-28.2-25c0-3.7,0.9-7.4,2.7-10.7l129.7-243.1h-176.8
		c-25.1,0-48.1-12.7-59-32.8l144.1-97.4h205.3c73.1,0,119.5,69.6,84.3,126.5L1455.3,1686.6z"/>
	<path class="st12" d="M1455.3,1686.6c-4.1,8.9-16.8,46.4,5.7,54.9c21.4,8,19.3,19,19.3,19h-140.1c-11.2,0-20.2-8-20.2-18
		c0-2,0.4-4,1.1-5.8l19.4-50L1455.3,1686.6z"/>
	<path class="st13" d="M1427.2,1700.5h25.2c2.9,0,5.2,2.1,5.2,4.6s-2.3,4.6-5.2,4.6h-3.8"/>
	<path class="st13" d="M1427.2,1709.8h25.2c2.9,0,5.2,2.1,5.2,4.6c0,2.6-2.3,4.6-5.2,4.6h-3.8"/>
	<path class="st4" d="M1480.3,1760.4h-140.1c-11.2,0-20.2-8-20.2-18c0-2,0.4-4,1.1-5.9l1.3-3.4c1.5,8.8,10,15.3,20,15.3h131.4
		C1481.4,1754.7,1480.3,1760.4,1480.3,1760.4z"/>
	<path class="st14" d="M1821.7,1333.1c0,0,46.1,3.6,53-17.5c6.8-21.2-2.3-51.1-15.7-58.4c-2.9-1.6-55.5-2.7-55.5-2.7l-34.7,68.2
		c42.7,0.4,59.1-3.7,59.1-3.7S1817.7,1320.9,1821.7,1333.1z"/>
	<path class="st15" d="M1856,1329.8c2.7-2.2,4.7-5,5.7-8.1c2.6-7.9,2.9-16.3,1.6-25.1"/>
	<path class="st15" d="M1768.8,1322.8l59.4-4.4c6.8-0.5,12.1-5.6,12.1-11.7v-8"/>
	<polygon class="st14" points="1556.1,1051.8 1544.6,1079 1525.4,1078.7 1449.9,1077.7 1501.9,1017 	"/>
	<path class="st14" d="M1525.7,1017l5.7,30.2c1.6,8.4,9.8,14.6,19.4,14.6h28.8c6.4,0,11.5-4.6,11.5-10.2c0-0.3,0-0.6,0-0.9
		l-1.3-12.7h4.4c2.3,0,4.2-1.7,4.2-3.7c0-0.3-0.1-0.7-0.2-1l-9.2-29.3L1525.7,1017z"/>
	<path class="st14" d="M1514.8,1017h15.9v26h-15.9c-7.4,0-13.4-5.3-13.4-11.9v0v-2.3C1501.4,1022.4,1507.4,1017,1514.8,1017
		L1514.8,1017z"/>
	<path class="st10" d="M1502.4,1031.1L1502.4,1031.1c0,7.2,9,13.6,17.1,13.6h16.3"/>
	<path class="st10" d="M1523.5,1032c0-4.4-4-8-9-8"/>
	<ellipse class="st11" cx="1570" cy="1026.5" rx="2.5" ry="2.9"/>
	<path class="st10" d="M1558.5,1017c0,0,8.2-3.2,14-3.4"/>
	<path class="st4" d="M1496.4,1021.6l1.1-4c6.3-22.9,28.6-39.6,55.2-41.3l13.7-0.9c10.1-0.8,19.1,5.5,20.5,14.4l2.1,12.6
		L1496.4,1021.6z"/>
	<path class="st15" d="M1496.4,1021.6l1.1-4c6.3-22.9,28.6-39.6,55.2-41.3l13.7-0.9c10.1-0.8,19.1,5.5,20.5,14.4l2.1,12.6
		L1496.4,1021.6z"/>
	<line class="st10" x1="1496.4" y1="1021.6" x2="1625.7" y2="995.3"/>
	<path class="st11" d="M1544.6,1013c-7.8,15.9,1.1,25.8,3.8,27.6c7.7,5.1,34.9-1.1,41.3-2.7c0,0,5.5,33-0.7,33.9
		c-11.5,1.6-52.1-9.6-57.5-18.8c-1.8-3.1,0.6-13.8,0.2-21.3c-0.3-5.7-1-14.6-6-14.6L1544.6,1013z"/>
	<path class="st16" d="M1544.6,1079l-129.1-53.4c-12-4.9-26.2-1-32.8,9.2l-34.8,53.7c-7.1,12.4,5.2,26.6,20.6,23.7L1544.6,1079z"/>
	<path class="st16" d="M1451.3,1077.7h77.9c31.2,0,59.8,15.5,74.1,40.2c26,44.7,84.4,112.6,204.5,127.9l-39,77.6
		c0,0-128.6,46.8-272.4-45.8h-68.9c-56.4,0-111.3,16.4-156.2,46.7l-74.9,50.6c0,0-49.4-91.7,58.9-193.5
		c37.9-35.6,69.3-59.1,93.6-74.6C1378.8,1087.9,1414.6,1077.7,1451.3,1077.7z"/>
	<path class="st9" d="M1504.2,1106.5c34,58.5,124.8,160.7,281.9,180.8"/>
	<path class="st9" d="M1493.1,1109.7c32.7,59.9,129.2,165.9,288.1,186.3"/>
	<path class="st10" d="M1349,1106.1c29.9-18.9,65.7-29.1,102.4-29.1h91.8"/>
	<path class="st10" d="M1497.7,1279.8c-22.4-13.7-57.6-58.6-57.6-58.6"/>
	<path class="st10" d="M1806.3,1247.2l-38.3,76.9c0,0-128.6,46.8-272.4-45.8"/>
	<path class="st4" d="M454.7,934.5l131.8-24.4c31.5-5.8,62,15,70.1,47.9c9.6,38.9,25,90.4,52.9,90.4c41.8,0,97.1-96,97.1-96
		l65.1,45.2c0,0-71.1,164.5-158.5,168.2c-74.8,3.2-91.9-59.2-91.9-59.2v36.2l-209.6,43.9c0,0-22.7,93.3-51.6,122.9l-76.9-32.4
		c27.1-45.6,77.1-193.7,100.9-276.2C393.9,966.3,421.2,940.7,454.7,934.5z"/>
	<path class="st17" d="M454.7,934.5l131.8-24.4c31.5-5.8,62,15,70.1,47.9c9.6,38.9,25,90.4,52.9,90.4c41.8,0,97.1-96,97.1-96
		l65.1,45.2c0,0-71.1,164.5-158.5,168.2c-74.8,3.2-91.9-59.2-91.9-59.2v36.2l-209.6,43.9c0,0-22.7,93.3-51.6,122.9l-76.9-32.4
		c27.1-45.6,77.1-193.7,100.9-276.2C393.9,966.3,421.2,940.7,454.7,934.5z"/>
	<path class="st16" d="M621.3,1142.3v34.2c-21.5,7.4-51.5,14.7-85.3,18.3c-33.9,3.6-64.9,4.8-87.7,3.4s-37.2-5.2-37.7-11.7
		c-0.7-8.6,15.3-18.7,41-27.3c21-7,48.6-13,79.1-16.2C565.9,1139.3,598.2,1139.3,621.3,1142.3z"/>
	<line class="st17" x1="411.7" y1="1186" x2="445.6" y2="1080.2"/>
	<line class="st17" x1="621.3" y1="1106.5" x2="621.3" y2="1024.1"/>
	<path class="st16" d="M361.9,1308.9c-3.1,9-24.1,9.2-46.2,0.5c-22.1-8.7-37.6-23-34.4-32c3.1-9,25.1-10.8,47.3-2.2
		C350.7,1284,365.1,1299.9,361.9,1308.9z"/>
	<path class="st18" d="M802.4,954.9c3.3-6.8,40.2-54.1,53.4-53.8s-10.4,20.3,3.1,20.6c12.5,0.3,52.8-48.1,59.3-28.6
		c11,33.3-27.9,96.6-50.9,109.6C848.2,1013.6,789.5,981.4,802.4,954.9z"/>
	<path class="st10" d="M912.7,890.1c0,0-1.6,16.1-36.6,38.2"/>
	<path class="st10" d="M917.6,896.3c0,0-0.6,21.3-35.7,43.4"/>
	<path class="st10" d="M917.6,896.3c0,0,11.2,30.4-28.9,55.3"/>
	<path class="st10" d="M843.4,947.9c0,0,2.9,18.9-4.9,33.7"/>
	<path class="st18" d="M353.8,1314.4c0,0-40.7,50-97.2,44.1c-49.1-5.1-46.1-40.2-38.8-40.5c30.3-1,58.3-18.4,69.4-34.9
		C294.7,1272.1,353.8,1286.5,353.8,1314.4z"/>
	<path class="st10" d="M215.6,1331.3c0,0,28.5,8.9,50.1-7.8"/>
	<path class="st10" d="M224.9,1345.1c0,0,25.7,6.6,46.6-5.6"/>
	<path class="st10" d="M237.6,1352.6c0,0,25.3,11,44.9-3.5"/>
	<path class="st18" d="M621.3,1142.3v514.4H519.6v-240.3c-19.7,103.5-198.2,197.7-198.2,197.7l-49.9-94.2
		c0,0,135.3-59.8,162.8-210.5c6.1-33.3,10.8-77.2,14-111.2c1.5-15.9,2.6-29.6,3.3-39c21-7,48.6-13,79.1-16.2
		C565.9,1139.3,598.2,1139.3,621.3,1142.3z"/>
	<path class="st10" d="M476.6,1491.9c-10.6-9.1-12.1-27.5-3.1-42.8c9.6-16.3,27.5-22.9,40-14.6"/>
	<path class="st10" d="M619.6,1495.3c-13.5-1.2-24.6-15.6-25.2-33.6c-0.7-19.2,10.6-35.3,25.3-35.9"/>
	<path class="st12" d="M621.3,1142.3V1319c-122.5,20.5-186.9-9.5-186.9-9.5c6.1-33.3,10.8-77.2,14-111.2c1.5-15.9,2.6-29.6,3.3-39
		c21-7,48.6-13,79.1-16.2C565.9,1139.3,598.2,1139.3,621.3,1142.3z"/>
	<path class="st9" d="M519.6,1421.9c30.5-90.5,34.6-181,34.6-181"/>
	<path class="st19" d="M460.9,1315.8c8-43.8,14.3-101.6,18.4-146.3"/>
	<path class="st19" d="M453,1314.1c8-43.8,14.3-101.6,18.4-146.3"/>
	<path class="st11" d="M621.3,1142.3v34.2c-21.5,7.4-51.5,14.7-85.3,18.3c-33.9,3.6-64.9,4.8-87.7,3.4c1.5-15.9,2.6-29.6,3.3-39
		c21-7,48.6-13,79.1-16.2C565.9,1139.3,598.2,1139.3,621.3,1142.3z"/>
	<ellipse class="st4" cx="530.4" cy="1765.3" rx="10.8" ry="11.5"/>
	<ellipse class="st10" cx="530.4" cy="1765.3" rx="10.8" ry="11.5"/>
	<ellipse class="st4" cx="569.6" cy="1765.3" rx="10.8" ry="11.5"/>
	<ellipse class="st10" cx="569.6" cy="1765.3" rx="10.8" ry="11.5"/>
	<ellipse class="st4" cx="608.9" cy="1765.3" rx="10.8" ry="11.5"/>
	<ellipse class="st10" cx="608.9" cy="1765.3" rx="10.8" ry="11.5"/>
	<ellipse class="st4" cx="648.1" cy="1765.3" rx="10.8" ry="11.5"/>
	<ellipse class="st10" cx="648.1" cy="1765.3" rx="10.8" ry="11.5"/>
	<path class="st16" d="M659,1739.7v8.1H541.4c-12.1,0-21.9-10.4-21.9-23.2v-67.8h101.7c0,14.3-0.5,50.1,30.5,69.6
		C656.3,1729.1,659,1734.2,659,1739.7z"/>
	<path class="st10" d="M622.9,1670.4c5,0.7,7.8,1.9,7.8,3.8c0,2.6-8.8,3.7-24.2,3.7"/>
	<path class="st10" d="M625.4,1686.3c5.2,0.7,8,2.4,8,4.5c0,2.6-11.4,3.1-26.8,3.1"/>
	<path class="st10" d="M606.5,1710.1c0,0,32.9,2.4,32.9-4.4c0-2.9-4.8-3.9-8.6-4.3"/>
	<rect x="519.6" y="1635.6" class="st4" width="101.7" height="21.1"/>
	<ellipse class="st4" cx="187.7" cy="1583.2" rx="10.8" ry="11.5"/>
	<ellipse class="st10" cx="187.7" cy="1583.2" rx="10.8" ry="11.5"/>
	<ellipse class="st4" cx="207" cy="1619.5" rx="10.8" ry="11.5"/>
	<ellipse class="st10" cx="207" cy="1619.5" rx="10.8" ry="11.5"/>
	<ellipse class="st4" cx="226.2" cy="1655.9" rx="10.8" ry="11.5"/>
	<ellipse class="st10" cx="226.2" cy="1655.9" rx="10.8" ry="11.5"/>
	<ellipse class="st4" cx="245.4" cy="1692.2" rx="10.8" ry="11.5"/>
	<ellipse class="st10" cx="245.4" cy="1692.2" rx="10.8" ry="11.5"/>
	<path class="st16" d="M271.8,1689.7l-6.6,3.9l-57.6-108.8c-5.9-11.2-2.2-25.4,8.4-31.7l55.6-33.2l49.9,94.2
		c-11.7,7-41.4,24.1-42.1,62.3C279.2,1682,276.3,1687,271.8,1689.7z"/>
	<path class="st10" d="M310.2,1622.5c1.9,5,2.1,8.9,0.5,9.9c-2.2,1.3-7.3-6.3-14.9-20.6"/>
	<path class="st10" d="M297.6,1633.9c2.5,5.8,2.9,9.8,1.1,10.9c-2.2,1.3-8.6-8.7-16.1-23.1"/>
	<path class="st10" d="M268.6,1630.3c0,0,14.1,31.1,19.7,27.8c2.5-1.5,0.7-6.1-0.9-9.7"/>
	<polygon class="st4" points="271.5,1519.9 295.8,1506.6 347.3,1600 321.9,1614.7 	"/>
	<path class="st14" d="M552,850.8c0,20.1-17.9,34.1-36.9,34.1c-15.5,0-29.2-11.1-33.2-27c-6.3,17.4-24.6,26-40.9,19.4
		c-5.4-2.2-10.2-6-13.8-10.9c-3.3,32.3-30.6,55.7-61,52.2c-30.4-3.5-52.4-32.5-49.1-64.9c3.3-32.3,30.6-55.7,61-52.2
		c19.2,2.2,36,14.9,44.2,33.5c5.6-17.6,23.6-27.1,40.2-21.1c9.8,3.5,17.4,11.9,20.3,22.5c4.9-14.5,17.9-24.2,32.4-24.2
		C534.1,812.3,552,830.8,552,850.8z"/>
	<ellipse class="st14" cx="293.8" cy="866.8" rx="14.5" ry="15.4"/>
	<path class="st11" d="M489.1,863.2c-1,0-1.8-0.8-1.8-1.9v-26.2c0-1,0.8-1.9,1.8-1.9c1,0,1.8,0.8,1.8,1.9v26.2
		C490.9,862.4,490.1,863.2,489.1,863.2z"/>
	<path class="st18" d="M506.3,882.5l-15.1,44.9c0,0,5.3,19.3,36.3,17.6c31-1.7,27.5-29,27.5-29v-16.8L517.3,882L506.3,882.5z"/>
	<path class="st11" d="M555.1,905l-62.3,25.8c-0.6-1-1.1-2.2-1.5-3.3l15.1-44.9l11-0.5l37.7,16.9v0.2L555.1,905z"/>
	<path class="st18" d="M543.6,905.2c-11.5,0.5-22.6-9-27.1-22.7h-10.7c-6.1,0-11-5.2-11-11.7c0-6.4,4.9-11.7,11-11.7h10v0
		c0.3,0,0.7,0,1,0c13.9,0,29.2-15.8,29.2-23.1c11.4,3.2,16.2,16.3,16.9,33C563.8,888.3,558,904.5,543.6,905.2z"/>
	<path class="st10" d="M512.7,872.3c0-4.2-3.2-7.6-7.2-7.6"/>
	<ellipse class="st11" cx="534.9" cy="874.2" rx="2.1" ry="3.3"/>
	<ellipse class="st11" cx="557.2" cy="874.2" rx="1.9" ry="3"/>
	<path class="st10" d="M526.2,865.2c0,0,4.6-5,14.1-3.8"/>
	<path class="st10" d="M562.8,860.1c0,0-13.7,0-13.3,24.7"/>
</g>
</svg>
