<?xml version="1.0" encoding="utf-8"?>
<!-- Generator: Adobe Illustrator 21.1.0, SVG Export Plug-In . SVG Version: 6.00 Build 0)  -->
<svg version="1.1" id="Layer_1" xmlns="http://www.w3.org/2000/svg" xmlns:xlink="http://www.w3.org/1999/xlink" x="0px" y="0px"
	 viewBox="0 0 519.9 490.9" style="enable-background:new 0 0 519.9 490.9;" xml:space="preserve">
<style type="text/css">
	.st0{opacity:0.24;fill:#ABAD23;enable-background:new    ;}
	.st1{fill:#ABAD23;}
	.st2{opacity:0.65;fill:url(#SVGID_1_);enable-background:new    ;}
	.st3{opacity:0.65;fill:url(#SVGID_2_);enable-background:new    ;}
	.st4{fill:url(#SVGID_3_);}
	.st5{opacity:0.65;fill:url(#SVGID_4_);enable-background:new    ;}
	.st6{fill:#606161;}
	.st7{fill:url(#SVGID_5_);}
	.st8{fill:url(#SVGID_6_);}
	.st9{fill:url(#SVGID_7_);}
	.st10{fill:url(#SVGID_8_);}
	.st11{fill:url(#SVGID_9_);}
	.st12{fill:url(#SVGID_10_);}
	.st13{fill:url(#SVGID_11_);}
	.st14{fill:url(#SVGID_12_);}
	.st15{fill:url(#SVGID_13_);}
	.st16{fill:url(#SVGID_14_);}
	.st17{fill:#F0DECD;}
	.st18{fill:url(#SVGID_15_);}
	.st19{fill:url(#SVGID_16_);}
	.st20{fill:#F2FBFF;}
	.st21{fill:url(#SVGID_17_);}
</style>
<title>Recycle 3</title>
<path class="st0" d="M106.3,113.9c-26.5,32.4-67.8,51.4-90.2,86.8C1.4,224.2-3.5,252.5,2.5,279.6c4,17.5,12.4,33.8,16.4,51.4
	c9.2,40.1-4.6,86.1,17.6,120.7c25.2,39.4,81.1,41.1,127.8,38.5L379.6,478c14.3-0.8,28.7-1.6,42.7-4.9c45.6-10.5,83.8-48.5,94.5-94.1
	c7.7-32.5,1.2-69-20.8-94c-9.4-10.7-21.4-19.2-28.8-31.5c-16.7-27.8-4-63.2-5.7-95.6c-1.8-35-22.2-68.5-52.5-86
	c-31.3-18.1-68.4-19.2-102.3-29.6c-26.1-8-48.6-25.5-74.5-33C164.1-10.2,139.4,73.4,106.3,113.9z"/>
<path class="st1" d="M217.2,62c-9.6-18-26.9-30.9-45.2-39.9S133.9,7.4,114.8,0c1.1,21.9,2.9,44,9.2,65s17.3,41.1,34.3,55.1
	c7.8,6.5,17.2,11.6,27.4,12.1C223.4,133.8,231.3,88.4,217.2,62z"/>
<path class="st1" d="M271.1,90.9c12.9-10,29.1-14.7,45.1-17.8c-5.6,10.3-10,21.2-13.2,32.5c-1.8,6.6-3.3,13.3-6.1,19.5
	c-2.8,6.2-7.2,12-13.5,14.8c-10.1,4.6-31.6,4-32.5-10.4C250.1,114.6,259.7,99.8,271.1,90.9z"/>
<linearGradient id="SVGID_1_" gradientUnits="userSpaceOnUse" x1="139.23" y1="424.1789" x2="248.1086" y2="424.1789" gradientTransform="matrix(1 0 0 -1 -24.39 490.28)">
	<stop  offset="0" style="stop-color:#FFFFFF;stop-opacity:0"/>
	<stop  offset="7.000000e-02" style="stop-color:#FFFFFF;stop-opacity:0.22"/>
	<stop  offset="0.16" style="stop-color:#FFFFFF;stop-opacity:0.45"/>
	<stop  offset="0.25" style="stop-color:#FFFFFF;stop-opacity:0.65"/>
	<stop  offset="0.33" style="stop-color:#FFFFFF;stop-opacity:0.8"/>
	<stop  offset="0.4" style="stop-color:#FFFFFF;stop-opacity:0.91"/>
	<stop  offset="0.46" style="stop-color:#FFFFFF;stop-opacity:0.98"/>
	<stop  offset="0.51" style="stop-color:#FFFFFF"/>
	<stop  offset="0.56" style="stop-color:#FFFFFF;stop-opacity:0.98"/>
	<stop  offset="0.62" style="stop-color:#FFFFFF;stop-opacity:0.91"/>
	<stop  offset="0.69" style="stop-color:#FFFFFF;stop-opacity:0.8"/>
	<stop  offset="0.76" style="stop-color:#FFFFFF;stop-opacity:0.65"/>
	<stop  offset="0.84" style="stop-color:#FFFFFF;stop-opacity:0.46"/>
	<stop  offset="0.93" style="stop-color:#FFFFFF;stop-opacity:0.23"/>
	<stop  offset="1" style="stop-color:#FFFFFF;stop-opacity:0"/>
</linearGradient>
<path class="st2" d="M217.2,62c-9.6-18-26.9-30.9-45.2-39.9S133.9,7.4,114.8,0c1.1,21.9,2.9,44,9.2,65s17.3,41.1,34.3,55.1
	c7.8,6.5,17.2,11.6,27.4,12.1C223.4,133.8,231.3,88.4,217.2,62z"/>
<linearGradient id="SVGID_2_" gradientUnits="userSpaceOnUse" x1="275.3375" y1="382.4695" x2="340.62" y2="382.4695" gradientTransform="matrix(1 0 0 -1 -24.39 490.28)">
	<stop  offset="0" style="stop-color:#FFFFFF;stop-opacity:0"/>
	<stop  offset="7.000000e-02" style="stop-color:#FFFFFF;stop-opacity:0.22"/>
	<stop  offset="0.16" style="stop-color:#FFFFFF;stop-opacity:0.45"/>
	<stop  offset="0.25" style="stop-color:#FFFFFF;stop-opacity:0.65"/>
	<stop  offset="0.33" style="stop-color:#FFFFFF;stop-opacity:0.8"/>
	<stop  offset="0.4" style="stop-color:#FFFFFF;stop-opacity:0.91"/>
	<stop  offset="0.46" style="stop-color:#FFFFFF;stop-opacity:0.98"/>
	<stop  offset="0.51" style="stop-color:#FFFFFF"/>
	<stop  offset="0.56" style="stop-color:#FFFFFF;stop-opacity:0.98"/>
	<stop  offset="0.62" style="stop-color:#FFFFFF;stop-opacity:0.91"/>
	<stop  offset="0.69" style="stop-color:#FFFFFF;stop-opacity:0.8"/>
	<stop  offset="0.76" style="stop-color:#FFFFFF;stop-opacity:0.65"/>
	<stop  offset="0.84" style="stop-color:#FFFFFF;stop-opacity:0.46"/>
	<stop  offset="0.93" style="stop-color:#FFFFFF;stop-opacity:0.23"/>
	<stop  offset="1" style="stop-color:#FFFFFF;stop-opacity:0"/>
</linearGradient>
<path class="st3" d="M271.1,90.9c12.9-10,29.1-14.7,45.1-17.8c-5.6,10.3-10,21.2-13.2,32.5c-1.8,6.6-3.3,13.3-6.1,19.5
	c-2.8,6.2-7.2,12-13.5,14.8c-10.1,4.6-31.6,4-32.5-10.4C250.1,114.6,259.7,99.8,271.1,90.9z"/>
<polygon class="st1" points="159.3,157.2 318.7,156.1 308.4,167 323,179 148.1,179 175.8,169.4 "/>
<linearGradient id="SVGID_3_" gradientUnits="userSpaceOnUse" x1="216.1328" y1="246.7492" x2="269.9228" y2="430.4792" gradientTransform="matrix(1 0 0 -1 0 492)">
	<stop  offset="0" style="stop-color:#010101;stop-opacity:0"/>
	<stop  offset="0.95" style="stop-color:#010101"/>
</linearGradient>
<polygon class="st4" points="323,179 148.1,179 175.8,169.5 159.3,157.2 220.6,156.8 239.1,156.6 318.7,156.1 308.4,167 "/>
<path class="st1" d="M131.6,374.2l20.3-77.9L148.1,179H323l-8,106.6c0,0,18.1,88.5,18.1,91.7S131.6,374.2,131.6,374.2z"/>
<linearGradient id="SVGID_4_" gradientUnits="userSpaceOnUse" x1="155.94" y1="211.6234" x2="357.47" y2="211.6234" gradientTransform="matrix(1 0 0 -1 -24.39 490.28)">
	<stop  offset="0" style="stop-color:#FFFFFF;stop-opacity:0"/>
	<stop  offset="7.000000e-02" style="stop-color:#FFFFFF;stop-opacity:0.22"/>
	<stop  offset="0.16" style="stop-color:#FFFFFF;stop-opacity:0.45"/>
	<stop  offset="0.25" style="stop-color:#FFFFFF;stop-opacity:0.65"/>
	<stop  offset="0.33" style="stop-color:#FFFFFF;stop-opacity:0.8"/>
	<stop  offset="0.4" style="stop-color:#FFFFFF;stop-opacity:0.91"/>
	<stop  offset="0.46" style="stop-color:#FFFFFF;stop-opacity:0.98"/>
	<stop  offset="0.51" style="stop-color:#FFFFFF"/>
	<stop  offset="0.56" style="stop-color:#FFFFFF;stop-opacity:0.98"/>
	<stop  offset="0.62" style="stop-color:#FFFFFF;stop-opacity:0.91"/>
	<stop  offset="0.69" style="stop-color:#FFFFFF;stop-opacity:0.8"/>
	<stop  offset="0.76" style="stop-color:#FFFFFF;stop-opacity:0.65"/>
	<stop  offset="0.84" style="stop-color:#FFFFFF;stop-opacity:0.46"/>
	<stop  offset="0.93" style="stop-color:#FFFFFF;stop-opacity:0.23"/>
	<stop  offset="1" style="stop-color:#FFFFFF;stop-opacity:0"/>
</linearGradient>
<path class="st5" d="M131.6,374.2l20.3-77.9L148.1,179H323l-8,106.6c0,0,18.1,88.5,18.1,91.7S131.6,374.2,131.6,374.2z"/>
<polygon class="st1" points="159.3,157.2 158.5,175.4 175.8,169.4 "/>
<polygon class="st1" points="318.7,156.1 319.4,176.4 308.4,167 "/>
<path class="st6" d="M284.4,107.7c-7.2,13.7-21.5,21.7-33.4,31.6c-4.8,4-8.9,10.3-11.9,17.3c-3,7.1-4.6,14.7-4.5,22.4h-13.3
	c-0.3-7.3,0-17.7-0.7-22.3c0-0.2,0-0.5-0.1-0.7c-2.3-12-8.6-26.8-14.9-37.2c-10.3-17-19.4-31.2-33.6-45c30.4,16,49.8,58.8,55.9,79.8
	C246.1,135.7,265.5,123,284.4,107.7z"/>
<linearGradient id="SVGID_5_" gradientUnits="userSpaceOnUse" x1="250.7343" y1="330.9196" x2="249.6843" y2="291.0296" gradientTransform="matrix(1 0 0 -1 -24.39 490.28)">
	<stop  offset="0" style="stop-color:#010101;stop-opacity:0"/>
	<stop  offset="0.95" style="stop-color:#010101"/>
</linearGradient>
<path class="st7" d="M284.4,107.7c-7.2,13.7-21.5,21.7-33.4,31.6c-4.8,4-8.9,10.3-11.9,17.3c-3,7.1-4.6,14.7-4.5,22.4h-13.3
	c-0.3-7.3,0-17.7-0.7-22.3c0-0.2,0-0.5-0.1-0.7c-2.3-12-8.6-26.8-14.9-37.2c-10.3-17-19.4-31.2-33.6-45c30.4,16,49.8,58.8,55.9,79.8
	C246.1,135.7,265.5,123,284.4,107.7z"/>
<path class="st1" d="M204.5,255l18,10.8c0,0,13.6-29.3,20.5-30.9c0,0-18.7-2.6-23.4-0.8S204.5,255,204.5,255z"/>
<path class="st1" d="M233.2,248.3c1.4,0,2.8,0.8,3.5,2.1c1,2.1,3.1,6.3,3.1,6.3l-5.9,3.8l20.8,0.9l9.5-17.9l-5.9,2.2
	c0,0-6.4-12.3-13.6-10C239.1,237.3,233.2,248.3,233.2,248.3z"/>
<path class="st1" d="M272,264.3L254,275c0,0,19.3,25.9,17.4,32.7c0,0,11.2-15.2,11.9-20.2S272,264.3,272,264.3z"/>
<path class="st1" d="M264.3,292.7c-0.7,1.3-2,2-3.5,2.1c-2.3-0.1-7-0.3-7-0.3l-0.5-7l-10.6,17.8l11.2,16.8l0.9-6.2
	c0,0,13.9,0.2,15.3-7.2C271.2,303.1,264.3,292.7,264.3,292.7z"/>
<path class="st1" d="M226.4,320.1l1.8-20.8c0,0-32.3,0.6-36.7-4.9c0,0,5.8,17.9,9.5,21.4S226.4,320.1,226.4,320.1z"/>
<path class="st1" d="M204.5,255l18,10.8c0,0,13.6-29.3,20.5-30.9c0,0-18.7-2.6-23.4-0.8S204.5,255,204.5,255z"/>
<path class="st1" d="M272,264.3L254,275c0,0,19.3,25.9,17.4,32.7c0,0,11.2-15.2,11.9-20.2S272,264.3,272,264.3z"/>
<path class="st1" d="M226.4,320.1l1.8-20.8c0,0-32.3,0.6-36.7-4.9c0,0,5.8,17.9,9.5,21.4S226.4,320.1,226.4,320.1z"/>
<path class="st1" d="M207.9,297.3c-0.6-1.3-0.5-2.8,0.3-4c1.4-1.8,4.3-5.5,4.3-5.5l6,3.7l-8.3-19l-20.2-0.7l4.6,4.2
	c0,0-8.3,11.1-3.1,16.6C195.5,296.8,207.9,297.3,207.9,297.3z"/>
<path class="st1" d="M233.2,248.3c1.4,0,2.8,0.8,3.5,2.1c1,2.1,3.1,6.3,3.1,6.3l-5.9,3.8l20.8,0.9l9.5-17.9l-5.9,2.2
	c0,0-6.4-12.3-13.6-10C239.1,237.3,233.2,248.3,233.2,248.3z"/>
<path class="st1" d="M264.3,292.7c-0.7,1.3-2,2-3.5,2.1c-2.3-0.1-7-0.3-7-0.3l-0.5-7l-10.6,17.8l11.2,16.8l0.9-6.2
	c0,0,13.9,0.2,15.3-7.2C271.2,303.1,264.3,292.7,264.3,292.7z"/>
<path class="st1" d="M207.9,297.3c-0.6-1.3-0.5-2.8,0.3-4c1.4-1.8,4.3-5.5,4.3-5.5l6,3.7l-8.3-19l-20.2-0.7l4.6,4.2
	c0,0-8.3,11.1-3.1,16.6C195.5,296.8,207.9,297.3,207.9,297.3z"/>
<path class="st1" d="M233.2,248.3c1.4,0,2.8,0.8,3.5,2.1c1,2.1,3.1,6.3,3.1,6.3l-5.9,3.8l20.8,0.9l9.5-17.9l-5.9,2.2
	c0,0-6.4-12.3-13.6-10C239.1,237.3,233.2,248.3,233.2,248.3z"/>
<path class="st1" d="M264.3,292.7c-0.7,1.3-2,2-3.5,2.1c-2.3-0.1-7-0.3-7-0.3l-0.5-7l-10.6,17.8l11.2,16.8l0.9-6.2
	c0,0,13.9,0.2,15.3-7.2C271.2,303.1,264.3,292.7,264.3,292.7z"/>
<path class="st1" d="M207.9,297.3c-0.6-1.3-0.5-2.8,0.3-4c1.4-1.8,4.3-5.5,4.3-5.5l6,3.7l-8.3-19l-20.2-0.7l4.6,4.2
	c0,0-8.3,11.1-3.1,16.6C195.5,296.8,207.9,297.3,207.9,297.3z"/>
<linearGradient id="SVGID_6_" gradientUnits="userSpaceOnUse" x1="229.38" y1="243.0986" x2="267.84" y2="243.0986" gradientTransform="matrix(1 0 0 -1 -24.39 490.28)">
	<stop  offset="0" style="stop-color:#FFFFFF;stop-opacity:0"/>
	<stop  offset="0.95" style="stop-color:#FFFFFF"/>
</linearGradient>
<path class="st8" d="M205,252.6l18,10.8c0,0,13.6-29.3,20.5-30.9c0,0-18.7-2.6-23.4-0.8S205,252.6,205,252.6z"/>
<path class="st1" d="M233.7,245.9c1.4,0,2.7,0.8,3.5,2c1,2.1,3.1,6.3,3.1,6.3l-5.9,3.8l20.7,0.9l9.5-17.9l-5.9,2.2
	c0,0-6.4-12.3-13.6-10C239.5,234.9,233.7,245.9,233.7,245.9z"/>
<linearGradient id="SVGID_7_" gradientUnits="userSpaceOnUse" x1="278.89" y1="206.7" x2="308.1987" y2="206.7" gradientTransform="matrix(1 0 0 -1 -24.39 490.28)">
	<stop  offset="0" style="stop-color:#FFFFFF;stop-opacity:0"/>
	<stop  offset="0.95" style="stop-color:#FFFFFF"/>
</linearGradient>
<path class="st9" d="M272.5,261.9l-18,10.7c0,0,19.3,25.9,17.4,32.7c0,0,11.2-15.2,11.9-20.2S272.5,261.9,272.5,261.9z"/>
<path class="st1" d="M264.7,290.3c-0.7,1.2-2,2-3.5,2.1c-2.3-0.1-7-0.3-7-0.3l-0.5-7l-10.6,17.8l11.2,16.8l0.9-6.3
	c0,0,13.9,0.2,15.3-7.2C271.6,300.7,264.7,290.3,264.7,290.3z"/>
<path class="st1" d="M226.9,317.7l1.8-20.9c0,0-32.3,0.6-36.7-4.9c0,0,5.8,18,9.5,21.4S226.9,317.7,226.9,317.7z"/>
<linearGradient id="SVGID_8_" gradientUnits="userSpaceOnUse" x1="229.38" y1="243.0986" x2="267.84" y2="243.0986" gradientTransform="matrix(1 0 0 -1 -24.39 490.28)">
	<stop  offset="0" style="stop-color:#FFFFFF;stop-opacity:0"/>
	<stop  offset="0.95" style="stop-color:#FFFFFF"/>
</linearGradient>
<path class="st10" d="M205,252.6l18,10.8c0,0,13.6-29.3,20.5-30.9c0,0-18.7-2.6-23.4-0.8S205,252.6,205,252.6z"/>
<linearGradient id="SVGID_9_" gradientUnits="userSpaceOnUse" x1="293.4045" y1="215.8408" x2="294.6945" y2="177.8508" gradientTransform="matrix(1 0 0 -1 -24.39 490.28)">
	<stop  offset="0" style="stop-color:#FFFFFF;stop-opacity:0"/>
	<stop  offset="0.95" style="stop-color:#FFFFFF"/>
</linearGradient>
<path class="st11" d="M272.5,261.9l-18,10.7c0,0,19.3,25.9,17.4,32.7c0,0,11.2-15.2,11.9-20.2S272.5,261.9,272.5,261.9z"/>
<linearGradient id="SVGID_10_" gradientUnits="userSpaceOnUse" x1="273.69" y1="201.1895" x2="520.68" y2="208.0395" gradientTransform="matrix(1 0 0 -1 -24.39 490.28)">
	<stop  offset="0" style="stop-color:#010101;stop-opacity:0"/>
	<stop  offset="0.95" style="stop-color:#010101"/>
</linearGradient>
<path class="st12" d="M268.1,266.7c2.6,3.2,6.3,5.4,9.5,8c0.6,0.4,1.1,0.9,1.5,1.6c0.6,1.1,0.5,2.5,0.6,3.7c0.3,2.9,2.2,5.4,4,7.7
	l17.4,21.9c2.2,3.1,4.8,5.8,7.7,8.3c1.9,1.5,4,2.7,6.4,2.6c0.6,0,1.2-0.2,1.7-0.7c0.2-0.4,0.3-0.9,0.3-1.3c0.3-5,0.4-9.9,0.4-14.9
	c0.1-0.5-0.2-0.9-0.7-1c0,0,0,0-0.1,0c-2.7-1-5.4-2.1-7.9-3.4c-2.3-1-4.4-2.4-6.2-4.1c-1.6-1.8-3-3.9-4-6.1
	c-3.7-7-8.2-13.7-13.4-19.7c-4.1-4.7-9-8.8-14.5-11.9c-0.9-0.5-3.1-2.1-4.2-2c-1.3,0.1-1.4,1.9-1.5,3.1
	C265.1,261.5,266.1,264.4,268.1,266.7z"/>
<linearGradient id="SVGID_11_" gradientUnits="userSpaceOnUse" x1="233.4827" y1="208.6903" x2="237.7527" y2="166.6403" gradientTransform="matrix(1 0 0 -1 -24.39 490.28)">
	<stop  offset="0" style="stop-color:#FFFFFF;stop-opacity:0"/>
	<stop  offset="0.95" style="stop-color:#FFFFFF"/>
</linearGradient>
<path class="st13" d="M226.9,317.7l1.8-20.9c0,0-32.3,0.6-36.7-4.9c0,0,5.8,18,9.5,21.4S226.9,317.7,226.9,317.7z"/>
<path class="st1" d="M208.4,294.8c-0.6-1.3-0.5-2.8,0.3-4c1.4-1.8,4.3-5.5,4.3-5.5l6,3.7l-8.3-19l-20.2-0.7l4.6,4.4
	c0,0-8.3,11.1-3,16.6C195.9,294.3,208.4,294.8,208.4,294.8z"/>
<path class="st1" d="M233.7,245.9c1.4,0,2.7,0.8,3.5,2c1,2.1,3.1,6.3,3.1,6.3l-5.9,3.8l20.7,0.9l9.5-17.9l-5.9,2.2
	c0,0-6.4-12.3-13.6-10C239.5,234.9,233.7,245.9,233.7,245.9z"/>
<path class="st1" d="M264.7,290.3c-0.7,1.2-2,2-3.5,2.1c-2.3-0.1-7-0.3-7-0.3l-0.5-7l-10.6,17.8l11.2,16.8l0.9-6.3
	c0,0,13.9,0.2,15.3-7.2C271.6,300.7,264.7,290.3,264.7,290.3z"/>
<path class="st1" d="M208.4,294.8c-0.6-1.3-0.5-2.8,0.3-4c1.4-1.8,4.3-5.5,4.3-5.5l6,3.7l-8.3-19l-20.2-0.7l4.6,4.4
	c0,0-8.3,11.1-3,16.6C195.9,294.3,208.4,294.8,208.4,294.8z"/>
<linearGradient id="SVGID_12_" gradientUnits="userSpaceOnUse" x1="261.0916" y1="266.4458" x2="312.7416" y2="162.2758" gradientTransform="matrix(1 0 0 -1 -24.39 490.28)">
	<stop  offset="0" style="stop-color:#010101;stop-opacity:0"/>
	<stop  offset="0.95" style="stop-color:#010101"/>
</linearGradient>
<path class="st14" d="M233.7,245.9c1.4,0,2.7,0.8,3.5,2c1,2.1,3.1,6.3,3.1,6.3l-5.9,3.8l20.7,0.9l9.5-17.9l-5.9,2.2
	c0,0-6.4-12.3-13.6-10C239.5,234.9,233.7,245.9,233.7,245.9z"/>
<linearGradient id="SVGID_13_" gradientUnits="userSpaceOnUse" x1="251.3134" y1="182.6947" x2="463.4933" y2="223.2547" gradientTransform="matrix(1 0 0 -1 -24.39 490.28)">
	<stop  offset="0" style="stop-color:#010101;stop-opacity:0"/>
	<stop  offset="0.95" style="stop-color:#010101"/>
</linearGradient>
<path class="st15" d="M264.7,290.3c-0.7,1.2-2,2-3.5,2.1c-2.3-0.1-7-0.3-7-0.3l-0.5-7l-10.6,17.8l11.2,16.8l0.9-6.3
	c0,0,13.9,0.2,15.3-7.2C271.6,300.7,264.7,290.3,264.7,290.3z"/>
<linearGradient id="SVGID_14_" gradientUnits="userSpaceOnUse" x1="242.1124" y1="234.4776" x2="178.9324" y2="120.9175" gradientTransform="matrix(1 0 0 -1 -24.39 490.28)">
	<stop  offset="0" style="stop-color:#010101;stop-opacity:0"/>
	<stop  offset="0.95" style="stop-color:#010101"/>
</linearGradient>
<path class="st16" d="M208.4,294.8c-0.6-1.3-0.5-2.8,0.3-4c1.4-1.8,4.3-5.5,4.3-5.5l6,3.7l-8.3-19l-20.2-0.7l4.6,4.4
	c0,0-8.3,11.1-3,16.6C195.9,294.3,208.4,294.8,208.4,294.8z"/>
<path class="st17" d="M374.1,438.6l11.2,18.7c4.6-1.1,7.8-5.4,7.5-10.1l-9.7-18"/>
<path class="st17" d="M385.2,457.4c0,0-3.1,13.5-7.5,15.1s6.2-0.5,8.3-2.6s5.1-16.6,5.1-16.6"/>
<path class="st17" d="M299.8,443.6l-1.6,19.7c4,1.6,8.6,0.1,10.9-3.5l2.3-18.3"/>
<path class="st17" d="M298.2,463.3c0,0-11.9,10.8-16,9.7c-4.1-1.1,7.4,0.4,10-0.1s15.8-8.4,15.8-8.4"/>
<path class="st17" d="M316.6,198.1c-0.1,1-0.9,13.1,0.1,18.2c1,5.1,4.3,12.1,8.5,11.2c4.2-1,6.1-2.4,6.1,0c-0.1,2.4-0.4,4.7-0.9,7
	c0,0,5.2,3.7,9.8,2.3c2.6-0.7,4.7-2.6,5.6-5.2c0,0-2.3-2.8-1.5-10.3c0.9-7.5,7.8-23.9-2-31.8C336.3,184.8,317.7,183.9,316.6,198.1z"
	/>
<path class="st17" d="M292.3,265.8c0,0-2.4-9.2-5.5-11.3s-4.2-3.6-4.9-3s0.6,2.6,0.6,2.6s2.3,2.2,0.7,2.5
	c-1.6,0.3-12.9-6.9-16.1-6.6s-1.2,5-2.1,7.1s7.1,7.7,10.3,9.5s7.5,4.9,9.5,6S292.4,268.5,292.3,265.8z"/>
<path class="st6" d="M366.8,327.8l-2.8,45.4l27.9,69.3c0,0,1.1,6.6-12.4,8.7l-37.1-73.5l-7.6-56.4"/>
<linearGradient id="SVGID_15_" gradientUnits="userSpaceOnUse" x1="401.8498" y1="108.8809" x2="372.4398" y2="101.6209" gradientTransform="matrix(1 0 0 -1 -24.39 490.28)">
	<stop  offset="0" style="stop-color:#010101;stop-opacity:0"/>
	<stop  offset="0.95" style="stop-color:#010101"/>
</linearGradient>
<path class="st18" d="M366.8,327.8l-2.8,45.4l27.9,69.3c0,0,1.1,6.6-12.4,8.7l-37.1-73.5l-7.6-56.4"/>
<path class="st6" d="M317.3,323.5l-21.9,132.2c0,0,4.5,5.2,18,2.1l12.6-59.1l29.5-68.9C355.6,329.9,336.1,312,317.3,323.5z"/>
<linearGradient id="SVGID_16_" gradientUnits="userSpaceOnUse" x1="356.5699" y1="99.0294" x2="314.6599" y2="105.0794" gradientTransform="matrix(1 0 0 -1 -24.39 490.28)">
	<stop  offset="0" style="stop-color:#010101;stop-opacity:0"/>
	<stop  offset="0.95" style="stop-color:#010101"/>
</linearGradient>
<path class="st19" d="M317.3,323.5l-21.9,132.2c0,0,4.5,5.2,18,2.1l12.6-59.1l29.5-68.9C355.6,329.9,336.1,312,317.3,323.5z"/>
<path class="st1" d="M338.6,231.7c0,0-8.8,0.9-12.3,5.5c-5.7,7.4-16.2,49.9-16.2,49.9l-17.7-21.3c0,0-9.3-1.1-9.8,9.6
	c0,0,20.3,27.7,28.2,33.9c7.9,6.2,17.8-5.2,20.3-11.5c2.5-6.3,9.6-43.6,9.6-43.6S344.4,233.1,338.6,231.7z"/>
<path class="st1" d="M350,234.6c8.2,10.2,15.8,83,17.9,87.7c0,0-13.7,5.7-34.8,7.1c-5.8,0.3-11.6-0.3-17.2-1.8
	c0,0,9.1-60.6,9.4-69.1s4.1-24,4.1-24S343.5,226.5,350,234.6z"/>
<path class="st20" d="M316.6,327.8c0,0-3.3,8.5-2.5,8.8c0.8,0.3,9.1-4.3,11.7-2.8s10.1,9.4,20.2,11.4c10.1,2,20.4-5.9,20.8-11.7
	c0.4-5.8,1.1-11.3,1.1-11.3S322.9,330.7,316.6,327.8z"/>
<linearGradient id="SVGID_17_" gradientUnits="userSpaceOnUse" x1="348.118" y1="168.3502" x2="357.788" y2="294.3701" gradientTransform="matrix(1 0 0 -1 -24.39 490.28)">
	<stop  offset="0" style="stop-color:#010101;stop-opacity:0"/>
	<stop  offset="0.95" style="stop-color:#010101"/>
</linearGradient>
<path class="st21" d="M332.3,267c0,0-7.4,35.7-9.4,39.7c-2,4-4.6,3.9-4.6,3.9l-2.1,17.7l14.1,0.4L332.3,267z"/>
<path class="st6" d="M312.5,194.2c-0.9,3.1-0.6,7.1,2.2,8.8c1.5,0.9,3.4,0.9,5.1,0.8c2.1-0.1,4.6-0.4,5.5-2.3l0.4,2.7l6.2-0.1
	c4.3,4.9-2.4,13.5,1.5,18.7c1.2,1.6,3.4,2.8,3.1,4.8c-0.2,0.9-0.7,1.8-1.3,2.5c-2.4,3.8-1.3,8.9,2.5,11.3c2.3,1.4,5.1,1.7,7.6,0.6
	c0.6-0.4,1.3-0.6,2.1-0.7c1.7-0.2,3.1,1.4,3.8,3s1,3.4,2.1,4.7c2.4,2.9,6.9,2,10.4,0.8c1.2-0.3,2.4-1,3.3-1.9
	c0.9-1.2,1.4-2.8,1.1-4.4c-0.3-4.2-3-7.8-5.2-11.4s-4.3-7.7-3.5-11.8c0.5-2.4,2-4.6,2.7-6.9c0.8-3.2,0-6.5-2.2-9
	c-2.2-2.5-5.9-4-7.1-7.1c-1.2-3,0.1-6.6-1.3-9.5c-1.2-2.7-4.5-4-7.4-4c-1.5,0.1-2.9,0-4.4-0.3c-0.9-0.4-1.8-0.9-2.6-1.5
	C327.7,176.1,315.1,184.6,312.5,194.2z"/>
<path class="st0" d="M105.7,454.1c-7.1,0.6-15.4,2-18.8,8.3c-3.5,6.6,0.9,15.2,7.5,18.9s14.5,3.6,22,3.4l287.7-5.5
	c25.9-0.5,56.3-3.4,69.9-25.5c2.1-3.4,3.6-7.5,2.3-11.2c-2-5.5-9.1-6.9-14.9-7.4c-57.8-4.9-125.8-10.5-182.1,5.9
	C225.4,456.6,162,449.4,105.7,454.1z"/>
</svg>
