<?xml version="1.0" encoding="utf-8"?>
<!-- Generator: Adobe Illustrator 21.1.0, SVG Export Plug-In . SVG Version: 6.00 Build 0)  -->
<svg version="1.1" id="Layer_1" xmlns="http://www.w3.org/2000/svg" xmlns:xlink="http://www.w3.org/1999/xlink" x="0px" y="0px"
	 viewBox="0 0 417.8 388.7" style="enable-background:new 0 0 417.8 388.7;" xml:space="preserve">
<style type="text/css">
	.st0{opacity:0.18;fill:#ABAD23;enable-background:new    ;}
	.st1{fill:#ABAD23;}
	.st2{fill:url(#SVGID_1_);}
	.st3{fill:url(#SVGID_2_);}
	.st4{fill:url(#SVGID_3_);}
	.st5{fill:#FAAF90;}
	.st6{fill:#3E3E54;}
	.st7{fill:url(#SVGID_4_);}
	.st8{fill:url(#SVGID_5_);}
</style>
<title>Save the Earthsvg</title>
<path class="st0" d="M413.1,297c-3.3,14-8.1,27.9-16.6,39.5c-12.9,17.7-33.1,28.4-53.4,36.7c-16.7,6.8-34.3,12.4-52.3,12.7
	c-24.5,0.4-48.3-8.9-72.8-9.5c-29-0.8-57.1,10.6-86,12.3c-30.5,1.6-60.6-7.6-85.1-25.9c-5.5-4.1-10.6-8.7-15.3-13.8
	c-10.3-10.8-18.2-23.5-23.4-37.5c-2.5-7.1-4.4-14.4-5.5-21.8c-1.9-11.9-2.4-24-2.6-36.1c-0.6-38.2,2.6-79.1,26.1-109.2
	c8.2-10.6,18.6-19.2,28.9-27.8l56.8-47.4c14.9-12.4,29.8-24.8,46.3-34.9c18.3-11.1,38.3-19,58.4-26.4c8.9-3.3,17.9-6.5,27.4-7.5
	c20.7-2.2,41.1,6.4,58.8,17.2c16.6,10.2,32.6,23.4,39.5,41.7c5.8,15.3,4.4,32.4,7.8,48.4c7.1,33.5,34.2,57.9,51.1,86.6
	C419.5,225.3,421.4,262.2,413.1,297z"/>
<path class="st1" d="M153.1,106.2c-2.3,0.2-4.3,1.6-5.2,3.7c-0.9,2.1-1,4.4-0.3,6.5c0.4,0.8,0.5,1.7,0.5,2.6c-0.2,0.7-0.5,1.4-1,2
	c-1.8,2.4-2.8,5.3-2.9,8.3c0,3,1.7,6.1,4.5,7.1c-1.8,3.7-1.8,8.5,0.8,11.8s8.1,3.9,10.9,0.8c2,3.8,6.7,5.2,10.5,3.1
	c2-1.1,3.4-2.9,3.9-5.1c2.6,1.5,6.2,0.2,7.9-2.2c1.6-2.6,1.9-5.8,0.9-8.6c-1-2.8-2.6-5.4-4.5-7.7c2.1-1.6,4.4-3.4,5.4-5.8
	s0.3-5.9-2.2-6.9c2.9-4.4,1.7-10.3-2.7-13.2c-1.9-1.3-4.2-1.8-6.5-1.5c-1.9,0.2-3.4,1.4-5.3,0.5c-1.5-0.7-2.4-2.6-3.6-3.6
	C158.7,93.4,149.7,99.3,153.1,106.2z"/>
<path class="st1" d="M297,212.2c-2.3,53.6-47.7,95.2-101.3,92.9c-50.4-2.2-90.8-42.5-92.9-92.9H297z"/>
<linearGradient id="SVGID_1_" gradientUnits="userSpaceOnUse" x1="236.3019" y1="144.1843" x2="387.4719" y2="76.3943" gradientTransform="matrix(1 0 0 -1 -8 381.98)">
	<stop  offset="2.000000e-02" style="stop-color:#FFFFFF;stop-opacity:0"/>
	<stop  offset="0.32" style="stop-color:#FFFFFF;stop-opacity:0.39"/>
	<stop  offset="0.68" style="stop-color:#FFFFFF;stop-opacity:0.68"/>
	<stop  offset="1" style="stop-color:#FFFFFF"/>
</linearGradient>
<path class="st2" d="M257.3,212.2c0,0-14.3,76.3-29.6,79.1s29.6,5.9,52.2-28.5c19.6-29.9,17.1-50.6,17.1-50.6H257.3z"/>
<linearGradient id="SVGID_2_" gradientUnits="userSpaceOnUse" x1="88.3015" y1="60.198" x2="206.6215" y2="147.328" gradientTransform="matrix(1 0 0 -1 -8 381.98)">
	<stop  offset="1.000000e-02" style="stop-color:#000000"/>
	<stop  offset="0.13" style="stop-color:#000000;stop-opacity:0.69"/>
	<stop  offset="1" style="stop-color:#000000;stop-opacity:0"/>
</linearGradient>
<path class="st3" d="M129.6,212.8c0,0,7.9,72.1,54.9,79.2s59.9,1.4,59.9,1.4s-29,28.7-68.5,17.9s-61.5-52.9-61.5-52.9
	s-12.7-35.3-11.7-46.2L129.6,212.8z"/>
<g id="o1A6vW">
	
		<linearGradient id="SVGID_3_" gradientUnits="userSpaceOnUse" x1="206.9749" y1="251.0047" x2="196.2249" y2="-81.3653" gradientTransform="matrix(1 0 0 -1 -8 381.98)">
		<stop  offset="1.000000e-02" style="stop-color:#000000"/>
		<stop  offset="0.13" style="stop-color:#000000;stop-opacity:0.69"/>
		<stop  offset="1" style="stop-color:#000000;stop-opacity:0"/>
	</linearGradient>
	<path class="st4" d="M161.9,219.6c0.2-0.3,0.5-0.8,0.8-1.2c0.9-1.3,1.9-1.2,2.5,0.3c1,2.4,2.2,4.9,1.4,7.6
		c-0.3,0.8-0.8,1.6-1.3,2.3c-1.5,2.8-5.1,4.7-3.6,8.7c0.1,0.4,0.1,0.8-0.1,1.1c-1.3,1.9-0.4,3.2,0.7,4.8c1.6,2.2,2.7,4.8,4.3,7
		c2.3,3.1,3.6,7,7.1,9.2c1.7,1.1,3.5,1.9,5.1,3.1c0.8,0.7,1.4,1.6,1.6,2.6c0.4,2.8,0.4,5.6,0.7,8.4c0.2,2.2,0.8,4.5,1,6.7
		c0.2,1.3,0.2,2.6-0.1,3.8c-0.6,1.8-0.7,3.8-0.1,5.6c0.5,1.6,1,3.3,1.5,5c1.5,4.6,8.3,8,13.1,6.5l-5.1-2.6c0.9-1,1.6-1.7,2.5-2.6
		l-2.1-1.3l2-1.2c-0.2-1-0.4-1.9-0.7-3.1l3,0.5c0.1-0.8,0.2-1.5,0.3-2.3c1.9-0.2,3.8-0.4,6-0.5c-0.2-1.3-0.4-2.5-0.6-3.7
		c3.3,0.9,5.2,0.1,7.4-2.6c1-1.1,2-2.1,3.1-3c1.4-1.4,3-2.7,3-5c0-0.4,0.8-0.8,1.4-1c2.6-1.1,4.8-3.1,8-2.8c0.5,0,1.2-0.7,1.5-1.2
		c1.5-2.9,2.9-5.8,4.3-8.7c0.2-0.6,0.3-1.2,0.1-1.8c-0.2-1.5-0.5-2.9,1.5-3.5c0.3-0.1,0.5-0.6,0.7-0.9c1.2-1.7,2.4-3.5,3.7-5.1
		c1-1.3,1.2-4.8,0.2-6c-0.2-0.2-0.6-0.5-0.8-0.5c-2.1,0.6-3.2-0.9-4.5-2c-1-0.9-2.3-1.3-3.6-1c-1.1,0.2-2.3-0.5-3.4-0.4
		c-2.3,0.2-3.6-1.3-5.1-2.4c-1.2-0.9-2.9-1.7-4.3,0.2c-2-1.2-3.5-2.8-3.8-5.1c-0.1-3-2.2-5.5-5.1-6.1c-1.3-0.3-2.6-0.4-3.9-0.2
		c-1.2,0.3-2.5-0.2-3.3-1.2c-1.2-1.6-2.3-3.4-4.6-3.8c-0.4,0-0.9-0.7-0.9-1.2c-0.1-1.1-0.9-2-2-2.3c-0.5-0.2-1.1-0.3-1.7-0.4
		c-0.7-0.1-1.3-0.1-2,0c-2.6,0.4-5.3-0.3-7.4-2c-3.3-2.5-8.7-1.2-11,2.2l-0.1,0.1c-0.5,0.7-1,1.4-1.5,2.2c-0.7-0.6-1.4-1.1-2.1-1.6
		c-1.1-0.5-2.1-1-3.3,0.1c-0.7,0.3-1.6,0.3-2.3-0.2c-0.2-0.1,1.3-4.5,1.2-4.7h-6.7c0.1,0.3,3,4.8,3.1,5L161.9,219.6z"/>
</g>
<path class="st5" d="M262.8,287.1c-1.9,3.9-5,7-8.2,9.9c-7.6,7-15.9,13.2-24.8,18.5c-5.3,3.1-11,5.7-16.8,7.8
	c-26.4,9.3-55.5,5.7-82.8,0c-13.7-2.9-27.9-6.2-41.6-3.2c-9,2-17.2,6.5-25.2,11l-31.8,17.8c-5.4-5.7-10.2-12-14.4-18.8
	c-3.6-5.9-6.6-12.2-9-18.7c-2.5-7.1-4.4-14.4-5.5-21.8c5.4-2.5,14.2-1.8,19.2-2.7c10.8-2.1,21.4-5.2,32-8.4l29.3-8.8
	c5.5-1.7,11-3.3,16.4-5.5c4.9-2,9.7-4.4,14.8-5.8c8.1-2.4,16.8-2.3,25.2-2.3l42.1,0.2c0.8-0.1,1.6,0.1,2.3,0.4
	c1.9,1.2,1,4.1-0.4,5.9c-5.8,7.3-15.8,9.7-25.1,10.6c-2.8,0.3-5.6,0.5-8.1,1.7s-4.5,3.8-4.2,6.6c0.5,4.1,5.4,5.9,9.5,6.8
	c11.9,2.4,24,4.2,36.1,5.5c6.8,0.7,13.6,1.2,20.4,0.2c17.8-2.7,32.6-15.4,50.2-19.3C265,278.3,264.7,283.2,262.8,287.1z"/>
<ellipse class="st6" cx="199.6" cy="212.8" rx="96.9" ry="6.2"/>
<path class="st6" d="M171.2,198.3c5.2-1.1,10.5-1.8,15.8-2.1c7.2-0.5,14.5-0.9,21.6,0.6c4.7,1.1,9.3,2.5,13.8,4.2
	c18.9,6.6,38.6,11,58.5,13.1c-37.5,1.3-75.1,0-112.5-1.8c-5.1-0.3-10.3-0.5-15.4-0.8c-3.9-0.2-10.7,0.7-14.1-1.1
	c2.2-3.6,10.6-4.4,14.3-5.8C159.1,202.4,165,199.8,171.2,198.3z"/>
<path class="st6" d="M176.3,199.9c0,0-2.4-54.9-14-74.2l3.5-1.6c0,0,16.4,75.6,16.7,76.4S180.4,203.6,176.3,199.9z"/>
<path class="st1" d="M211,106.5c-2.2-0.6-4.6,0-6.2,1.6c-1.6,1.6-2.5,3.8-2.6,6c0,0.9-0.1,1.8-0.4,2.6c-0.4,0.6-1,1.2-1.6,1.6
	c-2.5,1.6-4.5,4-5.6,6.7c-1,2.8-0.5,6.3,1.7,8.2c-3,2.9-4.7,7.3-3.4,11.3s6.2,6.6,9.9,4.6c0.6,4.2,4.5,7.2,8.7,6.7
	c2.2-0.3,4.2-1.6,5.5-3.4c1.9,2.3,5.7,2.4,8.2,0.7c2.4-1.9,3.9-4.7,3.9-7.8c0-3-0.5-6-1.5-8.8c2.6-0.8,5.3-1.6,7.1-3.5
	s2.4-5.4,0.4-7.2c4.3-3,5.3-9,2.2-13.3c-1.4-1.9-3.4-3.2-5.6-3.7c-1.9-0.5-3.6,0.1-5.1-1.4c-1.1-1.1-1.3-3.3-2.1-4.7
	C220.8,96.6,210.3,98.8,211,106.5z"/>
<path class="st6" d="M212.7,152.1c-0.1-1.8-0.1-3.8,0.8-5.4c0.6-0.9,1.3-1.7,2.2-2.3c1.4-1.2,2.9-2.3,4.5-3.2c1.6-0.9,3.5-1.3,5.4-1
	c-2.1,1.9-5,2.5-7.1,4.2c-2.5,2.1-4.3,4.8-5.5,7.8c-1.6,5.4-1.7,11.9-2.6,17.5s-1.7,11.4-2.5,17c-0.9,6-2.4,12.2-2.7,18.2
	c0,0.9-3.2,2.3-5.6-2.7c3-9,5.5-18.2,7.7-27.4c1.9-7.8,3.6-15.7,4.8-23.7c0.5-3.6,1.4-7.7,1.2-11.3c-0.2-3.9-4.3-7.6-7.5-9.3
	c-0.2-0.1-0.4-0.2-0.7-0.3c-0.3,0.2-0.1,0.8,0.2,1.1c2.5,2.7,5.8,4.9,7.1,8.4c0.3,0.9,0.5,1.9,0.8,2.8c-0.2-0.6,0.5-2.3,0.4-3.2
	c-0.2-1.1-0.2-2.3-0.3-3.4c0-2.7-0.2-5.4-0.6-8l3.8-0.3c0,0-1.6,10.8-3.6,24.3"/>
<path class="st1" d="M254.4,113.9c-2.2-0.6-4.6,0-6.2,1.6c-1.6,1.6-2.5,3.8-2.6,6c0,0.9-0.1,1.8-0.4,2.6c-0.4,0.6-1,1.2-1.6,1.6
	c-2.5,1.6-4.5,4-5.6,6.7c-1,2.8-0.6,6.3,1.7,8.2c-3,2.9-4.7,7.3-3.4,11.3s6.2,6.6,9.9,4.6c0.6,4.2,4.5,7.2,8.7,6.7
	c2.2-0.3,4.2-1.6,5.5-3.4c1.9,2.3,5.7,2.4,8.2,0.7c2.4-1.9,3.9-4.7,3.9-7.8c0-3-0.5-6-1.5-8.8c2.6-0.8,5.3-1.6,7.1-3.5
	s2.4-5.4,0.4-7.2c4.3-3,5.3-9,2.2-13.3c-1.4-1.9-3.4-3.2-5.6-3.7c-1.9-0.5-3.6,0.1-5.1-1.4c-1.2-1.1-1.3-3.3-2.1-4.7
	C264.1,104,253.7,106.2,254.4,113.9z"/>
<path class="st6" d="M256.1,159.5c-0.1-1.8-0.1-3.8,0.8-5.4c0.6-0.9,1.3-1.7,2.2-2.3c1.4-1.2,2.9-2.3,4.5-3.2c1.6-0.9,3.5-1.3,5.4-1
	c-2,1.9-5,2.5-7.1,4.2c-2.5,2.1-4.4,4.8-5.5,7.8c-1.6,5.4-1.7,11.9-2.5,17.5s-1.7,11.4-2.5,17c-0.9,6-2.4,12.2-2.7,18.2
	c0,0.9-3.1,2.3-5.6-2.7c3-9,5.5-18.2,7.7-27.4c1.9-7.8,3.6-15.7,4.8-23.7c0.5-3.6,1.4-7.7,1.2-11.3c-0.2-3.9-4.3-7.6-7.5-9.3
	c-0.2-0.1-0.5-0.2-0.7-0.3c-0.3,0.2-0.1,0.8,0.2,1.1c2.5,2.7,5.8,4.9,7.1,8.4c0.3,0.9,0.5,1.9,0.8,2.8c-0.2-0.6,0.5-2.3,0.4-3.2
	c-0.2-1.1-0.2-2.3-0.3-3.4c0.1-2.7-0.1-5.4-0.6-8l3.9-0.3c0,0-1.6,10.8-3.6,24.3"/>
<path class="st1" d="M225.4,156.3c-1.2-0.3-2.5,0-3.4,0.9c-0.9,0.9-1.4,2.1-1.4,3.4c0,0.5-0.1,1-0.2,1.4c-0.2,0.4-0.5,0.6-0.9,0.9
	c-1.4,0.9-2.5,2.2-3.2,3.8c-0.6,1.6-0.2,3.4,1,4.6c-1.8,1.6-2.5,4-1.9,6.3c0.7,2.2,3.5,3.7,5.5,2.6c0.3,2.4,2.5,4,4.9,3.7
	c1.2-0.2,2.3-0.9,3-1.9c1.2,1.2,3.2,1.4,4.6,0.4c1.3-1,2.2-2.6,2.2-4.3c0-1.7-0.3-3.4-0.8-4.9c1.5-0.3,2.9-1,4-2c1-1.1,1.3-3,0.2-4
	c2.4-1.7,2.9-5.1,1.2-7.4c-0.7-1-1.8-1.8-3.1-2c-1.1-0.3-2,0-2.9-0.8c-0.6-0.6-0.7-1.8-1.2-2.6C230.8,150.8,225,152,225.4,156.3z"/>
<path class="st6" d="M226.3,181.8c-0.1-1,0-2.1,0.5-3c0.3-0.5,0.7-0.9,1.2-1.3c0.8-0.7,1.6-1.3,2.5-1.8c0.9-0.5,2-0.7,3-0.6
	c-1.1,1-2.8,1.4-4,2.4C228.1,178.7,227.1,180.2,226.3,181.8c-0.8,3.1-0.9,6.7-1.3,9.8l-1.4,9.5c-0.5,3.3-1.4,6.8-1.5,10.2
	c0,0.5-1.8,1.3-3.1-1.5c1.6-5,3.1-10.1,4.3-15.3c1.1-4.4,2-8.8,2.7-13.2c0.4-2.1,0.7-4.2,0.7-6.3c-0.1-2.1-2.4-4.3-4.2-5.2l-0.4-0.2
	c-0.2,0.1,0,0.4,0.1,0.6c1.4,1.5,3.2,2.8,3.9,4.7c0.2,0.5,0.3,1,0.5,1.6c-0.1-0.3,0.3-1.3,0.2-1.8c-0.1-0.6-0.1-1.3-0.1-1.9
	c0-1.5-0.1-3-0.3-4.5l2.1-0.1l-2,13.6"/>
<path class="st1" d="M278.7,157.2c-1.2-0.5-2.6-0.4-3.7,0.4c-1,0.8-1.8,2-2,3.3c-0.1,0.5-0.2,1-0.5,1.4c-0.3,0.3-0.7,0.6-1.1,0.8
	c-1.6,0.7-2.9,1.9-3.9,3.4c-0.9,1.5-0.8,3.5,0.3,4.9c-2.1,1.3-3.2,3.8-3,6.2c0.4,2.4,3,4.4,5.3,3.6c0,2.5,2,4.6,4.5,4.6
	c1.3,0,2.6-0.5,3.5-1.5c1.1,1.5,3.1,2,4.7,1.1c1.6-0.9,2.7-2.4,3-4.2c0.3-1.7,0.3-3.5-0.1-5.2c1.6-0.1,3.1-0.6,4.4-1.4
	c1.2-1,1.8-2.9,0.8-4.1c2.7-1.4,3.8-4.8,2.4-7.5c-0.6-1.2-1.6-2.1-2.9-2.6c-1-0.4-2.1-0.3-2.8-1.2c-0.6-0.8-0.5-2-0.8-2.9
	C285.2,152.3,279,152.7,278.7,157.2z"/>
<path class="st6" d="M275.7,183.8c0-1.1,0.4-2.1,0.9-3c0.4-0.5,0.9-0.9,1.5-1.1c0.9-0.6,1.9-1.1,2.9-1.5c1-0.4,2.1-0.4,3.2-0.1
	c-1.4,0.9-3.1,1-4.5,1.8c-1.6,1-2.9,2.4-3.9,4c-1.4,3-2,6.7-3,9.9l-3,9.6c-1,3.4-2.5,6.9-3.1,10.4c-0.1,0.5-2,1-3-2
	c2.5-5,4.8-10.1,6.9-15.2c1.8-4.4,3.5-8.8,4.9-13.3c0.8-2.1,1.3-4.3,1.7-6.5c0.2-2.2-1.8-4.8-3.5-6l-0.4-0.2c-0.2,0.1-0.1,0.4,0,0.7
	c1.2,1.8,2.9,3.4,3.4,5.5c0.1,0.6,0.1,1.1,0.2,1.7c-0.1-0.4,0.5-1.3,0.5-1.8c0-0.7,0.1-1.3,0.1-2c0.3-1.6,0.4-3.1,0.4-4.7l2.2,0.2
	l-4.2,13.8"/>
<path class="st1" d="M119.2,157.2c-1.4,0.1-2.7,1-3.3,2.3c-0.6,1.3-0.6,2.7-0.2,4.1c0.2,0.5,0.3,1.1,0.3,1.6
	c-0.1,0.5-0.3,0.9-0.6,1.3c-1.1,1.5-1.8,3.3-1.9,5.1c-0.1,1.9,1,3.7,2.8,4.4c-1.3,2.3-1.1,5.2,0.4,7.3c1.6,2,5,2.5,6.8,0.6
	c1.2,2.4,4.1,3.3,6.5,2.1c1.3-0.7,2.2-1.8,2.5-3.3c1.7,0.8,3.8,0.3,4.9-1.3c1-1.6,1.3-3.6,0.6-5.4c-0.6-1.8-1.6-3.4-2.8-4.9
	c1.4-0.9,2.6-2.1,3.4-3.6c0.6-1.5,0.2-3.7-1.3-4.3c1.8-2.7,1.1-6.4-1.6-8.2c-1.2-0.8-2.6-1.1-4-1c-1.2,0.1-2.1,0.8-3.3,0.3
	c-0.9-0.4-1.5-1.6-2.2-2.3C122.8,149.3,117.2,152.8,119.2,157.2z"/>
<path class="st6" d="M130,183.5c-0.5-1-0.8-2.2-0.7-3.3c0.2-0.6,0.4-1.3,0.8-1.8c0.5-1,1.2-2,1.9-2.9c0.8-0.9,1.8-1.5,2.9-1.7
	c-0.8,1.5-2.4,2.5-3.3,4c-1,1.8-1.5,3.7-1.6,5.7c0.2,3.5,1.6,7.3,2.3,10.8s1.4,7,2.2,10.5c0.8,3.7,1.2,7.7,2.3,11.3
	c0.2,0.5-1.4,2-3.9-0.4c-0.2-5.9-0.7-11.8-1.3-17.7c-0.6-5-1.3-10-2.3-14.9c-0.3-2.4-0.9-4.7-1.7-6.9c-0.9-2.2-4.1-3.5-6.4-3.8h-0.5
	c-0.1,0.2,0.1,0.5,0.4,0.6c2,1.1,4.4,1.6,5.9,3.4c0.4,0.5,0.7,1,1.1,1.5c-0.2-0.3-0.2-1.5-0.4-1.9c-0.3-0.6-0.6-1.3-0.9-2
	c-0.5-1.6-1.2-3.1-2.1-4.6l2.2-1c0,0,1.4,6.7,3.1,15"/>
<path class="st6" d="M172.2,141.6c1-1.7,2.5-3.2,3.2-5.1c0.7-2,0.9-4.1,0.8-6.1c0.3,1.9,0.5,3.8,0.4,5.7c1.5-0.5,3.2-0.2,4.5,0.8
	c-2,0.2-4.1,0.4-5.7,1.6c-2,1.4-2.9,4-3.1,6.4s-0.1,4.9-0.7,7.4c0-1.8-0.9-3.5-1.1-5.2S171.4,143,172.2,141.6z"/>
<path class="st6" d="M161.3,132.7c-0.4-0.9-0.8-2-1.7-2.5l3.3,6.3l-5.2,1.6c-0.4,0.1-1,0.5-0.8,0.9c1.4,0.1,2.8-0.5,4.2-0.7
	c3.2-0.4,6.4,1.4,7.6,4.4c-0.1-0.3,0.3-1.5,0.3-1.9c0-0.6-0.1-1.2-0.3-1.8c-0.4-0.6-1.5-0.9-2.2-1.3
	C164.3,136.6,162.5,134.8,161.3,132.7z"/>
<path class="st1" d="M145.8,160.6c-1.4,0.1-2.6,1-3.2,2.3c-0.6,1.3-0.6,2.7-0.2,4.1c0.2,0.5,0.3,1,0.3,1.6c-0.1,0.5-0.3,0.9-0.6,1.3
	c-1.1,1.5-1.7,3.3-1.8,5.1c0,1.9,1.1,3.6,2.8,4.4c-1.2,2.3-1,5.1,0.5,7.3c1.6,2,5.1,2.4,6.8,0.5c1.3,2.3,4.2,3.2,6.5,1.9
	c1.2-0.7,2.1-1.8,2.4-3.2c1.8,0.8,3.8,0.2,4.9-1.4c1-1.6,1.2-3.6,0.6-5.4c-0.6-1.8-1.6-3.4-2.8-4.8c1.4-0.9,2.6-2.1,3.4-3.6
	c0.6-1.5,0.2-3.7-1.4-4.3c1.8-2.7,1-6.4-1.7-8.2c-1.2-0.8-2.6-1.1-4-0.9c-1.2,0.1-2.1,0.8-3.3,0.3c-0.9-0.4-1.5-1.6-2.2-2.2
	C149.3,152.7,143.7,156.3,145.8,160.6z"/>
<path class="st6" d="M160.2,218.7c0,0-1.5-34-8.7-46l2.2-1c0,0,10.2,46.8,10.3,47.3S162.7,221,160.2,218.7z"/>
<path class="st6" d="M157.6,182.6c0.7-1,1.4-2,2-3.1c0.4-1.2,0.6-2.5,0.5-3.8c0.2,1.2,0.3,2.4,0.2,3.6c1-0.3,2-0.1,2.8,0.5
	c-1.2,0-2.5,0.4-3.5,1c-1.2,1-1.9,2.5-1.9,4c-0.1,1.5-0.2,3-0.4,4.6c-0.2-1.1-0.4-2.2-0.7-3.2C156.6,184.7,157,183.5,157.6,182.6z"
	/>
<path class="st6" d="M150.9,177c-0.3-0.6-0.5-1.2-1.1-1.5l2,3.9l-3.2,1c-0.3,0.1-0.6,0.3-0.5,0.6c0.9,0,1.8-0.2,2.6-0.4
	c2-0.2,3.9,0.9,4.7,2.7c-0.1-0.2,0.2-0.9,0.2-1.2c0-0.4,0-0.8-0.2-1.1c-0.3-0.4-0.9-0.6-1.4-0.8C152.7,179.5,151.6,178.4,150.9,177z
	"/>
<circle class="st1" cx="239.5" cy="42.8" r="24.2"/>
<linearGradient id="SVGID_4_" gradientUnits="userSpaceOnUse" x1="209.72" y1="335.9868" x2="286.17" y2="335.9868" gradientTransform="matrix(1 0 0 -1 -8 381.98)">
	<stop  offset="2.000000e-02" style="stop-color:#FFFFFF;stop-opacity:0"/>
	<stop  offset="0.32" style="stop-color:#FFFFFF;stop-opacity:0.39"/>
	<stop  offset="0.68" style="stop-color:#FFFFFF;stop-opacity:0.68"/>
	<stop  offset="1" style="stop-color:#FFFFFF"/>
</linearGradient>
<path class="st7" d="M203.1,27.2c7.8,12.4,7.2,28.4-1.4,40.2c5.9,0.4,11.8,1.6,16.9,4.6c5.1,3,9.2,7.9,10.3,13.7
	c9.4-12.9,27.3-16.3,40.7-7.6c-1-8.5-5.8-16.9-3.5-25c1.8-6,7-10.3,12-14.1c-9.1-6.4-14-17.3-12.5-28.4c-4.9,4.1-12,5-18.1,3.5
	c-5.2-1.3-8.4-4.7-13-6.9c-3-1.4-2.2-1.4-4.3,1.3c-1.5,1.9-2.6,3.9-4.2,5.7c-3,3.4-6.5,6.3-10.5,8.5C214.4,23.4,204,28.6,203.1,27.2
	z"/>
<linearGradient id="SVGID_5_" gradientUnits="userSpaceOnUse" x1="135.2845" y1="-57.8802" x2="128.8345" y2="163.1598" gradientTransform="matrix(1 0 0 -1 -8 381.98)">
	<stop  offset="1.000000e-02" style="stop-color:#000000"/>
	<stop  offset="0.13" style="stop-color:#000000;stop-opacity:0.69"/>
	<stop  offset="1" style="stop-color:#000000;stop-opacity:0"/>
</linearGradient>
<path class="st8" d="M230.4,310.1l-0.6,5.4c-5.3,3.1-11,5.7-16.8,7.8c-26.4,9.3-55.5,5.7-82.8,0c-13.7-2.9-27.9-6.2-41.6-3.2
	c-9,2-17.2,6.5-25.2,11l-31.8,17.8c-5.4-5.7-10.2-12-14.4-18.8c6.5-3.4,48.5-24.7,65.8-22.7c18.8,2.1,70.4,11.3,82.8,10.8
	S230.4,310.1,230.4,310.1z"/>
</svg>
