<?xml version="1.0" encoding="utf-8"?>
<!-- Generator: Adobe Illustrator 21.1.0, SVG Export Plug-In . SVG Version: 6.00 Build 0)  -->
<svg version="1.1" id="Layer_1" xmlns="http://www.w3.org/2000/svg" xmlns:xlink="http://www.w3.org/1999/xlink" x="0px" y="0px"
	 viewBox="0 0 548.8 298.4" style="enable-background:new 0 0 548.8 298.4;" xml:space="preserve">
<style type="text/css">
	.st0{fill:#EBEBCA;}
	.st1{fill:#CFD082;}
	.st2{fill:#BFC057;}
	.st3{fill:#ABAD23;}
	.st4{fill:#606161;}
	.st5{fill:#F0CAC5;}
	.st6{fill:#F1FCFF;}
	.st7{fill:#E3B3AF;}
	.st8{fill:#C8A59C;}
	.st9{fill:#EDB607;}
</style>
<title>StartUP 3</title>
<g>
	<path class="st0" d="M530.7,254.7c-0.1,0.1-0.1,0.1-0.2,0.2C530.6,254.9,530.6,254.8,530.7,254.7 M149.4,252.9
		c-0.4,0.1-0.8,0.2-1.2,0.3c-0.2,0-0.4,0-0.6,0c-0.2,0-0.5,0-0.7-0.1c0.2,0.2,0.3,0.4,0.5,0.6L149.4,252.9 M290.3,251.9
		c-1,0.4-2,0.7-3,0.9c-0.2,0-0.4,0-0.6,0c0.4,0.5,0.8,0.9,1.1,1.4l2.7-1.1C290.5,252.7,290.4,252.3,290.3,251.9 M286.5,248.7
		l-2.9,0.1c0,0.1-0.1,0.2-0.1,0.3c0.6,0.6,1.2,1.4,1.9,2.1c0-0.1,0.1-0.2,0.1-0.4C285.8,250.2,286.1,249.4,286.5,248.7 M147.6,248.3
		l-2.9,0c-0.2,0.6-0.4,1.1-0.6,1.6c0.7,0.8,1.4,1.6,2,2.3c0-0.3,0-0.7,0.2-1C146.7,250.2,147.1,249.2,147.6,248.3 M274.1,248.2
		l-0.9,0c0.6,0.4,1.3,0.7,2,0.8C274.8,248.9,274.4,248.6,274.1,248.2 M199.9,248.2l-0.8,0c0.7,0.5,1.5,0.8,2.3,0.8
		c0.9,0,1.6-0.3,2.3-0.7h-3.3c0,0,0,0,0,0C200.2,248.3,200.1,248.3,199.9,248.2 M132.9,244.7c-0.1,0.3-0.2,0.6-0.2,0.9
		c0.2,1.9,1.9,3.4,3.8,3.4c0.9,0,1.6-0.3,2.3-0.7l-2.1,0l-0.3,0.7l-0.7-0.9c-0.8-0.3-1.3-1-1.4-1.8L132.9,244.7 M272.8,243.4
		c-0.1,0.1-0.1,0.2-0.2,0.2l0.4,0C272.9,243.6,272.9,243.5,272.8,243.4 M139,243.1l-0.3,0.6l0.8,0
		C139.4,243.5,139.2,243.3,139,243.1 M203.5,242.8l-0.3,0.9l1.4,0C204.2,243.3,203.9,243,203.5,242.8 M275.6,242.2
		c-0.4,0-0.8,0.1-1.2,0.2l1.1,1.2l0.5-1.3C275.9,242.2,275.7,242.2,275.6,242.2 M262,238l-18.5,5.6l23.8,0c0.3-1.7,1.1-3.2,2.2-4.4
		l-6.2,2.9L262,238 M142.5,235.4l-1.2,2.7c1.9,1.3,3.2,3.3,3.6,5.6l4.4,0c0-0.2-0.1-0.4-0.1-0.5c-0.1-0.8-0.6-2.1-0.4-3l-0.5,0.3
		C146.3,238.9,144.4,237.2,142.5,235.4 M283.4,235.1l-1.5,4.3c1.2,1.3,2,3,2.2,4.8l4.6-0.1c0-0.5,0-0.9-0.1-1.4
		c-0.2-0.9-0.7-2.4-0.3-3.2c0.3-0.6,1.2-1.3,1.9-1.3c0.1,0,0.2,0,0.2,0c0.1-0.4,0.2-0.8,0.3-1.2l-2.6,1.9
		C286.3,237.8,284.8,236.5,283.4,235.1 M279.4,232.7l-9.2,2.8l0.8,2.5c1.3-0.9,2.9-1.4,4.6-1.4c0,0,0,0,0,0c0.8,0,1.5,0.1,2.3,0.3
		L279.4,232.7 M294.2,228.2l-6,1.8c1,1.7,2,3.4,2.9,5.1C291.8,232.7,292.9,230.4,294.2,228.2 M125.4,226.8c-0.2,0.1-0.5,0.1-0.7,0.1
		c-0.1,0-0.1,0-0.2,0l0.4,0.5c0-0.1,0-0.1,0.1-0.2C125.1,227,125.2,226.9,125.4,226.8 M304.3,225.1l-2.9,0.9c-4.3,4.8-7,11-7.3,17.9
		l21.1-0.7L304.3,225.1 M329.1,217.6l-20.3,6.2l14.4,23.8l-28.8,0.9c0.1,1,0.3,2,0.5,2.9l0.5-0.2l1.1,3.7l-0.5,0.2
		c0.7,1.8,1.6,3.5,2.6,5c4.7,0,9.5,0,14.2,0c11,0,22,0,33.1,0.1c2.9-4.4,4.5-9.7,4.5-15.3C350.5,231.7,341.4,220.6,329.1,217.6
		 M127.7,217c0.1,0.9,0.2,1.7,0.3,2.6c0.1,0.9,0.2,1.8,0.2,2.8c0,1-0.2,2-0.7,2.9c-0.1,0.1-0.2,0.2-0.2,0.4c0.1,0,0.1,0,0.2,0
		l0.2,0.1c0.8,0.8,1.5,1.7,2.2,2.7c0.2,0.2,0.4,0.5,0.5,0.8c0.1,0.2,0.2,0.5,0.2,0.8c0.2,1.3-0.1,2.7-0.8,3.7l3.1,3.8
		c1.1-0.5,2.3-0.8,3.5-0.8c0.1,0,0.3,0,0.4,0l2.2-4.9c-3.3-3.7-6.3-7.7-9.2-11.7C129.2,219.1,128.5,218,127.7,217 M85,216.8
		c-15.5,0-28.2,12.6-28.2,28.2c0,9.4,4.6,17.7,11.7,22.8c11.8-0.7,23.7-1.4,35.5-2.1c5.6-5.1,9.1-12.5,9.1-20.8v0
		c0-10.3-5.5-19.3-13.8-24.2L88.6,245c-0.4,0.8-1.2,1.3-2.1,1.3c0,0,0,0,0,0c0,0,0,0,0,0c-1.2,0-2.3-1-2.3-2.3c0-0.3,0.1-0.7,0.2-1
		l10.9-24.4C92.1,217.5,88.7,216.8,85,216.8C85,216.8,85,216.8,85,216.8 M195,215.5c0.1,0.8,0.2,1.7,0.3,2.5
		c0.1,0.9,0.2,1.8,0.2,2.8c0,1-0.2,2-0.7,2.9c-0.1,0.1-0.1,0.2-0.2,0.3c0,0,0.1,0,0.1,0c0,0,0,0,0,0c0.1,0,0.2,0.1,0.2,0.1
		c0.8,0.8,1.5,1.7,2.1,2.7c0.2,0.3,0.4,0.5,0.5,0.8c0.1,0.2,0.2,0.5,0.2,0.8c0.3,1.9-0.4,3.8-2,4.9c-0.3,0.2-0.7,0.4-1.1,0.6
		c-0.1,0-0.2,0.1-0.3,0.1l1,3.2l-0.4,0.2l1,1c1.3-1,2.8-1.6,4.5-1.7l3.3-9.1c-2.4-2.9-4.7-6-6.9-9
		C196.4,217.6,195.7,216.6,195,215.5 M104.5,209.3l-3.2,7.2c9.9,5.6,16.5,16.3,16.5,28.4l0,0l0,0c0,7.7-2.7,14.8-7.2,20.4
		c60.9-3.1,121.8-4.9,182.7-5.2c-0.5-1-1-2.1-1.4-3.1l-3.2,1.5l-0.8-2.3l-5.5-5.2c-1.5,2.1-4,3.5-6.8,3.5c0,0,0,0,0,0
		c-3.9,0-7.2-2.7-8.2-6.3l-53.7,0h-4.1c-0.1,0.3-0.2,0.7-0.3,1c1.1,1.2,2.2,2.6,3.1,3.7l7.5-3l1.1,3.7l-7.8,3.6l-0.8-2.3l-4.2-3.9
		c-1.5,2.1-4,3.5-6.9,3.5c-3.9,0-7.2-2.7-8.2-6.3l-38.3,0c0,0.1,0,0.2,0,0.3c0,0.4-0.1,0.8-0.2,1.1c-0.2,0.3-0.5,0.7-0.8,0.9
		c-0.6,0.5-1.2,0.9-1.9,1.3l2.7-1.1l1.1,3.7l-7.8,3.6l-0.8-2.3l-4.4-4.2c-1.6,1.8-3.9,3-6.4,3c-4.7,0-8.4-3.8-8.4-8.5
		c0-0.2,0-0.3,0-0.5c0-0.2,0-0.3,0-0.5c0-1.7,0.5-3.4,1.4-4.7l-1.1-1.4l-5.6,2.6l-1.3-3.9c-0.2,0.1-0.5,0.1-0.7,0.2
		c-0.2,0.1-0.4,0.1-0.6,0.1c-0.3,0-0.6-0.1-0.8-0.2c-0.3-0.2-0.5-0.5-0.5-0.9c-0.1-0.6,0-1.1,0.3-1.6c0.4-0.5,0.9-1,1.5-1.3
		c0.8-0.5,1.6-1.1,2.3-1.8L104.5,209.3 M373.7,204l-37.3,11.4c11,5.3,18.6,16.5,18.6,29.6v0l0,0c0,5.6-1.4,10.8-3.9,15.4
		c10.9,0.1,21.8,0.3,32.7,0.5c-0.1-0.7-0.2-1.3-0.2-2.1v0l0,0c0-0.2,0-0.5,0-0.7c-4.6-1.6-7.9-6-7.9-11.1v0l0,0
		c0-5.2,3.4-9.6,8-11.1c0.6-3.6,3.2-6.5,6.6-7.6C384.1,221.5,378.4,213.1,373.7,204 M217.3,203.9l-6.4,18.1c2.7,4.4,5.6,8.8,8,13.4
		c0.1,0.2,0.2,0.4,0.2,0.6c0,0,0,0.1,0,0.1c-0.1,0.3-0.3,0.5-0.6,0.7l-2.9,2.1c-2.9-2.2-5.6-4.7-8.1-7.4l-2.2,6.1
		c2.3,1.2,4,3.4,4.5,6.1l30.8,0L230,204L217.3,203.9 M205.6,203.8c-0.5,0.6-0.8,1.2-1,2c-0.1,0.5-0.1,0.9-0.1,1.4
		c0,1.2,0.3,2.3,0.7,3.4c0.8,2.1,1.7,4.1,2.7,6.1l4.6-12.8L205.6,203.8 M157.2,203.2l-11.1,24.4c1.9,3.1,3.8,6.2,5.5,9.4
		c0.1,0.2,0.2,0.4,0.2,0.6c0,0,0,0.1,0,0.1c-0.1,0.3-0.3,0.5-0.6,0.7l-0.3,0.2c0.1,0,0.2,0,0.3,0.1c0.3,0.1,0.6,0.4,0.8,0.7
		c1,1.3,1.8,2.8,2.3,4.4l38.8,0c0.3-1.6,1-3.1,2.1-4.2c-0.5-0.6-0.9-1.1-1.1-1.5l-6.3,2.9l-1.4-4.1l0.7-0.3c-0.2,0-0.4-0.1-0.6-0.2
		c-0.3-0.2-0.5-0.5-0.5-0.9c-0.1-0.6,0-1.1,0.3-1.6c0.4-0.5,0.9-1,1.5-1.3c1.3-0.8,2.4-1.8,3.4-2.9c0.3-0.3,0.6-0.7,0.8-1.2
		c0.3-0.9-0.2-2,0.1-2.8c0.1-0.2,0.2-0.3,0.4-0.4c-0.2,0-0.4,0.1-0.7,0.1c-0.7,0-1.4-0.3-1.8-0.9c-0.2-0.3-0.3-0.6-0.4-1l-5.4-16.3
		c-0.4-1.1-0.8-2.3-1.1-3.5l-1.8,0c-0.3,0-0.7-0.1-1-0.3L157.2,203.2 M141,203.1c-1.6,1.1-3.2,2.4-3.7,4.3c-0.1,0.5-0.1,0.9-0.1,1.4
		c0,1.2,0.3,2.3,0.7,3.4c1.4,3.8,3.2,7.3,5.2,10.7l8.9-19.7L141,203.1 M107.4,202.8l-0.8,1.8l15.5,19.3l-5-15.2
		c-0.7-1.9-1.2-3.8-1.6-5.8L107.4,202.8 M216.6,197.7c-1.2,0.3-2.5,0.5-3.8,0.7c-0.3,0.2-0.6,0.4-0.9,0.6l4.2,0L216.6,197.7
		 M156.2,195.9C156.2,195.9,156.1,195.9,156.2,195.9c-0.2,0.1-0.4,0.2-0.5,0.4c-1.3,1-2.7,1.8-4.2,2.3l3.4,0c0.1,0,0.2-0.1,0.4-0.1
		L156.2,195.9 M227.5,194.6c-0.7,0.7-1.6,1.1-2.6,1.3c-0.5,0.1-1,0.1-1.6,0.1c-0.5,0-1.1,0-1.6-0.1c-0.1,0-0.3,0-0.4,0
		c-0.3,0.2-0.6,0.3-0.8,0.5c-0.4,0.9-0.9,2.1-1.4,3.1l9.7,0.1L227.5,194.6 M133.1,165c-3.3,3.6-8,5.8-12.7,7.3
		c-4.4,1.3-8.9,2.1-13.4,2.2c0,0.3,0,0.6-0.1,0.9c-0.2,0.7-0.8,1.3-1.4,1.9l3.9,2.6l-0.3,5.3l3.3,0.3l2.2-4.9l6.3-0.9
		c0.1,0,0.2,0,0.4,0c1.1,0,2.1,0.8,2.2,1.9c0,0.1,0,0.2,0,0.3c0,1.1-0.8,2.1-1.9,2.2l0,0l-3.8,0.5l-2.6,5.6l-3.4-0.3
		c0.4,0.6,0.5,1.4,0.2,2.2l-2.8,6.2l5.6,0c0.1-1.9,0.9-3.7,2.1-5.2c1-0.9,2.1-1.7,3.4-2.2c2.4,0,6.8-3.2,9-4.1
		c2.4-1,4.9-1.8,7.3-2.7c-0.9-1.1-1.7-2.4-2.2-3.8c-0.9-2.7-0.8-5.7-0.9-8.5C133.7,169.5,133.4,167.2,133.1,165 M367.2,35.8
		l25.3,58.7c8.2-4.2,17.5-6.7,27.3-6.8c0.3,0,0.5,0,0.8,0c33.6,0,61,27,61.4,60.6c0,0.3,0,0.5,0,0.8c0,0.3,0,0.5,0,0.8h0
		c0,7.2-1.3,15.6-3.7,24.3l59.4,1.1c-13.4-18.7-35.8-31.4-51.7-49c-13.6-15.1-22.3-34.1-35.7-49.4C429.3,52.6,399.3,40.2,367.2,35.8
		 M176.3,11.3c-20.6,0-41.4,7.7-57.6,20.7C95.4,50.8,81.1,79,75.2,108.2c-4.2,21.1-5,44.5-19,60.9c-21.5,25.4-73.4,61.4-50.5,102.6
		c0.2,0.4,0.4,0.8,0.7,1.2c11.7,19.3,38.8,22.1,61.7,22.4c88.4,1.1,176.7,2.1,265.1,3c9.3,0.1,18.7,0.2,28.1,0.2
		c28.7,0,57.5-0.9,85.9-5.3c24.2-3.8,48.8-10.4,68.6-24.8c2.2-1.6,4.3-3.2,6.4-5c1.8-1.6,3.5-3.3,5.2-5c0.2-0.2,0.3-0.4,0.5-0.5
		c-0.2,0.2-0.3,0.4-0.5,0.5l-59.1-53.3l0.2-5.5c-5.3,10.6-12,20.5-19.5,28.1h3.5c4.7,0,8.5,3.3,9.5,7.7c5.3,1.1,9.3,5.9,9.3,11.5v0
		l0,0c0,5.6-3.9,10.2-9.1,11.4c0,0.1,0,0.3,0,0.4v0l0,0c0,1.5-0.3,2.9-1,4.2c11.7,0.4,23.3,0.9,35,1.5c6.7,0.3,14,0.9,19.6,4
		c-19.7,14.3-44.4,21-68.6,24.8c-28.4,4.4-57.1,5.3-85.9,5.3c-9.4,0-18.7-0.1-28.1-0.2c-88.4-0.9-176.7-1.9-265.1-3
		c-22.9-0.3-50-3.1-61.7-22.4h0.2c11.6-1.7,23.2-2.5,34.8-3.3c6.9-0.5,13.7-0.9,20.6-1.4c-6-5.9-9.7-14.1-9.7-23.2c0,0,0,0,0-0.1
		c0-18.1,14.7-32.7,32.7-32.7c0,0,0,0,0,0c4.3,0,8.3,0.8,12.1,2.3l1.5-3.4c-0.7-0.2-1.3-0.3-1.3-0.3c-0.3-0.1-0.6-0.3-0.6-0.5
		c-0.4-0.1-0.6-0.4-0.5-0.8l7.2-15.2c0.2-0.3,0.5-0.5,0.8-0.5c0.1,0,0.2,0,0.2,0c0.2,0,0.8,0.2,1.6,0.5l1.9-4.2
		c0.1-0.2,0.2-0.5,0.4-0.6l-4-0.4l0.4-7l-0.1-0.1c0,0.1-0.1,0.2-0.1,0.3c-0.2,0.1-0.4,0.2-0.6,0.2c0,0,0,0,0,0
		c-0.3,0.1-0.6,0.1-0.9,0.1c-0.7,0-1.4-0.2-2.1-0.5c-0.4-0.3-0.8-0.7-1-1.1c-1-1.7-1.2-3.7-0.6-5.6c0.5-1.5,2-3.8,3.7-4.2
		c0.1-0.6,0.2-1.2,0.4-1.8c0.8-1.9,2.8-3.1,4.7-4c4.9-2.2,10.4-3.5,14.2-7.3c3.1-3.1,4.5-7.3,6.4-11.3c0.6-1.1,1.7-4.2,3.2-4.2
		c0.1,0,0.2,0,0.4,0.1c-0.9-1.5-1-3.3-1-3.9c-0.1-1.5-0.1-3,0-4.5c0.2-1.7,4.9-2.9,7.8-2.9c1.3,0,2.2,0.2,2.2,0.7c0,0,0,2,0,4.1
		c1,0.1,1.9,0.7,2.7,1.3c6.9,5.4,10.2,14.1,13.5,22c2.3,5.6,4.7,11.5,4.7,17.5c0,0.6,0,1.2-0.1,1.7c-0.1,2.4-0.9,4.7-2.4,6.6
		c0.1,0.6,0.2,1.2,0.2,1.9c0,0.6-0.1,1.1-0.2,1.7c0.8-0.1,1.5-0.3,2.3-0.4c0.3,0,0.5-0.1,0.8-0.1c1.4,0,3,0.5,3.8,1.8
		c0.3,0.6,0.5,1.2,0.5,1.8c0,0.8-0.3,1.6-0.8,2.2c-0.7,0.8-1.7,1.3-2.8,1.4c-0.5,0.1-1,0.1-1.6,0.1s-1.1,0-1.6-0.1
		c-0.4,0-0.7,0-1.1,0c-0.3,0.7-0.8,1.8-1.2,2.8l10.2,0.1l3.9-9.2l-3.3-0.3l0.4-7.1l-3-2c-0.6-0.4-1-1.1-1-1.8c0-0.4,0.1-0.8,0.4-1.2
		l0-0.1c0.5-0.6,1.2-1,1.9-1c0.4,0,0.9,0.1,1.3,0.4l5.1,3.4l-0.3,5.3l3.4,0.3l2.2-4.9l6.3-0.9c0.1,0,0.2,0,0.4,0
		c1.1,0,2,0.8,2.2,1.9c0,0.1,0,0.2,0,0.3c0,1.1-0.8,2-1.9,2.2l0,0l-3.8,0.5l-2.5,5.6l-3.6-0.3l-3.9,8.9l9.7,0.1c0-0.2,0-0.4-0.1-0.7
		c0-0.2,0-0.5,0-0.7c0-2.1,0.8-4.2,2.1-5.9c1-0.9,2.1-1.7,3.4-2.2c2.4,0,6.7-3.2,9-4.1c2.4-1,4.8-1.8,7.3-2.6
		c-0.9-1.1-1.7-2.4-2.2-3.8c-0.9-2.7-0.8-5.7-0.9-8.5c-0.1-2.3-0.3-4.5-0.7-6.8c-3.3,3.6-8,5.8-12.7,7.3c-4.8,1.5-9.9,2.2-15,2.2
		c-0.2,0-0.4,0-0.7,0c-0.1,0-0.1,0-0.2,0c-0.3,0-0.6-0.1-0.9-0.2c-0.5-0.4-0.8-1.1-0.7-1.8c-0.1-1,0.1-2,0.4-3
		c0.8-1.9,2.8-3.1,4.7-4c4.9-2.3,10.4-3.5,14.2-7.3c3.1-3.1,4.5-7.3,6.4-11.3c0.4-0.7,1-2.3,1.8-3.2c0.2-1.8,0.6-3.6,1.6-5.1
		c1.4-2.4,4-3.9,6.7-3.9c0.5,0,1,0,1.4,0.1c3.1,0.7,5.4,3.5,7.4,5.9c4.5,5.6,7.3,12.4,10.1,19c2.3,5.5,4.6,11.3,4.7,17.2l43.8-2.9
		c0-0.8,0-1.5-0.1-2.3c-0.1-2.3-0.3-4.5-0.7-6.8c-3.3,3.6-8,5.8-12.7,7.3c-4.8,1.5-9.9,2.2-15,2.2c-0.2,0-0.4,0-0.7,0
		c-0.1,0-0.1,0-0.2,0c-0.3,0-0.6-0.1-0.9-0.2c-0.5-0.4-0.8-1.1-0.7-1.8c-0.1-1,0.1-2,0.4-3c0.8-1.9,2.8-3.1,4.7-4
		c4.9-2.3,10.4-3.5,14.2-7.3c3.1-3.1,4.5-7.3,6.4-11.3c0.4-0.7,1-2.3,1.8-3.3c0.2-1.8,0.6-3.6,1.6-5.1c0.9-1.5,2.2-2.7,3.8-3.3
		c-0.1-0.8,0.2-1.8,0.2-2.5c0,0,0,0,0,0c-1.2,0.6-2.3,1-3,1c-0.1,0-0.1,0-0.2,0c-2.4,0-3.7-3.5-3.7-6.8c-0.1-3,0.4-7.9,0.7-10.6
		c-0.4-0.3-0.7-0.7-0.7-1.3c0-0.4,0.1-0.8,0.5-1.3c1.1-1.7,3.5-1.8,5.5-1.9h1.1c0.9-0.1,1.8-0.2,2.6-0.2c2,0,3.7,0.5,5.7,1.8
		c2.7,1.7,5.2,4.1,8.2,4.7c0.8,0.2,1.6,0.2,2.4,0.2c2.2,0,4.5-0.5,6.7-0.6c0.2,0,0.3,0,0.5,0c1.9,0,3.7,0.3,5.5,0.9
		c1.7,0.5,3.2,1.6,4.1,3.2c0.6,1.5,0.4,3.2,0.6,4.8c0.3,2,1.4,3.8,3.1,5c1.6,1.1,3.7,1.7,4.6,3.4c0.3,0.6,0.4,1.2,0.4,1.8
		c0,1.4-0.6,2.7-1.7,3.5c-1.5,1.1-3.3,1.7-5.1,1.7c-0.2,0-0.4,0-0.5,0c-1.8-0.2-3.6-0.5-5.4-1c-0.3-0.1-0.6-0.1-1-0.1
		c-0.4,0-0.7,0-1.1,0.1c-0.4,0-0.7,0.1-1.1,0.1c-0.4,0-0.8,0-1.2-0.1c-1.9-0.5-3-2.9-5-2.9c-0.6,0-1.2,0.2-1.8,0.5
		c-1.5,0.7-3.2,1.1-4.8,1.1c-0.4,0-0.7,0-1.1-0.1c-1.3-0.3-2.6-0.8-3.7-1.5c-1.4-0.7-2.5-1.7-3.4-2.9c-0.3-0.7-0.6-1.5-0.9-2.3
		c0.1,1,0.1,1.9,0,2.9c0,0.1,0,0.1,0,0.2c2,1.2,3.6,3.2,5,4.9c4.5,5.6,7.3,12.4,10.1,19c1.7,4,3.4,8.2,4.2,12.5l59.4-3.9
		c-1.1-6-1.7-11.7-1.7-16.8c0-0.3,0-0.5,0-0.8c0-10,2.4-19.5,6.7-27.9L251.7,40.7l1.5-0.6c-17.9-4.7-33-17.7-50.5-24.2
		C194.2,12.8,185.3,11.3,176.3,11.3"/>
	<g>
		<defs>
			<path id="SVGID_1_" d="M351.7,0l-98.5,40.1c2,0.5,4,0.9,6.1,1.2c2.7,0.4,5.4,0.6,8.1,0.6c9.7,0,19.4-2.2,29.1-3.9
				c14.1-2.5,28.7-4,43.3-4c9.2,0,18.4,0.6,27.4,1.8L351.7,0"/>
		</defs>
		<clipPath id="SVGID_2_">
			<use xlink:href="#SVGID_1_"  style="overflow:visible;"/>
		</clipPath>
		<g transform="matrix(1 0 0 1 -1.525879e-05 0)" style="clip-path:url(#SVGID_2_);">
			
				<image style="overflow:visible;" width="478" height="178" xlink:href="8C73CC5A7C9763FD.jpg"  transform="matrix(0.24 0 0 -0.24 252.72 42.35)">
			</image>
		</g>
	</g>
	<g>
		<defs>
			<path id="SVGID_3_" d="M339.8,34.1c-14.6,0-29.3,1.4-43.3,4c-9.6,1.7-19.4,3.9-29.1,3.9c-2.7,0-5.4-0.2-8.1-0.6
				c-2.1-0.3-4.1-0.7-6.1-1.2l-1.5,0.6l114.1,80.5c5.9-11.4,15.2-20.8,26.6-26.7l-25.3-58.7C358.2,34.6,349,34.1,339.8,34.1"/>
		</defs>
		<clipPath id="SVGID_4_">
			<use xlink:href="#SVGID_3_"  style="overflow:visible;"/>
		</clipPath>
		<g style="clip-path:url(#SVGID_4_);">
			
				<image style="overflow:visible;" width="590" height="366" xlink:href="8C73CC5A7C9763FF.jpg"  transform="matrix(0.24 0 0 -0.24 251.28 121.55)">
			</image>
		</g>
	</g>
	<g>
		<defs>
			<path id="SVGID_5_" d="M303.6,223.9c-0.7,0.7-1.5,1.4-2.1,2.1l2.9-0.9L303.6,223.9 M322.3,216.8c-5.5,0-10.7,1.6-15.1,4.4
				l1.6,2.6l20.3-6.2C326.9,217,324.7,216.8,322.3,216.8 M293.4,207l-7.1,20c0.6,1,1.3,2.1,1.9,3.1l6-1.8c1.9-3.1,4.2-6,7-8.3
				L293.4,207 M277.6,204.4c-0.3,0.4-0.5,0.9-0.6,1.4c-0.1,0.5-0.1,0.9-0.1,1.4c0,1.2,0.2,2.3,0.7,3.4c1.4,4,3.5,7.7,5.6,11.4
				l6.2-17.5L277.6,204.4 M259.4,237.6c-0.3,0-0.6-0.1-0.8-0.2c-0.3-0.2-0.5-0.5-0.5-0.9c-0.1-0.5,0-1.1,0.3-1.6
				c0.4-0.5,0.9-1,1.5-1.3c1.3-0.8,2.4-1.8,3.4-2.9c0.3-0.3,0.6-0.7,0.8-1.2c0.3-0.9-0.2-2,0.1-2.8c0.2-0.3,0.6-0.5,1-0.8
				c0.4-0.3,0.9-0.6,1.3-0.8c0.1-0.1,0.2-0.1,0.3-0.1c0,0,0,0,0,0c0.1,0,0.2,0.1,0.2,0.1c0.8,0.8,1.5,1.7,2.1,2.7
				c0.2,0.3,0.4,0.5,0.5,0.8c0.1,0.2,0.2,0.5,0.2,0.8c0.3,1.9-0.4,3.8-1.9,4.9c-0.3,0.2-0.7,0.4-1.1,0.6c-2.2,1.2-4.6,2-7,2.5
				C259.8,237.6,259.6,237.6,259.4,237.6 M230,204l10.6,39.7l2.9,0L262,238l0,0l8-3.2l0.2,0.7l9.2-2.8l0.4-1.2
				c-3.7-4-7.1-8.5-10.3-12.9c-0.7-1-1.5-2.1-2.2-3.1c0.1,0.9,0.2,1.7,0.3,2.6c0.1,0.9,0.2,1.8,0.2,2.7c0,1-0.2,2-0.7,2.9
				c-0.6,1-1.8,1.7-2.9,1.7c-0.7,0-1.4-0.3-1.8-0.9c-0.2-0.3-0.3-0.6-0.5-1l-5.4-16.3c-0.4-1-0.7-1.9-1-2.9L230,204 M292.3,196.5
				c-2.2,1-4.6,1.6-7.1,1.9c-0.7,0.5-1.3,1-2,1.4l8,0.1L292.3,196.5 M273.4,172.5l-43.8,2.9c0,0.1,0,0.2,0,0.3c0,0.6,0,1.2-0.1,1.8
				c-0.1,2.4-0.9,4.7-2.4,6.6c0.1,0.6,0.2,1.2,0.2,1.9c0,1.2-0.2,2.3-0.6,3.5c0.5,0.3,0.8,0.6,1.1,1.1c0.3,0.6,0.5,1.2,0.5,1.8
				c0,0.8-0.3,1.6-0.8,2.2c0,0-0.1,0.1-0.1,0.1l1.3,4.8l10.7,0.1l4.3-10.1l-2.8-0.3l0.4-7.1l-3-2c-0.6-0.4-1-1.1-1-1.8
				c0-0.4,0.1-0.8,0.4-1.2l0-0.1c0.4-0.6,1.2-1,1.9-1c0.4,0,0.9,0.1,1.3,0.4l5.1,3.4l-0.3,5.3l3.4,0.3l2.2-4.9l6.3-0.9
				c0.1,0,0.2,0,0.4,0c1.1,0,2.1,0.8,2.2,1.9c0,0.1,0,0.2,0,0.3c0,1.1-0.8,2.1-1.9,2.2l0,0l-3.8,0.5l-2.5,5.6l-4.1-0.4l-4.2,9.8
				l11.1,0.1c-0.1-0.5-0.1-1-0.1-1.5c0-0.3,0-0.5,0-0.8c0-2.1,0.7-4.2,2.1-5.8c1-0.9,2.1-1.7,3.3-2.2c2.4,0,6.8-3.2,9-4.1
				c2.4-1,4.8-1.8,7.3-2.7c-0.9-1.1-1.7-2.4-2.2-3.8C273.6,176.7,273.5,174.6,273.4,172.5 M360.9,166.8l-59.4,3.9
				c0.3,1.7,0.5,3.3,0.5,5c0,0.6,0,1.2-0.1,1.7c-0.1,2.4-0.9,4.7-2.4,6.6c0.1,0.6,0.2,1.2,0.2,1.8c0,0.9-0.1,1.9-0.4,2.8
				c0,0,0.1,0,0.1,0c1.4,0,3,0.5,3.8,1.8c0.3,0.6,0.5,1.2,0.5,1.8c0,0.8-0.3,1.6-0.8,2.2c-0.7,0.8-1.7,1.3-2.8,1.4
				c-0.5,0.1-1,0.1-1.6,0.1s-1.1,0-1.6-0.1c-0.4,0-0.7,0-1.1,0c-0.4,0.9-1,2.5-1.6,3.7c0.6,0.4,0.9,1,1,1.7l9.7,16
				c5-3.2,11-5,17.4-5c5,0,9.8,1.1,14.1,3.2l37.3-11.4C367.6,192,363.1,178.8,360.9,166.8"/>
		</defs>
		<clipPath id="SVGID_6_">
			<use xlink:href="#SVGID_5_"  style="overflow:visible;"/>
		</clipPath>
		<g style="clip-path:url(#SVGID_6_);">
			
				<image style="overflow:visible;" width="616" height="323" xlink:href="8C73CC5A7C9763FA.jpg"  transform="matrix(0.24 0 0 -0.24 226.32 243.95)">
			</image>
		</g>
	</g>
	<g>
		<defs>
			<path id="SVGID_7_" d="M530.5,254.9c-0.9,1-1.8,2-2.7,3C528.7,256.9,529.6,255.9,530.5,254.9 M537.6,175.3
				C537.6,175.3,537.6,175.3,537.6,175.3c3.4,4.6,6,9.6,8,14.9c7.9,21.8,0.2,46.6-15,64.5c15.2-17.9,22.9-42.7,15-64.5
				C543.7,184.9,541,179.9,537.6,175.3L537.6,175.3"/>
		</defs>
		<clipPath id="SVGID_8_">
			<use xlink:href="#SVGID_7_"  style="overflow:visible;"/>
		</clipPath>
		<g style="clip-path:url(#SVGID_8_);">
			
				<image style="overflow:visible;" width="110" height="348" xlink:href="8C73CC5A7C9763FB.jpg"  transform="matrix(0.24 0 0 -0.24 527.52 258.35)">
			</image>
		</g>
	</g>
	<g>
		<defs>
			<path id="SVGID_9_" d="M478.2,174.2c-2.3,8.4-5.7,17.1-9.8,25.4l-0.2,5.5l59.1,53.3c0.2-0.2,0.3-0.4,0.5-0.5c0.9-1,1.8-2,2.7-3
				c0.1-0.1,0.1-0.1,0.2-0.2c15.2-17.9,22.9-42.7,15-64.5c-2-5.3-4.7-10.4-8-14.9c0,0,0,0,0,0L478.2,174.2"/>
		</defs>
		<clipPath id="SVGID_10_">
			<use xlink:href="#SVGID_9_"  style="overflow:visible;"/>
		</clipPath>
		<g style="clip-path:url(#SVGID_10_);">
			
				<image style="overflow:visible;" width="358" height="354" xlink:href="8C73CC5A7C976405.jpg"  transform="matrix(0.24 0 0 -0.24 468 258.83)">
			</image>
		</g>
	</g>
	<path class="st1" d="M104,265.7c-11.8,0.6-23.7,1.3-35.5,2.1c2.4,1.8,5.2,3.2,8.1,4.1c1.3-0.1,2.6-0.3,3.9-0.4
		c5.8-0.7,11.7-1.2,17.6-1.6C100.3,268.7,102.3,267.3,104,265.7 M351.2,260.3c-3.2,6.1-8.3,11-14.5,14c11.3,0.7,22.5,2,33.6,3.9
		c-15.7,4.2-31.7,6.8-47.8,8c-3.1,0.2-6.2,0.4-9.3,0.4c-6.9,0-13.7-0.8-20-3.6c-3.5-1.6-6.9-3.7-10.6-4.7c-2.6-0.6-5.2-0.9-7.9-0.9
		c-0.3,0-0.7,0-1,0l-115-1.5c-0.8,0-1.6,0-2.4,0c-3.5,0-7.1,0.2-10.3,1.2c-4,1.2-7.5,3.6-11.4,5.1c-5.8,2.2-12.2,2.4-18.4,2.4
		c-1.9,0-3.8,0-5.8,0c-21.8,0-43.6-0.9-65.3-2.6c-3.9-0.3-8.6-1.3-9.6-5c10.6-3.8,21.2-4.2,31.9-4.7c-1.9-1.2-3.7-2.7-5.3-4.3
		c-6.9,0.4-13.7,0.9-20.6,1.4c-11.6,0.8-23.3,1.6-34.8,3.3H6.4c11.7,19.3,38.8,22.1,61.7,22.4c88.4,1.1,176.7,2.1,265.1,3
		c9.3,0.1,18.7,0.2,28.1,0.2c28.7,0,57.5-0.9,85.9-5.3c24.2-3.8,48.8-10.4,68.6-24.8c-5.7-3.1-12.9-3.7-19.6-4
		c-11.7-0.5-23.3-1-35-1.5c-1.6,3.2-4.9,5.5-8.7,5.5h-59c-4.6,0-8.5-3.3-9.4-7.6C373,260.6,362.1,260.4,351.2,260.3 M293.4,260.2
		c-60.9,0.3-121.9,2-182.7,5.2c-1.2,1.5-2.5,2.9-3.9,4.1c9.3-0.3,18.6-0.3,27.9-0.3c56.6,0.1,113.3,0.2,169.8,3.2
		C299.8,269.3,296,265.1,293.4,260.2 M312.9,260.1c-4.7,0-9.5,0-14.2,0c5,7.8,13.7,12.9,23.7,12.9c9.9,0,18.6-5.1,23.6-12.8
		C334.9,260.2,323.9,260.1,312.9,260.1"/>
	<path class="st2" d="M98.2,269.8c-5.9,0.3-11.7,0.8-17.6,1.6c-1.3,0.2-2.6,0.3-3.9,0.4c2.6,0.8,5.4,1.3,8.4,1.3c0,0,0,0,0,0
		C89.8,273.1,94.2,271.9,98.2,269.8 M134.6,269.2c-9.3,0-18.6,0-27.9,0.3c-5.8,5.1-13.4,8.2-21.7,8.2c-6.5,0-12.6-1.9-17.7-5.2
		c-10.7,0.6-21.2,0.9-31.9,4.7c1.1,3.7,5.8,4.7,9.6,5c21.7,1.7,43.5,2.6,65.3,2.6c1.9,0,3.8,0,5.8,0c6.2,0,12.6-0.2,18.4-2.4
		c3.9-1.5,7.4-3.9,11.4-5.1c3.2-1,6.8-1.2,10.3-1.2c0.8,0,1.6,0,2.4,0l115,1.5c0.3,0,0.7,0,1,0c2.6,0,5.3,0.3,7.9,0.9
		c3.8,1,7.1,3.1,10.6,4.7c6.3,2.8,13.1,3.6,20,3.6c3.1,0,6.2-0.2,9.3-0.4c16.2-1.2,32.2-3.8,47.8-8c-11.1-1.9-22.4-3.2-33.6-3.9
		c-4.3,2.1-9.2,3.3-14.3,3.3c-6.6,0-12.8-2-17.9-5.3C247.9,269.3,191.2,269.2,134.6,269.2"/>
	<polyline class="st3" points="172.6,189 167.7,200.7 171.9,200.7 176.8,189.3 172.6,189 	"/>
	<polyline class="st3" points="244,188.9 239,200.5 243.2,200.5 248.2,189.2 244,188.9 	"/>
	<path class="st4" d="M296,189.1c-4.4,4.4-9.2,8.3-14.3,11.7c-2,1.3-4.2,2.7-4.8,5c-0.3,1.6-0.1,3.3,0.6,4.8
		c3.2,8.9,9.3,16.4,13.6,24.8c0.1,0.2,0.2,0.5,0.2,0.7c-0.1,0.3-0.3,0.5-0.6,0.7l-2.9,2.1c-7.3-5.5-13-13-18.4-20.4
		c-3.7-5.1-7.5-10.7-7.8-17.1c-0.3-3.3,1-6.6,3.6-8.7c1.7-1.6,3.8-2.8,6-3.5c3.5-1.1,7.2-1.1,10.8-1c4,0.1,8.4,0.3,11.1,3.3
		L296,189.1"/>
	<g>
		<defs>
			<path id="SVGID_11_" d="M286.3,227l-2.9,8.1c1.5,1.4,3,2.7,4.6,3.9l2.6-1.9c0.2-0.6,0.3-1.2,0.5-1.8
				C289.6,232.4,287.9,229.7,286.3,227 M266.7,204.3c0,0.1,0,0.2,0,0.3c0,3.6,0.2,7.3,0.6,10.9c0.7,1.1,1.5,2.1,2.2,3.1
				c3.2,4.5,6.6,8.9,10.3,12.9l3.4-9.5c-2.2-3.6-4.2-7.4-5.6-11.4c-0.5-1.1-0.7-2.2-0.7-3.4c0-0.5,0-0.9,0.1-1.4
				c0.1-0.5,0.4-1,0.6-1.4L266.7,204.3 M285.2,198.4c-1,0.1-2,0.2-3.1,0.2c-0.5,0-1.1,0-1.6,0c-1.3,0-2.6,0-3.9-0.1
				c-1.3,0-2.6-0.1-3.9-0.1c-1.5,0-3,0-4.5,0.2c-0.4,0-0.7,0.1-1,0.3c-0.2,0.2-0.3,0.4-0.3,0.7l16.3,0.1
				C283.8,199.4,284.5,198.9,285.2,198.4"/>
		</defs>
		<clipPath id="SVGID_12_">
			<use xlink:href="#SVGID_11_"  style="overflow:visible;"/>
		</clipPath>
		<g style="clip-path:url(#SVGID_12_);">
			
				<image style="overflow:visible;" width="104" height="172" xlink:href="8C73CC5A7C976407.jpg"  transform="matrix(0.24 0 0 -0.24 266.4 239.39)">
			</image>
		</g>
	</g>
	<path class="st4" d="M288.5,242.7c0.1,0.6,0.2,1.2,0.1,1.7c-0.1,0.6-0.4,1.2-0.7,1.7c-0.9,1.5-1.6,3.1-2.3,4.7
		c-0.2,0.4-0.3,0.9-0.1,1.3c0.3,0.7,1.2,0.7,1.9,0.6c2.1-0.3,4.2-1.2,5.8-2.6c0.3-0.2,0.6-0.5,0.8-0.9c0.1-0.4,0.2-0.7,0.2-1.1
		c0.1-3.3-1-6.6-3-9.2c-0.2-0.3-0.5-0.5-0.8-0.7c-0.8-0.3-2,0.5-2.3,1.3C287.8,240.3,288.3,241.8,288.5,242.7"/>
	<path class="st4" d="M289.4,256c0,0-7.2-8.8-7.9-8.7c-0.7,0.1-1.6,1.3-1.6,1.3l8.2,7.7L289.4,256"/>
	<polyline class="st3" points="287.4,254.4 288.7,258.5 296.5,254.9 295.4,251.2 287.4,254.4 	"/>
	<g>
		<defs>
			<path id="SVGID_13_" d="M290.6,253.1l-2.7,1.1l-0.6,0.2l1.4,4.1l3.2-1.5C291.4,255.8,291,254.5,290.6,253.1 M295.4,251.2
				l-0.5,0.2c0.3,1.3,0.7,2.5,1.2,3.7l0.5-0.2L295.4,251.2"/>
		</defs>
		<clipPath id="SVGID_14_">
			<use xlink:href="#SVGID_13_"  style="overflow:visible;"/>
		</clipPath>
		<g style="clip-path:url(#SVGID_14_);">
			
				<image style="overflow:visible;" width="41" height="33" xlink:href="8C73CC5A7C97640A.jpg"  transform="matrix(0.24 0 0 -0.24 287.04 258.83)">
			</image>
		</g>
	</g>
	<path class="st4" d="M214,254.8c0,0-7.2-8.8-7.9-8.7c-0.7,0.1-1.6,1.3-1.6,1.3l8.2,7.7L214,254.8"/>
	<polyline class="st3" points="211.9,253.1 213.3,257.2 221.1,253.6 220,249.9 211.9,253.1 	"/>
	<g>
		<defs>
			<polyline id="SVGID_15_" points="220,249.9 212.5,252.9 211.9,253.1 213.3,257.2 221.1,253.6 220,249.9 			"/>
		</defs>
		<clipPath id="SVGID_16_">
			<use xlink:href="#SVGID_15_"  style="overflow:visible;"/>
		</clipPath>
		<g style="clip-path:url(#SVGID_16_);">
			
				<image style="overflow:visible;" width="42" height="34" xlink:href="8C73CC5A7C97640B.jpg"  transform="matrix(0.24 0 0 -0.24 211.44 257.63)">
			</image>
		</g>
	</g>
	<path class="st4" d="M148.9,255.6c0,0-7.2-8.8-7.9-8.7c-0.7,0.1-1.6,1.4-1.6,1.4l8.2,7.7L148.9,255.6"/>
	<path class="st4" d="M223.7,189.1c-4.3,4.4-9.2,8.3-14.3,11.7c-2,1.3-4.2,2.7-4.8,5c-0.3,1.6-0.1,3.3,0.6,4.8
		c3.2,8.9,9.3,16.4,13.6,24.8c0.1,0.2,0.2,0.5,0.2,0.7c-0.1,0.3-0.3,0.5-0.6,0.7l-2.9,2.1c-7.3-5.5-13-13-18.4-20.4
		c-3.7-5.1-7.5-10.7-7.8-17.1c-0.3-3.3,1-6.6,3.6-8.7c1.7-1.6,3.8-2.8,6-3.5c3.5-1.1,7.1-1.1,10.8-1c4,0.1,8.4,0.3,11.1,3.3
		L223.7,189.1"/>
	<g>
		<defs>
			<path id="SVGID_17_" d="M210.9,222l-3.4,9.5c2.5,2.7,5.2,5.2,8.1,7.4l2.9-2.1c0.3-0.2,0.5-0.4,0.6-0.7c0,0,0-0.1,0-0.1
				c0-0.2-0.1-0.5-0.2-0.6C216.4,230.8,213.5,226.5,210.9,222 M194.4,203.7c0,0.3,0,0.5,0,0.8c0,3.7,0.2,7.3,0.6,11
				c0.7,1,1.4,2,2.1,3c2.2,3.1,4.5,6.1,6.9,9l3.9-10.8c-1-2-1.9-4-2.7-6.1c-0.5-1.1-0.7-2.2-0.7-3.4c0-0.5,0-0.9,0.1-1.4
				c0.2-0.7,0.6-1.4,1-2L194.4,203.7 M212.8,198.4c-1,0.1-2,0.2-3,0.2c-0.5,0-1.1,0-1.6,0c-1.3,0-2.6,0-3.9-0.1
				c-1.3,0-2.6-0.1-3.9-0.1c-1.5,0-3,0-4.5,0.2c-0.3,0-0.5,0.1-0.8,0.2L212,199C212.3,198.8,212.5,198.6,212.8,198.4"/>
		</defs>
		<clipPath id="SVGID_18_">
			<use xlink:href="#SVGID_17_"  style="overflow:visible;"/>
		</clipPath>
		<g style="clip-path:url(#SVGID_18_);">
			
				<image style="overflow:visible;" width="105" height="172" xlink:href="8C73CC5A7C97640D.jpg"  transform="matrix(0.24 0 0 -0.24 194.16 239.39)">
			</image>
		</g>
	</g>
	<path class="st4" d="M216.4,241.7c0.1,0.6,0.2,1.2,0.1,1.7c-0.2,0.6-0.4,1.1-0.7,1.7c-0.9,1.5-1.6,3.1-2.3,4.7
		c-0.2,0.4-0.3,0.9-0.1,1.3c0.3,0.7,1.2,0.8,2,0.6c2.1-0.3,4.2-1.2,5.8-2.6c0.3-0.2,0.6-0.5,0.8-0.9c0.1-0.4,0.2-0.7,0.2-1.1
		c0.1-3.3-1-6.6-3-9.2c-0.2-0.3-0.5-0.5-0.8-0.7c-0.8-0.3-2,0.5-2.3,1.3C215.8,239.2,216.3,240.7,216.4,241.7z"/>
	<path class="st3" d="M156.5,194.9l-1.9,5.4c0,0,1.4,1.2,2.3,0.7c0.8-0.5,3-6,3-6L156.5,194.9"/>
	<path class="st4" d="M152,191.4c-0.8,0.3-1.7,0.8-1.8,1.7c-0.1,0.7,0.3,1.5,0.9,1.9c1.5,1.1,3.5,1,5.3,0.9c1.4-0.1,2.8-0.1,4.2,0
		c1,0.1,2.1,0.1,3.1,0c1.1-0.1,2-0.6,2.8-1.4c0.9-1.1,1-2.7,0.3-4c-0.9-1.5-2.9-1.9-4.6-1.7c-2.2,0.3-4.4,0.8-6.6,1.5
		C154.4,190.5,153.2,191,152,191.4"/>
	<g>
		<defs>
			<path id="SVGID_19_" d="M163.1,188.7c-0.3,0-0.5,0-0.8,0.1c-0.8,0.1-1.5,0.2-2.3,0.4c-0.5,2.5-1.9,5-3.9,6.7c0.1,0,0.2,0,0.3,0
				c0.7,0,1.4-0.1,2.1-0.1s1.4,0,2.1,0.1c0.5,0.1,1,0.1,1.6,0.1s1.1,0,1.6-0.1c1.1-0.1,2-0.6,2.8-1.4c0.5-0.6,0.8-1.4,0.8-2.2
				c0-0.6-0.2-1.2-0.5-1.8C166,189.2,164.5,188.7,163.1,188.7"/>
		</defs>
		<clipPath id="SVGID_20_">
			<use xlink:href="#SVGID_19_"  style="overflow:visible;"/>
		</clipPath>
		<g style="clip-path:url(#SVGID_20_);">
			
				<image style="overflow:visible;" width="50" height="33" xlink:href="4CBC891401E17396.jpg"  transform="matrix(0.24 0 0 -0.24 155.76 196.19)">
			</image>
		</g>
	</g>
	<path class="st3" d="M217.6,194.9l-1.9,5.4c0,0,1.4,1.2,2.3,0.7c0.9-0.5,3-6,3-6L217.6,194.9"/>
	<path class="st4" d="M213.1,191.4c-0.8,0.3-1.7,0.8-1.9,1.7c-0.1,0.7,0.3,1.5,0.9,1.9c1.5,1.1,3.5,1,5.3,0.9c1.4-0.1,2.8-0.1,4.2,0
		c1,0.1,2.1,0.1,3.1,0c1.1-0.1,2-0.6,2.8-1.4c0.9-1.1,1-2.7,0.3-4c-0.9-1.5-2.9-1.9-4.5-1.7c-2.2,0.3-4.4,0.7-6.6,1.4
		C215.5,190.5,214.3,191,213.1,191.4"/>
	<g>
		<defs>
			<path id="SVGID_21_" d="M226.8,189.4c-0.7,2.1-2.1,4-3.8,5.3c-0.5,0.4-1.1,0.8-1.6,1.1c0.1,0,0.3,0,0.4,0c0.5,0.1,1,0.1,1.6,0.1
				c0.5,0,1.1,0,1.6-0.1c1.1-0.1,2-0.6,2.8-1.4c0.5-0.6,0.8-1.4,0.8-2.2c0-0.6-0.2-1.2-0.5-1.8C227.6,190,227.2,189.6,226.8,189.4"
				/>
		</defs>
		<clipPath id="SVGID_22_">
			<use xlink:href="#SVGID_21_"  style="overflow:visible;"/>
		</clipPath>
		<g style="clip-path:url(#SVGID_22_);">
			
				<image style="overflow:visible;" width="32" height="30" xlink:href="4CBC891401E17391.jpg"  transform="matrix(0.24 0 0 -0.24 221.04 196.19)">
			</image>
		</g>
	</g>
	<path class="st3" d="M292.8,194.9l-1.9,5.4c0,0,1.4,1.2,2.3,0.7c0.8-0.5,3-6,3-6L292.8,194.9"/>
	<path class="st4" d="M288.3,191.4c-0.8,0.3-1.7,0.8-1.8,1.7c-0.1,0.7,0.3,1.5,0.9,1.9c1.5,1.1,3.5,1,5.3,0.9c1.4-0.1,2.8-0.1,4.2,0
		c1,0.1,2.1,0.1,3.1,0c1.1-0.1,2-0.6,2.8-1.4c0.9-1.1,1-2.7,0.3-4c-0.9-1.5-2.9-1.9-4.6-1.7c-2.2,0.3-4.4,0.8-6.6,1.5
		C290.8,190.5,289.5,191,288.3,191.4"/>
	<g>
		<defs>
			<path id="SVGID_23_" d="M299.4,188.7c0,0-0.1,0-0.1,0c-0.7,2.3-2.1,4.5-4,6c-0.5,0.4-1,0.8-1.6,1.1c0.4,0,0.8,0,1.2,0
				c0.7,0,1.4,0,2.1,0.1c0.5,0.1,1,0.1,1.6,0.1s1.1,0,1.6-0.1c1.1-0.1,2-0.6,2.8-1.4c0.5-0.6,0.8-1.4,0.8-2.2c0-0.6-0.2-1.2-0.5-1.8
				C302.4,189.2,300.8,188.7,299.4,188.7"/>
		</defs>
		<clipPath id="SVGID_24_">
			<use xlink:href="#SVGID_23_"  style="overflow:visible;"/>
		</clipPath>
		<g style="clip-path:url(#SVGID_24_);">
			
				<image style="overflow:visible;" width="45" height="33" xlink:href="4CBC891401E17392.jpg"  transform="matrix(0.24 0 0 -0.24 293.28 196.19)">
			</image>
		</g>
	</g>
	<path class="st4" d="M85,277.6c-18.1,0-32.7-14.7-32.7-32.8c0-18.1,14.7-32.7,32.8-32.7c18.1,0,32.7,14.7,32.7,32.7
		C117.8,263,103.1,277.6,85,277.6 M85,216.8c-15.6,0-28.2,12.6-28.2,28.2c0,15.6,12.6,28.2,28.1,28.2s28.2-12.6,28.2-28.2v0
		C113.2,229.4,100.6,216.8,85,216.8"/>
	<path class="st4" d="M322.3,277.6c-18.1,0-32.7-14.7-32.7-32.7s14.7-32.7,32.7-32.7s32.7,14.7,32.7,32.7v0
		C355,263,340.4,277.6,322.3,277.6 M322.3,216.8c-15.6,0-28.2,12.6-28.2,28.2c0,15.6,12.6,28.2,28.2,28.2
		c15.6,0,28.2-12.6,28.2-28.2C350.5,229.4,337.9,216.8,322.3,216.8"/>
	<g>
		<defs>
			<path id="SVGID_25_" d="M85.1,212.2c-18.1,0-32.7,14.6-32.7,32.7c0,0,0,0,0,0.1c0,18.1,14.6,32.7,32.7,32.7
				c18.1,0,32.7-14.6,32.8-32.7c0-12.2-6.6-22.8-16.5-28.4l-1.9,4.2c8.2,4.9,13.8,13.9,13.8,24.2v0l0,0c0,10.8-6.1,20.2-15,24.9
				c-3.9,2.1-8.4,3.2-13.1,3.2c0,0,0,0,0,0c-2.9,0-5.7-0.4-8.4-1.3c-2.9-0.9-5.7-2.3-8.1-4.1c-7.1-5.1-11.7-13.4-11.7-22.8l0,0l0,0
				c0-15.5,12.6-28.2,28.2-28.2c0,0,0,0,0,0c3.6,0,7.1,0.7,10.3,1.9l1.9-4.2C93.4,213,89.4,212.2,85.1,212.2
				C85.1,212.2,85.1,212.2,85.1,212.2"/>
		</defs>
		<clipPath id="SVGID_26_">
			<use xlink:href="#SVGID_25_"  style="overflow:visible;"/>
		</clipPath>
		<g style="clip-path:url(#SVGID_26_);">
			
				<image style="overflow:visible;" width="275" height="276" xlink:href="4CBC891401E17390.jpg"  transform="matrix(0.24 0 0 -0.24 52.08 278.03)">
			</image>
		</g>
	</g>
	<g>
		<defs>
			<path id="SVGID_27_" d="M301.2,219.9c-4.7,4-8.3,9.2-10.1,15.3c-0.2,0.6-0.4,1.2-0.5,1.8c-0.1,0.4-0.2,0.8-0.3,1.2
				c-0.4,1.9-0.6,3.8-0.7,5.8l4.6-0.1c0.3-8,3.9-15.1,9.4-20L301.2,219.9 M322.3,212.2c-6.4,0-12.4,1.8-17.4,5l2.4,3.9
				c4.4-2.8,9.5-4.4,15.1-4.4c15.5,0,28.1,12.6,28.2,28.2l0,0l0,0c0,5.7-1.7,10.9-4.5,15.3c-5,7.7-13.7,12.8-23.6,12.8
				c-9.9,0-18.7-5.1-23.7-12.9c-1-1.6-1.9-3.3-2.6-5c-0.5-1.2-0.9-2.4-1.2-3.7c-0.2-1-0.4-1.9-0.5-2.9l-4.6,0.1
				c1.8,16.3,15.7,29,32.5,29c18.1,0,32.7-14.7,32.7-32.7v0C355,226.8,340.4,212.2,322.3,212.2"/>
		</defs>
		<clipPath id="SVGID_28_">
			<use xlink:href="#SVGID_27_"  style="overflow:visible;"/>
		</clipPath>
		<g style="clip-path:url(#SVGID_28_);">
			
				<image style="overflow:visible;" width="276" height="276" xlink:href="4CBC891401E173AE.jpg"  transform="matrix(0.24 0 0 -0.24 289.2 278.03)">
			</image>
		</g>
	</g>
	<path class="st3" d="M122.4,158.2c-3.8,3.8-9.4,5.1-14.2,7.3c-1.9,0.9-3.9,2.1-4.7,4c-0.3,1-0.5,2-0.4,3c-0.2,0.9,0.3,1.7,1.1,2
		c0.2,0.1,0.5,0.1,0.7,0c5.3,0.1,10.6-0.7,15.6-2.2c5.5-1.7,11-4.5,14.3-9.3c0.7-1,1.3-2.1,1.6-3.3c0.2-1.2,0.3-2.5,0.2-3.7
		c0-2.5-0.3-4.9-0.8-7.4c-0.5-1.8-1.5-4.7-3.2-5.7c-1.7-1-3.1,2.8-3.7,4C126.9,150.8,125.5,155,122.4,158.2"/>
	<path class="st5" d="M141.4,132.3c0,0,0.1,3.8,0,6.6c0,2.1-0.8,6.1-5.2,6.1c-4.5,0-5-5.1-4.9-6.1c-0.1-1.5-0.1-3,0-4.5
		C131.7,132,141.2,130.6,141.4,132.3"/>
	<path class="st6" d="M141.5,138.5c0.7-0.3,1.4,0,1.7,0.6c0.7,1.1,0.7,3.4,0,6.4c-0.2,1.3-0.7,2.6-1.3,3.8c0,0-2.9-4.1-5-4.3
		C137,145.1,141,144.4,141.5,138.5"/>
	<path class="st5" d="M128,118.8c0,0,1.1,3.4,0.1,5c-3.8,6-1.6,5.4-0.2,5.5c0.2,0-0.1,1.2,0.4,3.4c0.4,1.7-0.8,5.7,4.5,4
		c1.5-0.5,9-2.6,9.5-7.2c0.7-5.8,4.2-13-2.8-15.5C131.2,111.1,128.5,113.4,128,118.8z"/>
	<path class="st4" d="M131.8,110.8c0,0-3.8,0.3-5.1,1.7c-1.6,1.8-1.9,3.8-0.2,5.4s6.1,0.1,9.2,2s-0.2,6.8,1.3,7.9
		c1.5,1,0.6-2.1,2.7-2.9c2-0.8,2.9,2.6,0.7,5.2c-2.1,2.5-0.1,4.1,1.3,4.6c1.4,0.4,4.8-11,4.5-15.2c-0.3-4.2-2.3-4.1-2.3-4.1
		S143.7,108.7,131.8,110.8z"/>
	<path class="st7" d="M131.3,137c0,0,5.4-2,7.9-3.1c0,0-5.1,4.8-7.7,4.8L131.3,137z"/>
	<path class="st4" d="M127.9,129.6c0,0,4,0.3,6.3-1.2s3.4-2.4,3.7-0.9c0.3,1.5,1.3,3.9,0.3,5.7c-1,1.8-6.6,5.8-8,4.8
		c-1.4-1.1-2.4-2.3-2.2-3.8C128.2,132.7,128.1,131.1,127.9,129.6z"/>
	<path class="st5" d="M128.6,131.5c0,0,0.8,0.9,2.6,0s2.1-2.4,3-0.9c0.9,1.4-1.1,4.3-3.5,4.3C128.4,135,128.8,133.4,128.6,131.5z"/>
	<path class="st3" d="M137.7,140.3c-0.2,0.9-0.7,1.8-1.3,2.5c-1,1.1-2.6,1.4-3.8,2.2c-3.5,2.6-1.3,8.7-0.7,12.1
		c1,4.8,1.7,9.7,2,14.6c0.1,2.9,0,5.8,0.9,8.5c1.3,3.5,3.9,6.3,7.3,7.8c3.4,1.4,7.1,1.8,10.7,1.1c2.6-0.3,5-1.4,6.8-3.2
		c1.6-2,2.6-4.4,2.7-7c0.5-6.7-2.1-13.1-4.6-19.3c-3.2-7.9-6.6-16.6-13.5-22c-1.1-0.9-2.7-1.7-4-1.1c-1.1,0.6-2,1.7-2.2,2.9
		C137.9,139.7,137.8,140,137.7,140.3"/>
	<g>
		<defs>
			<path id="SVGID_29_" d="M141.1,136.4c-0.3,0-0.6,0.1-0.9,0.2c-1.1,0.6-2,1.7-2.2,2.9c-0.1,0.3-0.2,0.6-0.3,0.9
				c-0.2,0.9-0.7,1.8-1.3,2.5c-1,1.1-2.6,1.4-3.8,2.2c-1.5,1.1-2,2.8-2,4.7c0,2.6,0.9,5.5,1.2,7.5c1,4.8,1.7,9.7,2,14.6
				c0.1,2.9,0,5.8,0.9,8.5c0.5,1.4,1.2,2.7,2.2,3.8c0.7-0.2,1.4-0.4,2.1-0.7c5.2-1.6,10.3-1.7,15.8-1.9c0.2,0,0.5,0,0.7,0
				c0.7,0,1.4,0.1,2.1,0.4c0.8,0.5,1.4,1.2,1.8,2c0.3,0.6,0.5,1.1,0.6,1.7c1.5-1.9,2.3-4.2,2.4-6.6c0-0.6,0.1-1.2,0.1-1.7
				c0-6-2.4-11.9-4.7-17.5c-3.2-7.9-6.6-16.6-13.5-22C143.3,137,142.2,136.4,141.1,136.4"/>
		</defs>
		<clipPath id="SVGID_30_">
			<use xlink:href="#SVGID_29_"  style="overflow:visible;"/>
		</clipPath>
		<g style="clip-path:url(#SVGID_30_);">
			
				<image style="overflow:visible;" width="135" height="208" xlink:href="4CBC891401E173B1.jpg"  transform="matrix(0.24 0 0 -0.24 130.32 185.87)">
			</image>
		</g>
	</g>
	<path class="st4" d="M156.5,190.6c-4.3,4.4-9.2,8.3-14.3,11.7c-2,1.3-4.2,2.7-4.8,5c-0.3,1.6-0.1,3.3,0.6,4.8
		c3.2,8.9,9.3,16.4,13.6,24.8c0.1,0.2,0.2,0.5,0.2,0.7c-0.1,0.3-0.3,0.5-0.6,0.7l-2.9,2.1c-7.3-5.5-13-13-18.4-20.4
		c-3.7-5.1-7.5-10.7-7.8-17.1c-0.3-3.3,1-6.6,3.6-8.7c1.7-1.6,3.8-2.7,6-3.5c3.5-1.1,7.2-1.1,10.8-1c4,0.1,8.4,0.3,11.1,3.3
		L156.5,190.6"/>
	<g>
		<defs>
			<path id="SVGID_31_" d="M146.1,227.5l-3.6,7.9c1.8,1.8,3.8,3.5,5.8,5.1l0.5-0.3c0-0.1,0-0.2,0.1-0.2c0.3-0.6,1.2-1.3,1.9-1.3
				c0,0,0.1,0,0.1,0l0.3-0.2c0.3-0.2,0.5-0.4,0.6-0.7c0,0,0-0.1,0-0.1c0-0.2-0.1-0.5-0.2-0.6C149.9,233.7,148,230.6,146.1,227.5
				 M127.2,202.9c0,1,0,2.1,0,3.1c0,3.6,0.2,7.3,0.6,10.9c0.7,1.1,1.5,2.1,2.2,3.1c2.9,4,5.9,8,9.2,11.7l4.1-9
				c-2-3.4-3.9-6.9-5.2-10.7c-0.5-1.1-0.7-2.2-0.7-3.4c0-0.5,0-0.9,0.1-1.4c0.5-1.9,2-3.2,3.7-4.3L127.2,202.9"/>
		</defs>
		<clipPath id="SVGID_32_">
			<use xlink:href="#SVGID_31_"  style="overflow:visible;"/>
		</clipPath>
		<g style="clip-path:url(#SVGID_32_);">
			
				<image style="overflow:visible;" width="106" height="159" xlink:href="4CBC891401E173B2.jpg"  transform="matrix(0.24 0 0 -0.24 126.72 240.83)">
			</image>
		</g>
	</g>
	<path class="st4" d="M149.2,243.2c0.1,0.6,0.2,1.2,0.1,1.7c-0.1,0.6-0.4,1.1-0.7,1.6c-0.9,1.5-1.6,3.1-2.3,4.7
		c-0.2,0.4-0.3,0.9-0.1,1.3c0.3,0.7,1.2,0.8,2,0.6c2.1-0.3,4.1-1.3,5.8-2.6c0.3-0.2,0.6-0.5,0.8-0.9c0.2-0.4,0.2-0.7,0.2-1.1
		c0.1-3.3-1-6.6-3-9.2c-0.2-0.3-0.5-0.5-0.8-0.7c-0.8-0.3-2,0.5-2.3,1.3C148.5,240.8,149,242.2,149.2,243.2"/>
	<path class="st5" d="M99.4,175.5c-0.6,1.9-0.4,3.9,0.6,5.6c0.2,0.5,0.6,0.8,1,1.1c0.9,0.5,2,0.6,3,0.4c0.2,0,0.4-0.1,0.6-0.2
		c0.1-0.1,0.1-0.2,0.1-0.4c0.2-1.1-0.4-2.2-0.1-3.2c0.4-1.3,1.9-2.1,2.3-3.4c0.5-1.8-1.5-4.3-3.4-4.2
		C101.7,171.2,99.9,173.9,99.4,175.5"/>
	<path class="st3" d="M86.5,246.3c-1.3,0-2.3-1-2.3-2.3c0-0.3,0.1-0.7,0.2-1l23.6-52.9c0.5-1.2,1.9-1.7,3-1.2c1.2,0.5,1.7,1.9,1.2,3
		l-23.6,53C88.2,245.8,87.4,246.3,86.5,246.3"/>
	<path class="st3" d="M136.4,249l-33.9-42.2c-0.8-1-0.6-2.4,0.4-3.2c1-0.8,2.4-0.6,3.2,0.4l29.2,36.4l18.4-40.6
		c0.5-1.1,1.9-1.7,3-1.1c1.1,0.5,1.7,1.9,1.1,3L136.4,249"/>
	<path class="st3" d="M136.5,248.3c-1.3,0-2.3-1-2.3-2.3c0-1.3,1-2.3,2.3-2.3h0l61.8-0.1l15.3-43.1c0.4-1.2,1.7-1.8,2.9-1.4l0,0
		c1.2,0.4,1.8,1.7,1.4,2.9l-16.4,46.1L136.5,248.3L136.5,248.3"/>
	<path class="st3" d="M200.4,248.3c-1.3,0-2.3-1-2.3-2.3c0-1.3,1-2.3,2.3-2.3h0l75.1-0.1l15.3-43.1c0.4-1.2,1.7-1.8,2.9-1.4l0,0
		c1.2,0.4,1.8,1.7,1.4,2.9l-16.4,46.1l-65,0H200.4"/>
	<path class="st3" d="M216,203.6l-110.4-0.8c-1.3-0.1-2.2-1.2-2.1-2.4c0.1-1.1,1-2.1,2.1-2.1l113,0.9L216,203.6"/>
	<path class="st3" d="M275.8,249.1c-1.3-0.1-2.2-1.1-2.2-2.4c0.1-1.1,1-2.1,2.1-2.2l39.5-1.3l-23.4-38.8l-110.4-0.8
		c-1.3-0.1-2.2-1.2-2.1-2.4c0.1-1.1,1-2.1,2.1-2.1l113,0.9l28.7,47.6L275.8,249.1L275.8,249.1"/>
	<path class="st3" d="M115.4,190.2l-11-1l0.4-7l-3-2c-1-0.7-1.3-2-0.6-3l0-0.1c0.7-1,2.1-1.3,3.2-0.6l5.1,3.4l-0.3,5.3l3.3,0.3
		l2.2-4.9l6.3-0.9c1.2-0.2,2.4,0.6,2.6,1.9c0.2,1.2-0.7,2.4-1.9,2.5l0,0l-3.8,0.5L115.4,190.2"/>
	<g>
		<defs>
			<path id="SVGID_33_" d="M103.1,176.1c-0.7,0-1.4,0.3-1.9,1l0,0.1c-0.2,0.4-0.4,0.8-0.4,1.2c0,0.7,0.3,1.4,1,1.8l3,2l-0.4,7l11,1
				l2.6-5.6l3.8-0.5l0,0c1.1-0.2,1.9-1.1,1.9-2.2c0-0.1,0-0.2,0-0.3c-0.2-1.1-1.2-1.9-2.2-1.9c-0.1,0-0.2,0-0.4,0l-6.3,0.9l-2.2,4.9
				l-3.3-0.3l0.3-5.3l-5.1-3.4C104,176.2,103.5,176.1,103.1,176.1"/>
		</defs>
		<clipPath id="SVGID_34_">
			<use xlink:href="#SVGID_33_"  style="overflow:visible;"/>
		</clipPath>
		<g style="clip-path:url(#SVGID_34_);">
			
				<image style="overflow:visible;" width="98" height="61" xlink:href="4CBC891401E173B0.jpg"  transform="matrix(0.24 0 0 -0.24 100.56 190.43)">
			</image>
		</g>
	</g>
	<path class="st3" d="M180.1,190.2l-11-1l0.4-7.1l-3-2c-1-0.7-1.3-2-0.6-3l0-0.1c0.7-1,2.1-1.3,3.2-0.6l5.1,3.4l-0.3,5.3l3.4,0.3
		l2.2-4.9l6.3-0.9c1.2-0.2,2.4,0.6,2.6,1.9c0.2,1.2-0.7,2.3-1.9,2.5l0,0l-3.8,0.5L180.1,190.2"/>
	<g>
		<defs>
			<path id="SVGID_35_" d="M167.8,176c-0.7,0-1.4,0.3-1.9,1l0,0.1c-0.2,0.4-0.4,0.8-0.4,1.2c0,0.7,0.4,1.4,1,1.8l3,2l-0.4,7.1l11,1
				l2.5-5.6l3.8-0.5l0,0c1.1-0.2,1.9-1.1,1.9-2.2c0-0.1,0-0.2,0-0.3c-0.2-1.1-1.1-1.9-2.2-1.9c-0.1,0-0.2,0-0.4,0l-6.3,0.9l-2.2,4.9
				l-3.4-0.3l0.3-5.3l-5.1-3.4C168.7,176.2,168.2,176,167.8,176"/>
		</defs>
		<clipPath id="SVGID_36_">
			<use xlink:href="#SVGID_35_"  style="overflow:visible;"/>
		</clipPath>
		<g style="clip-path:url(#SVGID_36_);">
			
				<image style="overflow:visible;" width="99" height="62" xlink:href="4CBC891401E173B6.jpg"  transform="matrix(0.24 0 0 -0.24 165.12 190.43)">
			</image>
		</g>
	</g>
	<path class="st3" d="M252,190.2l-11-1l0.4-7.1l-3-2c-1-0.7-1.3-2-0.6-3l0-0.1c0.7-1,2.1-1.3,3.2-0.6l5.1,3.4l-0.3,5.3l3.4,0.3
		l2.2-4.9l6.3-0.9c1.2-0.2,2.4,0.6,2.6,1.9c0.2,1.2-0.7,2.4-1.9,2.5l0,0l-3.8,0.5L252,190.2"/>
	<g>
		<defs>
			<path id="SVGID_37_" d="M239.6,176c-0.7,0-1.4,0.3-1.9,1l0,0.1c-0.2,0.4-0.4,0.8-0.4,1.2c0,0.7,0.3,1.4,1,1.8l3,2l-0.4,7.1l11,1
				l2.5-5.6l3.8-0.5l0,0c1.1-0.2,1.9-1.1,1.9-2.2c0-0.1,0-0.2,0-0.3c-0.2-1.1-1.2-1.9-2.2-1.9c-0.1,0-0.2,0-0.4,0l-6.3,0.9l-2.2,4.9
				l-3.4-0.3l0.3-5.3l-5.1-3.4C240.5,176.2,240.1,176,239.6,176"/>
		</defs>
		<clipPath id="SVGID_38_">
			<use xlink:href="#SVGID_37_"  style="overflow:visible;"/>
		</clipPath>
		<g style="clip-path:url(#SVGID_38_);">
			
				<image style="overflow:visible;" width="98" height="62" xlink:href="4CBC891401E173B3.jpg"  transform="matrix(0.24 0 0 -0.24 237.12 190.43)">
			</image>
		</g>
	</g>
	<path class="st3" d="M101.1,211.5c-0.1,0-3.6-0.8-3.8-0.8c-0.4-0.1-0.7-0.4-0.5-0.8l7.2-15.2c0.2-0.4,0.7-0.5,1.1-0.4
		c0.4,0.1,4.1,1.2,3.9,1.5l-7.2,15.2C101.7,211.4,101.4,211.5,101.1,211.5"/>
	<g>
		<defs>
			<path id="SVGID_39_" d="M104.4,193.8c-0.3,0-0.7,0.2-0.8,0.5l-7.2,15.2c-0.2,0.3,0.1,0.7,0.5,0.8c0-0.1,0-0.1,0-0.2l7.2-15.2
				c0.2-0.3,0.5-0.5,0.8-0.5c0.1,0,0.2,0,0.2,0c0.1,0,0.4,0.1,0.9,0.3l0.1-0.3c-0.7-0.2-1.4-0.4-1.6-0.5
				C104.5,193.8,104.4,193.8,104.4,193.8"/>
		</defs>
		<clipPath id="SVGID_40_">
			<use xlink:href="#SVGID_39_"  style="overflow:visible;"/>
		</clipPath>
		<g style="clip-path:url(#SVGID_40_);">
			
				<image style="overflow:visible;" width="45" height="71" xlink:href="4CBC891401E173D5.jpg"  transform="matrix(0.24 0 0 -0.24 95.76 210.59)">
			</image>
		</g>
	</g>
	<g>
		<defs>
			<path id="SVGID_41_" d="M106.2,194.3l-0.1,0.3c0.8,0.2,1.8,0.6,2.5,0.9l0.1-0.1C108.6,195.2,107.3,194.7,106.2,194.3"/>
		</defs>
		<clipPath id="SVGID_42_">
			<use xlink:href="#SVGID_41_"  style="overflow:visible;"/>
		</clipPath>
		<g style="clip-path:url(#SVGID_42_);">
			
				<image style="overflow:visible;" width="14" height="8" xlink:href="4CBC891401E173D7.jpg"  transform="matrix(0.24 0 0 -0.24 105.6 195.95)">
			</image>
		</g>
	</g>
	<g>
		<defs>
			<path id="SVGID_43_" d="M104.9,194.4c-0.3,0-0.7,0.2-0.8,0.5L96.9,210c0,0.1-0.1,0.2,0,0.2c0,0,0,0,0,0c0.1,0,3.7,0.8,3.8,0.8
				c0.3,0,0.6-0.2,0.7-0.4l7.2-15c-0.7-0.3-1.7-0.6-2.5-0.9c-0.4-0.1-0.8-0.2-0.9-0.3C105.1,194.4,105,194.4,104.9,194.4"/>
		</defs>
		<clipPath id="SVGID_44_">
			<use xlink:href="#SVGID_43_"  style="overflow:visible;"/>
		</clipPath>
		<g style="clip-path:url(#SVGID_44_);">
			
				<image style="overflow:visible;" width="52" height="72" xlink:href="4CBC891401E173D4.jpg"  transform="matrix(0.24 0 0 -0.24 96.48 211.31)">
			</image>
		</g>
	</g>
	<path class="st3" d="M142.4,143.5c-2.1,1.3-3.3,3.7-4.1,6c-1.8,5.2-2.7,10.9-5.6,15.6c-1.7,2.7-3.9,5-6.6,6.6
		c-1.7,1.1-3.6,1.9-5,3.4c-1.4,1.5-2,4-0.6,5.5c1.4,1.5,3.6,1.4,5.5,0.9c8.1-2.1,13.8-9.2,18.3-16.2c2.1-3,3.7-6.2,4.9-9.7
		C150.3,151.7,149.8,139.1,142.4,143.5z"/>
	<path class="st5" d="M116.7,180.2c-0.9,0.9-1.6,2-2,3.2c-0.4,1.2-0.1,2.6,0.6,3.6c0.8,1,2.2,1.5,3.4,1c0.4-0.2,0.8-0.5,1.2-0.8
		l3.7-2.9c0.5-0.3,0.9-0.8,1.2-1.2c0.9-1.5-0.3-4.8-2-5.4C120.9,176.8,118,178.9,116.7,180.2z"/>
	<path class="st4" d="M120.5,190.8c-1.2,0.5-2.4,1.3-3.4,2.2c-1.5,1.8-2.3,4.2-2.1,6.6c0.2,3.1,0.9,6.1,2,9l5.4,16.3
		c0.1,0.4,0.2,0.7,0.4,1c1.1,1.6,3.8,0.9,4.8-0.8c0.9-1.7,0.7-3.8,0.4-5.7c-0.8-5.9-1-11.8-0.8-17.8c0-0.4,0.1-0.9,0.4-1.2
		c0.3-0.2,0.6-0.3,1-0.4c2.8-0.3,5.6-0.2,8.3-0.1c1.9,0.1,3.7,0.1,5.6,0c4.6-0.1,9.5-1,13.1-3.9c3.6-2.9,5.7-8.2,3.6-12.4
		c-0.4-0.8-1-1.5-1.8-2c-0.9-0.3-1.8-0.5-2.8-0.3c-5.4,0.2-10.6,0.3-15.8,1.9c-3.2,1-6.3,2.1-9.4,3.3
		C127.3,187.7,122.9,190.8,120.5,190.8"/>
	<g>
		<defs>
			<path id="SVGID_45_" d="M155.4,181.5c-0.2,0-0.5,0-0.7,0c-5.4,0.2-10.6,0.3-15.8,1.9c-3.2,1-6.3,2.1-9.4,3.3
				c-2.3,0.9-6.6,4.1-9,4.1c-1.2,0.5-2.4,1.3-3.4,2.2c-1.2,1.5-2,3.3-2.1,5.2c0,0.2,0,0.4,0,0.6c0,0.2,0,0.5,0,0.7
				c0.2,3.1,0.9,6.1,2,9l5.4,16.3c0.1,0.4,0.2,0.7,0.4,1c0.4,0.6,1.1,0.9,1.8,0.9c0.2,0,0.5,0,0.7-0.1c0.2-0.1,0.4-0.2,0.6-0.3
				c0.4-0.3,0.9-0.6,1.3-0.8c0,0,0.1,0,0.1-0.1c0.1-0.1,0.2-0.2,0.2-0.4c0.5-0.9,0.7-1.9,0.7-2.9c0-0.9-0.1-1.9-0.2-2.8
				c-0.6-4.5-0.9-9-0.9-13.5c0-1.4,0-2.9,0.1-4.3c0,0,0-0.1,0-0.1c0-0.4,0.1-0.7,0.4-1c0.3-0.2,0.6-0.3,1-0.4c1.5-0.2,3-0.2,4.5-0.2
				c1.3,0,2.6,0,3.9,0.1c1.3,0,2.6,0.1,3.9,0.1c0.6,0,1.1,0,1.7,0c4.6-0.1,9.5-1,13.1-3.9c2.7-2.1,4.4-5.5,4.4-8.8
				c0-1.2-0.3-2.5-0.8-3.6c-0.4-0.8-1-1.5-1.8-2C156.8,181.6,156.1,181.5,155.4,181.5"/>
		</defs>
		<clipPath id="SVGID_46_">
			<use xlink:href="#SVGID_45_"  style="overflow:visible;"/>
		</clipPath>
		<g style="clip-path:url(#SVGID_46_);">
			
				<image style="overflow:visible;" width="191" height="192" xlink:href="4CBC891401E173D3.jpg"  transform="matrix(0.24 0 0 -0.24 114.72 227.15)">
			</image>
		</g>
	</g>
	<path class="st4" d="M124.9,230c-0.2,0.5-0.5,0.9-0.8,1.2c-1,1.1-2.2,2.1-3.4,2.9c-0.6,0.3-1.1,0.8-1.5,1.3c-0.3,0.5-0.4,1-0.3,1.6
		c0.1,0.3,0.2,0.7,0.5,0.9c0.4,0.2,0.9,0.2,1.4,0.1c2.4-0.5,4.8-1.4,7-2.5c0.4-0.2,0.7-0.4,1.1-0.6c1.5-1.1,2.3-3,1.9-4.9
		c0-0.3-0.1-0.5-0.2-0.8c-0.1-0.3-0.3-0.6-0.5-0.8c-0.6-1-1.3-1.9-2.2-2.7l-0.2-0.1c-0.1,0-0.2,0-0.3,0.1c-0.5,0.3-0.9,0.5-1.3,0.8
		c-0.4,0.3-0.8,0.4-1,0.8C124.6,228,125.2,229.2,124.9,230"/>
	<path class="st3" d="M189.6,156.6c-3.8,3.8-9.4,5.1-14.2,7.3c-1.9,0.9-3.9,2.1-4.7,4c-0.3,1-0.5,2-0.4,3c-0.1,0.7,0.2,1.4,0.7,1.8
		c0.3,0.2,0.7,0.2,1.1,0.2c5.3,0.1,10.6-0.7,15.6-2.2c5.5-1.7,11-4.5,14.3-9.3c0.7-1,1.3-2.1,1.6-3.3c0.2-1.2,0.3-2.5,0.2-3.7
		c0-2.5-0.3-4.9-0.8-7.4c-0.5-1.8-1.5-4.7-3.2-5.7c-1.7-1-3.1,2.8-3.7,4C194.1,149.3,192.7,153.5,189.6,156.6"/>
	<path class="st3" d="M199.3,137c-1.9,3.2-1.8,7.1-1.5,10.7c0.8,7.6,2.9,15,3.2,22.5c0.1,2.9,0,5.8,0.9,8.5c1.3,3.5,3.9,6.3,7.4,7.8
		c3.4,1.4,7.2,1.8,10.8,1.1c2.6-0.3,5-1.4,6.8-3.2c1.6-2,2.6-4.4,2.7-7c0.5-6.7-2.1-13.1-4.6-19.3c-2.7-6.6-5.6-13.4-10.1-19
		c-1.9-2.4-4.2-5.3-7.4-5.9C204.2,132.6,201,134.1,199.3,137"/>
	<g>
		<defs>
			<path id="SVGID_47_" d="M206.1,133.1c-2.7,0-5.3,1.5-6.7,3.9c-1.3,2.2-1.7,4.7-1.7,7.2c0,1.2,0.1,2.3,0.2,3.5
				c0.8,7.6,2.9,15,3.2,22.5c0.1,2.9,0,5.8,0.9,8.5c0.5,1.4,1.3,2.7,2.2,3.8c0.7-0.2,1.4-0.5,2.1-0.7c5.2-1.6,10.3-1.7,15.8-1.9
				c0.2,0,0.5,0,0.7,0c0.7,0,1.4,0.1,2.1,0.4c0.8,0.4,1.4,1.2,1.8,2c0.3,0.6,0.5,1.1,0.6,1.7c1.5-1.9,2.3-4.2,2.4-6.6
				c0-0.6,0.1-1.2,0.1-1.8c0-0.1,0-0.2,0-0.3c-0.1-5.9-2.4-11.7-4.7-17.2c-2.7-6.6-5.6-13.4-10.1-19c-1.9-2.4-4.2-5.3-7.4-5.9
				C207,133.2,206.5,133.1,206.1,133.1"/>
		</defs>
		<clipPath id="SVGID_48_">
			<use xlink:href="#SVGID_47_"  style="overflow:visible;"/>
		</clipPath>
		<g style="clip-path:url(#SVGID_48_);">
			
				<image style="overflow:visible;" width="136" height="215" xlink:href="4CBC891401E173DD.jpg"  transform="matrix(0.24 0 0 -0.24 197.28 184.43)">
			</image>
		</g>
	</g>
	<path class="st5" d="M184,178.6c-0.9,0.9-1.6,2-2,3.2c-0.4,1.2-0.1,2.6,0.6,3.6c0.8,1,2.2,1.5,3.4,1c0.4-0.2,0.8-0.5,1.2-0.8
		l3.7-2.9c0.5-0.3,0.9-0.8,1.2-1.2c0.9-1.5-0.3-4.7-2-5.4C188.1,175.3,185.2,177.4,184,178.6z"/>
	<path class="st5" d="M165.5,172.8c-0.6,1.9-0.4,3.9,0.6,5.6c0.2,0.5,0.6,0.8,1,1.1c0.9,0.5,2,0.6,3,0.4c0.2,0,0.4-0.1,0.6-0.2
		c0.1-0.1,0.1-0.2,0.2-0.4c0.2-1.1-0.4-2.2-0.1-3.2c0.4-1.3,1.9-2.1,2.3-3.4c0.6-1.8-1.5-4.2-3.3-4.2
		C167.9,168.5,166,171.2,165.5,172.8z"/>
	<path class="st4" d="M187.8,189.3c-1.2,0.5-2.4,1.3-3.4,2.2c-1.5,1.8-2.3,4.2-2.1,6.6c0.2,3.1,0.9,6.1,2,9l5.4,16.3
		c0.1,0.4,0.3,0.7,0.4,1c1.1,1.6,3.8,0.9,4.8-0.8c0.9-1.7,0.7-3.8,0.4-5.7c-0.8-5.9-1-11.8-0.8-17.8c0-0.4,0.1-0.9,0.4-1.2
		c0.3-0.2,0.6-0.3,1-0.3c2.8-0.3,5.6-0.2,8.4-0.1c1.8,0.1,3.7,0.1,5.5,0.1c4.6-0.1,9.5-1,13.1-3.9c3.6-2.9,5.7-8.2,3.6-12.4
		c-0.4-0.8-1-1.6-1.8-2c-0.9-0.3-1.8-0.5-2.8-0.4c-5.4,0.2-10.5,0.3-15.8,1.9c-3.2,1-6.3,2.1-9.4,3.3
		C194.5,186.2,190.2,189.3,187.8,189.3"/>
	<path class="st3" d="M261.9,156.6c-3.8,3.8-9.4,5.1-14.2,7.3c-1.9,0.9-3.9,2.1-4.7,4c-0.3,1-0.5,2-0.4,3c-0.1,0.7,0.2,1.4,0.7,1.8
		c0.3,0.2,0.7,0.2,1.1,0.2c5.3,0.1,10.6-0.7,15.6-2.2c5.5-1.7,11-4.5,14.3-9.3c0.7-1,1.3-2.1,1.6-3.3c0.2-1.2,0.3-2.5,0.2-3.7
		c0-2.5-0.3-4.9-0.9-7.4c-0.5-1.8-1.5-4.7-3.2-5.7c-1.7-1-3.1,2.8-3.7,4C266.4,149.3,265,153.5,261.9,156.6"/>
	<path class="st3" d="M271.7,137c-1.9,3.2-1.8,7.1-1.5,10.7c0.8,7.6,2.9,15,3.2,22.5c0.1,2.9,0,5.8,0.9,8.5c1.3,3.5,3.9,6.3,7.4,7.8
		c3.4,1.4,7.2,1.8,10.8,1.1c2.6-0.3,4.9-1.4,6.8-3.2c1.6-2,2.6-4.4,2.7-7c0.5-6.7-2.1-13.1-4.6-19.3c-2.7-6.6-5.6-13.4-10.1-19
		c-1.9-2.4-4.3-5.3-7.4-5.9C276.6,132.6,273.3,134.1,271.7,137"/>
	<g>
		<defs>
			<path id="SVGID_49_" d="M275.5,133.7c-1.6,0.6-2.9,1.8-3.8,3.3c-1.3,2.2-1.7,4.7-1.7,7.2c0,1.2,0.1,2.3,0.2,3.5
				c0.8,7.6,2.9,15,3.2,22.5c0.1,2.9,0,5.8,0.9,8.5c0.5,1.4,1.2,2.7,2.2,3.8c0.7-0.2,1.4-0.5,2.1-0.7c5.2-1.6,10.3-1.7,15.8-1.9
				c0.2,0,0.5,0,0.7,0c0.7,0,1.4,0.1,2.1,0.4c0.8,0.4,1.4,1.2,1.8,2c0.3,0.6,0.5,1.2,0.6,1.8c1.5-1.9,2.3-4.2,2.4-6.6
				c0-0.6,0.1-1.2,0.1-1.7c0-1.7-0.2-3.4-0.5-5c-0.8-4.3-2.5-8.4-4.2-12.5c-2.7-6.6-5.6-13.4-10.1-19c-1.4-1.7-3-3.7-5-4.9
				c0,0.4-0.1,0.8-0.3,1.2c-0.3,0.5-0.8,0.7-1.4,0.7c0,0,0,0-0.1,0c-0.6,0-1.1-0.1-1.7-0.4l-1.8-0.6c-0.5-0.1-1-0.4-1.3-0.8
				C275.6,134.2,275.5,133.9,275.5,133.7"/>
		</defs>
		<clipPath id="SVGID_50_">
			<use xlink:href="#SVGID_49_"  style="overflow:visible;"/>
		</clipPath>
		<g style="clip-path:url(#SVGID_50_);">
			
				<image style="overflow:visible;" width="136" height="213" xlink:href="4CBC891401E173DF.jpg"  transform="matrix(0.24 0 0 -0.24 269.76 184.43)">
			</image>
		</g>
	</g>
	<path class="st3" d="M282,142c-2.1,1.2-3.3,3.7-4.1,6c-1.8,5.2-2.7,10.9-5.6,15.6c-1.7,2.7-3.9,5-6.6,6.6c-1.7,1.1-3.6,1.9-5,3.4
		c-1.4,1.5-2,4-0.7,5.5c1.3,1.5,3.6,1.4,5.5,1c8.1-2.1,13.8-9.2,18.3-16.2c2.1-3,3.7-6.2,4.9-9.7C289.9,150.2,289.4,137.6,282,142z"
		/>
	<path class="st8" d="M256.3,178.6c-0.9,0.9-1.6,2-2,3.2c-0.4,1.2-0.1,2.6,0.7,3.6c0.8,1,2.2,1.5,3.4,1c0.4-0.2,0.8-0.5,1.2-0.8
		l3.7-2.9c0.5-0.3,0.9-0.8,1.2-1.2c0.9-1.5-0.3-4.7-2-5.4C260.5,175.3,257.6,177.4,256.3,178.6z"/>
	<path class="st8" d="M237.8,172.8c-0.6,1.9-0.4,3.9,0.6,5.6c0.2,0.4,0.6,0.8,1,1.1c0.9,0.5,2,0.6,3,0.4c0.2,0,0.4-0.1,0.6-0.2
		c0.1-0.1,0.1-0.2,0.2-0.4c0.2-1.1-0.4-2.2-0.1-3.2c0.4-1.3,1.9-2.1,2.3-3.4c0.6-1.8-1.5-4.2-3.3-4.2
		C240.2,168.5,238.3,171.2,237.8,172.8z"/>
	<path class="st4" d="M260.1,189.3c-1.2,0.5-2.4,1.3-3.3,2.2c-1.5,1.8-2.3,4.2-2.1,6.6c0.2,3.1,0.9,6.1,2,9l5.4,16.3
		c0.1,0.4,0.3,0.7,0.5,1c1.1,1.6,3.8,0.9,4.8-0.8c0.9-1.7,0.7-3.8,0.4-5.7c-0.8-5.9-1-11.8-0.8-17.8c0-0.4,0.1-0.8,0.4-1.2
		c0.3-0.2,0.6-0.3,1-0.3c2.8-0.3,5.6-0.2,8.4-0.1c1.8,0.1,3.7,0.1,5.5,0.1c4.6-0.1,9.5-1,13.1-3.9c3.6-2.9,5.7-8.2,3.6-12.4
		c-0.4-0.8-1-1.6-1.8-2c-0.9-0.3-1.8-0.5-2.8-0.4c-5.4,0.2-10.6,0.3-15.8,1.9c-3.2,1-6.3,2.1-9.4,3.3
		C266.9,186.2,262.5,189.3,260.1,189.3"/>
	<g>
		<defs>
			<path id="SVGID_51_" d="M222.7,179.9c-0.2,0-0.5,0-0.7,0c-5.4,0.2-10.5,0.3-15.8,1.9c-3.2,1-6.3,2.1-9.4,3.3
				c-2.3,0.9-6.7,4.1-9,4.1c-1.2,0.5-2.4,1.3-3.4,2.2c-1.4,1.6-2.1,3.7-2.1,5.9c0,0.2,0,0.5,0,0.7c0.2,3.1,0.9,6.1,2,9l5.4,16.3
				c0.1,0.4,0.3,0.7,0.4,1c0.4,0.6,1.1,0.9,1.8,0.9c0.2,0,0.4,0,0.7-0.1c0.2-0.1,0.4-0.2,0.6-0.4c0.4-0.3,0.9-0.6,1.3-0.8
				c0.1,0,0.1-0.1,0.2-0.1c0.1-0.1,0.2-0.2,0.2-0.3c0.5-0.9,0.7-1.9,0.7-2.9c0-0.9-0.1-1.9-0.2-2.8c-0.6-4.5-0.9-9-0.9-13.5
				c0-1.4,0-2.9,0.1-4.3c0,0,0-0.1,0-0.1c0-0.4,0.1-0.7,0.4-1c0.3-0.2,0.6-0.3,1-0.3c1.5-0.2,3-0.2,4.5-0.2c1.3,0,2.6,0,3.9,0.1
				c1.3,0,2.6,0.1,3.9,0.1c0.5,0,1.1,0,1.6,0c4.6-0.1,9.5-1,13.1-3.9c2.7-2.1,4.4-5.5,4.4-8.8c0-1.2-0.3-2.5-0.8-3.6
				c-0.4-0.8-1-1.6-1.8-2C224.1,180.1,223.4,179.9,222.7,179.9"/>
		</defs>
		<clipPath id="SVGID_52_">
			<use xlink:href="#SVGID_51_"  style="overflow:visible;"/>
		</clipPath>
		<g style="clip-path:url(#SVGID_52_);">
			
				<image style="overflow:visible;" width="191" height="192" xlink:href="4CBC891401E173DC.jpg"  transform="matrix(0.24 0 0 -0.24 181.92 225.71)">
			</image>
		</g>
	</g>
	<g>
		<defs>
			<path id="SVGID_53_" d="M295,179.9c-0.2,0-0.5,0-0.7,0c-5.4,0.2-10.6,0.3-15.8,1.9c-3.2,1-6.3,2.1-9.4,3.3
				c-2.3,0.9-6.6,4.1-9,4.1c-1.2,0.5-2.4,1.3-3.3,2.2c-1.4,1.6-2.1,3.7-2.1,5.8c0,0.3,0,0.5,0,0.8c0.2,3.1,0.9,6.1,2,9l5.4,16.3
				c0.1,0.4,0.3,0.7,0.5,1c0.4,0.6,1.1,0.9,1.8,0.9c1.1,0,2.4-0.7,2.9-1.7c0.5-0.9,0.7-1.9,0.7-2.9c0-0.9-0.1-1.8-0.2-2.7
				c-0.6-4.5-0.9-9-0.9-13.5c0-1.4,0-2.9,0.1-4.3c0,0,0-0.1,0-0.1c0-0.4,0.1-0.8,0.4-1.1c0.3-0.2,0.6-0.3,1-0.3
				c1.5-0.2,3-0.2,4.5-0.2c1.3,0,2.6,0,3.9,0.1c1.3,0,2.6,0.1,3.9,0.1c0.5,0,1.1,0,1.6,0c4.6-0.1,9.5-1,13.1-3.9
				c2.7-2.1,4.4-5.5,4.4-8.8c0-1.2-0.3-2.4-0.8-3.6c-0.4-0.8-1-1.6-1.8-2C296.4,180.1,295.7,179.9,295,179.9"/>
		</defs>
		<clipPath id="SVGID_54_">
			<use xlink:href="#SVGID_53_"  style="overflow:visible;"/>
		</clipPath>
		<g style="clip-path:url(#SVGID_54_);">
			
				<image style="overflow:visible;" width="191" height="192" xlink:href="4CBC891401E173D6.jpg"  transform="matrix(0.24 0 0 -0.24 254.16 225.71)">
			</image>
		</g>
	</g>
	<path class="st4" d="M192.1,228.5c-0.2,0.4-0.5,0.9-0.8,1.2c-1,1.1-2.2,2.1-3.4,2.9c-0.6,0.3-1.1,0.8-1.5,1.3
		c-0.3,0.5-0.4,1-0.3,1.6c0.1,0.3,0.2,0.7,0.5,0.9c0.4,0.2,0.9,0.2,1.4,0.1c2.4-0.5,4.8-1.4,7-2.5c0.4-0.2,0.7-0.4,1.1-0.6
		c1.5-1.1,2.3-3,2-4.9c0-0.3-0.1-0.5-0.2-0.8c-0.2-0.3-0.3-0.6-0.5-0.8c-0.6-1-1.3-1.8-2.1-2.7c-0.1-0.1-0.1-0.1-0.2-0.1
		c-0.1,0-0.2,0-0.3,0.1c-0.4,0.3-0.9,0.5-1.3,0.8c-0.4,0.3-0.8,0.4-1,0.8C191.9,226.5,192.4,227.6,192.1,228.5"/>
	<path class="st4" d="M264.1,229.6c-0.2,0.4-0.5,0.9-0.8,1.2c-1,1.1-2.2,2.1-3.4,2.9c-0.6,0.3-1.1,0.8-1.5,1.3
		c-0.3,0.5-0.4,1-0.3,1.6c0.1,0.3,0.3,0.7,0.5,0.9c0.4,0.2,0.9,0.2,1.4,0.1c2.4-0.5,4.8-1.4,7-2.5c0.4-0.2,0.7-0.4,1.1-0.6
		c1.5-1.1,2.3-3,1.9-4.9c0-0.3-0.1-0.5-0.2-0.8c-0.2-0.3-0.3-0.6-0.5-0.8c-0.6-1-1.3-1.8-2.1-2.7c-0.1-0.1-0.1-0.1-0.2-0.1
		c-0.1,0-0.2,0-0.3,0.1c-0.5,0.3-0.9,0.5-1.3,0.8c-0.4,0.3-0.8,0.4-1,0.8C263.9,227.5,264.4,228.7,264.1,229.6"/>
	<path class="st8" d="M284.6,118.4c-0.7-2.7-3-5.9-8.6-6.6c-4-0.5-5.8,0.5-6.1,1.7c-0.2,0.3-0.3,0.6-0.4,0.9l-0.1-0.8
		c-0.2,2.3-0.8,8.3-0.8,11.7c0.1,3.4,1.4,7,3.9,6.8c2.5-0.2,8.5-4,9.8-5.6S285.3,121.1,284.6,118.4"/>
	<path class="st8" d="M275.7,134.4c0.3,0.4,0.8,0.7,1.3,0.8l1.8,0.6c0.5,0.2,1.1,0.3,1.7,0.4c0.6,0,1.1-0.3,1.5-0.7
		c0.2-0.4,0.3-0.9,0.2-1.4c0.1-2.5-0.1-5-0.8-7.4c-0.1-0.4-0.3-0.7-0.7-0.9c-0.3-0.1-0.6-0.1-0.8,0c-1.7,0.3-3.9,1.6-4.4,3.4
		c-0.1,0.7-0.1,1.3,0,2C275.7,132.1,275.2,133.5,275.7,134.4"/>
	<path class="st5" d="M191.5,124.9c0.1,1.6,1.9,2.5,2.8,3.8s0.8,3.4,2.1,4.5c1.2,1.1,3.3,0.8,5,0.1c0.5-0.2,1,2.9,1.4,3.3
		c1.5,1.4,4-0.4,5.5-1.3c0.3-0.1,0.5-0.4,0.7-0.6c0-1.2-0.1-2.3-0.2-3.4c-0.1-3-0.3-6.1-0.5-9.1c-0.1-1.8-0.3-3.5-0.7-5.2
		c-0.3-1.3-0.9-2.4-1.8-3.4c-1.4-1.5-3.5-2.2-5.6-2c-2.1,0.3-4,1.4-5.3,3c-1.2,1.6-1.9,3.5-2,5.5
		C192.6,121.5,191.5,123.3,191.5,124.9z"/>
	<path class="st9" d="M188.6,110.5c0.3,3.1,2.8,5.6,5.9,5.9c1.7,0.1,3.7-0.3,4.9,0.9c0.3,0.3,0.5,0.7,0.9,0.7c0.3,0,0.5,0,0.8,0
		c1.3-0.1,2,1.6,2.2,2.9c0.9-0.2,0.3-2.2,1.3-2.2c0.2,0,0.4,0.1,0.5,0.2c1.2,1,1.3,2.8,0.3,4l-0.2,0.2c1.1,1.3,1.7,3,1.8,4.7
		c0,1.4,0.1,3.4,1.5,3.7c0.6,0.1,1.3-0.2,1.7-0.6c1.8-1.8,1.1-4.9,2.5-7.1c0.9-1.3,2.4-2.1,3-3.6c0.3-0.9,0.3-1.8,0-2.7
		c-0.6-2.3-2-4.3-3.9-5.6c-0.8-0.5-1.6-1-2.3-1.7c-0.5-0.6-1-1.3-1.4-2c-2.8-4.1-7-3.7-11.4-3.6C193.1,104.5,188.5,106,188.6,110.5z
		"/>
	<path class="st3" d="M136.5,253.6c-4.7,0-8.4-3.8-8.4-8.5s3.8-8.5,8.4-8.5c4.7,0,8.5,3.8,8.5,8.5
		C145,249.8,141.2,253.6,136.5,253.6 M136.5,241.3c-2.1,0-3.9,1.7-3.9,3.9c0,2.1,1.7,3.9,3.9,3.9c2.1,0,3.9-1.7,3.9-3.9
		C140.4,243,138.7,241.3,136.5,241.3"/>
	<g>
		<defs>
			<path id="SVGID_55_" d="M139.3,242.5l-0.3,0.7c0.2,0.2,0.4,0.4,0.6,0.6l0.6,0C140,243.2,139.7,242.8,139.3,242.5"/>
		</defs>
		<clipPath id="SVGID_56_">
			<use xlink:href="#SVGID_55_"  style="overflow:visible;"/>
		</clipPath>
		<g style="clip-path:url(#SVGID_56_);">
			
				<image style="overflow:visible;" width="7" height="8" xlink:href="4CBC891401E173E9.jpg"  transform="matrix(0.24 0 0 -0.24 138.72 243.95)">
			</image>
		</g>
	</g>
	<g>
		<defs>
			<path id="SVGID_57_" d="M136.5,241.3c-0.9,0-1.8,0.3-2.5,0.9l0.6,0.6c0.6-0.3,1.2-0.5,1.9-0.5c1,0,1.8,0.3,2.5,0.9l0.3-0.7
				C138.6,241.7,137.6,241.3,136.5,241.3"/>
		</defs>
		<clipPath id="SVGID_58_">
			<use xlink:href="#SVGID_57_"  style="overflow:visible;"/>
		</clipPath>
		<g style="clip-path:url(#SVGID_58_);">
			
				<image style="overflow:visible;" width="25" height="11" xlink:href="4CBC891401E173EA.jpg"  transform="matrix(0.24 0 0 -0.24 133.68 243.47)">
			</image>
		</g>
	</g>
	<g>
		<defs>
			<path id="SVGID_59_" d="M140.1,243.7l-0.6,0c0.4,0.5,0.7,1.2,0.8,1.9c0-0.2,0-0.3,0-0.5C140.4,244.6,140.3,244.1,140.1,243.7"/>
		</defs>
		<clipPath id="SVGID_60_">
			<use xlink:href="#SVGID_59_"  style="overflow:visible;"/>
		</clipPath>
		<g transform="matrix(1 0 0 1 0 -1.525879e-05)" style="clip-path:url(#SVGID_60_);">
			
				<image style="overflow:visible;" width="7" height="11" xlink:href="4CBC891401E173F8.jpg"  transform="matrix(0.24 0 0 -0.24 139.2 245.87)">
			</image>
		</g>
	</g>
	<g>
		<defs>
			<path id="SVGID_61_" d="M132.7,244.4c0,0.2-0.1,0.5-0.1,0.7c0,0.2,0,0.3,0,0.5c0-0.3,0.1-0.6,0.2-0.9L132.7,244.4"/>
		</defs>
		<clipPath id="SVGID_62_">
			<use xlink:href="#SVGID_61_"  style="overflow:visible;"/>
		</clipPath>
		<g transform="matrix(1 0 0 1 0 -1.525879e-05)" style="clip-path:url(#SVGID_62_);">
			
				<image style="overflow:visible;" width="4" height="8" xlink:href="4CBC891401E173C7.jpg"  transform="matrix(0.24 0 0 -0.24 132.24 245.87)">
			</image>
		</g>
	</g>
	<g>
		<defs>
			<path id="SVGID_63_" d="M132.9,243.8c-0.1,0.2-0.1,0.4-0.2,0.7l0.2,0.3c0.1-0.2,0.2-0.4,0.3-0.6C133.1,244,133,243.9,132.9,243.8
				"/>
		</defs>
		<clipPath id="SVGID_64_">
			<use xlink:href="#SVGID_63_"  style="overflow:visible;"/>
		</clipPath>
		<g style="clip-path:url(#SVGID_64_);">
			
				<image style="overflow:visible;" width="5" height="7" xlink:href="4CBC891401E173C8.jpg"  transform="matrix(0.24 0 0 -0.24 132.24 245.15)">
			</image>
		</g>
	</g>
	<g>
		<defs>
			<path id="SVGID_65_" d="M144.7,248.3l-0.3,0c-0.2,0.4-0.4,0.9-0.6,1.3c0.1,0.1,0.2,0.2,0.3,0.4
				C144.3,249.4,144.5,248.8,144.7,248.3 M128.1,245.6c0,0.2,0,0.3,0,0.5c0,4.7,3.8,8.5,8.4,8.5c2.6,0,4.9-1.2,6.4-3l-0.5-0.5
				c-1.5,1.5-3.6,2.5-6,2.5C132,253.6,128.3,250.1,128.1,245.6"/>
		</defs>
		<clipPath id="SVGID_66_">
			<use xlink:href="#SVGID_65_"  style="overflow:visible;"/>
		</clipPath>
		<g transform="matrix(1 0 0 1 -7.629395e-06 -1.525879e-05)" style="clip-path:url(#SVGID_66_);">
			
				<image style="overflow:visible;" width="72" height="41" xlink:href="4CBC891401E173CB.jpg"  transform="matrix(0.24 0 0 -0.24 127.68 254.99)">
			</image>
		</g>
	</g>
	<g>
		<defs>
			<path id="SVGID_67_" d="M143.7,249.5c-0.4,0.6-0.8,1.1-1.3,1.6l0.5,0.5c0.4-0.5,0.8-1.1,1.1-1.7
				C144,249.8,143.9,249.6,143.7,249.5"/>
		</defs>
		<clipPath id="SVGID_68_">
			<use xlink:href="#SVGID_67_"  style="overflow:visible;"/>
		</clipPath>
		<g transform="matrix(1 0 0 1 0 -1.525879e-05)" style="clip-path:url(#SVGID_68_);">
			
				<image style="overflow:visible;" width="10" height="11" xlink:href="4CBC891401E173C9.jpg"  transform="matrix(0.24 0 0 -0.24 142.08 251.87)">
			</image>
		</g>
	</g>
	<g>
		<defs>
			<path id="SVGID_69_" d="M145,245.6c-0.1,0.9-0.3,1.8-0.6,2.7l0.3,0c0.2-0.7,0.3-1.4,0.3-2.2v0C145,245.9,145,245.8,145,245.6"/>
		</defs>
		<clipPath id="SVGID_70_">
			<use xlink:href="#SVGID_69_"  style="overflow:visible;"/>
		</clipPath>
		<g transform="matrix(1 0 0 1 0 -1.525879e-05)" style="clip-path:url(#SVGID_70_);">
			
				<image style="overflow:visible;" width="6" height="14" xlink:href="4CBC891401E173CF.jpg"  transform="matrix(0.24 0 0 -0.24 144 248.51)">
			</image>
		</g>
	</g>
	<g>
		<defs>
			<path id="SVGID_71_" d="M136.5,237.6c-2,0-3.7,0.7-5.2,1.8l2.7,2.7c0.7-0.6,1.5-0.9,2.5-0.9c1.1,0,2.1,0.5,2.8,1.2
				c0.3,0.4,0.6,0.8,0.8,1.3c0.2,0.4,0.3,0.9,0.3,1.4c0,0.2,0,0.3,0,0.5c0,0.2,0,0.3,0,0.5c0,2.1-1.7,3.9-3.9,3.9
				c-2.1,0-3.9-1.7-3.9-3.9c0-0.2,0-0.3,0-0.5c0-0.2,0-0.3,0-0.5c0-0.2,0-0.5,0.1-0.7c0-0.2,0.1-0.5,0.2-0.7
				c-0.9-1.1-1.9-2.3-2.6-3.3c-1.3,1.4-2.1,3.2-2.2,5.2c0.2,4.4,3.9,8,8.4,8c2.3,0,4.4-0.9,6-2.5c0.5-0.5,0.9-1,1.3-1.6
				c0.2-0.4,0.5-0.8,0.6-1.3c0.3-0.8,0.5-1.7,0.6-2.7C144.7,241.2,141,237.6,136.5,237.6"/>
		</defs>
		<clipPath id="SVGID_72_">
			<use xlink:href="#SVGID_71_"  style="overflow:visible;"/>
		</clipPath>
		<g style="clip-path:url(#SVGID_72_);">
			
				<image style="overflow:visible;" width="74" height="70" xlink:href="4CBC891401E173CA.jpg"  transform="matrix(0.24 0 0 -0.24 127.68 254.03)">
			</image>
		</g>
	</g>
	<path class="st3" d="M201.5,253.6c-4.7,0-8.5-3.8-8.5-8.5s3.8-8.5,8.5-8.5c4.7,0,8.5,3.8,8.5,8.5
		C209.9,249.8,206.1,253.6,201.5,253.6 M201.5,241.3c-2.1,0-3.9,1.7-3.9,3.9c0,2.1,1.7,3.9,3.9,3.9s3.9-1.7,3.9-3.9
		C205.4,243,203.6,241.3,201.5,241.3"/>
	<g>
		<defs>
			<path id="SVGID_73_" d="M203.8,242l-0.3,0.8c0.4,0.2,0.8,0.6,1,0.9l0.6,0C204.8,243,204.4,242.4,203.8,242"/>
		</defs>
		<clipPath id="SVGID_74_">
			<use xlink:href="#SVGID_73_"  style="overflow:visible;"/>
		</clipPath>
		<g style="clip-path:url(#SVGID_74_);">
			
				<image style="overflow:visible;" width="10" height="10" xlink:href="4CBC891401E173C5.jpg"  transform="matrix(0.24 0 0 -0.24 203.04 243.95)">
			</image>
		</g>
	</g>
	<g>
		<defs>
			<path id="SVGID_75_" d="M201.5,241.3c-0.7,0-1.3,0.2-1.9,0.5l0.7,0.7c0.4-0.1,0.8-0.2,1.2-0.2c0.7,0,1.4,0.2,2,0.6l0.3-0.8
				C203.1,241.5,202.3,241.3,201.5,241.3"/>
		</defs>
		<clipPath id="SVGID_76_">
			<use xlink:href="#SVGID_75_"  style="overflow:visible;"/>
		</clipPath>
		<g style="clip-path:url(#SVGID_76_);">
			
				<image style="overflow:visible;" width="21" height="10" xlink:href="4CBC891401E173C6.jpg"  transform="matrix(0.24 0 0 -0.24 199.2 243.23)">
			</image>
		</g>
	</g>
	<g>
		<defs>
			<path id="SVGID_77_" d="M205.1,243.7l-0.6,0c0.4,0.5,0.7,1.2,0.8,1.9c0-0.2,0-0.3,0-0.5C205.4,244.6,205.3,244.1,205.1,243.7"/>
		</defs>
		<clipPath id="SVGID_78_">
			<use xlink:href="#SVGID_77_"  style="overflow:visible;"/>
		</clipPath>
		<g transform="matrix(1 0 0 1 0 -1.525879e-05)" style="clip-path:url(#SVGID_78_);">
			
				<image style="overflow:visible;" width="6" height="11" xlink:href="4CBC891401E173C4.jpg"  transform="matrix(0.24 0 0 -0.24 204.24 245.87)">
			</image>
		</g>
	</g>
	<g>
		<defs>
			<path id="SVGID_79_" d="M198.2,243.1c-0.1,0.2-0.2,0.4-0.3,0.5l0.4,0l0.1-0.2C198.3,243.3,198.3,243.2,198.2,243.1"/>
		</defs>
		<clipPath id="SVGID_80_">
			<use xlink:href="#SVGID_79_"  style="overflow:visible;"/>
		</clipPath>
		<g style="clip-path:url(#SVGID_80_);">
			
				<image style="overflow:visible;" width="5" height="5" xlink:href="4CBC891401E17423.jpg"  transform="matrix(0.24 0 0 -0.24 197.52 243.95)">
			</image>
		</g>
	</g>
	<g>
		<defs>
			<path id="SVGID_81_" d="M198.4,243.4l-0.1,0.2l-0.4,0c-0.2,0.5-0.3,1-0.3,1.5c0,0.2,0,0.3,0,0.5c0.1-0.8,0.4-1.5,0.9-2.1
				C198.5,243.5,198.5,243.5,198.4,243.4"/>
		</defs>
		<clipPath id="SVGID_82_">
			<use xlink:href="#SVGID_81_"  style="overflow:visible;"/>
		</clipPath>
		<g transform="matrix(1 0 0 1 0 -1.525879e-05)" style="clip-path:url(#SVGID_82_);">
			
				<image style="overflow:visible;" width="7" height="12" xlink:href="4CBC891401E17425.jpg"  transform="matrix(0.24 0 0 -0.24 197.28 245.87)">
			</image>
		</g>
	</g>
	<g>
		<defs>
			<path id="SVGID_83_" d="M209.6,248.3h-0.3c-0.1,0.2-0.2,0.4-0.3,0.6c0.1,0.1,0.2,0.2,0.3,0.3
				C209.4,248.9,209.6,248.6,209.6,248.3 M193.6,248.2l-0.3,0c0.9,3.6,4.2,6.3,8.2,6.3c2.8,0,5.3-1.4,6.9-3.5l-0.4-0.4
				c-1.5,1.8-3.9,3-6.4,3C197.9,253.6,194.8,251.4,193.6,248.2"/>
		</defs>
		<clipPath id="SVGID_84_">
			<use xlink:href="#SVGID_83_"  style="overflow:visible;"/>
		</clipPath>
		<g transform="matrix(1 0 0 1 0 -1.525879e-05)" style="clip-path:url(#SVGID_84_);">
			
				<image style="overflow:visible;" width="71" height="30" xlink:href="4CBC891401E17427.jpg"  transform="matrix(0.24 0 0 -0.24 192.96 254.99)">
			</image>
		</g>
	</g>
	<g>
		<defs>
			<path id="SVGID_85_" d="M209,248.9c-0.3,0.6-0.7,1.2-1.1,1.7l0.4,0.4c0.4-0.5,0.7-1.1,1-1.8C209.2,249.1,209.1,249,209,248.9"/>
		</defs>
		<clipPath id="SVGID_86_">
			<use xlink:href="#SVGID_85_"  style="overflow:visible;"/>
		</clipPath>
		<g style="clip-path:url(#SVGID_86_);">
			
				<image style="overflow:visible;" width="9" height="12" xlink:href="4CBC891401E17422.jpg"  transform="matrix(0.24 0 0 -0.24 207.6 251.39)">
			</image>
		</g>
	</g>
	<g>
		<defs>
			<path id="SVGID_87_" d="M193,245.6c0,0.2,0,0.3,0,0.5c0,0.7,0.1,1.5,0.3,2.1l0.3,0C193.3,247.4,193.1,246.5,193,245.6"/>
		</defs>
		<clipPath id="SVGID_88_">
			<use xlink:href="#SVGID_87_"  style="overflow:visible;"/>
		</clipPath>
		<g transform="matrix(1 0 0 1 0 -1.525879e-05)" style="clip-path:url(#SVGID_88_);">
			
				<image style="overflow:visible;" width="5" height="14" xlink:href="4CBC891401E17421.jpg"  transform="matrix(0.24 0 0 -0.24 192.72 248.51)">
			</image>
		</g>
	</g>
	<g>
		<defs>
			<path id="SVGID_89_" d="M209.9,245.6c-0.1,0.9-0.3,1.8-0.6,2.7h0.3c0.2-0.7,0.3-1.4,0.3-2.2v0
				C209.9,245.9,209.9,245.8,209.9,245.6"/>
		</defs>
		<clipPath id="SVGID_90_">
			<use xlink:href="#SVGID_89_"  style="overflow:visible;"/>
		</clipPath>
		<g transform="matrix(1 0 0 1 0 -1.525879e-05)" style="clip-path:url(#SVGID_90_);">
			
				<image style="overflow:visible;" width="5" height="14" xlink:href="4CBC891401E1743D.jpg"  transform="matrix(0.24 0 0 -0.24 209.04 248.51)">
			</image>
		</g>
	</g>
	<g>
		<defs>
			<path id="SVGID_91_" d="M201.5,237.6c-1.7,0-3.3,0.5-4.6,1.4l2.7,2.7c0.6-0.3,1.2-0.5,1.9-0.5c0.9,0,1.6,0.3,2.3,0.7
				c0.6,0.4,1.1,1,1.3,1.7c0.2,0.4,0.3,0.9,0.3,1.4c0,0.2,0,0.3,0,0.5c0,0.2,0,0.3,0,0.5c0,2.1-1.7,3.9-3.9,3.9s-3.9-1.7-3.9-3.9
				c0-0.2,0-0.3,0-0.5c0-0.2,0-0.3,0-0.5c0-0.5,0.1-1,0.3-1.5c0.1-0.2,0.2-0.4,0.3-0.5c-0.9-1-1.7-2.2-2.5-3.2
				c-1.5,1.4-2.5,3.4-2.6,5.7c0.1,0.9,0.2,1.8,0.6,2.6c1.2,3.1,4.3,5.4,7.9,5.4c2.6,0,4.9-1.2,6.4-3c0.4-0.5,0.8-1.1,1.1-1.7
				c0.1-0.2,0.2-0.4,0.3-0.6c0.3-0.8,0.5-1.7,0.6-2.7C209.7,241.2,206,237.6,201.5,237.6"/>
		</defs>
		<clipPath id="SVGID_92_">
			<use xlink:href="#SVGID_91_"  style="overflow:visible;"/>
		</clipPath>
		<g style="clip-path:url(#SVGID_92_);">
			
				<image style="overflow:visible;" width="73" height="70" xlink:href="4CBC891401E1743F.jpg"  transform="matrix(0.24 0 0 -0.24 192.72 254.03)">
			</image>
		</g>
	</g>
	<path class="st3" d="M275.6,253.6c-4.7,0-8.5-3.8-8.5-8.4c0-4.7,3.8-8.5,8.4-8.5c4.7,0,8.5,3.8,8.5,8.4v0
		C284,249.8,280.3,253.6,275.6,253.6 M275.6,241.3c-2.1,0-3.9,1.7-3.9,3.9c0,2.1,1.7,3.9,3.9,3.9c2.1,0,3.9-1.7,3.9-3.9
		C279.5,243,277.7,241.3,275.6,241.3"/>
	<g>
		<defs>
			<path id="SVGID_93_" d="M275.6,241.3c-0.7,0-1.3,0.2-1.9,0.5l0.7,0.7c0.4-0.1,0.8-0.2,1.2-0.2c0.1,0,0.3,0,0.4,0l0.3-0.9
				C276.1,241.3,275.8,241.3,275.6,241.3"/>
		</defs>
		<clipPath id="SVGID_94_">
			<use xlink:href="#SVGID_93_"  style="overflow:visible;"/>
		</clipPath>
		<g style="clip-path:url(#SVGID_94_);">
			
				<image style="overflow:visible;" width="14" height="8" xlink:href="4CBC891401E17420.jpg"  transform="matrix(0.24 0 0 -0.24 273.36 242.75)">
			</image>
		</g>
	</g>
	<g>
		<defs>
			<path id="SVGID_95_" d="M276.3,241.3l-0.3,0.9c1.4,0.1,2.5,1,3.1,2.2l0.3,0C279.1,242.8,277.9,241.6,276.3,241.3"/>
		</defs>
		<clipPath id="SVGID_96_">
			<use xlink:href="#SVGID_95_"  style="overflow:visible;"/>
		</clipPath>
		<g style="clip-path:url(#SVGID_96_);">
			
				<image style="overflow:visible;" width="18" height="15" xlink:href="4CBC891401E17426.jpg"  transform="matrix(0.24 0 0 -0.24 275.52 244.67)">
			</image>
		</g>
	</g>
	<g>
		<defs>
			<path id="SVGID_97_" d="M279.4,244.4l-0.3,0c0.2,0.4,0.3,0.8,0.4,1.2c0-0.2,0-0.3,0-0.5C279.5,244.9,279.5,244.6,279.4,244.4"/>
		</defs>
		<clipPath id="SVGID_98_">
			<use xlink:href="#SVGID_97_"  style="overflow:visible;"/>
		</clipPath>
		<g transform="matrix(1 0 0 1 0 -1.525879e-05)" style="clip-path:url(#SVGID_98_);">
			
				<image style="overflow:visible;" width="5" height="8" xlink:href="4CBC891401E1742C.jpg"  transform="matrix(0.24 0 0 -0.24 278.64 245.87)">
			</image>
		</g>
	</g>
	<g>
		<defs>
			<path id="SVGID_99_" d="M272.4,242.9c-0.2,0.2-0.3,0.5-0.4,0.7l0.6,0c0.1-0.1,0.1-0.2,0.2-0.2
				C272.7,243.2,272.5,243.1,272.4,242.9"/>
		</defs>
		<clipPath id="SVGID_100_">
			<use xlink:href="#SVGID_99_"  style="overflow:visible;"/>
		</clipPath>
		<g style="clip-path:url(#SVGID_100_);">
			
				<image style="overflow:visible;" width="6" height="6" xlink:href="4CBC891401E17402.jpg"  transform="matrix(0.24 0 0 -0.24 271.68 243.95)">
			</image>
		</g>
	</g>
	<g>
		<defs>
			<path id="SVGID_101_" d="M272.6,243.7l-0.6,0c-0.2,0.5-0.3,1-0.3,1.5c0,0.2,0,0.3,0,0.5C271.8,244.9,272.1,244.2,272.6,243.7"/>
		</defs>
		<clipPath id="SVGID_102_">
			<use xlink:href="#SVGID_101_"  style="overflow:visible;"/>
		</clipPath>
		<g transform="matrix(1 0 0 1 0 -1.525879e-05)" style="clip-path:url(#SVGID_102_);">
			
				<image style="overflow:visible;" width="6" height="11" xlink:href="4CBC891401E17405.jpg"  transform="matrix(0.24 0 0 -0.24 271.44 245.87)">
			</image>
		</g>
	</g>
	<g>
		<defs>
			<path id="SVGID_103_" d="M283.6,248.8l-0.3,0c0.1,0.1,0.2,0.2,0.2,0.2C283.5,249,283.6,248.9,283.6,248.8 M267.7,248.2l-0.3,0
				c0.9,3.6,4.2,6.3,8.2,6.3c0,0,0,0,0,0c2.8,0,5.3-1.4,6.8-3.5l-0.4-0.4c-1.5,1.8-3.8,3-6.4,3c0,0,0,0,0,0
				C272,253.6,269,251.4,267.7,248.2"/>
		</defs>
		<clipPath id="SVGID_104_">
			<use xlink:href="#SVGID_103_"  style="overflow:visible;"/>
		</clipPath>
		<g transform="matrix(1 0 0 1 0 -1.525879e-05)" style="clip-path:url(#SVGID_104_);">
			
				<image style="overflow:visible;" width="70" height="30" xlink:href="4CBC891401E17406.jpg"  transform="matrix(0.24 0 0 -0.24 267.12 254.99)">
			</image>
		</g>
	</g>
	<g>
		<defs>
			<path id="SVGID_105_" d="M283.3,248.8L283.3,248.8c-0.4,0.6-0.8,1.2-1.3,1.8l0.4,0.4c0.4-0.6,0.8-1.2,1-1.9
				C283.4,249,283.3,248.9,283.3,248.8"/>
		</defs>
		<clipPath id="SVGID_106_">
			<use xlink:href="#SVGID_105_"  style="overflow:visible;"/>
		</clipPath>
		<g style="clip-path:url(#SVGID_106_);">
			
				<image style="overflow:visible;" width="9" height="12" xlink:href="4CBC891401E17404.jpg"  transform="matrix(0.24 0 0 -0.24 281.76 251.39)">
			</image>
		</g>
	</g>
	<g>
		<defs>
			<path id="SVGID_107_" d="M267.2,245.6c0,0.2,0,0.3,0,0.5c0,0.7,0.1,1.4,0.3,2.1l0.3,0C267.4,247.4,267.2,246.5,267.2,245.6"/>
		</defs>
		<clipPath id="SVGID_108_">
			<use xlink:href="#SVGID_107_"  style="overflow:visible;"/>
		</clipPath>
		<g transform="matrix(1 0 0 1 0 -1.525879e-05)" style="clip-path:url(#SVGID_108_);">
			
				<image style="overflow:visible;" width="5" height="14" xlink:href="4CBC891401E17403.jpg"  transform="matrix(0.24 0 0 -0.24 266.88 248.51)">
			</image>
		</g>
	</g>
	<g>
		<defs>
			<path id="SVGID_109_" d="M284,245.6c-0.1,1.2-0.4,2.3-0.8,3.2l0.1,0l0.3,0c0.3-0.9,0.5-1.8,0.5-2.7v0
				C284,245.9,284,245.8,284,245.6"/>
		</defs>
		<clipPath id="SVGID_110_">
			<use xlink:href="#SVGID_109_"  style="overflow:visible;"/>
		</clipPath>
		<g transform="matrix(1 0 0 1 0 -1.525879e-05)" style="clip-path:url(#SVGID_110_);">
			
				<image style="overflow:visible;" width="7" height="17" xlink:href="4CBC891401E1740D.jpg"  transform="matrix(0.24 0 0 -0.24 282.72 249.23)">
			</image>
		</g>
	</g>
	<g>
		<defs>
			<path id="SVGID_111_" d="M275.6,237.6C275.6,237.6,275.6,237.6,275.6,237.6c-1.7,0-3.3,0.5-4.6,1.3l2.7,2.7
				c0.6-0.3,1.2-0.5,1.9-0.5c0.2,0,0.5,0,0.7,0.1c1.6,0.3,2.8,1.5,3.1,3.1c0,0.2,0.1,0.5,0.1,0.7c0,0.2,0,0.3,0,0.5
				c0,0.2,0,0.3,0,0.5c0,2.1-1.7,3.9-3.9,3.9c-2.1,0-3.9-1.7-3.9-3.9c0-0.2,0-0.3,0-0.5c0-0.2,0-0.3,0-0.5c0-0.5,0.1-1,0.3-1.5
				c0.1-0.3,0.2-0.5,0.4-0.7c-0.9-1.2-1.8-2.4-2.4-3.1c-1.6,1.4-2.7,3.5-2.8,5.8c0.1,0.9,0.3,1.8,0.6,2.6c1.2,3.1,4.3,5.4,7.9,5.4
				c0,0,0,0,0,0c2.6,0,4.9-1.2,6.4-3c0.5-0.5,0.9-1.1,1.2-1.8c0.5-1,0.8-2.1,0.8-3.2C283.8,241.2,280.1,237.6,275.6,237.6"/>
		</defs>
		<clipPath id="SVGID_112_">
			<use xlink:href="#SVGID_111_"  style="overflow:visible;"/>
		</clipPath>
		<g style="clip-path:url(#SVGID_112_);">
			
				<image style="overflow:visible;" width="73" height="70" xlink:href="4CBC891401E1740E.jpg"  transform="matrix(0.24 0 0 -0.24 266.88 254.03)">
			</image>
		</g>
	</g>
	<path class="st4" d="M128.7,238.3c0,0,6.9,9,7.5,9c0.7,0,1.7-1.3,1.7-1.3l-7.9-8L128.7,238.3"/>
	<polyline class="st3" points="121.4,237.5 122.8,241.7 130.6,238 129.4,234.3 121.4,237.5 	"/>
	<g>
		<defs>
			<polyline id="SVGID_113_" points="129.4,234.3 129.3,234.4 121.4,237.5 122.8,241.7 130.6,238 129.4,234.3 			"/>
		</defs>
		<clipPath id="SVGID_114_">
			<use xlink:href="#SVGID_113_"  style="overflow:visible;"/>
		</clipPath>
		<g style="clip-path:url(#SVGID_114_);">
			
				<image style="overflow:visible;" width="42" height="34" xlink:href="4CBC891401E1740C.jpg"  transform="matrix(0.24 0 0 -0.24 120.96 242.03)">
			</image>
		</g>
	</g>
	<polyline class="st3" points="146.8,254 148.2,258 156,254.4 154.8,250.7 146.8,254 	"/>
	<g>
		<defs>
			<polyline id="SVGID_115_" points="154.8,250.7 152.1,251.8 149.4,252.9 147.4,253.7 146.8,254 148.2,258 156,254.4 154.8,250.7 
							"/>
		</defs>
		<clipPath id="SVGID_116_">
			<use xlink:href="#SVGID_115_"  style="overflow:visible;"/>
		</clipPath>
		<g style="clip-path:url(#SVGID_116_);">
			
				<image style="overflow:visible;" width="41" height="33" xlink:href="4CBC891401E17407.jpg"  transform="matrix(0.24 0 0 -0.24 146.4 258.35)">
			</image>
		</g>
	</g>
	<path class="st4" d="M193.8,237.5c0,0,6.9,9.1,7.6,9c0.7-0.1,1.7-1.3,1.7-1.3l-7.9-8L193.8,237.5"/>
	<polyline class="st3" points="186.5,236.7 187.9,240.8 195.7,237.2 194.5,233.5 186.5,236.7 	"/>
	<g>
		<defs>
			<polyline id="SVGID_117_" points="194.5,233.5 186.5,236.7 187.9,240.8 195.7,237.2 194.5,233.5 			"/>
		</defs>
		<clipPath id="SVGID_118_">
			<use xlink:href="#SVGID_117_"  style="overflow:visible;"/>
		</clipPath>
		<g style="clip-path:url(#SVGID_118_);">
			
				<image style="overflow:visible;" width="41" height="34" xlink:href="4CBC891401E17479.jpg"  transform="matrix(0.24 0 0 -0.24 186.24 241.31)">
			</image>
		</g>
	</g>
	<path class="st4" d="M269.2,238.8c0,0,6.9,9.1,7.6,9c0.7-0.1,1.7-1.3,1.7-1.3l-7.9-8L269.2,238.8"/>
	<polyline class="st3" points="262,238 263.3,242.1 271.1,238.5 270,234.8 262,238 	"/>
	<g>
		<defs>
			<polyline id="SVGID_119_" points="270,234.8 262,238 263.3,242.1 271.1,238.5 271,238 270,234.8 			"/>
		</defs>
		<clipPath id="SVGID_120_">
			<use xlink:href="#SVGID_119_"  style="overflow:visible;"/>
		</clipPath>
		<g style="clip-path:url(#SVGID_120_);">
			
				<image style="overflow:visible;" width="41" height="34" xlink:href="4CBC891401E17469.jpg"  transform="matrix(0.24 0 0 -0.24 261.6 242.51)">
			</image>
		</g>
	</g>
	<path class="st3" d="M209.7,142c-2.1,1.2-3.3,3.7-4.1,6c-1.8,5.2-2.7,10.9-5.6,15.6c-1.7,2.7-3.9,5-6.6,6.6c-1.7,1.1-3.6,1.9-5,3.4
		c-1.4,1.5-2,4-0.6,5.5c1.4,1.5,3.6,1.4,5.5,1c8.1-2.1,13.8-9.2,18.4-16.2c2.1-3,3.7-6.2,4.9-9.7C217.5,150.2,217,137.6,209.7,142z"
		/>
	<path class="st4" d="M274.5,110.2c-1.9,0.2-4.4,0.2-5.5,1.9c-1.3,2.1,0.4,2.9,2.1,3.5c3.2,1,3.5,4.4,4.4,7.1
		c0.3,1.4,1.2,2.7,2.3,3.5c0.7,0.4,1.4,0.5,2.1,1c1,0.7,1.6,1.7,1.9,2.8c0.2,1.2,0.6,2.4,1.2,3.5c0.9,1.3,2,2.3,3.4,2.9
		c1.1,0.7,2.4,1.2,3.7,1.5c2,0.2,4.1-0.1,5.9-1c0.6-0.3,1.2-0.4,1.8-0.5c2,0,3.1,2.4,5,2.9c0.8,0.2,1.5,0.1,2.3,0.1
		c0.7-0.1,1.4-0.1,2.1,0c1.8,0.5,3.6,0.8,5.4,1c2,0.1,4-0.5,5.7-1.6c1.6-1.3,2.2-3.5,1.3-5.4c-0.9-1.7-3-2.3-4.6-3.4
		c-1.7-1.2-2.8-3-3.1-5c-0.2-1.6,0-3.3-0.6-4.8c-0.9-1.6-2.4-2.7-4.1-3.2c-1.9-0.7-4-1-6-0.9c-3,0.1-6.1,1-9.1,0.3
		c-3-0.7-5.5-3-8.2-4.7c-2.8-1.8-5.1-2-8.3-1.5H274.5"/>
	<g>
		<defs>
			<path id="SVGID_121_" d="M278.2,110c-0.8,0-1.7,0.1-2.6,0.2h-1.1c-1.9,0.2-4.4,0.2-5.5,1.9c-0.3,0.5-0.5,1-0.5,1.3
				c0,1.1,1.3,1.7,2.6,2.1c3.2,1,3.5,4.4,4.4,7.1c0.3,1.4,1.2,2.7,2.3,3.5c0.7,0.4,1.4,0.5,2.1,1c1,0.7,1.6,1.7,1.9,2.8
				c0.2,1.2,0.6,2.4,1.2,3.5c0.9,1.3,2,2.3,3.4,2.9c1.1,0.7,2.4,1.2,3.7,1.5c0.4,0,0.7,0.1,1.1,0.1c1.7,0,3.3-0.4,4.8-1.1
				c0.6-0.3,1.2-0.4,1.8-0.5c2,0,3.1,2.4,5,2.9c0.4,0.1,0.8,0.1,1.2,0.1c0.4,0,0.7,0,1.1-0.1c0.4,0,0.7-0.1,1.1-0.1
				c0.3,0,0.7,0,1,0.1c1.8,0.5,3.6,0.8,5.4,1c0.2,0,0.4,0,0.5,0c1.8,0,3.6-0.6,5.1-1.7c1.1-0.9,1.7-2.2,1.7-3.5
				c0-0.6-0.1-1.2-0.4-1.8c-0.9-1.7-3-2.3-4.6-3.4c-1.7-1.2-2.8-3-3.1-5c-0.2-1.6,0-3.3-0.6-4.8c-0.9-1.6-2.4-2.7-4.1-3.2
				c-1.8-0.6-3.6-0.9-5.5-0.9c-0.2,0-0.3,0-0.5,0c-2.2,0.1-4.5,0.6-6.7,0.6c-0.8,0-1.6-0.1-2.4-0.2c-3-0.7-5.5-3-8.2-4.7
				C281.9,110.5,280.2,110,278.2,110"/>
		</defs>
		<clipPath id="SVGID_122_">
			<use xlink:href="#SVGID_121_"  style="overflow:visible;"/>
		</clipPath>
		<g style="clip-path:url(#SVGID_122_);">
			
				<image style="overflow:visible;" width="217" height="131" xlink:href="4CBC891401E1746B.jpg"  transform="matrix(0.24 0 0 -0.24 268.32 140.99)">
			</image>
		</g>
	</g>
	<path class="st3" d="M482,149.9c0,33.9-28.9,92.6-62.8,92.6c-33.9,0-60-58.7-60-92.6c-0.4-33.9,26.7-61.8,60.6-62.2
		c33.9-0.4,61.8,26.7,62.2,60.6C482,148.9,482,149.4,482,149.9L482,149.9"/>
	<g>
		<defs>
			<path id="SVGID_123_" d="M420.6,87.7c-0.3,0-0.5,0-0.8,0c-9.8,0.1-19.1,2.6-27.3,6.8c-11.4,5.9-20.8,15.3-26.6,26.7
				c-4.3,8.4-6.7,17.9-6.7,27.9c0,0.3,0,0.5,0,0.8c0,23.4,12.4,58.7,31.3,78.2c0.9-0.3,1.9-0.5,2.9-0.5h55.5
				c19.5-19.7,33-54.5,33-77.8h0c0-0.3,0-0.5,0-0.8c0-0.3,0-0.5,0-0.8C481.5,114.7,454.1,87.7,420.6,87.7"/>
		</defs>
		<clipPath id="SVGID_124_">
			<use xlink:href="#SVGID_123_"  style="overflow:visible;"/>
		</clipPath>
		<g style="clip-path:url(#SVGID_124_);">
			
				<image style="overflow:visible;" width="515" height="588" xlink:href="4CBC891401E17468.jpg"  transform="matrix(0.24 0 0 -0.24 358.8 228.59)">
			</image>
		</g>
	</g>
	<path class="st3" d="M393.4,227.7h59c5.3,0,9.7,4.3,9.7,9.7v0c0,5.3-4.3,9.7-9.7,9.7h-59c-5.3,0-9.7-4.3-9.7-9.7v0
		C383.7,232,388,227.7,393.4,227.7"/>
	<g>
		<defs>
			<path id="SVGID_125_" d="M452.4,227.7h-3.5h-55.5c-1,0-2,0.2-2.9,0.5c-3.4,1.1-6,4-6.6,7.6c1.2-0.4,2.4-0.6,3.7-0.6h71.8
				c0.9,0,1.7,0.1,2.5,0.3C460.9,231,457,227.7,452.4,227.7"/>
		</defs>
		<clipPath id="SVGID_126_">
			<use xlink:href="#SVGID_125_"  style="overflow:visible;"/>
		</clipPath>
		<g style="clip-path:url(#SVGID_126_);">
			
				<image style="overflow:visible;" width="328" height="36" xlink:href="4CBC891401E17467.jpg"  transform="matrix(0.24 0 0 -0.24 383.52 236.03)">
			</image>
		</g>
	</g>
	<path class="st3" d="M393.4,249h59c5.3,0,9.7,4.3,9.7,9.7v0c0,5.3-4.3,9.7-9.7,9.7h-59c-5.3,0-9.7-4.3-9.7-9.7v0
		C383.7,253.4,388,249,393.4,249"/>
	<g>
		<defs>
			<path id="SVGID_127_" d="M383.7,258c0,0.2,0,0.5,0,0.7v0c0,5.3,4.3,9.7,9.7,9.7h59c5.3,0,9.7-4.3,9.7-9.7v0c0-0.1,0-0.3,0-0.4
				c-0.9,0.2-1.8,0.3-2.7,0.3h-71.8C386.2,258.6,384.9,258.4,383.7,258"/>
		</defs>
		<clipPath id="SVGID_128_">
			<use xlink:href="#SVGID_127_"  style="overflow:visible;"/>
		</clipPath>
		<g style="clip-path:url(#SVGID_128_);">
			
				<image style="overflow:visible;" width="330" height="46" xlink:href="4CBC891401E17419.jpg"  transform="matrix(0.24 0 0 -0.24 383.28 268.67)">
			</image>
		</g>
	</g>
	<path class="st3" d="M387.6,235.1h71.8c6.5,0,11.8,5.3,11.8,11.8v0c0,6.5-5.3,11.7-11.8,11.7h-71.8c-6.5,0-11.8-5.3-11.8-11.7v0
		C375.8,240.4,381.1,235.1,387.6,235.1"/>
	<g>
		<defs>
			<path id="SVGID_129_" d="M459.3,235.1h-71.8c-6.5,0-11.8,5.3-11.8,11.8v0c0,6.5,5.3,11.7,11.8,11.7h71.8
				c6.5,0,11.8-5.3,11.8-11.7v0C471.1,240.4,465.8,235.1,459.3,235.1"/>
		</defs>
		<clipPath id="SVGID_130_">
			<use xlink:href="#SVGID_129_"  style="overflow:visible;"/>
		</clipPath>
		<g style="clip-path:url(#SVGID_130_);">
			
				<image style="overflow:visible;" width="400" height="101" xlink:href="4CBC891401E1741B.jpg"  transform="matrix(0.24 0 0 -0.24 375.36 259.07)">
			</image>
		</g>
	</g>
	<path class="st3" d="M437.9,229.1l-3-0.5c1.4-8.7,3.9-17.2,7.5-25.2c0.7-1.5,1.4-2.9,2.1-4.4c2.2-4.5,4.4-9.2,5.4-14.1
		c1.1-5.5,0.5-12.9-4.5-17.2c-1.4-1.3-3.3-2-5.2-2c-1.8,0.3-3.3,1.2-4.5,2.5c3.2,5.7,3.3,12.7,0.2,18.5c-0.5,1.1-1.5,2-2.7,2.4
		c-0.9,0.3-1.9,0.1-2.7-0.4c-1.4-1-2.3-2.6-2.6-4.3c-1-5.9,0.5-11.9,4.1-16.6c-0.7-1-1.6-1.9-2.6-2.7c-0.8-0.7-1.7-1.2-2.8-1.4
		c-3-0.7-5.6,2.3-7.1,5.6c4.7,4.9,7.1,11.5,6.7,18.2c0,2.1-0.7,4.1-2,5.7c-1.5,1.8-4.5,2.6-6.6,1c-1-0.9-1.7-2-2-3.3
		c-2.2-6.8-2-14.1,0.4-20.9c-0.9-0.9-2.1-1.5-3.3-1.8c-1.5-0.1-3,0.5-4.2,1.4c-6.1,4.5-6.9,13.5-6.8,18.5c0.3,14.4,6.1,28.1,16,38.4
		l-2.2,2.1c-10.5-10.9-16.5-25.3-16.8-40.5c-0.2-9.5,2.7-17,8-21c1.8-1.5,4.1-2.2,6.4-2c1.5,0.3,3,0.9,4.2,1.9c2-3.8,5.7-7.2,10-6.4
		c1.5,0.3,2.9,1,4,2c1,0.8,2,1.7,2.8,2.8c3.5-3.8,9.4-4,13.2-0.5l0.2,0.2c6.1,5.1,6.8,13.7,5.5,20.1c-1.1,5.2-3.4,10.1-5.6,14.8
		c-0.7,1.4-1.4,2.9-2,4.3C441.7,212.4,439.3,220.6,437.9,229.1z M418.2,172.8c-1.7,5.7-1.7,11.8,0.1,17.5c0.2,0.7,0.5,1.3,1,1.8
		c0.7,0.5,1.9,0.1,2.5-0.6c0.8-1.1,1.3-2.5,1.2-3.9C423.5,182.2,421.7,176.9,418.2,172.8z M433.6,170.9c-2.6,3.9-3.6,8.6-2.8,13.2
		c0.1,0.9,0.5,1.7,1.2,2.2c0.6,0,0.9-0.4,1.2-1C435.6,180.9,435.8,175.5,433.6,170.9z"/>
</g>
</svg>
