<?xml version="1.0" encoding="utf-8"?>
<!-- Generator: Adobe Illustrator 21.1.0, SVG Export Plug-In . SVG Version: 6.00 Build 0)  -->
<svg version="1.1" id="Layer_1" xmlns="http://www.w3.org/2000/svg" xmlns:xlink="http://www.w3.org/1999/xlink" x="0px" y="0px"
	 viewBox="0 0 652.2 595.4" style="enable-background:new 0 0 652.2 595.4;" xml:space="preserve">
<style type="text/css">
	.st0{opacity:0.18;fill:#ABAD23;enable-background:new    ;}
	.st1{opacity:5.000000e-02;fill:#000405;enable-background:new    ;}
	.st2{fill:#3F3D56;}
	.st3{fill:#333333;}
	.st4{fill:#ABAD23;}
	.st5{fill:url(#SVGID_1_);}
	.st6{fill:url(#SVGID_2_);}
	.st7{fill:url(#SVGID_3_);}
	.st8{opacity:0.61;fill:url(#SVGID_4_);enable-background:new    ;}
	.st9{fill:url(#SVGID_5_);}
	.st10{fill:url(#SVGID_6_);}
	.st11{fill:url(#SVGID_7_);}
	.st12{fill:url(#SVGID_8_);}
	.st13{fill:url(#SVGID_9_);}
	.st14{fill:url(#SVGID_10_);}
	.st15{fill:url(#SVGID_11_);}
	.st16{opacity:0.61;fill:url(#SVGID_12_);enable-background:new    ;}
	.st17{fill:url(#SVGID_13_);}
	.st18{fill:url(#SVGID_14_);}
	.st19{opacity:0.61;fill:url(#SVGID_15_);enable-background:new    ;}
	.st20{fill:url(#SVGID_16_);}
	.st21{opacity:0.61;fill:url(#SVGID_17_);enable-background:new    ;}
	.st22{fill:url(#SVGID_18_);}
	.st23{opacity:0.4;fill:#ABAD23;enable-background:new    ;}
	.st24{fill:url(#SVGID_19_);}
	.st25{opacity:0.49;fill:#FFFFFF;enable-background:new    ;}
	.st26{fill:url(#SVGID_20_);}
	.st27{fill:url(#SVGID_21_);}
	.st28{fill:#FFFFFF;}
</style>
<title>3. Solved the Problem</title>
<path class="st0" d="M652.2,360.8c0,12.8-1.4,25.5-4.2,38c-24.9,111.5-157.5,196.6-317.3,196.6c-65.9,0-127.2-14.5-178.2-39.3
	c-35.2-17.1-65.5-39.2-89.1-64.9c-10-9.5-18.8-20.2-26.2-31.8c-67.6-105-42.3-292.2,72.1-290.7c13.6,0.3,27.3-0.4,40.9-2.1
	c32.1-4.1,51.6-13.9,63.5-24.4c2.9-2.6,5.5-5.4,7.9-8.5c16.4-21.8,40.7-36.5,67.6-40.9c238.7-38.2,325.6,80.8,352.5,181
	c7.3,27,10.9,54.9,10.5,83C652.1,358,652.2,359.4,652.2,360.8z"/>
<path class="st1" d="M171.8,513L44.4,470c0,0-46.9-58.1-44.2-155.9l189.5,77.6c0,0,82.4-23.7,131.5-26s266.7-25.2,266.7-25.2
	s42,48.1,23.3,62.9s-153.1,17.2-153.1,17.2l-93.5-54.8L286,426.4L226,483L171.8,513z"/>
<path class="st2" d="M380.5,297.1l-2,5.1c0,0,6,5.3,2,7.6C380.5,309.8,401.3,308.5,380.5,297.1z"/>
<path class="st3" d="M142.6,461.6l-2.4,6.9l19.8,9.3c0,0,18.4,2.3,24.1-2.5c3.4-3,6-7,7.2-11.4L142.6,461.6z"/>
<path class="st4" d="M194.6,397.3c0,0,23.4-0.4,30.2,8.1S207.1,439,207.1,439l-56.7,4L194.6,397.3z"/>
<linearGradient id="SVGID_1_" gradientUnits="userSpaceOnUse" x1="236.31" y1="904.1434" x2="311.9422" y2="904.1434" gradientTransform="matrix(1 0 0 1 -85.92 -484.01)">
	<stop  offset="0" style="stop-color:#000000;stop-opacity:0"/>
	<stop  offset="0.91" style="stop-color:#000000;stop-opacity:0.8"/>
	<stop  offset="1" style="stop-color:#000000"/>
</linearGradient>
<path class="st5" d="M194.6,397.3c0,0,23.4-0.4,30.2,8.1S207.1,439,207.1,439l-56.7,4L194.6,397.3z"/>
<path class="st4" d="M193.8,433.7c0,0,49.1,4.4,57.7,7.6c16.1,6.1,11.3,28.8,4,31.2c-6.1,2-52.4,19-67.2,24.4
	c-2.5,0.9-5.4-0.3-6.4-2.8l-5.1-12.1c-1.1-2.6,0.1-5.6,2.7-6.7c0.2-0.1,0.3-0.1,0.5-0.2l29.1-8.7c0,0-43.3,4.4-52,2.4
	c-19.4-4.2-38.4-29-28.3-50.6C139,396.6,193.8,433.7,193.8,433.7z"/>
<linearGradient id="SVGID_2_" gradientUnits="userSpaceOnUse" x1="341.6133" y1="856.9441" x2="252.5433" y2="958.7341" gradientTransform="matrix(1 0 0 1 -85.92 -484.01)">
	<stop  offset="0" style="stop-color:#000000;stop-opacity:0"/>
	<stop  offset="0.91" style="stop-color:#000000;stop-opacity:0.8"/>
	<stop  offset="1" style="stop-color:#000000"/>
</linearGradient>
<path class="st6" d="M193.8,433.7c0,0,49.1,4.4,57.7,7.6c16.1,6.1,11.3,28.8,4,31.2c-6.1,2-52.4,19-67.2,24.4
	c-2.5,0.9-5.4-0.3-6.4-2.8l-5.1-12.1c-1.1-2.6,0.1-5.6,2.7-6.7c0.2-0.1,0.3-0.1,0.5-0.2l29.1-8.7c0,0-43.3,4.4-52,2.4
	c-19.4-4.2-38.4-29-28.3-50.6C139,396.6,193.8,433.7,193.8,433.7z"/>
<path class="st2" d="M322.1,311.5l-2.3,8.9l11.6,10.3c0,0-3.3,0-6,5.2l-1.1,11.4c0,0,7.8,16.9,29.4,2.1l35,30.9l77.6-27.3l1.7-10.6
	L322.1,311.5z"/>
<path class="st4" d="M532.5,320l-38.6-15.2c-4.8-2.7-10.7-2.9-15.7-0.5c-4.4,2.1-7.3,6.5-7.5,11.4c-1.3,14.6,6.5,81.8,6.5,81.8
	c2.9,1.1,5.9,1.9,9,2.3c5.5,1.1,11.1-0.3,15.5-3.8l0.8-50.5c0,0,43.5,26.9,59.1,24.6c17.4-2.5,45.3-16.8,26.5-49.8
	S532.5,320,532.5,320z"/>
<linearGradient id="SVGID_3_" gradientUnits="userSpaceOnUse" x1="501.731" y1="811.1358" x2="645.341" y2="844.2458" gradientTransform="matrix(1 0 0 1 -85.92 -484.01)">
	<stop  offset="0" style="stop-color:#000000;stop-opacity:0"/>
	<stop  offset="0.91" style="stop-color:#000000;stop-opacity:0.8"/>
	<stop  offset="1" style="stop-color:#000000"/>
</linearGradient>
<path class="st7" d="M532.5,320l-38.6-15.2c-4.8-2.7-10.7-2.9-15.7-0.5c-4.4,2.1-7.3,6.5-7.5,11.4c-1.3,14.6,6.5,81.8,6.5,81.8
	c2.9,1.1,5.9,1.9,9,2.3c5.5,1.1,11.1-0.3,15.5-3.8l0.8-50.5c0,0,43.5,26.9,59.1,24.6c17.4-2.5,45.3-16.8,26.5-49.8
	S532.5,320,532.5,320z"/>
<path class="st4" d="M500.5,231.1c0,0-11.3,36.1-14.4,43.8s-56.7,14.2-56.7,14.2l2,23.2l61.1-7.6l18.4-26.5L500.5,231.1z"/>
<linearGradient id="SVGID_4_" gradientUnits="userSpaceOnUse" x1="617.9998" y1="794.1404" x2="557.6498" y2="759.0104" gradientTransform="matrix(1 0 0 1 -85.92 -484.01)">
	<stop  offset="0.36" style="stop-color:#00272E"/>
	<stop  offset="1" style="stop-color:#69B9EB;stop-opacity:0"/>
</linearGradient>
<path class="st8" d="M500.5,231.1c0,0-11.3,36.1-14.4,43.8s-56.7,14.2-56.7,14.2l2,23.2l61.1-7.6l18.4-26.5L500.5,231.1z"/>
<path class="st4" d="M531.1,219.1l12.4,6.9c23.1,10.3,31.5,33.3,44.5,94.5c0,0-10.9,24.4-51.1,8c0,0-27.3-39.9-31.8-54.8
	s-15.8-40.6,5-50.5S531.1,219.1,531.1,219.1z"/>
<path class="st1" d="M557.7,271.7l15.1,57.1c0,0-15.5,9.4-36.1-0.3s-13.3-19.5-20-31.3l20.2-11L557.7,271.7z"/>
<path class="st3" d="M529.3,216.6c-3.3,7.1-11.6,10.2-18.7,6.9c0,0,0,0,0,0l-0.6-0.3c0,0-11.7,20.4,5,17.9
	c8.8-1.3,16.6-14.4,18.1-21.1L529.3,216.6z"/>
<linearGradient id="SVGID_5_" gradientUnits="userSpaceOnUse" x1="594.28" y1="703.4059" x2="616.0432" y2="703.4059" gradientTransform="matrix(1 0 0 1 -85.92 -484.01)">
	<stop  offset="0" style="stop-color:#ECC4D7"/>
	<stop  offset="0.42" style="stop-color:#EFD4D1"/>
	<stop  offset="1" style="stop-color:#F2EAC9"/>
</linearGradient>
<path class="st9" d="M530.1,200.3c0,0.2-0.5,10.3-0.9,17.5c-0.3,5.6-2.7,10.9-6.7,14.8c-2.3,2.4-5.1,4.3-8.2,5.6
	c-1.5,0.6-3.2,0.2-4.4-0.9c-1.2-1.1-1.7-2.8-1.3-4.4c0.4-1.5,0.8-3.2,1.1-5.1c0.7-3.8,1-7.9-0.1-10.8c0-0.1-0.1-0.2-0.1-0.3
	c-0.6-1.5,0-3.1,1.4-4.8c1.9-2.3,5.3-4.6,8.7-6.6C523,203.6,526.5,201.8,530.1,200.3z"/>
<linearGradient id="SVGID_6_" gradientUnits="userSpaceOnUse" x1="608.5887" y1="687.6393" x2="570.2187" y2="751.4792" gradientTransform="matrix(1 0 0 1 -85.92 -484.01)">
	<stop  offset="0" style="stop-color:#ECC4D7"/>
	<stop  offset="0.42" style="stop-color:#EFD4D1"/>
	<stop  offset="1" style="stop-color:#F2EAC9"/>
</linearGradient>
<path class="st10" d="M511.8,227.2c-0.7,0.4-1.4,0.6-2.2,0.8c0.7-3.8,1-7.9-0.1-10.8l1.3-5.1l1-3.8l7.8-2.8l7.9-2.9
	C525.5,216.6,518.1,224.2,511.8,227.2z"/>
<linearGradient id="SVGID_7_" gradientUnits="userSpaceOnUse" x1="574.7122" y1="673.1863" x2="620.8141" y2="673.1863" gradientTransform="matrix(1 0 0 1 -85.92 -484.01)">
	<stop  offset="0" style="stop-color:#ECC4D7"/>
	<stop  offset="0.42" style="stop-color:#EFD4D1"/>
	<stop  offset="1" style="stop-color:#F2EAC9"/>
</linearGradient>
<path class="st11" d="M509.8,160.5c-12.3,0.7-21.7,11.3-21,23.6c0,0.6,0.1,1.1,0.2,1.7c0.7,9.1,3,18,6.9,26.2
	c7.3,12.4,25.7,2.2,28.6-2.9s13.9-28.3,9.3-34.9C530.7,169.7,521.8,160,509.8,160.5z"/>
<path class="st3" d="M490.4,151.7l3.8,1.9c-4.6-0.1-8.9,2-11.7,5.6c-3.5,3.5-5.4,8.1-5.5,13l6.4-3c0,0-0.5,7.9,11.7,8.5
	s25,1.1,25,1.1l-4.1-5.7c0,0,7.5,3,8.9,5.8c1.2,4.5,2,9,2.6,13.7c0,0,3-7.8,4.3-6.1s-1.3,8.8-2.9,10.4s-1.3,6.2-1.5,6.6
	s7.6-6,7.9-8.2s8-24.4,3-29l3-0.2c-1.8-1.2-3.8-2-6-2.3C535.3,163.8,515.4,137.5,490.4,151.7z"/>
<linearGradient id="SVGID_8_" gradientUnits="userSpaceOnUse" x1="469.29" y1="784.575" x2="517.27" y2="784.575" gradientTransform="matrix(1 0 0 1 -85.92 -484.01)">
	<stop  offset="0" style="stop-color:#ECC4D7"/>
	<stop  offset="0.42" style="stop-color:#EFD4D1"/>
	<stop  offset="1" style="stop-color:#F2EAC9"/>
</linearGradient>
<path class="st12" d="M429.4,292c-3.8-0.7-7.6-1.7-11.3-3c-5.9-1.5-11.9-2.5-18-2.8c0,0-1.2,4,2,4.8s6.8,2.2,6.8,2.2l-13.2,1.3
	l-12.2,1.7c0,0,1.2,4,4.5,4c1,1.7,2.2,3.2,3.8,4.5c2.3,2.1,4.5,4.4,6.5,6.8c1.7,1.3,3.4,2.5,5.3,3.5c0.7,0,26.5-3,28-5.5L429.4,292z
	"/>
<path class="st4" d="M536.9,328.5c0,0,4,19.9,9.9,24.9c0,0-38.9,30.3-40.7,52.3c-2.5,30.3,93.1-16.7,93.1-16.7l-6.6-16.8l-41.5,18.4
	c0,0,25.2-17.1,37.8-34.1c9.9-13.5,4.5-26-1-35.7C587.9,320.5,564.1,340.2,536.9,328.5z"/>
<linearGradient id="SVGID_9_" gradientUnits="userSpaceOnUse" x1="593.3444" y1="831.6009" x2="685.0043" y2="875.3909" gradientTransform="matrix(1 0 0 1 -85.92 -484.01)">
	<stop  offset="0" style="stop-color:#000000;stop-opacity:0"/>
	<stop  offset="0.91" style="stop-color:#000000;stop-opacity:0.8"/>
	<stop  offset="1" style="stop-color:#000000"/>
</linearGradient>
<path class="st13" d="M536.9,328.5c0,0,4,19.9,9.9,24.9c0,0-38.9,30.3-40.7,52.3c-2.5,30.3,93.1-16.7,93.1-16.7l-6.6-16.8
	l-41.5,18.4c0,0,25.2-17.1,37.8-34.1c9.9-13.5,4.5-26-1-35.7C587.9,320.5,564.1,340.2,536.9,328.5z"/>
<linearGradient id="SVGID_10_" gradientUnits="userSpaceOnUse" x1="592.55" y1="861.175" x2="603.28" y2="861.175" gradientTransform="matrix(1 0 0 1 -1.000000e-02 -484.01)">
	<stop  offset="0" style="stop-color:#ECC4D7"/>
	<stop  offset="0.42" style="stop-color:#EFD4D1"/>
	<stop  offset="1" style="stop-color:#F2EAC9"/>
</linearGradient>
<polygon class="st14" points="592.5,372.2 599.7,369.8 603.3,379.2 595.3,384.6 "/>
<linearGradient id="SVGID_11_" gradientUnits="userSpaceOnUse" x1="572.21" y1="884.6685" x2="588.12" y2="884.6685" gradientTransform="matrix(1 0 0 1 -85.92 -484.01)">
	<stop  offset="0" style="stop-color:#ECC4D7"/>
	<stop  offset="0.42" style="stop-color:#EFD4D1"/>
	<stop  offset="1" style="stop-color:#F2EAC9"/>
</linearGradient>
<path class="st15" d="M487,404l-0.7-4.2c5.5,0.9,11-0.5,15.5-3.8l0.4,6.8C497.6,405.7,491.9,406.1,487,404z"/>
<path class="st3" d="M486.8,402.7l-17,6.1c0,0-9.5-2.3-11.3,3c-1.2,2.7-1.4,5.8-0.3,8.6c0,0,4.5,4,15.6,1.7s29.3-8,29.3-8l-0.7-11.1
	C497.4,405.3,491.7,405.2,486.8,402.7z"/>
<path class="st3" d="M601.1,367.6c0,0-4.3,1.8-3.8,2.9s2-1.4,5.8,8.7l-2.5,1.8l5.3,11.4c-2.8,2.1-4.4,5.6-4.1,9.1
	c0.5,2.8,5.4,3.1,9.4,1.8s5.6-10.1,5.6-10.1s-2.6-20.9-7.9-24.4S601.1,367.6,601.1,367.6z"/>
<path class="st4" d="M472.9,346.3l-80.3,25.3L355.8,341c-14.8,15.2-32.7,3.8-30.2-5.1s18.9-5.6,18.9-5.6l-22.3-18.7l41.7-10.5
	c0.3,1.5,2,8.6,12.1,9.2c11.3,0.6,13.9-8.6,4.5-13.1l26.5-6.9L472.9,346.3z"/>
<path class="st1" d="M451.4,336.4c-0.5,0.1-1.1,0.4-1.5,0.7c-0.4,0.4-0.8,0.9-1.1,1.4c-1.5,1.8-3.9,2.6-6.1,3.4
	c-2.5,1-4.8,2.2-7,3.8c-0.3,0.2-0.6,0.5-0.7,0.8c-0.3,1.1,1.3,1.6,1.9,2.6c0.3,0.7,0.2,1.6-0.3,2.2c-0.5,0.6-1.2,1.1-1.9,1.4
	c-3.8,2.3-7.1,5.4-9.8,8.9c12.1-6.3,24.7-11.5,37.7-15.7c1-0.3,2-0.7,2.8-1.3c0.8-0.7,1.2-1.8,0.9-2.8c-0.2-0.5,0.5-0.6,0.1-1
	c-2-1.7-5.2-4.6-7.8-6.8C458.5,334.1,453.5,335.7,451.4,336.4z"/>
<path class="st4" d="M558.1,236.8c-4.4-5.2-12.2-5.8-17.4-1.4c-1.8,1.5-3.1,3.5-3.8,5.7c-0.7,2.3-1.5,5.1-2.2,8.5
	c-4,18.4-22.1,58.5-22.1,58.5L460,336.5l14.4,18.4l61.6-30.3c0,0,27.3-60.3,26.8-71.7C562.9,247.1,561.3,241.5,558.1,236.8z"/>
<linearGradient id="SVGID_12_" gradientUnits="userSpaceOnUse" x1="689.6977" y1="824.6145" x2="578.9377" y2="767.3245" gradientTransform="matrix(1 0 0 1 -85.92 -484.01)">
	<stop  offset="0.36" style="stop-color:#00272E"/>
	<stop  offset="1" style="stop-color:#69B9EB;stop-opacity:0"/>
</linearGradient>
<path class="st16" d="M558.1,236.8c-4.4-5.2-12.2-5.8-17.4-1.4c-1.8,1.5-3.1,3.5-3.8,5.7c-0.7,2.3-1.5,5.1-2.2,8.5
	c-4,18.4-22.1,58.5-22.1,58.5L460,336.5l14.4,18.4l61.6-30.3c0,0,27.3-60.3,26.8-71.7C562.9,247.1,561.3,241.5,558.1,236.8z"/>
<linearGradient id="SVGID_13_" gradientUnits="userSpaceOnUse" x1="510.36" y1="838.975" x2="559.44" y2="838.975" gradientTransform="matrix(1 0 0 1 -85.92 -484.01)">
	<stop  offset="0" style="stop-color:#ECC4D7"/>
	<stop  offset="0.42" style="stop-color:#EFD4D1"/>
	<stop  offset="1" style="stop-color:#F2EAC9"/>
</linearGradient>
<path class="st17" d="M464.5,339c-3.8,1-7.7,1.7-11.6,2.1c-6,1.1-11.9,2.8-17.5,5c0,0,0.6,4.1,3.8,3.5s7.1-0.8,7.1-0.8l-11.3,6.8
	l-10.4,6.7c0,0,2.7,3.1,5.7,1.7c1.6,1.2,3.4,2,5.3,2.5c3,0.9,5.9,2.1,8.7,3.5c2.1,0.5,4.2,0.8,6.3,1c0.6-0.3,22.9-13.9,23.1-16.8
	L464.5,339z"/>
<path class="st2" d="M288.8,331.7l19.2,7.6v11.4c0,0-23,0.5-23,10.5s21.7,17.8,36.2,4.5l33.1,19l-1.2,9.7l-100.6,36.4l-57.7-70.4
	V349L288.8,331.7z"/>
<path class="st4" d="M288.8,320.5l19.2,18.8c0,0-23,0.5-23,10.5s21.7,17.8,36.2,4.5l33.1,30.3l-100.8,35.5l-58.7-70.8l39.6-12.1
	c0,0-12.6-8.5-0.5-14.1c2.2-1.1,4.7-1.8,7.1-1.9c9.5-0.4,11,4.5,12.2,9.9v0.4L288.8,320.5z"/>
<path class="st1" d="M210.8,344.3L210.8,344.3c0,0,16,34.8,23.6,40.5c4.2,3.2,33.5,12.8,58.4,14.1c2.3,0.1,9.6-6.6,13-5.7
	c5,1.3-0.9,5.8,0.2,5.9c15,0.7,23.3-5.9,23.3-5.9l-79,28.5l-52.9-75.9L210.8,344.3z"/>
<linearGradient id="SVGID_14_" gradientUnits="userSpaceOnUse" x1="372.6" y1="890.5851" x2="408.051" y2="890.5851" gradientTransform="matrix(1 0 0 1 -85.92 -484.01)">
	<stop  offset="0" style="stop-color:#ECC4D7"/>
	<stop  offset="0.42" style="stop-color:#EFD4D1"/>
	<stop  offset="1" style="stop-color:#F2EAC9"/>
</linearGradient>
<path class="st18" d="M287.8,406.6c2.7-3.5,5.7-6.7,9.1-9.5c2.8-1.7,5.8-2.9,8.9-3.8c0,0,1.4,4.2-1,5s-3.8,5-3.8,5
	s17.5,3.3,19.6,2.3s2.3,2.2-1.8,2.9s-4,6.5-6.8,7s-7,3.1-11.1,4.1c-4.8,0.4-9.6,0.2-14.3-0.7L287.8,406.6z"/>
<path class="st4" d="M207.7,356.1c4.6-25.2-6.7-50.7-28.4-64.1c-3.8-2.6-8.1-4.3-12.7-4.9c-18.3-1.1-37.8,131.1-37.8,131.1
	s8.8,25.6,35.5,28.1c24.6,2.3,29.4-12.5,29.4-12.5L207.7,356.1z"/>
<linearGradient id="SVGID_15_" gradientUnits="userSpaceOnUse" x1="188.4197" y1="843.1221" x2="270.9198" y2="853.0521" gradientTransform="matrix(1 0 0 1 -85.92 -484.01)">
	<stop  offset="0.36" style="stop-color:#00272E"/>
	<stop  offset="1" style="stop-color:#69B9EB;stop-opacity:0"/>
</linearGradient>
<path class="st19" d="M207.7,356.1c4.6-25.2-6.7-50.7-28.4-64.1c-3.8-2.6-8.1-4.3-12.7-4.9c-18.3-1.1-37.8,131.1-37.8,131.1
	s8.8,25.6,35.5,28.1c24.6,2.3,29.4-12.5,29.4-12.5L207.7,356.1z"/>
<linearGradient id="SVGID_16_" gradientUnits="userSpaceOnUse" x1="252.52" y1="746.5142" x2="302.5987" y2="746.5142" gradientTransform="matrix(1 0 0 1 -85.92 -484.01)">
	<stop  offset="0" style="stop-color:#ECC4D7"/>
	<stop  offset="0.42" style="stop-color:#EFD4D1"/>
	<stop  offset="1" style="stop-color:#F2EAC9"/>
</linearGradient>
<path class="st20" d="M166.6,287.1c0,0,2.7-19.9,3.8-32.9c1.1-13,5.4-30.3,27.1-28.1s21.8,35.2,15.7,49s-14.1,13.4-14.1,13.4
	s-10.8-2.4-10.5,10.7L166.6,287.1z"/>
<path class="st3" d="M174.8,223.3c-3.2,3-5.5,6.9-6.6,11.1c-1,3.4-1.6,6.9-2,10.5l2.2-2.4c-0.1,6.1-0.6,12.2-1.4,18.2
	c-0.8,5.6-1.2,11.3-1,17l4-0.2l5,6.3l5.6-3.8l4.2-2.2l3.8-9.3c-1.9-1.4-2.6-3.9-1.8-6.1c1.4-3.8,4.8-4.7,5.6-2.4
	c0.6,2.8,0.9,5.6,1,8.5l6-17c0,0,3.8-5.3,7.1-1.6c2,2.2,4.5,3.9,7.2,4.9l-2-5.7l5.4,1.4l-0.4-6.5l4,2.8c0,0,1.8-10.5-1.6-15.2
	S202.3,208.3,174.8,223.3z"/>
<path class="st4" d="M288.4,403.2l-44.5-4.8c-12.3-2.4-21.8-12.3-23.5-24.8l-16.5-50.2c-2-6.4-7.5-11.2-14.2-12.2
	c-8.4-1.3-16.3,4.5-17.5,13c-0.3,2.3-0.2,4.6,0.5,6.8l17,60.7c1.6,13.7,12.7,24.4,26.4,25.7l69.9,9.1L288.4,403.2z"/>
<linearGradient id="SVGID_17_" gradientUnits="userSpaceOnUse" x1="224.9228" y1="919.384" x2="328.3028" y2="847.074" gradientTransform="matrix(1 0 0 1 -85.92 -484.01)">
	<stop  offset="0.36" style="stop-color:#00272E"/>
	<stop  offset="1" style="stop-color:#69B9EB;stop-opacity:0"/>
</linearGradient>
<path class="st21" d="M288.4,403.2l-44.5-4.8c-12.3-2.4-21.8-12.3-23.5-24.8l-16.5-50.2c-2-6.4-7.5-11.2-14.2-12.2
	c-8.4-1.3-16.3,4.5-17.5,13c-0.3,2.3-0.2,4.6,0.5,6.8l17,60.7c1.6,13.7,12.7,24.4,26.4,25.7l69.9,9.1L288.4,403.2z"/>
<linearGradient id="SVGID_18_" gradientUnits="userSpaceOnUse" x1="251.27" y1="970.085" x2="270.9348" y2="970.085" gradientTransform="matrix(1 0 0 1 -85.92 -484.01)">
	<stop  offset="0" style="stop-color:#ECC4D7"/>
	<stop  offset="0.42" style="stop-color:#EFD4D1"/>
	<stop  offset="1" style="stop-color:#F2EAC9"/>
</linearGradient>
<path class="st22" d="M178.5,477l-13.1,3l5.2,15.2l13.7-3.2C184.3,492,188,480.3,178.5,477z"/>
<path class="st3" d="M160,477.8c0,0,8.6-1.8,10,1.1s-3.1,2.7-2.2,6.9c0.8,3.1,1.7,6.3,2.8,9.3l4.2-1l0.9,5c0.4,1.8,2,3,3.8,3
	c9.9,0.6,8.6,9.5,5.1,9.9l-12.8,1l-6.8-5.7c-0.8-0.6-1.5-1.3-1.9-2.2C160.7,500.2,153.1,482.1,160,477.8z"/>
<path class="st23" d="M368.4,168.5c-0.7,0.9-1.2,2-1.7,3c-2.9,6.1-12.6,28.1-14,47.1c-0.6,9.6-8.3,17.2-17.8,17.8l-17.3,1l-5.7,0.3
	c-9.4,0.6-17.8-5.9-19.6-15.2c-3.5-17.5-11.1-44.3-25.8-56.1c0,0-64.8-59.3-21.6-125.4c2.9-4.5,6.1-8.7,9.7-12.7
	C299.9-21.9,374.7,1,392.7,47.6S375.5,158.5,368.4,168.5z"/>
<path class="st4" d="M355.2,244.6c-1.5,3.8-3.2,5.6-1.7,8.1s5.9,9.3-16.2,12.3c-4.6,0.6-9.2,1-13.8,1.1h-7.2l-4.2-0.2
	c-4.8-0.3-8.7-0.8-11.3-1.2c-2.9-0.4-5.4-2-7-4.4c-0.8-1.8-0.5-3.9,0.8-5.5c1.2-1.1,1.3-2.9,0.2-4.1c0,0,0,0,0,0
	c-0.3-0.3-0.7-0.6-1.1-0.7c-2.5-2.3-2.7-6.2-0.4-8.8c0.5-0.6,1-1.2,1.3-1.9c1-2.2,0.6-4.8-0.9-6.6l-0.6-0.8
	c-0.8-1.1-1.5-2.4-1.8-3.8c-0.7-1.9-0.4-4.1,0.9-5.7c1.8,9.2,10.2,15.7,19.6,15.2l5.7-0.3c0.2-0.2,0.3-0.5,0.4-0.7
	c1-2.4-1.2-5.2-0.1-9l4.3-0.2c10.5-0.6,20.8-2.6,30.8-6c2.2,1.9,2.9,5,1.5,7.6c-0.4,0.8-0.7,1.7-0.8,2.6c-0.3,1.9,0.1,3.9,0.9,5.6
	c0.1,0.2,0.2,0.4,0.3,0.6C355.9,239.9,356.1,242.4,355.2,244.6z"/>
<path class="st3" d="M292.2,222.4c19.8-5.1,40.5-5.5,60.5-1.1C352.6,221.3,319.8,234.7,292.2,222.4z"/>
<linearGradient id="SVGID_19_" gradientUnits="userSpaceOnUse" x1="413.1499" y1="729.1025" x2="352.7099" y2="726.9025" gradientTransform="matrix(1 0 0 1 -85.92 -484.01)">
	<stop  offset="0" style="stop-color:#000000;stop-opacity:0"/>
	<stop  offset="0.91" style="stop-color:#000000;stop-opacity:0.8"/>
	<stop  offset="1" style="stop-color:#000000"/>
</linearGradient>
<path class="st24" d="M321.2,265.7c-1.6,0.3-3.3,0.4-5,0.3l-4.2-0.2c-4.8-0.3-8.7-0.8-11.3-1.2c-2.9-0.4-5.4-2-7-4.4
	c-0.8-1.8-0.5-3.9,0.8-5.5c0.7-0.7,1.1-1.7,0.9-2.7c-0.2-1-0.9-1.8-1.8-2.2c-2.5-2.3-2.6-6.2-0.4-8.8c2.3-2.3,2.5-6,0.5-8.5
	c-1.1-1.3-1.9-2.9-2.3-4.5c-0.7-1.9-0.4-4.1,0.9-5.7c9.5,3.6,19.6,5.3,29.7,4.9l0.5,0.2c0,0-3.8,1.4-2.8,4.7s2.4,9.2-0.8,13.1
	s3,4.9,1.8,9.3v0.4c-0.5,1.3-0.8,2.6-1.1,4C318.8,262.5,319.1,265.4,321.2,265.7z"/>
<path class="st25" d="M321.9,227.2c-10.2,0.4-20.3-1.2-29.8-4.9c-3.5-17.4-11.1-44.2-25.8-56c0,0-64.8-59.3-21.6-125.4
	c2.9-4.5,6.1-8.7,9.7-12.7l5.8-0.5c0,0,38.7-20.4,55.2,1.9s-19.4,47.6-21.3,88.4S339,166.4,321.9,227.2z"/>
<linearGradient id="SVGID_20_" gradientUnits="userSpaceOnUse" x1="406.5717" y1="701.6499" x2="413.3616" y2="801.4699" gradientTransform="matrix(1 0 0 1 -85.92 -484.01)">
	<stop  offset="0" style="stop-color:#68E1FD;stop-opacity:0"/>
	<stop  offset="2.000000e-02" style="stop-color:#66DAF6;stop-opacity:4.000000e-02"/>
	<stop  offset="0.18" style="stop-color:#58A1BC;stop-opacity:0.39"/>
	<stop  offset="0.35" style="stop-color:#4D758F;stop-opacity:0.66"/>
	<stop  offset="0.53" style="stop-color:#45566F;stop-opacity:0.85"/>
	<stop  offset="0.73" style="stop-color:#40435C;stop-opacity:0.96"/>
	<stop  offset="0.99" style="stop-color:#3F3D56"/>
</linearGradient>
<path class="st26" d="M350.1,255.1c-2.8,1.8-12.9,5.2-30.8,4c-8.4-0.7-16.7-2.1-24.8-4.4c1.2-1.1,1.3-2.9,0.2-4.1c0,0,0,0,0,0
	c-0.3-0.3-0.7-0.6-1.1-0.7c8.7,3,17.8,4.6,27,4.7c10.3,0.3,20.6-1,30.6-3.8C351.1,250.8,354.3,252.4,350.1,255.1z"/>
<linearGradient id="SVGID_21_" gradientUnits="userSpaceOnUse" x1="408.4485" y1="701.5301" x2="415.2385" y2="801.3401" gradientTransform="matrix(1 0 0 1 -85.92 -484.01)">
	<stop  offset="0" style="stop-color:#68E1FD;stop-opacity:0"/>
	<stop  offset="2.000000e-02" style="stop-color:#66DAF6;stop-opacity:4.000000e-02"/>
	<stop  offset="0.18" style="stop-color:#58A1BC;stop-opacity:0.39"/>
	<stop  offset="0.35" style="stop-color:#4D758F;stop-opacity:0.66"/>
	<stop  offset="0.53" style="stop-color:#45566F;stop-opacity:0.85"/>
	<stop  offset="0.73" style="stop-color:#40435C;stop-opacity:0.96"/>
	<stop  offset="0.99" style="stop-color:#3F3D56"/>
</linearGradient>
<path class="st27" d="M354.3,237.2c-3.4,2.8-16.1,8-34.4,6.2c-8.6-0.3-17.2-1.7-25.4-4.2c1-2.2,0.6-4.8-0.9-6.6l-0.6-0.8
	c1.2,0.5,3.2,1.1,6,1.8c6.2,1.6,12.5,2.6,18.9,3h2.9c11.1,0.4,22.2-1.3,32.6-5.2C353.2,233.4,353.5,235.4,354.3,237.2z"/>
<path class="st2" d="M228.6,328.8l0.2,10l5.6-1.7C234.4,337.1,228.6,333.1,228.6,328.8z"/>
<path class="st28" d="M350.2,126.1l-1.2-0.8c1.8-5.5,2.5-11.4,1.9-17.1c-1.4-12.2-10.1-19.7-24.3-21c-21.8-2.1-30.4,9.2-33.6,16.1
	c-9.2,19.2-0.9,50.4,12.4,64.3c16.4,17.1,10.1,49.5,7.8,59c-0.1,0.2-0.1,0.5-0.1,0.7v0.6l3.4,1.1l0.2-0.9c2-7.6,3.1-15.5,3.4-23.4
	c0.6-17-3.5-30.8-11.8-39.8c-12.3-12.9-20.3-42.7-11.8-60.3c5.1-10.6,15.5-15.4,30.1-14.1c15.8,1.5,20.2,10.6,21.1,17.9
	c0.5,5-0.1,10.1-1.6,14.9c-3.5-1.8-7.6-2.2-11.4-1.3c-7.5,2.1-12.2,9.8-14.9,15.9c-1.4,3.1-0.7,6.7,1.6,9.2c2.3,2.4,5.7,3.3,8.9,2.3
	c6.8-2.4,13.8-10.7,17.8-20.8l0.4,0.3c11,7.7,3.1,19.7-5.9,33.5c-6.4,9.7-14.4,21.8-15.3,33.6c-1,10.6-0.5,19.1,0.2,29.8l0,0.9h3.6
	l0-1c-0.7-10.7-1.1-19-0.2-29.3c0.8-10.9,8.1-22.1,14.6-32l0.3-0.4C355,149.6,363.9,135.9,350.2,126.1z M328.8,146.1
	c-1.8,0.6-3.7,0.1-5-1.3c-1.3-1.4-1.7-3.5-0.9-5.3c1.9-4.4,6.1-12.1,12.5-13.9c0.9-0.3,1.9-0.4,2.8-0.4c2.2,0.1,4.4,0.6,6.3,1.6
	C340.9,136.4,334.4,144.2,328.8,146.1L328.8,146.1z M347,126L347,126l0.2,0.1L347,126z"/>
</svg>
