<?xml version="1.0" encoding="utf-8"?>
<!-- Generator: Adobe Illustrator 21.1.0, SVG Export Plug-In . SVG Version: 6.00 Build 0)  -->
<svg version="1.1" id="Layer_1" xmlns="http://www.w3.org/2000/svg" xmlns:xlink="http://www.w3.org/1999/xlink" x="0px" y="0px"
	 viewBox="0 0 4207.2 2293.4" style="enable-background:new 0 0 4207.2 2293.4;" xml:space="preserve">
<style type="text/css">
	.st0{fill:#ABAD23;}
	.st1{fill:#DBE5E5;}
	.st2{fill:#FDDA24;}
	.st3{fill:none;stroke:#B59B00;stroke-width:5;stroke-miterlimit:10;}
	.st4{fill:#B59B00;}
	.st5{fill:#423C52;}
	.st6{fill:none;stroke:#423C52;stroke-width:5;stroke-linecap:round;stroke-miterlimit:10;}
	.st7{fill:#FFFFFF;}
	.st8{fill:#E5F1EF;}
	.st9{fill:#FFDB00;}
	.st10{fill:#A0505A;}
	.st11{fill:#FFFFFF;stroke:#423C52;stroke-width:5;stroke-miterlimit:10;}
	.st12{fill:#FE552F;}
	.st13{fill:none;stroke:#423C52;stroke-width:5;stroke-linecap:round;stroke-linejoin:round;}
	.st14{fill:#FFFFFF;stroke:#907B00;stroke-width:5;stroke-miterlimit:10;}
	.st15{fill:none;stroke:#907B00;stroke-width:5;stroke-miterlimit:10;}
	.st16{fill:#FFFFFF;stroke:#8C7200;stroke-width:5;stroke-miterlimit:10;}
	.st17{fill:none;stroke:#8C7200;stroke-width:5;stroke-miterlimit:10;}
	.st18{fill:#FFFFFF;stroke:#423C52;stroke-width:5;stroke-linecap:round;stroke-miterlimit:10;}
	.st19{fill:none;stroke:#DBE5E5;stroke-width:5;stroke-linecap:round;stroke-miterlimit:10;stroke-dasharray:15;}
	.st20{opacity:0;fill:#ABAD23;enable-background:new    ;}
</style>
<g id="Layer_2">
	<g id="Слой_1">
		<g id="PLANTS">
			<path class="st0" d="M3814,1740.3c-4.2,141.6-19.5,276.6-54.8,399.1l-1252.2,3c-35.2-122.5-54.8-260.4-54.8-402.1
				c0-560,304.8-1013.9,680.9-1013.9S3831.3,1156.2,3814,1740.3z"/>
			<path class="st1" d="M0,2145.5c63.5-62.6,160.8-20.9,160.8-20.9s-28.9-128.9,96.6-167.6c143.9-44.4,201.4,65.7,201.4,65.7
				s35.4-211.3,222.9-191.6c299.8,31.6,119.8,335.9,449.2,239c157.8-46.4,182.9,74.4,182.9,74.4L0,2145.5z"/>
			<path class="st1" d="M4207.2,2141.4l-1621.9,1c64.2-62.6,162.7-20.9,162.7-20.9s-29.2-128.9,97.7-167.6
				c47.5-14.5,85.7-12.5,115.6-3.3c46.1,14.1,96-2.9,123.9-42.1c30.3-42.3,86.4-80.4,189.9-80.4c88.3,0,156.6,48.7,232.1,96.5
				c21.1-27,57-44.7,97.6-44.7c65,0,117.6,45.2,117.6,101c0,10.9-2,21.6-5.9,31.7c59.5,8.4,128.3,3.9,211.6-22.8
				C4160.3,1915.3,4207.2,2141.4,4207.2,2141.4z"/>
			<path class="st0" d="M597.4,2272.9c0,11.3-51.7,20.5-115.4,20.5s-115.4-9.2-115.4-20.5c0-7.8,24.8-14.6,61.1-18.1l-30.7-54.1
				l51.3,30.5v-78.3l29.8,60.3l51.3-205.2l-8.3,214.9l52.7-32.6L538,2255C573.4,2258.5,597.4,2265.2,597.4,2272.9z"/>
			<path class="st2" d="M3776.3,2018.6l-264.1,2.3c-5.1-0.2-10.4-0.7-15.6-1.5c-133.6-19.3-209.2-62-246.1-132.9
				c-32.3,22.1-76.4,13.8-98.5-18.5s-13.8-76.4,18.5-98.5c14.9-10.2,33.2-14.3,51-11.5c-0.6-22-0.1-44,1.5-66
				c12.8-185.3,107-319.3,251.9-324.1s266.8,120.9,273,306.6c0.5,14.5,0.2,28.9-0.7,43.3c6.3-0.9,12.7-1.5,19.1-1.7
				c87.5-2.9,171.2,62.4,174,146S3863.9,2015.6,3776.3,2018.6z"/>
			<line class="st3" x1="3484.2" y1="1534.2" x2="3484.2" y2="2140.4"/>
			<path class="st3" d="M3423.9,1504v99.5c0,25.1,20.4,45.5,45.5,45.5l0,0l0,0c8.2,0,14.8,6.6,14.8,14.8l0,0"/>
			<path class="st3" d="M3484.2,1605.9c0-20.4,8.3-40,22.9-54.2l25.6-24.9"/>
			<path class="st3" d="M3579.5,1765.7l-42.9,34c-33,26.1-52.3,66-52.3,108.1"/>
			<path class="st3" d="M3484.2,2120.2c0-32,26-58,58-58h83.8c53.2,0,96.3-43.1,96.3-96.3v-97.5"/>
			<path class="st3" d="M3782.8,1894.7v16.5c0,14.1-11.4,25.5-25.5,25.5h-9.4c-14.1,0-25.5,11.4-25.5,25.5l0,0"/>
			<path class="st4" d="M3722.4,1879.8c0,0-37.8-28.8-20.8-78C3701.6,1801.8,3739.3,1830.5,3722.4,1879.8z"/>
			<path class="st4" d="M3780.7,1902c0,0-16.9-65.2,34.9-58.2L3780.7,1902z"/>
			<path class="st4" d="M3793.8,1911.3c0,0,24.6-25.4,55.8,0C3849.6,1911.3,3830.9,1929.7,3793.8,1911.3z"/>
			<path class="st4" d="M3547.7,1790.8c0,0,12.8-45.6,55.6-43.5C3603.3,1747.3,3597.3,1787.2,3547.7,1790.8z"/>
			<path class="st4" d="M3454.1,1911.1c0,0-46.8-17.8-39.5-63.2C3414.6,1847.9,3449.6,1852.3,3454.1,1911.1z"/>
			<path class="st4" d="M3457.6,2069.6c0,0-50.1,0.3-59.7-44.6C3397.9,2024.9,3432.1,2016.3,3457.6,2069.6z"/>
			<path class="st4" d="M3507.2,1551.6c0,0,2.4-40.7,48.1-47.6C3555.3,1504,3559.2,1536.9,3507.2,1551.6z"/>
			<path class="st4" d="M3423.9,1548.7c0,0-8.1-67.2,3.5-86.3C3427.4,1462.4,3462.1,1492.2,3423.9,1548.7z"/>
			<path class="st4" d="M3399.3,1551.6c0,0-40.6-0.5-41.2-47.6C3358.1,1504,3387.2,1511.2,3399.3,1551.6z"/>
			<path class="st4" d="M3646.4,2233.5c0,0-62,11.3-76.9-62.8C3569.5,2170.7,3637.5,2176.8,3646.4,2233.5z"/>
			<path class="st5" d="M3715.1,2172.7c0,0-30.5,33.4-76.2-3.3C3638.9,2169.4,3681.6,2143.6,3715.1,2172.7z"/>
			<path class="st0" d="M536.5,1616.1c0,69.7-56.6,126.3-126.3,126.2c-60.8,0-112.9-43.3-124.1-103c-21.9,9-45.3,13.6-68.9,13.6
				c-120,0-217.2-118.7-217.2-265s97.2-265,217.2-265s217.2,118.7,217.2,265c0.1,34.7-5.6,69.2-16.7,102.1
				C484.4,1493.9,536.5,1549.2,536.5,1616.1z"/>
			<ellipse class="st2" cx="171.9" cy="1820.2" rx="91.6" ry="86.1"/>
			<circle class="st0" cx="485.4" cy="1446.9" r="28.8"/>
			<line class="st6" x1="217.2" y1="1286.1" x2="217.2" y2="2143.1"/>
			<path class="st6" d="M156.8,1256.9v99.5c0,25.1,20.3,45.5,45.5,45.6l0,0l0,0c8.2,0,14.8,6.6,14.8,14.8"/>
			<path class="st6" d="M171.5,1813.8v99.5c0,25.1,20.4,45.5,45.5,45.5l0,0"/>
			<path class="st6" d="M217.2,1358.8c0-20.4,8.3-40,22.9-54.2l25.6-24.9"/>
			<path class="st6" d="M312.4,1518.6l-42.9,33.9c-33,26.1-52.3,66-52.3,108.1"/>
			<path class="st6" d="M217.2,1873.1c0-32,26-58,58-58l0,0h10.7c53.2,0,96.3-43.1,96.3-96.3l0,0v-97.5"/>
			<path class="st6" d="M442.6,1647.6v16.5c0,14.1-11.4,25.5-25.5,25.5l0,0h-9.4c-14.1,0-25.5,11.4-25.5,25.5l0,0"/>
			<path class="st5" d="M382.1,1632.7c0,0-37.8-28.8-20.8-78C361.4,1554.7,399.1,1583.5,382.1,1632.7z"/>
			<path class="st5" d="M440.5,1654.9c0,0-16.9-65.2,34.9-58.2L440.5,1654.9z"/>
			<path class="st5" d="M453.6,1664.2c0,0,24.6-25.4,55.8,0C509.4,1664.2,490.7,1682.6,453.6,1664.2z"/>
			<path class="st5" d="M280.6,1543.7c0,0,12.8-45.6,55.6-43.5C336.2,1500.3,330.2,1540.1,280.6,1543.7z"/>
			<path class="st5" d="M206.5,1700.7c0,0-49.4,8.3-66-34.6C140.4,1666.1,172.9,1652.2,206.5,1700.7z"/>
			<path class="st5" d="M169.6,1866.1c0,0-37.4-4.8-40-39.3C129.6,1826.8,156,1823.8,169.6,1866.1z"/>
			<path class="st5" d="M450.6,1774.8c0,0-36.3,34.5-74.1,8.3C376.5,1783.1,395.6,1753.4,450.6,1774.8z"/>
			<path class="st5" d="M197.7,1495.2c0,0-50.1,0.3-59.7-44.6C138,1450.6,172.2,1442.1,197.7,1495.2z"/>
			<path class="st5" d="M240.1,1304.6c0,0,2.4-40.7,48.1-47.6C288.2,1256.9,292.1,1289.8,240.1,1304.6z"/>
			<path class="st5" d="M156.8,1301.7c0,0-8.1-67.2,3.5-86.3C160.3,1215.3,195,1245.1,156.8,1301.7z"/>
			<path class="st5" d="M132.2,1304.6c0,0-40.6-0.5-41.2-47.6C91,1256.9,120.1,1264.1,132.2,1304.6z"/>
		</g>
		<g id="GROUND">
			<path class="st5" d="M1434.9,2145.5c0-0.4,0-0.7,0-1.1c0-29.6,23.7-53.7,53-53.7c10.7,0,21.1,3.2,29.8,9.3
				c2.2-46.2,36.5-83,78.5-83c15.8,0.1,31.2,5.3,43.8,14.9c7.4-50.9,53.5-90,109.2-90c60.9,0,110.2,46.8,110.2,104.5
				c0,4.6-0.3,9.1-0.9,13.7c3.7-0.6,7.4-0.9,11.2-0.9c28.7,0,53.6,18.4,65.6,45.3l-1.4,0.4h55c6.7-42.1,39.7-74.2,79.3-74.2
				c35.7,0,66,25.9,76.6,61.9c11.3-6.6,24.1-10.1,37.2-10.1c20.4,0,39,8.5,53.2,22.4c10.2,10.1,17.8,22.5,22.3,36.1v4.7
				L1434.9,2145.5z"/>
			<circle class="st5" cx="2043.9" cy="2196.7" r="32.8"/>
			<circle class="st5" cx="2110.9" cy="2175.6" r="13.1"/>
			<circle class="st7" cx="2037.5" cy="2100.5" r="13.1"/>
			<circle class="st7" cx="1485.4" cy="2122.4" r="8.7"/>
			<circle class="st7" cx="1693.3" cy="2017.7" r="17.9"/>
		</g>
		<path id="CLOUD" class="st8" d="M777.5,305c0,0.5,0,1.1,0,1.6h1051.9c-0.2-34-29.3-61.4-65.1-61.4h-103.2l2.5-0.6
			c-21.2-40.4-65.2-68.2-116.1-68.2c-6.6,0-13.2,0.5-19.8,1.4c1.1-6.8,1.7-13.7,1.7-20.6c0-86.9-87.4-157.4-195.2-157.4
			c-98.6,0-180.2,59-193.4,135.6c-23.2-14.7-50.1-22.5-77.5-22.4c-74.4,0-135.1,55.3-139,125c-16.1-9.3-34.3-14.1-52.8-14
			C819.5,224.2,777.5,260.4,777.5,305z"/>
		<g id="TREE">
			<line class="st6" x1="1878.5" y1="2142.2" x2="1878.5" y2="488.3"/>
			<path class="st6" d="M1981.3,607.8l-90.4,220.6c-8.2,20.1-12.4,41.5-12.4,63.2v36.7"/>
			<line class="st6" x1="1939.4" y1="709.9" x2="2003.2" y2="679.4"/>
			<path class="st6" d="M1838.9,587.2l31.4,67.6c5.4,11.6,8.2,24.3,8.2,37.2v36"/>
			<path class="st6" d="M1747.4,791l112.3,235c12.3,25.8,18.7,54.1,18.8,82.7v57.3"/>
			<path class="st6" d="M2074.4,1158.1l-170.3,265c-16.7,25.9-25.6,56-25.6,86.9v51.9"/>
			<path class="st5" d="M1970.2,634.8c0,0-19.5-67.5,54-94.8C2024.2,540,2043.3,606.6,1970.2,634.8z"/>
			<path class="st5" d="M1762.6,898.2c0,0-50.8,1.8-65.2-52.7C1697.5,845.5,1751.6,839.1,1762.6,898.2z"/>
			<path class="st5" d="M2043.2,1232.8c0,0,27.3-44.7,97.5-27.7C2140.7,1205.2,2107,1256.4,2043.2,1232.8z"/>
			<path class="st5" d="M1868.1,645.2c0,0-36.6,30-73.4-13.3C1794.7,631.9,1841.6,611.2,1868.1,645.2z"/>
			<path class="st5" d="M1767.5,830c0,0-37.6-40.7-0.7-103.7C1766.8,726.3,1812.1,767.4,1767.5,830z"/>
			<path class="st5" d="M1962.1,1336.7c0,0,22-54.3,108.4-48.4C2070.5,1288.3,2039.8,1348.6,1962.1,1336.7z"/>
			<path class="st0" d="M1904.7,505.4c0,17.3-11.7,31.4-26.2,31.4s-26.2-14.1-26.2-31.4s26.2-86.8,26.2-86.8
				S1904.7,488,1904.7,505.4z"/>
			<path class="st0" d="M1854.6,621.1c0,0-60.6-17.3-41.2-90.3C1813.5,530.8,1871.8,566.3,1854.6,621.1z"/>
			<path class="st0" d="M1762.6,828.1c0,0-52.4-23.3-49.6-96.3C1713,731.8,1772.3,751.8,1762.6,828.1z"/>
			<path class="st0" d="M1807.5,899.8c0,0-12.8-50.8,35.5-86.2C1843.1,813.6,1854.2,870.8,1807.5,899.8z"/>
			<path class="st0" d="M1985.9,1271.7c-10.2-10-52.6-56.6-19.5-116c0.7-1.2,2.3-1.4,3.3-0.4c9,9.8,45.5,54.9,19.5,115.7
				C1988.6,1272.3,1986.9,1272.7,1985.9,1271.7z"/>
			<path class="st0" d="M2047.6,1201.3c0,0-7.6-78,54.3-103C2101.9,1098.3,2118.9,1164.2,2047.6,1201.3z"/>
			<path class="st0" d="M1962.1,1336.7c0,0,41.4-39.8,126.7-10.8C2088.8,1325.8,2037,1369,1962.1,1336.7z"/>
			<path class="st0" d="M1980.1,690.4c0,0,13.1-50.1,75.5-35.8C2055.6,654.7,2036.3,703.1,1980.1,690.4z"/>
			<path class="st0" d="M1970.4,633.4c0,0,13.1-50.1,75.5-35.8C2046,597.6,2026.7,646,1970.4,633.4z"/>
		</g>
		<g id="WOMAN">
			<g id="HEAD">
				<path id="HAIR" class="st9" d="M2483.2,1129.3c17.3,66-48.1,61.7-31.1,113s117.1,24.9,117.1,24.9l-3.7-137.8L2483.2,1129.3z"/>
				<g id="NECK">
					<polygon class="st10" points="2553.7,1216.5 2554,1264.8 2660.3,1264.8 2632.2,1186.2 					"/>
					<polygon class="st5" points="2632.9,1188.3 2554,1264.8 2553.8,1216.5 2632.2,1186.2 					"/>
				</g>
				<g id="HAIR-2">
					<path class="st2" d="M2483.2,1129.3c-5.7-8.2-11.1-39.3,34.7-59.6s71.6-27.7,118.3,7.4s107.2,65.6,108.1,132.2
						s-60,85.5-115.4,78.6s-58.7-72.3-23.3-91l-33.3-59.2C2572.2,1137.6,2504,1158.9,2483.2,1129.3z"/>
					<circle class="st9" cx="2786.6" cy="1228.3" r="20.9"/>
				</g>
				<g id="HEAD-2">
					<path class="st10" d="M2483.5,1129.8c34.5,23.8,77.3,11,77.3,11l24.3-6.8c17.6-5,35.9,5.3,40.9,22.9
						c4.6,16.3-3.9,33.5-19.6,39.8l-53.6,20.8c-21,8.1-44.6-2.3-52.7-23.3c-0.6-1.5-1.1-3.1-1.5-4.6l-2.2-8.7l-8,1.7
						c-3.1,0.7-6.1-1.3-6.7-4.3c-0.1-0.5-0.1-1-0.1-1.5L2483.5,1129.8z"/>
					
						<ellipse transform="matrix(0.9412 -0.3378 0.3378 0.9412 -245.4114 916.7836)" class="st5" cx="2511.5" cy="1163.5" rx="4.4" ry="7.6"/>
					<path class="st6" d="M2600.6,1144.1c-10.3,2.5-16.6,13.4-13.9,24.4"/>
				</g>
			</g>
			<g id="HAND">
				<path class="st10" d="M2401,1641.3c-22.6,23.9-46.9,49.7-72,76.1c-28.6,30.2-58,61.1-86.5,91
					c-93.1,97.6-176.6,183.9-190.4,193.8c-33.3,23.9-88.4,59.3-191.3,59.3c-26.3,0-73.3-48.4-97.3-75.2c-3.6-4.1-3.2-10.5,0.9-14.1
					c1.9-1.6,4.2-2.5,6.7-2.5c37,0.7,87.9-3.6,100-21.6c21.8-32.2-50.9-14.5-48.8-45.8c0,0,93.6-14.5,123.7-40.9
					c12.1-10.6,159.8-198.4,286.2-360.1l0,0C2232.2,1501.5,2240.6,1576,2401,1641.3z"/>
				<path class="st6" d="M1919.9,2030.8c-26.9,7.8-56.4,13-96,13"/>
				<path class="st6" d="M1899,2008.9c-26.9,7.8-58.4,13-98,13"/>
				<path class="st6" d="M1878.1,1987c-26.9,7.8-59.4,13-99,13"/>
				<path class="st6" d="M2239.4,1807.4c-8.1-11.5-12.4-25.1-12.4-39.2c0-36,27.6-65.2,61.6-65.2c13.6,0,26.7,4.7,37.3,13.3"/>
			</g>
			<g id="BLOUSE">
				<path class="st5" d="M3107.5,1698.9v0.2c0,122.6-477.2-14.4-477.2-14.4s474-80.8,477.2,13.3
					C3107.4,1698.3,3107.5,1698.6,3107.5,1698.9z"/>
				<path class="st11" d="M3104.4,1695.8c-3.2-89.5-473.1-12.7-473.1-12.7l-89.1-143.7c-7.6-12.3-23.8-16.1-36.1-8.4
					c-1.9,1.2-3.7,2.7-5.3,4.3c-22,23.4-57.8,61.5-99.9,106c-160.3-65.3-168.7-139.9-168.7-139.9c44.4-56.8,86.3-110.4,118.6-152
					c40.5-52,102.7-82.3,168.5-82.3H2747c62.5,0,121,30.4,157,81.4C2979.8,1456.1,3103.2,1638.7,3104.4,1695.8z"/>
			</g>
			<g id="PANTS">
				<path class="st12" d="M3028.8,1659.9c0,0,12,25.3,23.7,70.3c16.2,62.4,25.8,147.3-24.7,184.1c-83,60.5-433.3,38.8-433.3,38.8
					v191.3h-196.1c-94.6,0-171.2-76.7-171.2-171.3c0-64.6,36.3-123.7,94-152.8c104.3-52.7,265-128.6,311.1-135.3L3028.8,1659.9z"/>
				<path class="st13" d="M2947,1689.5c30.4,99.8,32.8,214.9-24.7,256.6"/>
				<path class="st5" d="M3045.9,1706.7c-93.6-28.3-372-28.7-413.5-21.5c260.3-45.2,396.8-26.6,396.8-26.6
					S3042.4,1680.7,3045.9,1706.7z"/>
				<line class="st13" x1="2438.5" y1="1948" x2="2584.6" y2="1948"/>
				<polygon class="st13" points="2888.2,1848.7 2826.4,1890.5 2764.6,1848.7 2764.6,1757.1 2888.2,1757.1 				"/>
				<polyline class="st13" points="3053.8,1878.4 3015,1848.7 3015,1757.1 3055.8,1757.1 				"/>
			</g>
			<g id="SHOES">
				<g id="RIGHT">
					<path class="st5" d="M3157,2186.6l-80-40.7c-10.1-3.3-20.6-5-31.2-5h-323.3c-0.2,0-0.4,0-0.6,0c-20.6-0.7-37.1-43.3-37.1-95.8
						c0-52.9,16.9-95.8,37.7-95.8c0.7,0,1.3,0,2,0.1l334.4-8.1l155.2,246.8C3214.1,2188.2,3182.6,2199.9,3157,2186.6z"/>
					<path class="st14" d="M3182.2,2033.2c43.5,62.6,60.9,135.3,41.9,148.7c-23.8,16.7-90.3-23.6-135.2-89.3s-73.8-139.5-23.7-151.2
						C3093.5,1934.8,3133.2,1962.8,3182.2,2033.2z"/>
					<line class="st15" x1="3041.7" y1="1995.4" x2="3153.5" y2="1995.4"/>
					<line class="st15" x1="3038.6" y1="1970.3" x2="3129.9" y2="1970.3"/>
					<line class="st15" x1="3048" y1="2017.7" x2="3171.1" y2="2017.7"/>
					<line class="st15" x1="3057.7" y1="2040" x2="3186.8" y2="2040"/>
					<line class="st15" x1="3070.2" y1="2062.3" x2="3200.2" y2="2062.3"/>
					<line class="st15" x1="3085.2" y1="2084.6" x2="3211.4" y2="2084.6"/>
					<polyline class="st15" points="3099.9,2106.9 3217.3,2106.9 3220.5,2106.9 					"/>
					<line class="st15" x1="3118.1" y1="2129.1" x2="3227.4" y2="2129.1"/>
					<line class="st15" x1="3142.1" y1="2151.4" x2="3230.3" y2="2151.4"/>
				</g>
				<g id="LEFT">
					<path class="st0" d="M3021.9,2193l-104.7-43.6c-10.1-3.3-20.6-5-31.2-5h-323.2c-0.2,0-0.4,0-0.6,0
						c-20.6-0.7-37.1-43.3-37.1-95.8c0-50.3,20-99.1,39.8-103.8h334.2l159.6,242C3062.9,2194,3036.4,2199.7,3021.9,2193z"/>
					<path class="st7" d="M2585.3,2144.4h-9.7c-16.2-14.1-28-53.4-28-99.2c0-45.2,13-85.9,30-100.3h9.9c-16.8,5-34.9,47-34.9,100.3
						C2552.6,2099.8,2569.3,2139.4,2585.3,2144.4z"/>
					<path class="st16" d="M3019.2,2038.8c43.5,62.6,60.9,135.3,41.9,148.7c-23.8,16.8-90.3-23.6-135.2-89.3s-73.8-139.5-23.7-151.2
						C2930.6,1940.4,2970.3,1968.4,3019.2,2038.8z"/>
					<path class="st7" d="M3003.4,2185.3l-28.7-11.9c-27-18.8-50.4-42.3-69.1-69.4c-37.2-54.5-54.2-111.3-42.2-141.4
						c2.7-7.2,7.7-13.4,14.2-17.6h12.4c-10.6,2.9-17.9,9.5-21.9,19.5c-11.4,28.6,5.4,83.5,41.7,136.7
						C2936.2,2139.9,2972.9,2169.9,3003.4,2185.3z"/>
					<line class="st17" x1="2877.7" y1="1966.5" x2="2956.6" y2="1966.5"/>
					<line class="st17" x1="2875.7" y1="1988.8" x2="2979.8" y2="1988.8"/>
					<line class="st17" x1="2879.8" y1="2011.1" x2="2997.2" y2="2011.1"/>
					<line class="st17" x1="2888.2" y1="2033.4" x2="3016" y2="2033.4"/>
					<line class="st17" x1="2899.7" y1="2055.7" x2="3030.9" y2="2055.7"/>
					<line class="st17" x1="2912.2" y1="2078" x2="3042.4" y2="2078"/>
					<line class="st17" x1="2927.9" y1="2100.2" x2="3052.9" y2="2100.2"/>
					<line class="st17" x1="2943.6" y1="2122.5" x2="3060" y2="2122.5"/>
					<line class="st17" x1="2963.4" y1="2144.8" x2="3066.6" y2="2144.8"/>
					<line class="st17" x1="2990.6" y1="2167.1" x2="3068.8" y2="2167.1"/>
				</g>
			</g>
		</g>
		<g id="GIRL">
			<g id="SHOES-2">
				<g id="RIGHT-2">
					<path class="st11" d="M1187.2,2196H963.3c0,0-57-16.7-52-101.6c1.7-28.4,7.8-61.6,16.8-103l0.2-3.1
						c66.9,2.8,138.7,0.5,205.9-12.1c-11.2,58.1-16.6,103.4-11.4,125.5C1133.2,2146.1,1187.2,2196,1187.2,2196z"/>
					<path class="st5" d="M1134.1,1976.8l-12.8,88.2c0,0-136.4-10.5-197.6-52.4l4.4-24.3h0.6
						C995.6,1991.1,1067.4,1989,1134.1,1976.8z"/>
					<path class="st11" d="M1195.4,2205c0,4.9-4,8.9-8.9,9c0,0,0,0-0.1,0H964c4.9,0,9-4,9-8.9s-4-9-8.9-9c0,0,0,0-0.1,0h222.5
						C1191.4,2196.1,1195.4,2200.1,1195.4,2205z"/>
				</g>
				<g id="LEFT-2">
					<path class="st11" d="M963.3,2196H722.6c-17.2,0-31.1-13.9-31.1-31.1c0-2.6,0.3-5.2,1-7.7l45.8-189.7
						c48.8,8.4,116.5,17.6,190,20.7l-0.2,3.1c-9,41.4-15.1,74.6-16.8,103C906.3,2179.3,963.3,2196,963.3,2196z"/>
					<path class="st5" d="M928.1,1988.3l-13.9,76.7c0,0-107.7-20.2-179.6-82.2l3.7-15.2c48.2,8.3,115.5,17.4,188.8,20.6
						L928.1,1988.3z"/>
					<path class="st11" d="M972.9,2205c0,4.9-4,8.9-9,8.9H700.5c-4.9,0.5-9.4-3.1-9.9-8s3.1-9.4,8-9.9c0.6-0.1,1.3-0.1,1.9,0H964
						C968.9,2196.1,972.9,2200.1,972.9,2205z"/>
				</g>
			</g>
			<path id="RIGHT_HAND" class="st10" d="M1221.9,1031.2l-79.4-252.4c22.5,3.7,94.3,13.6,170.2,205.4
				c14.4,36.4,156.4,364.5,156.4,364.5s11.7,64.6-46.4,63C1391.4,1410.8,1243.5,1141.4,1221.9,1031.2z"/>
			<g id="CLOTHES">
				<path class="st2" d="M1268.3,1389.7c-12.3,120.8-97.1,411.5-131,586.4c-141,26.5-305.8,7.4-399-8.6
					c-46.9-8.1-76.5-15.3-77.5-15.6l0,0c6.6-192.5,125.1-330.4,168.5-636.4c24.2-170.7,22-351.9,21.3-469.1
					c-0.2-40.9,32.8-74.2,73.6-74.4c0.1,0,0.3,0,0.4,0h183.1c40.1,0,75.8,25.3,89.1,63.1C1229.8,929,1295.4,1123.5,1268.3,1389.7z"
					/>
				<path class="st6" d="M1086.7,1357.5c-14.4,136.4-128.3,436.2-156.9,639"/>
			</g>
			<g id="WATERING_POT">
				<path class="st18" d="M1387.8,1422.8l-204.6-59c-36.1-10.4-57-48.1-46.6-84.3c1-3.4,2.2-6.8,3.7-10l121.9-260.9l245.4,71.3
					l-33.6,285.8c-4.6,37.3-38.6,63.8-76,59.2C1394.8,1424.5,1391.3,1423.8,1387.8,1422.8z"/>
				<path class="st18" d="M1507.8,1080.1c-7.8,27.1-67.4,33-135.8,13.3s-117.4-57.6-109.6-84.7s69.5-33,137.9-13.3
					S1515.6,1053,1507.8,1080.1z"/>
				
					<ellipse transform="matrix(0.277 -0.9609 0.9609 0.277 -2.1977 2085.3147)" class="st5" cx="1384.6" cy="1044.1" rx="41.2" ry="115.4"/>
				<polygon class="st18" points="1623.1,1144.3 1614.9,1173 1578.6,1224.2 1472.8,1373.7 1489.4,1244.4 1572.3,1182.3 				"/>
				<path class="st5" d="M1623.1,1144.3l-8.3,28.6l-36.3,51.2c-5.9-11.9-8.4-26.5-6.3-41.8L1623.1,1144.3z"/>
				
					<ellipse transform="matrix(0.1425 -0.9898 0.9898 0.1425 247.9424 2617.1118)" class="st18" cx="1634.4" cy="1165.5" rx="62.9" ry="50.9"/>
				
					<ellipse transform="matrix(0.1425 -0.9898 0.9898 0.1425 282.7769 2597.2058)" class="st18" cx="1640.3" cy="1135.4" rx="6.2" ry="5"/>
				
					<ellipse transform="matrix(0.1425 -0.9898 0.9898 0.1425 215.8102 2639.0298)" class="st18" cx="1631" cy="1195" rx="6.2" ry="5"/>
				
					<ellipse transform="matrix(0.1425 -0.9898 0.9898 0.1425 249.1707 2619.0745)" class="st18" cx="1636.2" cy="1165.7" rx="6.2" ry="5"/>
				
					<ellipse transform="matrix(0.1425 -0.9898 0.9898 0.1425 282.297 2632.1035)" class="st18" cx="1660.2" cy="1153.1" rx="6.2" ry="5"/>
				
					<ellipse transform="matrix(0.1425 -0.9898 0.9898 0.1425 248.71 2653.9573)" class="st18" cx="1656.1" cy="1183.4" rx="6.2" ry="5"/>
				
					<ellipse transform="matrix(0.1425 -0.9898 0.9898 0.1425 249.8748 2582.2778)" class="st18" cx="1615.3" cy="1146.9" rx="6.2" ry="5"/>
				
					<ellipse transform="matrix(0.1425 -0.9898 0.9898 0.1425 216.4001 2604.0613)" class="st18" cx="1611.1" cy="1177.1" rx="6.2" ry="5"/>
				<path class="st6" d="M1261.3,1009.8l-49.4-15.6c-58.5-16.8-114.3,33.4-103.7,93.4l32.3,182.1L1261.3,1009.8z"/>
				<path class="st19" d="M1660.1,1153c36.8,0,66.7,29.9,66.7,66.7v706.2"/>
				<path class="st19" d="M1642.2,1135.3h49.7c43.5,0,78.8,35.3,78.8,78.8l0,0V1933"/>
				<path class="st19" d="M1657,1183.3c12.1,1.2,20.7,22.5,20.7,59.4l1,707.2"/>
				<line class="st19" x1="1630.7" y1="1194.6" x2="1630.7" y2="2010.8"/>
			</g>
			<g id="RIGHT_ARM">
				<path class="st10" d="M1523.8,1243.5c0,0,20.4,38.8,17,67.2s-46.3,78.7-93,101c0,0,28.5-17.4,11.9-77
					C1451.2,1304.4,1523.8,1243.5,1523.8,1243.5z"/>
				<path class="st6" d="M1513.4,1268.5c0,0,15.2,43,11.8,71.4"/>
				<path class="st6" d="M1495.6,1290.5c0,0,15.2,43,11.8,71.4"/>
				<path class="st6" d="M1475.8,1310.3c0,0,15.2,43,11.8,71.4"/>
			</g>
			<g id="LEFT_HAND">
				<path class="st10" d="M1250.9,1480.8c-36.9-12.8-152.3-91.7-252.1-230.8c-24.5-34.1-46.9-69.7-67-106.5
					c-42.4-77.7-77.3-166.6-95.3-264.7c-8.2-45.1,7.7-71.9,29.2-87.4c43.1-31,104-11.4,122.5,38.3c46.7,126,168,421,305.8,503.5
					c28,16.8-52.8,12.8-58.2,19.3c-10.2,12.2,26.6,33.6,123,58.7C1381.1,1417.1,1271.6,1488,1250.9,1480.8z"/>
				<path class="st6" d="M1257.3,1403.9c20.4,8.8,44.5,17.8,89,26.2"/>
				<path class="st6" d="M1237.4,1420.6c20.4,8.9,43.4,16.7,87.9,25.2"/>
				<path class="st6" d="M1214.4,1438.3c20.4,8.9,34,17.8,78.5,26.2"/>
				<path class="st6" d="M934.9,1142.6c3.2-2,6.5-3.5,10.1-4.6c27.9-8.8,59.2,11.4,69.9,45.1c8,25.2,2.2,50.9-13,66"/>
			</g>
			<g id="HEAD-3">
				<g id="NECK-2">
					<path class="st10" d="M1101,772.1c0,1.2-0.1,2.4-0.3,3.6c-1.4,8.3-9.1,27.8-52.1,27.2c-54.4-0.8-51.5-30.8-51.5-30.8l31.7-63
						h85.1L1101,772.1z"/>
					<path class="st5" d="M1101,772.1l13-63h-65C1049,709.1,1048.9,757.2,1101,772.1z"/>
				</g>
				<g id="HAIR-3">
					<path class="st12" d="M1144.1,626.4c-4.6-12.9-17-15.9-17.5-16.1c0.2,0.4,4.7,10.2-15.3,31.9c-20.4,22.1-62.3,12.3-62.3,12.3
						h-22.6c-11,0-20.7,6.9-24.5,17.2l0,0c-1.1,2.9-1.6,5.9-1.6,9v1.2c0,0.1,0,0.1,0,0.2c-6.5,23.4-31.4,45.2-64.8,53.9
						c-44,11.5-86.1-4-94.1-34.5s21.2-64.7,65.2-76.2c33.3-8.7,65.5-2,82.7,15.1c-2.2-42,23.7-76.1,68-75.4
						C1131.2,566,1146.8,634,1144.1,626.4z"/>
					<circle class="st12" cx="797.8" cy="709.4" r="23.5"/>
				</g>
				<path id="HEAD-4" class="st10" d="M1118.6,742.4c-36.4,7.9-69.6-33.3-69.6-33.3h-22.6c-14.4,0-26.1-11.7-26.1-26.1v-2.3
					c0-14.4,11.7-26.1,26.1-26.1l0,0h22.6c0,0,41.9,9.9,62.3-12.3c20-21.7,15.5-31.5,15.3-31.9c1.8,0.5,3.6,1.2,5.3,2
					c5.4,2.5,9.6,7.7,12.6,14.6C1159.5,660.8,1147.1,736.3,1118.6,742.4z"/>
				<g id="FACE">
					<path class="st6" d="M1042.1,686.9c0-10.7-8.7-19.4-19.4-19.4l0,0"/>
					<path class="st6" d="M1150.9,659.8c0,0-28.6-1-28.6,47.7"/>
					
						<ellipse transform="matrix(0.2397 -0.9708 0.9708 0.2397 202.6759 1626.5581)" class="st5" cx="1139.8" cy="683.9" rx="6.4" ry="3.7"/>
					
						<ellipse transform="matrix(0.2397 -0.9708 0.9708 0.2397 169.6698 1581.501)" class="st5" cx="1094.6" cy="682.4" rx="6.9" ry="4"/>
				</g>
			</g>
		</g>
	</g>
</g>
<path class="st20" d="M4137.1,2293.4H70c-38.5,0-70-31.5-70-70V70C0,31.5,31.5,0,70,0h4067.1c38.5,0,70,31.5,70,70v2153.3
	C4207.2,2261.9,4175.6,2293.4,4137.1,2293.4z"/>
</svg>
