<?xml version="1.0" encoding="utf-8"?>
<!-- Generator: Adobe Illustrator 21.1.0, SVG Export Plug-In . SVG Version: 6.00 Build 0)  -->
<svg version="1.1" id="Layer_1" xmlns="http://www.w3.org/2000/svg" xmlns:xlink="http://www.w3.org/1999/xlink" x="0px" y="0px"
	 viewBox="0 0 4507.4 2810.4" style="enable-background:new 0 0 4507.4 2810.4;" xml:space="preserve">
<style type="text/css">
	.st0{fill:#298FC2;}
	.st1{fill:#E5F1EF;}
	.st2{fill:#C8D9D2;}
	.st3{fill:#ABAD23;}
	.st4{fill:#B59B00;}
	.st5{fill:none;stroke:#423C52;stroke-width:5;stroke-linecap:round;stroke-miterlimit:10;}
	.st6{fill:#FDDA24;}
	.st7{fill:#423C52;}
	.st8{fill:none;stroke:#FFFFFF;stroke-width:5;stroke-linecap:round;stroke-miterlimit:10;}
	.st9{fill:#FFFFFF;}
	.st10{fill:#A0505A;}
	.st11{fill:#F57820;}
	.st12{fill:#907B00;}
	.st13{fill:none;stroke:#FFFFFF;stroke-width:5;stroke-miterlimit:10;}
	.st14{fill:#FF7500;}
	.st15{fill:none;stroke:#FE552F;stroke-width:5;stroke-miterlimit:10;}
	.st16{fill:#FE552F;}
	.st17{fill:#FFDB00;}
	.st18{fill:none;stroke:#FFFFFF;stroke-width:4;stroke-linecap:round;stroke-miterlimit:10;}
	.st19{fill:none;stroke:#423C52;stroke-width:5;stroke-miterlimit:10;}
	.st20{fill:#FFFFFF;stroke:#423C52;stroke-width:5;stroke-linecap:round;stroke-miterlimit:10;}
	.st21{fill:#EB7500;}
	.st22{fill:#D7421C;}
	.st23{fill:none;stroke:#423C52;stroke-width:5;stroke-linecap:round;stroke-miterlimit:10;stroke-dasharray:17.12,17.12;}
	.st24{fill:none;stroke:#423C52;stroke-width:5;stroke-linecap:round;stroke-miterlimit:10;stroke-dasharray:16.83,16.83;}
	.st25{fill:none;stroke:#423C52;stroke-width:3;stroke-miterlimit:10;}
	.st26{fill:none;stroke:#423C52;stroke-width:3;stroke-linecap:round;stroke-miterlimit:10;}
	.st27{fill:none;stroke:#423C52;stroke-width:4;stroke-linecap:round;stroke-miterlimit:10;}
	.st28{font-family:'MyriadPro-Regular';}
	.st29{font-size:12px;}
</style>
<g id="Layer_2">
	<g id="Слой_1">
		<g id="CLOUDS">
			<path class="st0" d="M4148.3,623.2c33.2,0,51.3-39,29.7-64.2c-18.4-21.4-46.6-34.7-77.6-41.5c-54.1-11.8-120,25.5-135.9,34.9
				c-4.1-73.8-68.4-132.3-147.1-132.3c-3.2,0-6.4,0.1-9.5,0.3c-20.1-105.7-120.7-186-241.7-186c-135.5,0-245.4,100.7-245.4,225
				c0,9.6,0.7,19.3,2,28.8c-6-0.7-12-1.1-18-1.1c-53.8,0-115.6,33.3-122.9,86.8c0,0-290.8-78.9-292.5,50.9L4148.3,623.2z"/>
			<path class="st0" d="M409.3,398h958.8c-1.8-9.2-21-107.7-257.1-18c0,0,11.7-49-59.2-27.2s-45.6-75.5-107.8-91.1
				c-37.1-9.3-58.2,6-73,23c-7.2-97.2-92.7-173.9-197.2-173.9c-109.2,0-197.7,83.8-197.7,187.1c0,6.3,0.3,12.7,1,19
				c-11.2-13.9-35.9-26.3-69.6-25.5c-0.8,0-1.5,0-2.3,0.1C337,295.5,340.8,398,409.3,398z"/>
		</g>
		<g id="WIND_TURBINES">
			<path class="st1" d="M1171.7,1617.8L1206,452.7c0-3.1,2.5-5.6,5.6-5.6c3.1,0,5.6,2.5,5.6,5.6c0,0,0,0,0,0l33.4,1165.1
				L1171.7,1617.8z"/>
			<path class="st2" d="M1255.7,233.6c-6,86.7-21.7,163-35.8,209.1c-1,3.1-4.3,4.9-7.4,3.9c-2.2-0.7-3.7-2.5-4.1-4.7
				c-7.6-47.4-12.8-124.5-6.8-211.2c7-102.2,27.7-189.9,43-230.7C1254.3,42.5,1262.8,131.4,1255.7,233.6z"/>
			<path class="st2" d="M1007.1,542.3c70.8-41.4,138.9-70.4,185-85.6c7.9-2.6,13.7,7.5,7.4,13c-30.4,26.9-87.8,70.9-167.5,117.5
				c-88.5,51.7-169.2,85.3-211.6,95.6C850.1,650.8,918.6,594,1007.1,542.3z"/>
			<path class="st2" d="M1404.1,521.8c82,42.7,149,94.3,176.6,122.8c-39.2-6.3-114.1-35.5-196.2-78.2
				c-66.4-34.5-122.9-70.3-156.7-97.8c-6-4.8-1.2-14.4,6.3-12.6C1276,466.2,1337.7,487.3,1404.1,521.8z"/>
			<circle class="st1" cx="1213" cy="452" r="23.9"/>
			<path class="st1" d="M1734.8,1698.2l30-1016.2c0-2.7,2.2-4.9,4.9-4.9s4.9,2.2,4.9,4.9l29.2,1016.2H1734.8z"/>
			<path class="st2" d="M1832.7,532c-17.1,61.8-39.7,114.6-56.7,145.8c-1.1,2.1-3.8,2.9-5.9,1.8c-1.5-0.8-2.4-2.4-2.3-4
				c1.5-35.3,9.2-91.8,26.3-153.6c20.2-72.8,48-133.1,65.2-160.3C1859.9,393.7,1852.9,459.2,1832.7,532z"/>
			<path class="st2" d="M1607.6,718.2c57.2-19.4,110.7-30.4,146.3-34.5c3.1-0.4,5.9,1.8,6.3,4.9c0.3,2.2-0.8,4.4-2.8,5.6
				c-25.9,14.9-73.9,38.3-138.4,60.2c-71.5,24.3-134.9,36.7-167,37.8C1478.1,773.5,1536,742.5,1607.6,718.2z"/>
			<path class="st2" d="M1897.3,762.1c53,42.9,93.7,90.1,109.5,114.8c-27.4-10.3-77.2-42.5-130.2-85.4c-42.9-34.8-78.4-69-98.8-93.8
				c-1.9-2.3-1.5-5.6,0.8-7.5c1.6-1.3,3.8-1.6,5.6-0.7C1813,703,1854.5,727.3,1897.3,762.1z"/>
			<circle class="st1" cx="1771.6" cy="681.9" r="20.8"/>
		</g>
		<g id="HILLS">
			<path class="st3" d="M147.8,2034.2h3316.4c0,0-320.5-416.4-889.6-325.9c-747.4,118.9-1024.9-138.5-1383.8-229.9
				c-342-87.1-603.1,28.2-779.2,171.8C268,1767.2,147.8,1900.2,147.8,2034.2L147.8,2034.2z"/>
			<path class="st4" d="M1322.5,2034.2c0,0,168.7-219.7,596-162.9c593.9,79,806.2-356.8,1312.9-381.2
				c928.4-44.7,1276.1,544.1,1276.1,544.1H1322.5z"/>
			<polygon class="st4" points="119.2,2034.2 0,1913.1 134.8,2006.4 130.4,1917.8 193.6,1994.9 182.4,1719 229.5,1965.2 
				274.5,1922.4 270.3,1996.4 321.2,1975.4 281.2,2034.1 			"/>
			<path class="st4" d="M318.4,1945.3c-8.8,8.1-15.2,7.6-22.7,5.7c-1.3-7.7-1.1-13.8,7.7-22s27.1-14.4,31.3-14
				C334.9,1919.1,327.2,1937.2,318.4,1945.3z"/>
		</g>
		<g id="SUNFLOWERS">
			<line class="st5" x1="2417" y1="2518.8" x2="2417" y2="1551.4"/>
			<path class="st6" d="M2471.6,1300.8c-6.8,34.4-20.8,62.5-35.2,74.2c-8.8-16.3-10.9-47.6-4.1-82s20.8-62.5,35.2-74.2
				C2476.3,1235.2,2478.4,1266.4,2471.6,1300.8z"/>
			<path class="st6" d="M2405.7,1631.6c-6.8,34.4-20.8,62.5-35.2,74.2c-8.8-16.3-10.9-47.6-4.1-82s20.8-62.5,35.2-74.2
				C2410.5,1565.9,2412.6,1597.2,2405.7,1631.6z"/>
			<path class="st6" d="M2258.5,1409.9c34.4,6.8,62.4,20.8,74.1,35.2c-16.3,8.8-47.6,10.9-82,4.1s-62.5-20.8-74.2-35.2
				C2192.8,1405.2,2224.1,1403.1,2258.5,1409.9z"/>
			<path class="st6" d="M2589.3,1475.8c34.4,6.8,62.5,20.8,74.2,35.2c-16.3,8.8-47.6,10.9-82,4.1s-62.5-20.8-74.2-35.2
				C2523.6,1471,2554.9,1468.9,2589.3,1475.8z"/>
			<path class="st6" d="M2342.6,1311.4c19.5,29.1,29.5,58.8,27.6,77.3c-17.8-5.3-41.4-25.9-60.9-55.1s-29.5-58.9-27.6-77.3
				C2299.5,1261.6,2323.1,1282.2,2342.6,1311.4z"/>
			<path class="st6" d="M2529.9,1591.9c19.5,29.1,29.5,58.8,27.6,77.3c-17.8-5.3-41.4-25.9-60.9-55.1s-29.5-58.9-27.6-77.3
				C2486.8,1542.1,2510.4,1562.7,2529.9,1591.9z"/>
			<path class="st6" d="M2269,1539.2c29.1-19.5,58.9-29.5,77.3-27.6c-5.3,17.8-25.9,41.4-55.1,60.8s-58.9,29.5-77.3,27.6
				C2219.2,1582.3,2239.9,1558.7,2269,1539.2z"/>
			<path class="st6" d="M2549.5,1351.9c29.1-19.5,58.9-29.5,77.3-27.6c-5.3,17.8-25.9,41.4-55.1,60.8s-58.9,29.5-77.3,27.6
				C2499.7,1395,2520.3,1371.4,2549.5,1351.9z"/>
			<path class="st6" d="M2409.5,1298.6c6,33.3,3.3,63.5-5.5,79.1c-13.7-11.6-26.6-39-32.6-72.2s-3.4-63.5,5.5-79.1
				C2390.6,1237.9,2403.5,1265.3,2409.5,1298.6z"/>
			<path class="st6" d="M2466.8,1619.2c6,33.3,3.3,63.5-5.5,79.1c-13.7-11.6-26.6-39-32.6-72.3s-3.4-63.5,5.5-79.1
				C2448,1558.5,2460.9,1585.9,2466.8,1619.2z"/>
			<path class="st6" d="M2256.3,1471.8c33.3-6,63.5-3.3,79.1,5.5c-11.6,13.7-39,26.6-72.2,32.6s-63.5,3.3-79.1-5.5
				C2195.6,1490.7,2223,1477.8,2256.3,1471.8z"/>
			<path class="st6" d="M2576.9,1414.4c33.3-6,63.5-3.3,79.1,5.5c-11.6,13.7-38.9,26.6-72.3,32.6s-63.5,3.3-79.1-5.5
				C2516.2,1433.3,2543.6,1420.4,2576.9,1414.4z"/>
			<path class="st6" d="M2296.2,1358.3c27.9,18.5,47.7,41,52.8,58c-17.6,1.9-46-7.6-73.9-26.1s-47.7-41-52.8-58
				C2239.9,1330.3,2268.3,1339.8,2296.2,1358.3z"/>
			<path class="st6" d="M2564.6,1536.4c27.9,18.5,47.7,41,52.8,58c-17.6,1.9-46-7.6-73.9-26.1s-47.7-41-52.8-58
				C2508.3,1508.4,2536.7,1517.9,2564.6,1536.4z"/>
			<path class="st6" d="M2315.3,1586.2c18.5-27.9,41-47.7,58-52.8c1.9,17.6-7.6,46-26.1,73.9s-41,47.7-58,52.8
				C2287.3,1642.4,2296.8,1614,2315.3,1586.2z"/>
			<path class="st6" d="M2493.4,1317.8c18.5-27.9,41-47.7,58-52.8c1.9,17.6-7.6,46-26.1,73.9s-41,47.7-58,52.8
				C2465.4,1374.1,2474.9,1345.7,2493.4,1317.8z"/>
			<circle class="st7" cx="2420" cy="1462.5" r="99.9"/>
			<path class="st7" d="M2519.9,1462.5c0,0.3,0,0.6,0,0.9c0,5.9-0.6,11.9-1.7,17.7c-0.2,1-0.4,1.9-0.6,2.9c-1.3,6.1-3.2,12-5.6,17.7
				c-0.4,1-0.8,1.9-1.3,2.9c-2,4.3-4.3,8.5-6.9,12.4c-0.9,1.4-1.9,2.8-2.9,4.2c-0.2,0.3-0.5,0.7-0.8,1c-0.7,1-1.5,1.9-2.2,2.9
				c-4.4,5.4-9.3,10.4-14.7,14.8c-0.9,0.8-1.9,1.5-2.9,2.3l-0.8,0.6c-1.3,1-2.7,2-4.1,2.9c-4.1,2.7-8.4,5.2-12.8,7.3
				c-1,0.5-1.9,0.9-2.9,1.3c-5.7,2.5-11.6,4.4-17.7,5.8c-1,0.2-1.9,0.4-2.9,0.6c-5.8,1.1-11.7,1.8-17.7,1.8c-0.5,0-1.1,0-1.6,0
				s-0.9,0-1.3,0c-5.9-0.1-11.9-0.7-17.7-1.8c-1-0.2-1.9-0.4-2.9-0.6c-6.1-1.3-12-3.3-17.7-5.7c-1-0.4-1.9-0.8-2.9-1.3
				c-4.5-2.1-8.9-4.6-13.1-7.4c-1.4-0.9-2.7-1.9-4.1-2.9l-0.5-0.4c-1-0.7-1.9-1.5-2.9-2.3c-5.5-4.5-10.5-9.5-14.9-15
				c-0.8-1-1.5-1.9-2.2-2.9c-0.2-0.2-0.4-0.5-0.5-0.7c-1-1.3-2-2.7-2.9-4.2c-2.7-4.1-5.1-8.4-7.1-12.8c-0.4-1-0.9-1.9-1.3-2.9
				c-2.4-5.7-4.3-11.6-5.6-17.7c-0.2-1-0.4-1.9-0.6-2.9c-1.1-5.8-1.7-11.8-1.7-17.7c0-0.3,0-0.6,0-0.9c0-0.7,0-1.3,0-2
				c0.1-5.9,0.8-11.9,1.9-17.7c0.2-1,0.4-1.9,0.6-2.9c1.4-6.1,3.4-12,5.9-17.7c0.4-1,0.9-1.9,1.3-2.9c1.9-4,4.1-7.9,6.6-11.7
				c0.9-1.4,1.9-2.8,2.9-4.2c0.4-0.6,0.9-1.2,1.4-1.8c0.7-1,1.5-1.9,2.3-2.9c4.2-5.1,8.9-9.7,14-13.9c0.9-0.8,1.9-1.5,2.9-2.3
				c0.7-0.5,1.4-1,2.1-1.5c1.4-1,2.8-2,4.3-2.9c3.6-2.3,7.4-4.4,11.3-6.2c0.9-0.5,1.9-0.9,2.9-1.3c5.7-2.5,11.6-4.4,17.7-5.7
				c0.9-0.2,1.9-0.4,2.9-0.6c5.8-1.1,11.7-1.7,17.7-1.8c0.4,0,0.9,0,1.3,0s1.1,0,1.6,0c5.9,0.1,11.9,0.7,17.7,1.8
				c1,0.2,1.9,0.4,2.9,0.6c6.1,1.4,12,3.3,17.7,5.8c1,0.4,1.9,0.9,2.9,1.3c3.8,1.8,7.5,3.8,11.1,6.1c1.5,0.9,2.9,1.9,4.3,2.9
				c0.8,0.6,1.6,1.1,2.3,1.7c1,0.7,1.9,1.5,2.9,2.3c5,4.1,9.6,8.7,13.8,13.7c0.8,0.9,1.6,1.9,2.3,2.9c0.6,0.7,1.1,1.4,1.6,2.2
				c1,1.4,2,2.8,2.9,4.2c2.4,3.6,4.5,7.4,6.4,11.3c0.5,1,0.9,1.9,1.3,2.9c2.5,5.7,4.5,11.6,5.9,17.7c0.2,1,0.4,1.9,0.6,2.9
				c1.2,5.8,1.8,11.7,1.9,17.7C2519.9,1461.1,2519.9,1461.8,2519.9,1462.5z"/>
			<path class="st4" d="M2339.3,1403.5v118c-1-1.3-2-2.7-2.9-4.2v-109.7C2337.3,1406.2,2338.3,1404.8,2339.3,1403.5z"/>
			<path class="st4" d="M2359.8,1382.6v159.7c-1-0.7-1.9-1.5-2.9-2.3v-155.2C2357.9,1384.1,2358.9,1383.4,2359.8,1382.6z"/>
			<path class="st4" d="M2380.4,1370.7v183.6c-1-0.4-1.9-0.8-2.9-1.3v-181C2378.5,1371.5,2379.4,1371.1,2380.4,1370.7z"/>
			<path class="st4" d="M2401,1364.3v196.3c-1-0.2-1.9-0.4-2.9-0.6v-195.1C2399,1364.7,2400,1364.5,2401,1364.3z"/>
			<path class="st4" d="M2421.5,1362.6v199.8c-0.5,0-1.1,0-1.6,0s-0.9,0-1.3,0v-199.8c0.4,0,0.9,0,1.3,0S2421,1362.5,2421.5,1362.6z
				"/>
			<path class="st4" d="M2442.1,1365v195c-1,0.2-1.9,0.4-2.9,0.6v-196.2C2440.2,1364.6,2441.1,1364.8,2442.1,1365z"/>
			<path class="st4" d="M2462.7,1372.1v180.8c-1,0.5-1.9,0.9-2.9,1.3v-183.4C2460.7,1371.2,2461.7,1371.6,2462.7,1372.1z"/>
			<path class="st4" d="M2483.2,1385.1v154.8c-0.9,0.8-1.9,1.5-2.9,2.3v-159.3C2481.3,1383.6,2482.3,1384.3,2483.2,1385.1z"/>
			<path class="st4" d="M2503.8,1408v108.9c-0.9,1.4-1.9,2.8-2.9,4.2v-117.3C2501.9,1405.2,2502.9,1406.6,2503.8,1408z"/>
			<path class="st4" d="M2479.6,1542.7c-1.3,1-2.7,2-4.1,2.9h-111c-1.4-0.9-2.7-1.9-4.1-2.9H2479.6z"/>
			<path class="st4" d="M2500.1,1522.2c-0.7,1-1.5,1.9-2.2,2.9H2342c-0.8-1-1.5-1.9-2.2-2.9H2500.1z"/>
			<path class="st4" d="M2512,1501.6c-0.4,1-0.8,1.9-1.3,2.9h-181.5c-0.4-1-0.9-1.9-1.3-2.9H2512z"/>
			<path class="st4" d="M2518.2,1481c-0.2,1-0.4,1.9-0.6,2.9h-195.3c-0.2-1-0.4-1.9-0.6-2.9H2518.2z"/>
			<path class="st4" d="M2519.9,1462.5c0,0.3,0,0.6,0,0.9H2320c0-0.3,0-0.6,0-0.9c0-0.7,0-1.3,0-2h199.9
				C2519.9,1461.1,2519.9,1461.8,2519.9,1462.5z"/>
			<path class="st4" d="M2518,1442.8h-196c0.2-1,0.4-1.9,0.6-2.9h194.8C2517.6,1440.9,2517.8,1441.8,2518,1442.8z"/>
			<path class="st4" d="M2511.5,1422.2h-183c0.4-1,0.9-1.9,1.3-2.9h180.4C2510.6,1420.3,2511,1421.2,2511.5,1422.2z"/>
			<path class="st4" d="M2499.3,1401.7h-158.6c0.7-1,1.5-1.9,2.3-2.9h154C2497.8,1399.7,2498.5,1400.7,2499.3,1401.7z"/>
			<path class="st4" d="M2478,1381.1h-116.1c1.4-1,2.8-2,4.3-2.9h107.6C2475.2,1379.1,2476.6,1380.1,2478,1381.1z"/>
			<path class="st3" d="M2445,1937.6v-57.8c0-79.5,53-149.2,129.6-170.4l92-24.5l-45.2,129.9c-16.6,48.2-62,80.5-113,80.6l0,0
				c-27,0-51.5,15.9-62.6,40.5L2445,1937.6z"/>
			<path class="st8" d="M2444,1938.6v-57.8c0-79.5,53-149.2,129.6-170.4l92-24.5"/>
			<path class="st3" d="M2172.1,1900.3c22.7,0,33.4,13.2,43,33.8l33,71.1c24.1,51.8,76,85,133.1,85l0,0v-41
				c0-82.2-66.6-148.8-148.8-148.8c0,0,0,0,0,0L2172.1,1900.3z"/>
			<path class="st8" d="M2383.2,2087.1L2383.2,2087.1v-41c0-82.2-66.6-148.8-148.8-148.8c0,0,0,0,0,0h-62.3"/>
			<path class="st5" d="M2417,2212.8c0,0-24.5-181.5-153-270.8"/>
			<path class="st5" d="M2417,2104.3c0,0-7.3-223.3,142-316.2"/>
			<line class="st5" x1="4197.1" y1="2445.9" x2="4197.1" y2="1531.6"/>
			<path class="st6" d="M4146.8,1291.6c6.3,31.8,19.2,57.8,32.5,68.6c8.2-15.1,10.1-44,3.8-75.8s-19.2-57.8-32.5-68.6
				C4142.4,1230.9,4140.4,1259.9,4146.8,1291.6z"/>
			<path class="st6" d="M4207.7,1597.5c6.3,31.8,19.2,57.8,32.5,68.6c8.2-15.1,10.1-44,3.8-75.8s-19.2-57.8-32.5-68.6
				C4203.3,1536.8,4201.4,1565.7,4207.7,1597.5z"/>
			<path class="st6" d="M4343.8,1392.5c-31.8,6.3-57.8,19.2-68.6,32.5c15.1,8.2,44,10.1,75.8,3.8s57.8-19.2,68.6-32.5
				C4404.5,1388.1,4375.6,1386.2,4343.8,1392.5z"/>
			<path class="st6" d="M4038,1453.4c-31.8,6.3-57.8,19.2-68.6,32.5c15.1,8.2,44,10.1,75.8,3.8s57.8-19.2,68.6-32.5
				C4098.7,1449,4069.7,1447.1,4038,1453.4z"/>
			<path class="st6" d="M4266.1,1301.4c-18,26.9-27.3,54.4-25.5,71.5c16.5-4.9,38.3-24,56.3-50.9s27.3-54.4,25.5-71.5
				C4305.9,1255.4,4284.1,1274.5,4266.1,1301.4z"/>
			<path class="st6" d="M4092.9,1560.8c-18,26.9-27.3,54.4-25.5,71.5c16.4-4.9,38.3-24,56.3-50.9s27.3-54.4,25.5-71.5
				C4132.7,1514.7,4110.9,1533.8,4092.9,1560.8z"/>
			<path class="st6" d="M4334.1,1512.1c-26.9-18-54.4-27.3-71.5-25.5c4.9,16.4,24,38.3,50.9,56.3s54.4,27.3,71.5,25.5
				C4380.1,1551.9,4361,1530.1,4334.1,1512.1z"/>
			<path class="st6" d="M4074.7,1338.9c-26.9-18-54.4-27.3-71.5-25.5c4.9,16.4,24,38.3,50.9,56.3s54.4,27.3,71.5,25.5
				C4120.8,1378.7,4101.7,1356.9,4074.7,1338.9z"/>
			<path class="st6" d="M4204.2,1289.6c-5.5,30.8-3.1,58.7,5.1,73.1c12.7-10.7,24.6-36,30.1-66.8s3.1-58.7-5.1-73.1
				C4221.7,1233.5,4209.7,1258.8,4204.2,1289.6z"/>
			<path class="st6" d="M4151.2,1586.1c-5.5,30.8-3.1,58.7,5.1,73.1c12.7-10.7,24.6-36,30.1-66.8s3.1-58.7-5.1-73.1
				C4168.6,1529.9,4156.7,1555.2,4151.2,1586.1z"/>
			<path class="st6" d="M4345.8,1449.7c-30.8-5.5-58.7-3.1-73.1,5.1c10.7,12.7,36,24.6,66.8,30.1s58.7,3.1,73.1-5.1
				C4401.9,1467.2,4376.6,1455.2,4345.8,1449.7z"/>
			<path class="st6" d="M4049.4,1396.7c-30.8-5.5-58.7-3.1-73.1,5.1c10.7,12.7,36,24.6,66.8,30.1s58.7,3.1,73.1-5.1
				C4105.5,1414.2,4080.2,1402.2,4049.4,1396.7z"/>
			<path class="st6" d="M4309,1344.8c-25.8,17.1-44.1,37.9-48.8,53.6c16.3,1.7,42.6-7,68.4-24.2s44.1-37.9,48.8-53.6
				C4361,1318.9,4334.8,1327.7,4309,1344.8z"/>
			<path class="st6" d="M4060.8,1509.5c-25.8,17.1-44.1,37.9-48.8,53.6c16.3,1.7,42.6-7,68.4-24.2c25.8-17.2,44.1-37.9,48.8-53.6
				C4112.8,1483.6,4086.6,1492.4,4060.8,1509.5z"/>
			<path class="st6" d="M4291.3,1555.5c-17.1-25.8-37.9-44.1-53.6-48.8c-1.7,16.3,7,42.6,24.1,68.3s37.9,44.1,53.6,48.8
				C4317.2,1607.6,4308.4,1581.3,4291.3,1555.5z"/>
			<path class="st6" d="M4126.5,1307.3c-17.1-25.8-37.9-44.1-53.6-48.8c-1.7,16.3,7,42.6,24.2,68.3c17.2,25.8,37.9,44.1,53.6,48.8
				C4152.4,1359.4,4143.7,1333.1,4126.5,1307.3z"/>
			<circle class="st7" cx="4194.5" cy="1441.1" r="92.4"/>
			<path class="st7" d="M4102.1,1441.1c0,0.3,0,0.5,0,0.8c0,5.5,0.6,11,1.6,16.4c0.2,0.9,0.3,1.8,0.5,2.7c1.2,5.6,3,11.1,5.2,16.3
				c0.4,0.9,0.8,1.8,1.2,2.7c1.8,4,4,7.8,6.4,11.5c0.8,1.3,1.7,2.6,2.7,3.9c0.2,0.3,0.5,0.6,0.7,1c0.7,0.9,1.4,1.8,2.1,2.7
				c4,5,8.6,9.6,13.6,13.7c0.9,0.7,1.8,1.4,2.7,2.1c0.2,0.2,0.5,0.4,0.7,0.5c1.2,0.9,2.5,1.8,3.8,2.7c3.8,2.5,7.7,4.8,11.9,6.7
				c0.9,0.4,1.8,0.8,2.7,1.2c5.3,2.3,10.7,4.1,16.4,5.3c0.9,0.2,1.8,0.4,2.7,0.6c5.4,1.1,10.9,1.6,16.4,1.7c0.5,0,1,0,1.5,0
				s0.8,0,1.2,0c5.5-0.1,11-0.6,16.4-1.7c0.9-0.2,1.8-0.4,2.7-0.6c5.6-1.3,11.1-3,16.4-5.3c0.9-0.4,1.8-0.8,2.7-1.2
				c4.2-2,8.2-4.2,12.1-6.8c1.3-0.8,2.5-1.7,3.8-2.7l0.5-0.4c0.9-0.7,1.8-1.4,2.7-2.1c5.1-4.1,9.7-8.8,13.8-13.9
				c0.7-0.9,1.4-1.8,2.1-2.7c0.2-0.2,0.3-0.4,0.5-0.7c0.9-1.2,1.8-2.5,2.7-3.8c2.5-3.8,4.7-7.7,6.6-11.9c0.4-0.9,0.8-1.8,1.2-2.7
				c2.2-5.3,4-10.7,5.2-16.3c0.2-0.9,0.4-1.8,0.6-2.7c1-5.4,1.5-10.9,1.6-16.4c0-0.3,0-0.5,0-0.8c0-0.6,0-1.2,0-1.8
				c-0.1-5.5-0.7-11-1.8-16.3c-0.2-0.9-0.4-1.8-0.6-2.7c-1.3-5.6-3.1-11.1-5.4-16.3c-0.4-0.9-0.8-1.8-1.2-2.7
				c-1.8-3.7-3.8-7.4-6.1-10.8c-0.8-1.3-1.7-2.6-2.7-3.8c-0.4-0.6-0.8-1.1-1.3-1.7c-0.7-0.9-1.4-1.8-2.1-2.7c-3.9-4.7-8.3-9-13-12.8
				c-0.9-0.7-1.8-1.4-2.7-2.1c-0.6-0.5-1.3-1-1.9-1.4c-1.3-0.9-2.7-1.8-4-2.7c-3.4-2.2-6.9-4.1-10.5-5.8c-0.9-0.4-1.8-0.8-2.7-1.2
				c-5.3-2.3-10.7-4.1-16.4-5.3c-0.9-0.2-1.8-0.4-2.7-0.6c-5.4-1-10.9-1.6-16.4-1.7c-0.4,0-0.8,0-1.2,0s-1,0-1.5,0
				c-5.5,0.1-11,0.6-16.4,1.7c-0.9,0.2-1.8,0.4-2.7,0.6c-5.6,1.3-11.1,3.1-16.4,5.3c-0.9,0.4-1.8,0.8-2.7,1.2
				c-3.5,1.7-7,3.6-10.2,5.7c-1.3,0.8-2.6,1.7-3.9,2.7c-0.7,0.5-1.4,1-2.1,1.6c-0.9,0.7-1.8,1.4-2.7,2.1c-4.6,3.8-8.9,8-12.7,12.7
				c-0.7,0.9-1.4,1.8-2.1,2.7c-0.5,0.7-1,1.3-1.5,2c-0.9,1.3-1.8,2.6-2.7,3.9c-2.2,3.4-4.2,6.9-5.9,10.5c-0.4,0.9-0.8,1.8-1.2,2.7
				c-2.3,5.3-4.1,10.7-5.5,16.3c-0.2,0.9-0.4,1.8-0.6,2.7c-1.1,5.4-1.7,10.9-1.8,16.3C4102.1,1439.9,4102.1,1440.5,4102.1,1441.1z"
				/>
			<path class="st4" d="M4269.1,1386.6v109.1c0.9-1.2,1.8-2.5,2.7-3.8v-101.4C4270.9,1389.1,4270,1387.8,4269.1,1386.6z"/>
			<path class="st4" d="M4250.1,1367.3V1515c0.9-0.7,1.8-1.4,2.7-2.1v-143.5C4251.9,1368.7,4251,1368,4250.1,1367.3z"/>
			<path class="st4" d="M4231.1,1356.2V1526c0.9-0.4,1.8-0.8,2.7-1.2v-167.4C4232.9,1357,4232,1356.6,4231.1,1356.2z"/>
			<path class="st4" d="M4212.1,1350.4v181.5c0.9-0.2,1.8-0.4,2.7-0.6v-180.4C4213.9,1350.7,4213,1350.6,4212.1,1350.4z"/>
			<path class="st4" d="M4193,1348.7v184.8c0.5,0,1,0,1.5,0s0.8,0,1.2,0v-184.8c-0.4,0-0.8,0-1.2,0S4193.5,1348.7,4193,1348.7z"/>
			<path class="st4" d="M4174,1351v180.3c0.9,0.2,1.8,0.4,2.7,0.6v-181.4C4175.8,1350.6,4174.9,1350.8,4174,1351z"/>
			<path class="st4" d="M4155,1357.6v167.2c0.9,0.4,1.8,0.8,2.7,1.2v-169.6C4156.8,1356.7,4155.9,1357.1,4155,1357.6z"/>
			<path class="st4" d="M4136,1369.6v143.1c0.9,0.7,1.8,1.4,2.7,2.1v-147.3C4137.8,1368.2,4136.9,1368.8,4136,1369.6z"/>
			<path class="st4" d="M4117,1390.8v100.7c0.8,1.3,1.7,2.6,2.7,3.9v-108.4C4118.7,1388.2,4117.9,1389.5,4117,1390.8z"/>
			<path class="st4" d="M4139.4,1515.3c1.2,0.9,2.5,1.8,3.8,2.7h102.7c1.3-0.8,2.5-1.7,3.8-2.7H4139.4z"/>
			<path class="st4" d="M4120.4,1496.3c0.7,0.9,1.4,1.8,2.1,2.7h144.1c0.7-0.9,1.4-1.8,2.1-2.7H4120.4z"/>
			<path class="st4" d="M4109.4,1477.3c0.4,0.9,0.8,1.8,1.2,2.7h167.8c0.4-0.9,0.8-1.8,1.2-2.7H4109.4z"/>
			<path class="st4" d="M4103.7,1458.3c0.2,0.9,0.3,1.8,0.5,2.7h180.6c0.2-0.9,0.4-1.8,0.6-2.7H4103.7z"/>
			<path class="st4" d="M4102.1,1441.1c0,0.3,0,0.5,0,0.8h184.8c0-0.3,0-0.5,0-0.8c0-0.6,0-1.2,0-1.8h-184.8
				C4102.1,1439.9,4102.1,1440.5,4102.1,1441.1z"/>
			<path class="st4" d="M4103.9,1422.9h181.3c-0.2-0.9-0.4-1.8-0.6-2.7h-180.1C4104.2,1421.1,4104,1422,4103.9,1422.9z"/>
			<path class="st4" d="M4109.9,1403.9h169.2c-0.4-0.9-0.8-1.8-1.2-2.7h-166.8C4110.7,1402.1,4110.3,1403,4109.9,1403.9z"/>
			<path class="st4" d="M4121.2,1384.9h146.7c-0.7-0.9-1.4-1.8-2.1-2.7h-142.4C4122.6,1383.1,4121.9,1384,4121.2,1384.9z"/>
			<path class="st4" d="M4140.8,1365.9h107.4c-1.3-0.9-2.7-1.8-4-2.7h-99.5C4143.4,1364.1,4142.1,1365,4140.8,1365.9z"/>
			<path class="st3" d="M4172.3,1874.6v-45.3c0-62.3-41.5-116.9-101.5-133.5l-73.1-16.2l36.4,98.7c13,37.8,48.6,63.1,88.5,63.1l0,0
				c21.2,0,40.3,12.4,49,31.7L4172.3,1874.6z"/>
			<path class="st8" d="M4172.3,1865.6v-37.3c0-62.3-41.5-116.9-101.5-133.5l-72.1-14.2"/>
			<path class="st3" d="M4228.9,2011.3v-41c0-82,59.2-148.4,132.2-148.4h62.5c0,104.6-84.8,189.4-189.4,189.4L4228.9,2011.3z"/>
			<path class="st8" d="M4228.9,2010.3L4228.9,2010.3v-41c0-82,59.2-148.4,132.2-148.4h62.5"/>
			<path class="st5" d="M4197.1,2119.3c0,0,21.8-161.3,136-240.6"/>
			<path class="st5" d="M4197.1,2012.9c0,0,6.5-188.7-126.2-271.2"/>
			<line class="st5" x1="3792.7" y1="2515.9" x2="3792.7" y2="1741.6"/>
			<path class="st6" d="M3843,1501.6c-6.3,31.8-19.2,57.8-32.5,68.6c-8.2-15.1-10.1-44-3.8-75.8s19.2-57.8,32.5-68.6
				C3847.4,1440.9,3849.4,1469.8,3843,1501.6z"/>
			<path class="st6" d="M3782.1,1807.5c-6.3,31.8-19.2,57.8-32.5,68.6c-8.2-15.1-10.1-44-3.8-75.8s19.2-57.8,32.5-68.6
				C3786.5,1746.8,3788.4,1775.7,3782.1,1807.5z"/>
			<path class="st6" d="M3646,1602.5c31.8,6.3,57.8,19.2,68.6,32.5c-15.1,8.2-44,10.1-75.8,3.8s-57.8-19.2-68.6-32.5
				C3585.3,1598.1,3614.2,1596.2,3646,1602.5z"/>
			<path class="st6" d="M3951.9,1663.4c31.8,6.3,57.8,19.2,68.6,32.5c-15.1,8.2-44,10.1-75.8,3.8s-57.8-19.2-68.6-32.5
				C3891.1,1659,3920.1,1657.1,3951.9,1663.4z"/>
			<path class="st6" d="M3723.7,1511.4c18,26.9,27.3,54.4,25.5,71.5c-16.4-4.9-38.3-24-56.3-50.9s-27.3-54.4-25.5-71.5
				C3683.9,1465.4,3705.7,1484.5,3723.7,1511.4z"/>
			<path class="st6" d="M3896.9,1770.8c18,26.9,27.3,54.4,25.5,71.5c-16.4-4.9-38.3-24-56.3-50.9s-27.3-54.4-25.5-71.5
				C3857.1,1724.7,3878.9,1743.8,3896.9,1770.8z"/>
			<path class="st6" d="M3655.7,1722.1c26.9-18,54.4-27.3,71.5-25.5c-4.9,16.4-24,38.3-50.9,56.3s-54.4,27.3-71.5,25.5
				C3609.7,1761.9,3628.8,1740.1,3655.7,1722.1z"/>
			<path class="st6" d="M3915.1,1548.9c26.9-18,54.4-27.3,71.5-25.5c-4.9,16.4-24,38.3-50.9,56.3s-54.4,27.3-71.5,25.5
				C3869,1588.7,3888.1,1566.9,3915.1,1548.9z"/>
			<path class="st6" d="M3785.6,1499.6c5.5,30.8,3.1,58.7-5.1,73.1c-12.7-10.7-24.6-36-30.1-66.8s-3.1-58.7,5.1-73.1
				C3768.1,1443.5,3780.1,1468.8,3785.6,1499.6z"/>
			<path class="st6" d="M3838.6,1796.1c5.5,30.8,3.1,58.7-5.1,73.1c-12.7-10.7-24.6-36-30.1-66.8s-3.1-58.7,5.1-73.1
				C3821.2,1739.9,3833.1,1765.2,3838.6,1796.1z"/>
			<path class="st6" d="M3644,1659.7c30.8-5.5,58.7-3.1,73.1,5.1c-10.7,12.7-36,24.6-66.8,30.1s-58.7,3.1-73.1-5.1
				C3587.9,1677.2,3613.2,1665.2,3644,1659.7z"/>
			<path class="st6" d="M3940.4,1606.7c30.8-5.5,58.7-3.1,73.1,5.1c-10.7,12.7-36,24.6-66.8,30.1s-58.7,3.1-73.1-5.1
				C3884.3,1624.2,3909.6,1612.2,3940.4,1606.7z"/>
			<path class="st6" d="M3680.8,1554.8c25.8,17.1,44.1,37.9,48.8,53.6c-16.3,1.7-42.6-7-68.4-24.2s-44.1-37.9-48.8-53.6
				C3628.8,1528.9,3655,1537.7,3680.8,1554.8z"/>
			<path class="st6" d="M3929,1719.5c25.8,17.1,44.1,37.9,48.8,53.6c-16.3,1.7-42.6-7-68.4-24.2s-44.1-37.9-48.8-53.6
				C3877,1693.6,3903.2,1702.4,3929,1719.5z"/>
			<path class="st6" d="M3698.5,1765.5c17.1-25.8,37.9-44.1,53.6-48.8c1.7,16.3-7,42.6-24.1,68.3s-37.9,44.1-53.6,48.8
				C3672.6,1817.6,3681.4,1791.3,3698.5,1765.5z"/>
			<path class="st6" d="M3863.2,1517.3c17.1-25.8,37.9-44.1,53.6-48.8c1.7,16.3-7,42.6-24.1,68.3s-37.9,44.1-53.6,48.8
				C3837.4,1569.4,3846.1,1543.1,3863.2,1517.3z"/>
			<circle class="st7" cx="3795.3" cy="1651.1" r="92.4"/>
			<path class="st7" d="M3887.7,1651.1c0,0.3,0,0.5,0,0.8c0,5.5-0.6,11-1.6,16.4c-0.2,0.9-0.4,1.8-0.6,2.7c-1.2,5.6-3,11.1-5.2,16.3
				c-0.4,0.9-0.8,1.8-1.2,2.7c-1.8,4-4,7.8-6.4,11.5c-0.8,1.3-1.7,2.6-2.7,3.9c-0.2,0.3-0.5,0.6-0.7,1c-0.7,0.9-1.4,1.8-2.1,2.7
				c-4,5-8.6,9.6-13.6,13.7c-0.9,0.7-1.8,1.4-2.7,2.1c-0.2,0.2-0.5,0.4-0.7,0.5c-1.2,0.9-2.5,1.8-3.8,2.7c-3.8,2.5-7.7,4.8-11.9,6.7
				c-0.9,0.4-1.8,0.8-2.7,1.2c-5.3,2.3-10.7,4.1-16.4,5.3c-0.9,0.2-1.8,0.4-2.7,0.6c-5.4,1.1-10.9,1.6-16.3,1.7c-0.5,0-1,0-1.4,0
				s-0.8,0-1.2,0c-5.5-0.1-11-0.6-16.4-1.7c-0.9-0.2-1.8-0.4-2.7-0.6c-5.6-1.3-11.1-3-16.4-5.3c-0.9-0.4-1.8-0.8-2.7-1.2
				c-4.2-2-8.2-4.3-12.1-6.8c-1.3-0.8-2.5-1.7-3.8-2.7l-0.5-0.4c-0.9-0.7-1.8-1.4-2.7-2.1c-5.1-4.1-9.7-8.8-13.8-13.9
				c-0.7-0.9-1.4-1.8-2.1-2.7c-0.2-0.2-0.3-0.4-0.5-0.7c-0.9-1.2-1.8-2.5-2.7-3.8c-2.5-3.8-4.7-7.7-6.6-11.9
				c-0.4-0.9-0.8-1.8-1.2-2.7c-2.3-5.3-4-10.7-5.2-16.3c-0.2-0.9-0.4-1.8-0.6-2.7c-1-5.4-1.5-10.9-1.6-16.4c0-0.3,0-0.5,0-0.8
				c0-0.6,0-1.2,0-1.8c0.1-5.5,0.7-11,1.8-16.3c0.2-0.9,0.4-1.8,0.6-2.7c1.3-5.6,3.1-11.1,5.4-16.3c0.4-0.9,0.8-1.8,1.2-2.7
				c1.8-3.7,3.8-7.4,6.1-10.8c0.9-1.3,1.7-2.6,2.7-3.8c0.4-0.6,0.8-1.1,1.3-1.7c0.7-0.9,1.4-1.8,2.1-2.7c3.9-4.7,8.2-9,13-12.8
				c0.9-0.7,1.8-1.4,2.7-2.1c0.6-0.5,1.3-1,1.9-1.4c1.3-0.9,2.6-1.8,4-2.7c3.4-2.2,6.9-4.1,10.5-5.8c0.9-0.4,1.8-0.8,2.7-1.2
				c5.3-2.3,10.7-4.1,16.4-5.3c0.9-0.2,1.8-0.4,2.7-0.6c5.4-1,10.9-1.6,16.4-1.7h2.7c5.5,0.1,11,0.6,16.3,1.7
				c0.9,0.2,1.8,0.4,2.7,0.6c5.6,1.3,11.1,3.1,16.4,5.3c0.9,0.4,1.8,0.8,2.7,1.2c3.5,1.7,7,3.6,10.3,5.7c1.3,0.8,2.6,1.7,3.9,2.7
				c0.7,0.5,1.4,1,2.1,1.6c0.9,0.7,1.8,1.4,2.7,2.1c4.6,3.8,8.9,8,12.7,12.7c0.7,0.9,1.4,1.8,2.1,2.7c0.5,0.7,1,1.3,1.5,2
				c0.9,1.3,1.8,2.6,2.7,3.9c2.2,3.4,4.2,6.9,5.9,10.5c0.4,0.9,0.8,1.8,1.2,2.7c2.3,5.3,4.1,10.7,5.4,16.3c0.2,0.9,0.4,1.8,0.6,2.7
				c1.1,5.4,1.7,10.9,1.8,16.3C3887.7,1649.9,3887.7,1650.5,3887.7,1651.1z"/>
			<path class="st4" d="M3720.7,1596.6v109.1c-0.9-1.2-1.8-2.5-2.7-3.8v-101.4C3718.9,1599.1,3719.8,1597.8,3720.7,1596.6z"/>
			<path class="st4" d="M3739.7,1577.3V1725c-0.9-0.7-1.8-1.4-2.7-2.1v-143.5C3737.9,1578.7,3738.8,1578,3739.7,1577.3z"/>
			<path class="st4" d="M3758.7,1566.2V1736c-0.9-0.4-1.8-0.8-2.7-1.2v-167.4C3756.9,1567,3757.8,1566.6,3758.7,1566.2z"/>
			<path class="st4" d="M3777.7,1560.4v181.5c-0.9-0.2-1.8-0.4-2.7-0.6v-180.4C3775.9,1560.7,3776.8,1560.6,3777.7,1560.4z"/>
			<path class="st4" d="M3796.8,1558.7v184.8c-0.5,0-1,0-1.4,0s-0.8,0-1.2,0v-184.8H3796.8z"/>
			<path class="st4" d="M3815.8,1561v180.3c-0.9,0.2-1.8,0.4-2.7,0.6v-181.4C3814,1560.6,3814.9,1560.8,3815.8,1561z"/>
			<path class="st4" d="M3834.8,1567.6v167.2c-0.9,0.4-1.8,0.8-2.7,1.2v-169.6C3833,1566.7,3833.9,1567.1,3834.8,1567.6z"/>
			<path class="st4" d="M3853.8,1579.6v143.1c-0.9,0.7-1.8,1.4-2.7,2.1v-147.3C3852,1578.2,3852.9,1578.8,3853.8,1579.6z"/>
			<path class="st4" d="M3872.8,1600.8v100.7c-0.8,1.3-1.7,2.6-2.7,3.9v-108.4C3871.1,1598.2,3872,1599.4,3872.8,1600.8z"/>
			<path class="st4" d="M3850.4,1725.3c-1.2,0.9-2.5,1.8-3.8,2.7H3744c-1.3-0.8-2.5-1.7-3.8-2.7H3850.4z"/>
			<path class="st4" d="M3869.4,1706.3c-0.7,0.9-1.4,1.8-2.1,2.7h-144.1c-0.7-0.9-1.4-1.8-2.1-2.7H3869.4z"/>
			<path class="st4" d="M3880.4,1687.3c-0.4,0.9-0.8,1.8-1.2,2.7h-167.8c-0.4-0.9-0.8-1.8-1.2-2.7H3880.4z"/>
			<path class="st4" d="M3886.1,1668.3c-0.2,0.9-0.4,1.8-0.6,2.7H3705c-0.2-0.9-0.4-1.8-0.6-2.7H3886.1z"/>
			<path class="st4" d="M3887.7,1651.1c0,0.3,0,0.5,0,0.8h-184.8c0-0.3,0-0.5,0-0.8c0-0.6,0-1.2,0-1.8h184.8
				C3887.7,1649.9,3887.7,1650.5,3887.7,1651.1z"/>
			<path class="st4" d="M3885.9,1632.9h-181.3c0.2-0.9,0.4-1.8,0.6-2.7h180.1C3885.6,1631.1,3885.8,1632,3885.9,1632.9z"/>
			<path class="st4" d="M3879.9,1613.9h-169.2c0.4-0.9,0.8-1.8,1.2-2.7h166.8C3879.1,1612.1,3879.5,1613,3879.9,1613.9z"/>
			<path class="st4" d="M3868.6,1594.9H3722c0.7-0.9,1.4-1.8,2.1-2.7h142.4C3867.2,1593.1,3867.9,1594,3868.6,1594.9z"/>
			<path class="st4" d="M3849,1575.9h-107.4c1.3-0.9,2.6-1.8,4-2.7h99.4C3846.4,1574.1,3847.7,1575,3849,1575.9z"/>
			<path class="st3" d="M3817.5,2091.9v-51.4c0-70.6,47.1-132.6,115.2-151.4l81.8-21.8l-40.1,115.4c-14.8,42.8-55.1,71.6-100.4,71.6
				l0,0c-24,0-45.8,14.1-55.6,36L3817.5,2091.9z"/>
			<path class="st8" d="M3817.4,2090.2l-0.7,1.7v-51.4c0-70.6,47.1-132.6,115.2-151.4l81.7-21.8"/>
			<path class="st3" d="M3589.2,2071.6L3589.2,2071.6c0,93.2,75.5,168.7,168.7,168.7h6v-36.5c0-73-59.2-132.2-132.2-132.2H3589.2z"
				/>
			<path class="st3" d="M3982.3,2223.6L3982.3,2223.6c-23.4,70-99.1,107.8-169.1,84.4c0,0,0,0,0,0l-4.5-1.5l9.2-27.4
				c18.3-54.9,77.7-84.5,132.6-66.1c0,0,0,0,0,0L3982.3,2223.6z"/>
			<path class="st5" d="M3792.7,2329.3c0,0-21.8-141.3-136-220.6"/>
			<path class="st5" d="M3792.7,2232.9c0,0-6.4-188.7,126.2-271.2"/>
			<path class="st5" d="M3792.7,2515.9c0,0-89.8-199.9,116.2-271.2"/>
			<path class="st7" d="M2730.4,2543.3h-556c1.4-20.1,23.2-27.7,41-27.7c8.3-0.1,16.5,1.7,24.1,5.2c-4.8-29.3,15-56.9,44.3-61.7
				c2.9-0.5,5.8-0.7,8.7-0.7c15.8,0,30.9,7,41.1,19.1c0.4,0.4,0.7,0.8,1,1.3c0.3-0.4,0.5-0.8,0.6-1.3c5.2-23.8,41.9-59.5,101.5-59.5
				c65.1,0,102.3,34.8,116.4,70.9c21.6-20.3,55.6-19.2,75.8,2.4c6.1,6.5,10.5,14.4,12.7,23c10-4.6,21-6.9,32-6.8
				C2703.8,2507.4,2728.2,2523.2,2730.4,2543.3z"/>
			<circle class="st9" cx="2487" cy="2460.6" r="15.5"/>
			<circle class="st9" cx="2281" cy="2496.4" r="8.9"/>
			<ellipse class="st7" cx="2461.3" cy="2574.4" rx="35.6" ry="15.3"/>
			<ellipse class="st7" cx="2535.1" cy="2562.1" rx="18.1" ry="7.8"/>
			<path class="st7" d="M4377.3,2537.4c0,0.3,0,0.5,0,0.8h-679.7v-3.5c12.9-34.5,51.3-52,85.7-39.1c2.5,0.9,5,2,7.4,3.3
				c11.5-34.9,49.1-54,84.1-42.5c23.3,7.6,40.5,27.4,44.8,51.6h44.6c4.6-23.1,30.7-33.8,53.9-33.8c3.1,0,6.2,0.2,9.2,0.7
				c-0.5-3.3-0.8-6.7-0.8-10.1c0-42.7,40.8-77.4,91.1-77.4c46,0,84.1,29,90.2,66.7c29.9-19.9,70.2-11.9,90.2,18
				c6.5,9.7,10.2,20.9,10.8,32.5c7.4-4.5,16-6.9,24.6-6.9C4357.7,2497.7,4377.3,2515.5,4377.3,2537.4z"/>
			<circle class="st9" cx="4156.6" cy="2445.7" r="14.9"/>
		</g>
		<g id="WOMAN">
			<ellipse id="SHADOW" class="st1" cx="3126.5" cy="2780.2" rx="708.6" ry="30.2"/>
			<g id="LEGS">
				<g id="LEFT">
					<path class="st10" d="M2749.2,2330.9c28.2,4.5,63.9,7.3,101.2,7.3c43.8,0,94-3.8,126.1-9.6l-27.1,160.2
						c-27.3,4.3-64.8,6.9-106,6.9c-44.5,0-84.5-3.1-112.2-7.9L2749.2,2330.9z"/>
					<path class="st11" d="M2993.5,2474.6l-26.4,305.5h-67.2c-1.7-16.4-20.8-29.3-44.1-29.3s-42.4,12.9-44.1,29.3h-231.3v-0.1
						c0-11.2,6.4-21.5,16.4-26.5c25.1-12.6,71.3-39.2,82.7-68.5c20.9-53.7,12.7-204.6,12.2-213.4c1.3,13.2,68.7,23.9,151.6,23.9
						C2920,2495.6,2983.4,2486.5,2993.5,2474.6z"/>
					<ellipse class="st12" cx="2843.3" cy="2471.3" rx="151.6" ry="24.3"/>
					<path class="st7" d="M2731.1,2487.6c27.7,4.9,67.8,7.9,112.2,7.9c41.3,0,78.7-2.6,106-6.9l6-34.2c-27.6-4.6-68.9-7.3-112-7.3
						c-42.5,0-80.9,2.8-108.4,7.3L2731.1,2487.6z"/>
					<path class="st13" d="M2579,2764.9h216.5c2.3,0,4.4-1.5,5.1-3.7c5-14.6,27.7-25.6,55-25.6s50,11,55,25.6
						c0.7,2.2,2.8,3.7,5.1,3.7h53.5"/>
					<path class="st8" d="M2691.7,2493.1c1.3,13.2,68.7,23.9,151.6,23.9c76.7,0,140.1-9.1,150.2-20.9"/>
				</g>
				<g id="RIGHT">
					<path class="st11" d="M3697.1,2780.1L3697.1,2780.1l-231.3,0.1c-1.7-16.4-20.8-29.3-44.1-29.3s-42.4,12.9-44.1,29.3h-67.2
						l-26.4-305.5c10.1,11.8,73.5,20.9,150.2,20.9c82.9,0,150.3-10.6,151.6-23.9c-0.5,8.8-8.8,159.7,12.2,213.4
						c11.4,29.3,57.6,55.8,82.7,68.5C3690.7,2758.6,3697.1,2768.8,3697.1,2780.1z"/>
					<path class="st8" d="M3284,2496c10.1,11.8,73.5,20.9,150.2,20.9c82.9,0,152.3-10.6,153.6-23.9"/>
					<path class="st13" d="M3697.8,2764.9h-216.5c-2.3,0-4.4-1.5-5.1-3.7c-5-14.6-27.7-25.6-55-25.6s-50,11-55,25.6
						c-0.7,2.2-2.8,3.7-5.1,3.7h-53.5"/>
					<ellipse class="st12" cx="3434.2" cy="2471.3" rx="151.6" ry="24.3"/>
					<path class="st10" d="M3546.4,2487.6c-27.7,4.9-67.8,7.9-112.2,7.9c-41.3,0-78.7-2.6-106-6.9L3311,2330
						c29.3,3.2,58.9,4.8,88.4,4.7c51,0,98.1-4,127-10.2h1.2L3546.4,2487.6z"/>
					<path class="st7" d="M3546.4,2487.6c-27.7,4.9-67.8,7.9-112.2,7.9c-41.3,0-78.7-2.6-106-6.9l-3.7-34.1
						c27.6-4.6,66.6-7.5,109.7-7.5c42.5,0,80.9,2.8,108.4,7.3L3546.4,2487.6z"/>
				</g>
			</g>
			<g id="HAIR">
				<path id="XMLID_1_" class="st6" d="M3563.2,836.2c0,78.8-65.5,142.7-146.3,142.7s-146.3-63.9-146.3-142.7
					c0-18.6,3.7-36.9,10.9-54.1c-5.7,1.2-11.5,1.9-17.3,1.9c-45.6,0-82.5-38-82.5-84.9c0-40.9,28.1-75,65.5-83.1l-125.4-4.5
					c0,0-38.2-0.3-34.3-27.2c1.6-10.8,9.4-15.4,17.7-16.6c-16.6-13.1-31.7-37.6,2.4-44.9c40.4-8.7,114.1,18.2,133.7,40.2
					c13.3,14.9,14.1,44.4,14.1,51.6c2.9-0.3,5.8-0.5,8.7-0.5c45.6,0,82.5,38,82.5,84.9c0,4.1-0.3,8.3-0.9,12.4
					c21.8-11.8,46.2-18,71-17.9C3497.7,693.5,3563.2,757.4,3563.2,836.2z"/>
				<circle class="st6" cx="3623.9" cy="919.5" r="33"/>
			</g>
			<g id="OVERALLS">
				<path class="st2" d="M3268.7,2323c26.9,6.6,75.5,11.7,130.7,11.7c51,0,98.1-4,127-10.2l1.2-0.2l-3.2-28.6L3353.9,778.1h-384.4
					l-278.8,1529.2c0,17,76,30.8,159.8,30.8c55.6,0,121.4-6.1,147.6-14.7c20.2-4.6,35.4-21.2,38.3-41.7l85.9-757
					c1.3-9.5,15.1-9.3,16.1,0.2l80.8,742.8C3220.2,2280.9,3227.9,2313,3268.7,2323z"/>
				<path class="st8" d="M3059.4,779.8L3059.4,779.8c0,0-9.2,83.7,117.9,83.7c112.5,0,128.6-83.7,128.6-83.7"/>
			</g>
			<g id="PUMPKIN">
				<path class="st7" d="M3041.8,1086c1.4-13.6,29.5-31.9,46.8-31.9l17,2.4c-15.6,5.7-31.9,16-30.2,34.3L3041.8,1086z"/>
				
					<ellipse transform="matrix(0.1683 -0.9857 0.9857 0.1683 1373.9358 4105.1348)" class="st14" cx="3119.7" cy="1238.4" rx="132.7" ry="84.5"/>
				
					<ellipse transform="matrix(0.1683 -0.9857 0.9857 0.1683 1258.8473 3909.491)" class="st14" cx="2946.2" cy="1208.7" rx="132.7" ry="84.5"/>
				
					<ellipse transform="matrix(0.1683 -0.9857 0.9857 0.1683 1316.8645 4006.4175)" class="st14" cx="3032.7" cy="1222.8" rx="142.6" ry="82.5"/>
				<path class="st8" d="M2954.2,1310.3c-9.8-27.7-12.6-63.6-6.1-101.4c8.1-47.4,28.8-86.9,53.9-108.9"/>
				<path class="st8" d="M3102.4,1117.5c16.2,29,21.5,73,13.4,120.1c-8,46.8-28.3,86-53,108.1"/>
			</g>
			<g id="HANDS">
				<g id="LEFT-2">
					<polygon class="st7" points="2974.3,1477.4 2843.4,1469.7 2853.3,1415.2 					"/>
					<path class="st9" d="M2920.1,1053l-76.1,84.6c-11.7,13-10.6,33.1,2.4,44.8c1.8,1.7,3.9,3.1,6.1,4.3l202.3,110l-80.4,177.7
						l-271-130.8c-122.2-59-146.7-222.5-47.2-314.7L2890,812.3c21.6-20,50-31.2,79.5-31.2L2920.1,1053z"/>
					<path class="st1" d="M2596.9,1138.4v62.7c-0.5-2.9-0.9-5.8-1.2-8.7c-0.2-1.7-0.4-3.4-0.5-5.1c-0.9-10.1-1-20.2-0.4-30.3
						c0.1-1.7,0.2-3.4,0.4-5.1C2595.6,1147.5,2596.1,1142.9,2596.9,1138.4z"/>
					<path class="st1" d="M2632.3,1055.3v229.9c-1.7-2.4-3.4-4.8-5.1-7.2v-215.6C2628.8,1060,2630.5,1057.6,2632.3,1055.3z"/>
					<path class="st1" d="M2667.7,1018.2v303.4c-1.7-1.4-3.4-2.7-5.1-4.1v-294.5L2667.7,1018.2z"/>
					<path class="st1" d="M2703.1,985.3v358.2c-1.7-0.8-3.4-1.7-5.1-2.6V990.1L2703.1,985.3z"/>
					<polygon class="st1" points="2738.5,952.6 2738.5,1360.6 2733.4,1358.2 2733.4,957.3 					"/>
					<polygon class="st1" points="2773.9,919.8 2773.9,1377.7 2768.8,1375.2 2768.8,924.5 					"/>
					<polygon class="st1" points="2809.3,887 2809.3,1394.8 2804.2,1392.3 2804.2,891.7 					"/>
					<path class="st1" d="M2844.7,854.2v282.6l-0.8,0.9c-1.7,1.8-3.1,3.9-4.3,6.1V858.9L2844.7,854.2z"/>
					<path class="st1" d="M2844.7,1180.9v230.9l-5.1-2.4V1174C2841,1176.5,2842.7,1178.9,2844.7,1180.9z"/>
					<polygon class="st1" points="2880.1,821.4 2880.1,1097.4 2875.1,1103 2875.1,826.1 					"/>
					<polygon class="st1" points="2880.1,1201.8 2880.1,1428.9 2875.1,1426.5 2875.1,1199 					"/>
					<path class="st1" d="M2915.6,794.3V1058l-5.1,5.7V797h0.1C2912.2,796.1,2913.9,795.2,2915.6,794.3z"/>
					<polygon class="st1" points="2915.6,1221.1 2915.6,1446 2910.5,1443.6 2910.5,1218.3 					"/>
					<path class="st1" d="M2951,782.6V883l-3.7,20.3l-0.9,5.1l-0.5,2.6V783.5C2947.6,783.2,2949.3,782.9,2951,782.6z"/>
					<polygon class="st1" points="2951,1240.3 2951,1463.1 2945.9,1460.7 2945.9,1237.5 					"/>
					<polygon class="st1" points="2986.4,1259.5 2986.4,1447.6 2981.3,1458.8 2981.3,1256.8 2984,1258.2 					"/>
					<polygon class="st1" points="3021.8,1278.8 3021.8,1369.6 3021.7,1369.6 3016.7,1380.6 3016.7,1276 					"/>
					<polygon class="st1" points="3054.7,1296.7 3053.7,1298.7 3052.1,1302.3 3052.1,1295.3 					"/>
					<polygon class="st1" points="2991.9,1435.3 2989.6,1440.4 2903.8,1440.4 2893.3,1435.3 					"/>
					<polygon class="st1" points="3008,1399.9 3005.7,1404.9 2830.4,1404.9 2819.9,1399.9 					"/>
					<polygon class="st1" points="3024,1364.5 3021.8,1369.3 3021.8,1369.6 2757.1,1369.6 2746.5,1364.5 					"/>
					<path class="st1" d="M3040,1329.1l-2.3,5.1h-351.8c-2.7-1.6-5.3-3.3-7.9-5.1H3040z"/>
					<path class="st1" d="M3054.7,1296.7l-0.9,2h-410.4c-1.5-1.7-3-3.4-4.4-5.1h410.2l3,1.7L3054.7,1296.7z"/>
					<path class="st1" d="M2993.3,1263.3h-375.1c-0.9-1.7-1.8-3.4-2.7-5.1H2984l2.4,1.3L2993.3,1263.3z"/>
					<path class="st1" d="M2928.2,1227.9h-325c-0.5-1.7-1-3.4-1.5-5.1h317.2L2928.2,1227.9z"/>
					<path class="st1" d="M2863.1,1192.5h-267.4c-0.2-1.7-0.4-3.4-0.5-5.1h258.6L2863.1,1192.5z"/>
					<path class="st1" d="M2836.6,1152c-0.4,1.7-0.6,3.4-0.7,5.1h-241.1c0.1-1.7,0.2-3.4,0.4-5.1H2836.6z"/>
					<path class="st1" d="M2862.9,1116.6l-4.6,5.1h-257.9c0.4-1.7,0.9-3.4,1.4-5.1H2862.9z"/>
					<path class="st1" d="M2894.7,1081.2l-4.6,5.1h-276.7c0.8-1.7,1.7-3.4,2.6-5.1H2894.7z"/>
					<path class="st1" d="M2921.4,1045.8l-0.9,5.1h-284.8c1.3-1.7,2.7-3.4,4.2-5.1H2921.4z"/>
					<polygon class="st1" points="2928,1009.5 2927.1,1014.6 2671.5,1014.6 2677,1009.5 					"/>
					<polygon class="st1" points="2934.4,974.1 2933.5,979.2 2709.8,979.2 2715.3,974.1 					"/>
					<polygon class="st1" points="2940.9,938.7 2939.9,943.8 2748,943.8 2753.5,938.7 					"/>
					<polygon class="st1" points="2947.3,903.3 2946.4,908.4 2786.2,908.4 2791.7,903.3 					"/>
					<polygon class="st1" points="2953.7,867.9 2952.8,872.9 2824.5,872.9 2830,867.9 					"/>
					<polygon class="st1" points="2960.2,832.5 2959.2,837.5 2862.7,837.5 2868.2,832.5 					"/>
					<path class="st1" d="M2966.6,797l-0.9,5.1h-63.1c2.6-1.8,5.2-3.4,7.9-5V797H2966.6z"/>
					<path class="st15" d="M2974.3,1474.3l-271-130.8c-122.2-59-146.7-222.5-47.2-314.7L2890,812.3c21.6-20,50-31.2,79.5-31.2"/>
					<path class="st15" d="M2920.1,1053l-76.1,84.6c-11.7,13-10.6,33.1,2.4,44.8c1.8,1.7,3.9,3.1,6.1,4.3l202.3,110"/>
				</g>
				<g id="RIGHT-2">
					<polygon class="st7" points="3420.1,1368.1 3424.7,1408.4 3277,1370 					"/>
					<path class="st9" d="M3382.6,1036.6l82.4,109.2c5.6,7.4,4.1,18-3.3,23.6c-2.9,2.2-6.5,3.4-10.2,3.4H3277v195h272.4
						c124.1,0,195.7-140.7,122.8-241L3460,835.1c-24.7-33.9-64.1-54-106.1-54L3382.6,1036.6z"/>
					<rect x="3277" y="1172.9" class="st1" width="2.8" height="195"/>
					<rect x="3310.1" y="1172.9" class="st1" width="5.1" height="195"/>
					<rect x="3345.5" y="1172.9" class="st1" width="5.1" height="195"/>
					<path class="st1" d="M3386,785.1v256l-3.4-4.5l-1.7-14.9V783.9C3382.6,784.3,3384.3,784.7,3386,785.1z"/>
					<rect x="3380.9" y="1172.9" class="st1" width="5.1" height="195"/>
					<path class="st1" d="M3421.4,799.8v288.3l-1.4-1.8l-3.7-4.9V796.9l0.2,0.1C3418.2,797.9,3419.8,798.8,3421.4,799.8z"/>
					<rect x="3416.3" y="1172.9" class="st1" width="5.1" height="195"/>
					<path class="st1" d="M3456.8,831v304l-5.1-6.7V824.9C3453.5,826.9,3455.2,828.9,3456.8,831z"/>
					<path class="st1" d="M3456.8,1172.1v195.8h-5.1v-195C3453.4,1172.9,3455.1,1172.6,3456.8,1172.1z"/>
					<polygon class="st1" points="3492.2,879.5 3492.2,1367.9 3487.1,1367.9 3487.1,872.5 3487.5,872.9 					"/>
					<polygon class="st1" points="3527.6,928.1 3527.6,1367.9 3522.5,1367.9 3522.5,921.2 					"/>
					<path class="st1" d="M3563,976.8v390.5c-1.7,0.2-3.4,0.3-5.1,0.3V969.8l3.1,4.2L3563,976.8z"/>
					<path class="st1" d="M3598.4,1025.5v334.6c-1.7,0.6-3.4,1.1-5.1,1.6v-343.2L3598.4,1025.5z"/>
					<path class="st1" d="M3633.8,1074.2v268.4c-1.7,1.1-3.4,2.2-5.1,3.3v-278.7L3633.8,1074.2z"/>
					<path class="st1" d="M3669.2,1121.7v187.7c-1.6,2.1-3.3,4.2-5.1,6.2v-199.7l0.5,0.7l3.7,5.1L3669.2,1121.7z"/>
					<path class="st1" d="M3701.3,1222.8c-0.1,1.7-0.2,3.4-0.3,5.1c-0.3,3.8-0.8,7.6-1.4,11.3v-47.1l0.1,0.4
						C3701.2,1202.5,3701.8,1212.7,3701.3,1222.8z"/>
					<path class="st1" d="M3651.1,1329.1c-1.9,1.7-3.9,3.4-5.9,5.1H3277v-5.1H3651.1z"/>
					<path class="st1" d="M3679.9,1293.6c-1,1.7-2,3.4-3.1,5.1H3277v-5.1H3679.9z"/>
					<path class="st1" d="M3695.3,1258.2c-0.5,1.7-1,3.4-1.6,5.1H3277v-5.1H3695.3z"/>
					<path class="st1" d="M3701.3,1222.8c-0.1,1.7-0.2,3.4-0.3,5.1H3277v-5.1H3701.3z"/>
					<path class="st1" d="M3699.6,1192.5H3277v-5.1h421.8c0.3,1.6,0.6,3.1,0.8,4.7L3699.6,1192.5z"/>
					<path class="st1" d="M3689.4,1157.1h-221c0.1-1.7,0-3.4-0.4-5.1h219.2C3687.9,1153.7,3688.7,1155.4,3689.4,1157.1z"/>
					<polygon class="st1" points="3668.4,1121.7 3446.7,1121.7 3442.9,1116.6 3664.7,1116.6 					"/>
					<polygon class="st1" points="3642.6,1086.3 3420,1086.3 3416.3,1081.3 3416.2,1081.2 3638.9,1081.2 					"/>
					<polygon class="st1" points="3616.9,1050.9 3393.3,1050.9 3389.5,1045.8 3613.2,1045.8 					"/>
					<polygon class="st1" points="3590.5,1014.6 3380.1,1014.6 3379.5,1009.5 3586.8,1009.5 					"/>
					<polygon class="st1" points="3564.7,979.2 3376.1,979.2 3375.5,974.1 3561,974.1 3563,976.8 					"/>
					<polygon class="st1" points="3539,943.8 3372.1,943.8 3371.6,938.7 3535.3,938.7 					"/>
					<polygon class="st1" points="3513.2,908.4 3368.1,908.4 3367.6,903.3 3509.5,903.3 					"/>
					<polygon class="st1" points="3487.5,872.9 3364.2,872.9 3363.6,867.9 3483.8,867.9 3487.1,872.5 					"/>
					<path class="st1" d="M3461.7,837.5h-101.5l-0.6-5.1h98.4c0.7,0.9,1.3,1.8,2,2.7L3461.7,837.5z"/>
					<path class="st1" d="M3425.1,802.1h-68.9l-0.6-5.1h60.9c1.6,0.9,3.3,1.8,4.9,2.8C3422.6,800.6,3423.9,801.3,3425.1,802.1z"/>
					<path class="st15" d="M3353.9,781.1c42,0,81.4,20.1,106.1,54l212.2,291.8c73,100.3,1.3,241-122.7,241h-266.5
						c32.2-109.7-0.3-195-0.3-195h168.9c9.3,0,16.9-7.6,16.8-16.9c0-3.6-1.2-7.2-3.4-10.1l-82.4-109.2"/>
				</g>
			</g>
			<g id="BEET">
				<path class="st12" d="M3250.5,1073.1c0,0,6.9-196,68.3-178.8C3402.8,917.8,3250.5,1073.1,3250.5,1073.1z"/>
				<path class="st12" d="M3258.5,1073.5c0,0,8.5-147.2-55.3-140.9s47.3,140.5,47.3,140.5L3258.5,1073.5z"/>
				<path class="st4" d="M3250.5,1073.1c0,0,24.8-96.9,85.4-72.2c60.6,24.7-77.4,72.6-77.4,72.6L3250.5,1073.1z"/>
				<path class="st4" d="M3254.5,1075.2c0,0-30.9-63.1-71.1-32.4C3170,1053,3254.5,1075.2,3254.5,1075.2z"/>
				<path class="st16" d="M3318.8,1120c0,23.6-17.2,43.8-41.6,52.5c-31.3,9.4-29,120-29,120s-1.9-23.3-3.7-67.5
					c-1.5-37.9-5.8-44.8-23.2-53.4c-2-0.8-3.8-1.6-5.7-2.5l0,0c-20-9.9-33.4-28.2-33.4-49c0-31.5,30.6-51.9,68.3-51.9
					S3318.8,1088.5,3318.8,1120z"/>
				<path class="st12" d="M3372.4,1133.4c0,0,145-121.9,61.1-143.8c-62.1-16.2-67.2,138.6-67.2,138.6L3372.4,1133.4z"/>
				<path class="st4" d="M3366.2,1128.3c0,0,63.9-118.8,100.6-85.4C3531.3,1101.5,3366.2,1128.3,3366.2,1128.3z"/>
				<path class="st4" d="M3366.2,1128.3c0,0,79.4-17.9,86.1,21.8c6,35.9-79.9-16.7-79.9-16.7L3366.2,1128.3z"/>
				<path class="st4" d="M3368.2,1132.4c0,0-6.4-94.2-37.2-78.9C3315.9,1061,3368.2,1132.4,3368.2,1132.4z"/>
				<path class="st16" d="M3400.8,1170.9h-125.1c-4.4-16.4-2.2-33.2,7.8-46.4c19-25.1,55.7-23,85.8-0.2
					C3386.4,1137.2,3397.8,1154.1,3400.8,1170.9z"/>
				<path class="st8" d="M3275.3,1172c-5.2-17-3.2-34.8,7.2-48.5c19-25.1,55.7-23,85.8-0.2"/>
			</g>
			<g id="ARMS">
				<g id="LEFT-3">
					<path class="st16" d="M2996.2,1374.2c-22.2,49.1-33.1,98.6-23,103.2s37.2-37.6,59.4-86.7s32-92.5,22-97.1
						S3018.4,1325.2,2996.2,1374.2z"/>
					<path class="st10" d="M3181.3,1386.1c-2.1,18-10.9,34.6-24.5,46.5c-23.7,20.7-67.1,45.9-126.1,27.3l-30.2-9.2
						c-12-3.6-23.8-7.2-27.8-8.5c4.2-18.9,12.5-43.3,23.6-68c12.9-28.5,27.1-52.6,38.8-67c7.8,2.3,16.2,4.8,22.9,6.8
						c6.9,2,12,3.5,12.4,3.6c16.9,2.9,34.4,0.2,49.7-7.5c0,0,15.1,4.4-7.3,31.7s33.2,28,61.7-15.8
						C3174.4,1326,3187.2,1336.2,3181.3,1386.1z"/>
					<path class="st5" d="M3178.8,1378.3c0,0-18.7,28.7-59,44.3"/>
					<path class="st5" d="M3179.1,1350.7c0,0-16.6,26.7-57,42.2"/>
					<path class="st7" d="M3057.9,1314.1c-2.5,18.2-11.5,46.4-25.2,76.7c-10.4,23-21.9,44.3-32.3,60c-12-3.6-23.8-7.2-27.8-8.5
						c4.2-18.9,12.5-43.3,23.6-68c12.9-28.5,27.1-52.6,38.8-67C3042.8,1309.6,3051.2,1312.1,3057.9,1314.1z"/>
				</g>
				<g id="RIGHT-3">
					<path class="st16" d="M3250,1268.4c0,53.8,13,102.6,27,102.6s23.8-48.7,23.8-102.6s-11.4-97.5-25.4-97.5
						S3250,1214.5,3250,1268.4z"/>
					<path class="st10" d="M3276.4,1171c13.6,2,24.4,44.9,24.4,97.4c0.1,17.4-1,34.7-3.4,51.9l-62-0.5c-34.3-6.4-88.5-20.3-149-83.5
						c-15.5-16.2-13.4-73.5-11.1-104c0.3-4.7,4.4-8.2,9.1-7.8c2.1,0.2,4.1,1.1,5.6,2.7c21.4,23.1,54,51.8,72.1,48.7
						c32.6-5.6-21-39.8-0.6-56.9c0,0,81.1,51.4,95.3,51.9L3276.4,1171z"/>
					<path class="st5" d="M3138.4,1252.7c-20.6-11.9-37.6-28-61-52.3"/>
					<path class="st5" d="M3139.5,1226.9c-20.6-11.9-40.3-28.8-63.6-53.2"/>
					<path class="st5" d="M3140.7,1201.2c-20.6-12-40.3-28.8-63.6-53.2"/>
					<path class="st7" d="M3254.2,1320c-2.9-17.1-4.3-34.3-4.2-51.7c0-52.6,10.8-95.4,24.4-97.4h2c13.6,2,24.4,44.9,24.4,97.4
						c0.1,17.4-1,34.7-3.4,51.9L3254.2,1320z"/>
				</g>
			</g>
			<g id="NECK">
				<path class="st10" d="M3291.1,778.1c0,0-14.1,70.1-113.3,70.1c-97.8,0-104-53.5-104-67.1c0-1,0-2,0.1-3.1
					c26.5,0,49.5-18.5,55-44.5l16.2-76h94v92.1c0,15.7,12.7,28.4,28.4,28.4c0,0,0,0,0,0H3291.1z"/>
				<polygon class="st7" points="3239.2,657.5 3239.2,759.8 3132.1,718.9 3146,657.5 				"/>
			</g>
			<g id="HEAD">
				<path class="st10" d="M3239.6,608.6c13.6-0.3,24.8,10.5,25.1,24.1c0.3,13.6-10.5,24.8-24.1,25.1c-0.3,0-0.7,0-1,0h-16.8
					l-2.5,6.1c-11,26.8-37.1,44.4-66.1,44.4h-9.5c-18.5,0-33.4-15-33.4-33.5c0-1.7,0.1-3.4,0.4-5l10.1-66.2
					c3-19.8,17.5-35.8,36.8-40.9c3.3,7.9,20.6,45.1,58,46.1L3239.6,608.6z"/>
				<path class="st5" d="M3227,639.1c0-10.3,8.3-18.6,18.6-18.6c0,0,0,0,0,0"/>
				<path class="st5" d="M3123.4,610.2c0,0,16.2-3,23.4,11.3c4.7,9.4-1.7,42.8-1.7,42.8"/>
				<path class="st5" d="M3170.6,614.9c0,0,16.6-1.3,29.9,8.8"/>
				
					<ellipse transform="matrix(0.138 -0.9904 0.9904 0.138 2072.6177 3647.6038)" class="st7" cx="3131.8" cy="633.1" rx="6.4" ry="3.3"/>
				
					<ellipse transform="matrix(0.138 -0.9904 0.9904 0.138 2109.0833 3698.0684)" class="st7" cx="3179" cy="637.4" rx="6.8" ry="3.5"/>
				<path class="st7" d="M3217.1,608.7c-55.3,0.9-70.8-24.5-68.8-42c3.3-1.7,6.8-3.1,10.4-4C3162,570.6,3180.2,607.4,3217.1,608.7z"
					/>
			</g>
		</g>
		<g id="MAN">
			<ellipse id="SHADOW-2" class="st1" cx="1186.3" cy="2518.9" rx="851.6" ry="34.4"/>
			<g id="CART">
				<g id="CART-2">
					<path class="st5" d="M1144,1605.9h69.4c76.2,0,141.5,54.5,155,129.5l146.2,738.6c2.7,15.1,15.8,26,31.1,26l0,0
						c13.9,0,26.2-9.1,30.2-22.3l78.2-263.4"/>
					<path class="st7" d="M1102.1,1898h440.3c7.6,0,15.2,1.4,22.3,4.1l515.4,196h-424.8c-21.4,0-42.7-3.9-62.7-11.6L1102.1,1898z"/>
				</g>
				<g id="CARROT">
					<path class="st7" d="M1758.5,1874.4l-3.9-2.4c0.3-0.5,11.9-22.2,23.6-33c15.7-14.5,33.4-19.3,51.1-13.9l-1.3,4.7
						C1788.7,1818,1758.7,1874,1758.5,1874.4z"/>
					<path class="st7" d="M1776.8,1842.6c0,0,16.7-1.9,13.2,7.3c-2.2,5.8-23.1,3-23.1,3s0.3-25.3,9.5-25.5
						C1783.7,1827.3,1776.8,1842.6,1776.8,1842.6z"/>
					<path class="st7" d="M1789.2,1832.3c0,0,15.3,1.2,9.8,6.8c-2.8,2.9-20,1.4-20,1.4s7.5-22.8,14.8-23.8
						S1789.2,1832.3,1789.2,1832.3z"/>
					<path class="st7" d="M1809,1825.5c0,0,12,4,7.9,8.5c-2,2.2-18.2-5.5-18.2-5.5s7.1-14.8,14.2-12.8
						C1817.5,1817,1809,1825.5,1809,1825.5z"/>
					<path class="st7" d="M1814.3,1825.1c0,0,26.1-9,24.9,3.1C1838.3,1837.3,1814.3,1825.1,1814.3,1825.1z"/>
					<path class="st7" d="M1759.4,1887.6l-4.4-0.2c0.3-9.4-0.8-18.9-3.3-28c-5.5-19.1-16.7-30.9-33.4-35.1l1.1-4.8
						c18,4.6,30.6,17.9,36.6,38.4C1758.6,1867.6,1759.8,1877.6,1759.4,1887.6z"/>
					<path class="st7" d="M1750.1,1846.3c0,0-13.7-6.9-11.9,0.7c0.9,3.9,16.4,11.6,16.4,11.6s5.5-23.4-0.3-28.1
						S1750.1,1846.3,1750.1,1846.3z"/>
					<path class="st7" d="M1736.8,1830.3c0,0-12.3-2.8-11.2,3.2c0.5,2.9,18.4,4.7,18.4,4.7s1.7-16.3-5.5-18.3
						C1733.8,1818.6,1736.8,1830.3,1736.8,1830.3z"/>
					<path class="st7" d="M1732.4,1827.2c0,0-17.6-21.2-22.9-10.2C1705.6,1825.2,1732.4,1827.2,1732.4,1827.2z"/>
					<path class="st7" d="M1756.4,1862.5l-4-2.2c4-9.4,6.7-19.3,8-29.4c2.5-21.4-2.8-37.9-16-49.1l2.8-3.9
						c14.2,12.2,20.3,30.8,17.6,53.7C1763.5,1842.2,1760.6,1852.6,1756.4,1862.5z"/>
					<path class="st7" d="M1762.6,1815c0,0-8.2-11.2-9.7-3.5c-0.8,3.9,9.9,17.9,9.9,17.9s14.2-16.2,9-26.4
						C1768.4,1796.1,1762.6,1815,1762.6,1815z"/>
					<path class="st7" d="M1758.4,1795.5c0,0-9.8-8-11.3-2.1c-0.7,2.9,14.5,12.5,14.5,12.5s8.2-14.2,2.6-19.2
						C1760.6,1783.5,1758.4,1795.5,1758.4,1795.5z"/>
					<path class="st7" d="M1755.8,1790.8c0,0-7.1-27.2-16.3-19.5C1732.6,1777.1,1755.8,1790.8,1755.8,1790.8z"/>
					<path class="st17" d="M1682.9,2119.6L1682.9,2119.6c-4.7-1.1-7.7-5.6-6.8-10.4l45.3-220.5c2.8-13.1,16.8-21.2,30.4-17.7
						l6.9,1.8c13.6,3.5,21.2,17.2,16.5,29.8l-80.8,211.3C1692.6,2118.5,1687.6,2120.9,1682.9,2119.6z"/>
					<path class="st7" d="M1877.6,1915.8c-1.7,5.6-10.8,0.9-17.3-3.3c-0.3-0.1-0.7-0.1-1-0.2c2.2,2,3.9,4.6,1.4,6.5
						c-1.7,1.3-9.4-3.8-13.8-6.8c-2.6,0.3-5.3,0.9-7.8,1.7c3.5,1.6,7,4.1,3.3,6.8c-2.2,1.5-10.4-0.2-15.6-1.4
						c-0.7,0.4-1.5,0.8-2.2,1.3c4.5,1.1,10.2,3.6,6.9,9c-2.2,3.7-12.7,1.5-18.7-0.2c-3.5,3.1-6.8,6.4-9.7,10l-3.3-3.2
						c2.8-3.4,5.8-6.5,9-9.5c1.2-5.1,6-23.4,13.7-22c4.9,0.9,1.9,7.7-0.5,11.9h0.1c0.7-0.4,1.5-0.9,2.2-1.3
						c3.4-5.7,11.6-18.1,17.2-17.8c5.5,0.3-1.4,8.3-5.2,12.3c3.2-1.1,6.4-1.8,9.7-2.3c3.2-3.7,9.4-9.7,14.1-7.3
						c2.9,1.5-0.6,5-3.2,7.1c0.9,0.1,1.8,0.2,2.6,0.3C1867.3,1907,1880,1907.5,1877.6,1915.8z"/>
					<path class="st7" d="M1794.7,1954.7l-4.3-1.2c2.1-9.3,2.7-18.9,1.9-28.3c-1.9-19.9-10.6-33.7-26-41.1l1.9-4.5
						c16.8,8.1,26.7,23.7,28.6,45.2C1797.7,1934.7,1797,1944.8,1794.7,1954.7z"/>
					<path class="st7" d="M1793.2,1912c0,0-12.1-9.5-11.8-1.6c0.1,4,13.9,14.6,13.9,14.6s9.7-22,4.9-27.8S1793.2,1912,1793.2,1912z"
						/>
					<path class="st7" d="M1783.2,1893.6c0,0-11.5-5.2-11.5,0.9c0,3,17.1,8.3,17.1,8.3s4.7-15.8-2-19.1
						C1782.5,1881.5,1783.2,1893.6,1783.2,1893.6z"/>
					<path class="st7" d="M1779.5,1889.7c0,0-13.3-24.4-20.4-14.6C1753.7,1882.5,1779.5,1889.7,1779.5,1889.7z"/>
					<path class="st7" d="M1796.4,1929.2l-3.5-3c5.7-8.5,10.1-17.8,13.2-27.5c6.4-20.6,4.2-38-6.5-51.6l3.4-3.3
						c11.7,14.9,14.2,34.4,7.2,56.5C1807.1,1910.6,1802.4,1920.3,1796.4,1929.2z"/>
					<path class="st7" d="M1811.2,1883.5c0,0-5.9-12.7-8.9-5.3c-1.5,3.7,6.4,19.6,6.4,19.6s16.8-13.2,13.7-24.3
						C1820.4,1866,1811.2,1883.5,1811.2,1883.5z"/>
					<path class="st7" d="M1810.8,1863.5c0,0-8.1-9.8-10.6-4.2c-1.2,2.7,11.9,15.2,11.9,15.2s10.6-12.4,6.1-18.4
						C1815.1,1852.1,1810.8,1863.5,1810.8,1863.5z"/>
					<path class="st7" d="M1809.1,1858.3c0,0-1.9-28.3-12.2-22.5C1789,1840.2,1809.1,1858.3,1809.1,1858.3z"/>
					<path class="st17" d="M1678.7,2155.5L1678.7,2155.5c-4.2-1.8-6.2-6.7-4.4-11l86.3-201.5c5.2-11.9,20.1-17.2,32.3-11.6l6.2,2.9
						c12.2,5.7,16.7,20,9.8,31.2l-118.2,186.7C1688.1,2156.1,1683,2157.5,1678.7,2155.5z"/>
					<path class="st7" d="M1720.5,1905.5L1720.5,1905.5c-3.8-0.3-7.7-0.1-11.5,0.5c2.1,0.8,3.6,2,2.4,3.9c-0.9,1.4-8.3,0.3-13-0.5
						c-2.1,1-4.1,2.2-6.1,3.5c3.3,0.1,6.5,1,4.4,3.8c-1.2,1.7-8.2,3.1-13,3.8c-0.5,0.5-1,1.1-1.4,1.6c4.1-0.5,9.2-0.3,8.3,4.4
						c-0.6,3.3-9.7,5-15.3,5.7c-1.9,3.3-3.5,6.8-4.8,10.4l-4.2-1.5c1.2-3.4,2.7-6.6,4.4-9.8c-0.8-4.4-2.8-18.5,4-19.9
						c4.2-0.9,4.2,4.6,3.7,8.3c0.5-0.6,0.9-1.1,1.4-1.7c1-5.4,3.5-16.3,8.3-17.8c4.5-1.4,1.9,5.7,0.1,9.9c2.3-1.8,4.7-3.3,7.3-4.7
						c1.5-3.7,4.6-9.4,9.1-9.1c2.7,0.2,1.5,3.2,0.1,5.5c3.1-0.8,6.3-1.3,9.5-1.5c6.3-2.5,15.1-4.7,15.8,1.3
						C1730.4,1905.2,1725.7,1905.8,1720.5,1905.5z"/>
					<path class="st7" d="M1666.5,1956.7c-0.3-1.7-6.8-41.1-43.5-42.4l0.2-4.9c40.2,1.4,47.5,45.9,47.6,46.3L1666.5,1956.7l2.2-0.5
						L1666.5,1956.7z"/>
					<path class="st7" d="M1655,1925.6c0,0-13.3-3.1-10.4,2.5c1.5,2.8,16.5,6.2,16.5,6.2s0.6-18.9-5.3-21.6S1655,1925.6,1655,1925.6
						z"/>
					<path class="st7" d="M1640.4,1915.4c0,0-11.3-0.2-9.2,4.3c1,2.1,17,0.6,17,0.6s-1.5-12.9-8.1-13.2
						C1635.8,1906.9,1640.4,1915.4,1640.4,1915.4z"/>
					<path class="st7" d="M1636.1,1913.8c0,0-19.3-13.5-21.9-4.2C1612.1,1916.6,1636.1,1913.8,1636.1,1913.8z"/>
					<path class="st7" d="M1663.7,1937.2l-4.3-1.3c1.8-7.8,2.4-15.8,1.7-23.8c-1.6-16.7-9.3-28.4-22.7-34.9l1.9-4.5
						C1675.9,1889.9,1663.8,1936.7,1663.7,1937.2z"/>
					<path class="st7" d="M1660.3,1899.4c0,0-9.2-7.3-9.2-1.1c0,3.2,11.9,12.2,11.9,12.2s9.5-14.8,3.2-21.9
						C1662,1883.9,1660.3,1899.4,1660.3,1899.4z"/>
					<path class="st7" d="M1653.2,1885.1c0,0-10.1-4.6-10.3,0.2c-0.1,2.3,15,7.3,15,7.3s4.6-12.3-1.2-15.2
						C1652.9,1875.5,1653.2,1885.1,1653.2,1885.1z"/>
					<path class="st7" d="M1650,1881.8c0,0-11.1-19.9-17.8-12.4C1627.2,1875.1,1650,1881.8,1650,1881.8z"/>
					<path class="st17" d="M1659.3,2150.8L1659.3,2150.8c-4.7,0-8.5-3-8.8-6.9l-15.4-185.5c-0.8-11,9.8-20.4,23-20.3h6.7
						c13.3,0.1,23.6,9.5,22.6,20.5l-19.1,185.4C1667.9,2147.9,1664,2150.9,1659.3,2150.8z"/>
				</g>
				<g id="PUMPKIN-2">
					<path class="st7" d="M1849.6,1969.7c4.3-11.6,33.2-21.4,48.3-17.4l14.4,5.9c-15,1.4-31.7,6.8-34.3,23.3L1849.6,1969.7z"/>
					
						<ellipse transform="matrix(0.4099 -0.9121 0.9121 0.4099 -823.5526 2969.6304)" class="st14" cx="1883.4" cy="2121.3" rx="120.5" ry="76.7"/>
					
						<ellipse transform="matrix(0.4099 -0.9121 0.9121 0.4099 -849.8126 2798.1045)" class="st14" cx="1737.7" cy="2055.9" rx="120.5" ry="76.7"/>
					
						<ellipse transform="matrix(0.4099 -0.9121 0.9121 0.4099 -836.0941 2883.3682)" class="st14" cx="1810.5" cy="2087.9" rx="129.4" ry="74.9"/>
					<path class="st8" d="M1721.7,2146.8c-2.3-26.6,3.4-58.7,17.7-90.5c17.9-39.8,45-69.8,72.1-83.4"/>
					<path class="st8" d="M1895.8,2011.1c7.7,29.2,2.3,69-15.5,108.6c-17.7,39.3-44.4,69.1-71.2,82.9"/>
				</g>
				<g id="SACK_OF_POTATOES">
					
						<ellipse transform="matrix(0.9446 -0.3281 0.3281 0.9446 -615.5928 532.4517)" class="st17" cx="1269.9" cy="2090.3" rx="32.6" ry="46.6"/>
					
						<ellipse transform="matrix(0.9455 -0.3257 0.3257 0.9455 -630.3525 546.2007)" class="st17" cx="1315.9" cy="2155.5" rx="32.4" ry="35.9"/>
					
						<ellipse transform="matrix(1.989543e-02 -0.9998 0.9998 1.989543e-02 -725.2574 3233.2402)" class="st17" cx="1286.5" cy="1986.5" rx="40.2" ry="53.8"/>
					
						<ellipse transform="matrix(1.989543e-02 -0.9998 0.9998 1.989543e-02 -771.3092 3548.6267)" class="st17" cx="1424.3" cy="2167.7" rx="40.2" ry="53.8"/>
					
						<ellipse transform="matrix(0.3486 -0.9373 0.9373 0.3486 -904.131 2511.9775)" class="st17" cx="1355.1" cy="1906.4" rx="41" ry="36.3"/>
					
						<ellipse transform="matrix(0.3486 -0.9373 0.9373 0.3486 -812.3644 2679.9397)" class="st17" cx="1521.8" cy="1924.4" rx="40.2" ry="44.1"/>
					
						<ellipse transform="matrix(0.8224 -0.5688 0.5688 0.8224 -874.9134 1154.0087)" class="st17" cx="1411.1" cy="1978.5" rx="58.4" ry="39.3"/>
					
						<ellipse transform="matrix(0.9455 -0.3257 0.3257 0.9455 -527.8972 568.8399)" class="st17" cx="1434.8" cy="1860.9" rx="39.3" ry="58.4"/>
					
						<ellipse transform="matrix(0.976 -0.2176 0.2176 0.976 -408.291 388.278)" class="st17" cx="1558.6" cy="2047.7" rx="39.3" ry="58.4"/>
					<circle class="st17" cx="1338.5" cy="2074.1" r="39.3"/>
					<circle class="st17" cx="1490.7" cy="1994.6" r="25.6"/>
					<circle class="st17" cx="1276.9" cy="1910.4" r="22.4"/>
					
						<ellipse transform="matrix(0.9215 -0.3883 0.3883 0.9215 -607.8283 665.925)" class="st17" cx="1343.7" cy="1836.8" rx="35.5" ry="21.7"/>
					
						<ellipse transform="matrix(0.9842 -0.1773 0.1773 0.9842 -345.2876 289.4564)" class="st17" cx="1447.4" cy="2077.3" rx="46.3" ry="37.5"/>
					
						<ellipse transform="matrix(0.9842 -0.1773 0.1773 0.9842 -355.2168 302.8467)" class="st17" cx="1517.4" cy="2139.5" rx="29.3" ry="39.2"/>
					<path class="st18" d="M1618.2,2047.9c-2.9,145.1-96.5,180.9-211,178.6s-206.7-41.8-203.8-186.9s115.7-260.5,212.6-258.6
						C1504.9,1782.8,1621.1,1902.8,1618.2,2047.9z"/>
					<line class="st18" x1="1431.6" y1="1783.3" x2="1422.8" y2="2225.8"/>
					<line class="st18" x1="1463.2" y1="1792" x2="1454.7" y2="2223.4"/>
					<line class="st18" x1="1494.7" y1="1809.6" x2="1486.5" y2="2219.1"/>
					<line class="st18" x1="1526" y1="1835.2" x2="1518.5" y2="2209.7"/>
					<line class="st18" x1="1557.1" y1="1868.8" x2="1550.7" y2="2194.3"/>
					<line class="st18" x1="1588" y1="1917.5" x2="1583" y2="2165.4"/>
					<line class="st18" x1="1238.3" y1="1907.5" x2="1233.3" y2="2156"/>
					<line class="st18" x1="1271" y1="1860.2" x2="1264.5" y2="2187.7"/>
					<line class="st18" x1="1303.5" y1="1826.8" x2="1296" y2="2205.3"/>
					<line class="st18" x1="1335.7" y1="1804.4" x2="1327.6" y2="2215.9"/>
					<line class="st18" x1="1367.8" y1="1790.1" x2="1359.2" y2="2222.6"/>
					<line class="st18" x1="1399.8" y1="1782.7" x2="1391" y2="2225.2"/>
					<line class="st18" x1="1251.2" y1="1885.9" x2="1602" y2="2133.1"/>
					<line class="st18" x1="1270" y1="1861.6" x2="1611.9" y2="2102.4"/>
					<line class="st18" x1="1291.2" y1="1839.2" x2="1615.8" y2="2067.9"/>
					<line class="st18" x1="1314.6" y1="1817.8" x2="1617.7" y2="2031.3"/>
					<line class="st18" x1="1343.2" y1="1800.3" x2="1613.2" y2="1990.5"/>
					<line class="st18" x1="1376.7" y1="1786.3" x2="1598.9" y2="1943.2"/>
					<line class="st18" x1="1423.2" y1="1781.4" x2="1568.9" y2="1884.1"/>
					<line class="st18" x1="1216.6" y1="2124.9" x2="1358.3" y2="2222.4"/>
					<line class="st18" x1="1205.2" y1="2079.2" x2="1414.4" y2="2226.6"/>
					<line class="st18" x1="1203.1" y1="2040.1" x2="1464" y2="2223.9"/>
					<line class="st18" x1="1206.2" y1="2004.7" x2="1505.5" y2="2215.5"/>
					<line class="st18" x1="1212.9" y1="1971.8" x2="1539.4" y2="2201.8"/>
					<line class="st18" x1="1222.8" y1="1941.2" x2="1566.3" y2="2183.2"/>
					<line class="st18" x1="1235.7" y1="1912.6" x2="1587" y2="2160.1"/>
					<path class="st18" d="M1368.3,1787.2l-30.1-45.1c-2.2-3.3-1.3-7.8,2-10.1c1.9-1.3,4.3-1.6,6.5-0.8l22.6,8.2
						c8.3,3,17.5,1,23.9-5.1l8.6-8.2c9.2-8.9,23.8-8.6,32.7,0.6c0.1,0.1,0.2,0.2,0.2,0.3l5.8,6.2c6.4,6.9,16.3,9.2,25.1,5.8
						l16.2-6.2c5-1.9,10.7,0.6,12.6,5.6c1.1,3,0.8,6.3-1,8.9l-30.1,44.7"/>
				</g>
				<g id="ONION">
					<g id="ONION-2">
						<path class="st12" d="M1875.3,2151.9l-5.6-4.1c51.8-73.9,167.8-172.8,168.9-173.8l4.4,5.3
							C2041.9,1980.3,1926.7,2078.7,1875.3,2151.9z"/>
						<path class="st12" d="M1882.3,2162.1l-6-3.4c14.8-27.6,46.6-72.3,113.8-128.1c23.8-19.8,48.8-38.3,74.7-55.3l3.7,5.9
							c-25.7,16.9-50.5,35.2-74.1,54.9C1957.8,2066.5,1908.6,2113,1882.3,2162.1z"/>
						<path class="st12" d="M1870.9,2149.3l-4.6-5.1c0.2-0.2,25.7-24.1,55.6-64c27.5-36.8,64.5-95.2,84.5-164.3l6.6,2
							c-20.2,70.2-57.8,129.3-85.7,166.6C1897,2124.9,1871.2,2149.1,1870.9,2149.3z"/>
						<polygon class="st12" points="1882.2,2152.1 1876.9,2147.8 2047.3,1930.1 2052.6,1934.4 						"/>
						<path class="st12" d="M1900.7,2202.9l-5.9-3.5c64.1-79.7,202.1-191.2,203.5-192.3l4.5,4.9
							C2101.4,2013.1,1964.2,2124,1900.7,2202.9z"/>
						<path class="st12" d="M1907.7,2212.5l-6.4-2.8c18.9-29.4,58.1-77.6,138-140.6c47.6-37.6,87.8-63.1,88.2-63.4l3.6,5.5
							c-0.4,0.2-40.2,25.5-87.5,62.8C2000.1,2108.5,1941.2,2160.4,1907.7,2212.5z"/>
						<path class="st12" d="M1896,2200.8l-4.8-4.7c0.3-0.3,30.8-26.9,67.6-70.2c33.9-39.9,80.1-102.4,108.1-174.1l7.1,1.4
							c-28.5,72.7-75.3,136.2-109.7,176.6C1927.2,2173.5,1896.3,2200.5,1896,2200.8z"/>
						<polygon class="st12" points="1908.4,2202.5 1902.8,2198.6 2132.3,1936.7 2137.9,1940.5 						"/>
						<polygon class="st12" points="1909,2166.7 1902.6,2148.8 2131.5,1898.3 2137.1,1902.1 						"/>
					</g>
					<path class="st9" d="M1918.4,2110.4c0,0-17,16.7-29.7,45.7c-0.3,1-0.5,2.1-0.8,3.1c-3.1,11.4-13.5,19.1-25,16.8
						c-11.5-2.3-19.1-13.5-16.8-25c1.5-7.8,9.4-13.4,19.8-17.6c0,0,0,0,0.1,0c1.2-0.6,21.3-10.1,39.9-32.8
						C1905.8,2100.5,1916.7,2099.9,1918.4,2110.4z"/>
					<path class="st9" d="M1950.6,2118.6c0,0-19.9,22.9-26,44.9c-3.1,11.4-13.5,19.1-25,16.8c-11.5-2.3-19.1-13.5-16.8-25
						c1.2-6,7.1-10.8,14.6-15h0.1c0.4-0.2,2.2-1.1,5.1-2.6c7.8-4.3,22.9-13.7,35.8-27.8C1938.3,2109.7,1949.6,2108.2,1950.6,2118.6z
						"/>
					<path class="st9" d="M1902.5,2137.5c-2.9,1.6-4.7,2.5-5.1,2.6C1899.1,2139.3,1900.8,2138.4,1902.5,2137.5z"/>
					<path class="st9" d="M1952.3,2156.8c0,0-25.5,30.9-34.6,59.5c-3.1,11.4-14.2,18.9-25.8,16.7c-11.5-2.3-19.1-13.5-16.8-25
						c2.2-11.2,21-20,34.4-29.4c8.8-8.6,19.4-19.4,29.5-30.4C1939.1,2148.1,1951.3,2146.4,1952.3,2156.8z"/>
				</g>
				<g id="CART-3">
					<path class="st2" d="M2064.9,2098.1l-63.7,129c-26.5,53.7-81.1,87.6-140.9,87.6h-447.2c-78.4,0-148.7-48-177.3-120.9
						l-112.2-287.6l469.2,180.3c20,7.7,41.2,11.6,62.7,11.6L2064.9,2098.1z"/>
					<path class="st1" d="M2064.9,2098.1l-63.7,129c-26.5,53.7-81.1,87.6-140.9,87.6h-23c-78.3,0-148.7-48-177.3-120.9l-38.9-99.1
						c11.3,2.3,22.8,3.4,34.3,3.4L2064.9,2098.1z"/>
					<path class="st19" d="M1137.7,1900h-44.3c-2.8,0-5,2.2-5.1,4.9c0,2.1,1.3,4,3.3,4.8l502.1,192.9c21.5,8.3,44.3,12.5,67.3,12.5
						h435.7c2.1,0,3.8-1.7,3.8-3.8c0-1.6-1-3-2.5-3.6l-50.8-19.6"/>
					<ellipse class="st7" cx="1907.9" cy="2368.1" rx="111.6" ry="145.5"/>
					<ellipse class="st20" cx="1874.2" cy="2368.1" rx="77.9" ry="131.9"/>
					<ellipse class="st20" cx="1871.7" cy="2368.1" rx="16.1" ry="27.3"/>
					<path class="st5" d="M796.1,1605.9h69.3c76.2,0,141.5,54.5,155,129.5l146.2,738.6c2.7,15.1,15.8,26,31.1,26l0,0
						c13.9,0,26.2-9.1,30.2-22.3l85.3-310c6.3-23,30.1-36.5,53-30.1c2.2,0.6,4.3,1.4,6.4,2.3l501.5,228.2"/>
				</g>
			</g>
			<g id="MAN-2">
				<g id="RIGHT_HAND">
					<path class="st1" d="M1050.2,1325.4c-6.2-0.6-41.5-2.1-82.8,39.3c-39.8,39.9-46,71.8-46.9,79.3
						c-99.5-164.8-99.1-395.8-119.6-461.3l34.4,0.1c44,0.1,87.4,26.5,97.8,69.2C960.1,1162.2,1006.4,1255.2,1050.2,1325.4z"/>
					<path class="st2" d="M1050.2,1325.4c-6.2-0.6-41.5-2.1-82.8,39.3c-39.8,39.9-46,71.8-46.9,79.3c-11.6-19.3-21.9-39.3-30.9-59.9
						c2.7-12,12.5-40.2,47.2-74c30.5-29.6,63.7-36.7,81.3-38c6.5-0.5,12.6,3.4,15,9.5L1050.2,1325.4z"/>
					<path class="st21" d="M1287.6,1631.2l-88,2.5c-7.8,0.2-15-4.4-18-11.7l-6-14.7l-57.6-0.9c-83-36.8-144-82.8-197.7-160.9
						c0,0,1.4-35.2,47-80.9s82.8-39.2,82.8-39.2c61,101.2,120,158.4,145.9,180.9l44.9,0.5c18.8,0.2,35.5,12,42,29.7l24.1,65.9
						c4.1,11.1-1.7,23.4-12.8,27.5C1292.1,1630.7,1289.9,1631.2,1287.6,1631.2z"/>
					<path class="st5" d="M1261.4,1632.1c11.8-0.4,21.1-10.3,20.7-22.2c-0.1-2.3-0.5-4.5-1.3-6.6l-13.3-36.4"/>
					<path class="st5" d="M1232.4,1632.7c11.8-0.4,21.1-10.4,20.7-22.2c-0.1-2.3-0.5-4.5-1.3-6.6l-13.3-36.4"/>
					<path class="st5" d="M1204.4,1633.6c11.8-0.4,21.1-10.4,20.7-22.2c-0.1-2.3-0.5-4.5-1.3-6.6l-13.3-36.4"/>
					<path class="st5" d="M1118,1606.4h57.6v-8.8c0-15.1-12.2-27.3-27.3-27.3h-5.3l-20.4-14.2"/>
				</g>
				<g id="CLOTHES">
					<path class="st22" d="M980.3,2424c-15.6-1.9-31.4-2.8-47.1-2.8c-78.8,0-146.6,22.8-177,55.6c-0.1-0.9-0.2-1.7-0.2-2.6
						l-27.5-692.3l-112.1,640.2c-16.2-2-32.5-3-48.9-3c-81.3,0-150.9,24.3-179.9,58.8c-1-3.9-1.2-8-0.7-12l151-1022.5l-8.2-346.4
						c6.7-65.2,30.8-114.7,96.3-114.7h217.2c28.1,0,51.4,21.8,53.1,49.9L980.3,2424z"/>
					<path class="st5" d="M778,2476.8c-0.1-0.9-0.2-1.7-0.2-2.6l-0.2-5.9"/>
					<line class="st23" x1="777" y1="2451.2" x2="750.8" y2="1672.9"/>
					<line class="st5" x1="750.6" y1="1664.3" x2="750.3" y2="1655.8"/>
					<line class="st5" x1="411.9" y1="2465.9" x2="413.1" y2="2457.5"/>
					<polyline class="st24" points="415.6,2440.9 559.9,1453.4 545.5,1113.9 					"/>
					<line class="st5" x1="545.1" y1="1105.5" x2="544.7" y2="1097"/>
					<line class="st5" x1="616.2" y1="2422.2" x2="756.7" y2="1614"/>
					<path class="st5" d="M636.9,1515.1c0,51.6-44.3,93.4-98.9,93.4"/>
					<path class="st7" d="M705,1572.5c-55-41.9-130.8-104-167.5-162.1l-2.9-104.5L705,1572.5z"/>
					<line class="st5" x1="829.2" y1="1613.4" x2="747" y2="1613.4"/>
					<path class="st1" d="M848.7,1021v146H735.3l-24-100.4c-11.8-49.4-45.5-84.2-96.3-84.2H810C831.3,982.4,848.7,999.7,848.7,1021z
						"/>
				</g>
				<g id="SHOES">
					<path id="RIGHT-4" class="st7" d="M1021.6,2502.8H785.7c-15,0-27.7-11.1-29.6-26c30.4-32.8,98.3-55.6,177-55.6
						c15.7,0,31.5,0.9,47.1,2.8v0.1l50.8,53.9C1040.8,2486.8,1034.7,2502.8,1021.6,2502.8z"/>
					<path id="LEFT-4" class="st7" d="M658.5,2502.8H419.4c-15.1,0-28.2-10.3-31.8-24.9c28.9-34.5,98.5-58.8,179.9-58.8
						c16.3,0,32.7,1,48.9,3v0.1l52.6,56.8c5.3,5.8,5,14.7-0.8,20.1C665.5,2501.5,662,2502.8,658.5,2502.8z"/>
				</g>
				<g id="LEFT_HAND">
					<path class="st1" d="M723.8,1312.2c-0.1-0.2-0.3-0.5-0.5-0.7c-10.8-14.7-49.2-4.6-85.9,22.7c-34.7,25.7-55.3,57.5-48.4,73.4
						c-67.9-82.4-83.5-179.9-97.1-270.6c-12-79.4,27.8-133.2,87.7-138.9c31.3-3,82.8,15,92.8,83.2
						C685.8,1174.4,704.2,1250.7,723.8,1312.2z"/>
					<path class="st2" d="M723.3,1311.5c-10.8-14.7-49.2-4.6-85.9,22.7s-57.7,61.3-46.9,76l-29.7-41.7c-10.5-16.3,7.8-59.4,48.6-86
						s94.6-35.9,101.1-15.3L723.3,1311.5z"/>
					<path class="st21" d="M804.6,1616.5c-36-0.4-70.6-14.5-96.7-39.3c-50-47.8-88.6-106.7-118.5-168.6l0,0c-0.2-0.3-0.3-0.7-0.5-1
						l0,0c-6.9-15.8,13.8-47.6,48.4-73.4c37.2-27.6,76.2-37.7,86.4-22v0.1c0.8,2.4,1.4,4.8,2.3,7.1
						c31.7,83.6,84.8,170.6,103.7,196.2l54.8,0.7c18.8,0.2,35.5,12,42,29.7l24.1,65.9c4.1,11.1-1.7,23.4-12.8,27.5
						c-2.1,0.8-4.4,1.2-6.6,1.3l-88,2.5c-7.8,0.2-15-4.4-18-11.7l-6-14.7L804.6,1616.5z"/>
					<path class="st5" d="M905.1,1641.5c11.8-0.4,21.1-10.4,20.7-22.2c-0.1-2.3-0.5-4.5-1.3-6.6l-13.3-36.4"/>
					<path class="st5" d="M876,1642.1c11.8-0.4,21.1-10.4,20.7-22.2c-0.1-2.3-0.5-4.5-1.3-6.6l-13.3-36.4"/>
					<path class="st5" d="M848,1642.9c11.8-0.4,21.1-10.3,20.7-22.2c-0.1-2.3-0.5-4.5-1.3-6.6l-13.3-36.4"/>
					<line class="st5" x1="814.7" y1="1599.2" x2="827.9" y2="1635.3"/>
					<line class="st5" x1="800.9" y1="1515.6" x2="829.7" y2="1515.6"/>
				</g>
				<g id="HEAD-2">
					<g id="HAT">
						
							<ellipse transform="matrix(0.9031 -0.4294 0.4294 0.9031 -300.5979 409.9637)" class="st7" cx="758.2" cy="871.1" rx="143.3" ry="31.3"/>
						<path class="st25" d="M621.9,931.6c8,16.5,74.8,1.7,149.2-34.2s128.3-79.3,120.4-95.9s-74.8-0.8-149.2,35.1
							S613.9,915.1,621.9,931.6z"/>
						<path class="st26" d="M712.3,851.8l-0.4-13.1c-0.5-15.2,9.9-29,25.5-33.9l24.2-7.5c12.3-3.9,25.8-1.4,36,6.5l7.5,6"/>
					</g>
					<g id="NECK-2">
						<path class="st21" d="M793.1,984.2V934l-71.3-37.2l-42.4,87.3C679.4,984.1,737.8,1029.6,793.1,984.2z"/>
						<polygon class="st7" points="793.1,984.2 793.1,934 721.8,896.8 714.2,912.5 						"/>
					</g>
					<path id="HAIR-2" class="st17" d="M797.6,827.2c14.5-5.6,50.6-6,35.6,17.5c-15.3,23.8-54.5,13.7-75,7.6l0,0l-6.8-2.1
						c-3.7,2.6-6.2,6.5-7.1,10.9l-2.7,13.4h-18l-0.2-2c-1.2-9.7,5.3-17,14.5-20.4L797.6,827.2z"/>
					<path id="HEAD-3" class="st21" d="M786.7,941.7h-14.2c-13.1,0-25.1-7.6-30.6-19.5l-6.6-14.2h-11.6c-9.5,0-17.2-7.7-17.2-17.2
						c0-9.5,7.7-17.2,17.2-17.2h18.1l2.5-12.5c0.9-4.4,3.4-8.3,7.1-10.9c12,3.6,39.4,12.8,60.5,8.3c-0.7,17.8-0.1,35.7,1.7,53.4
						c1.6,14.8-9.1,28-23.9,29.6C788.7,941.6,787.7,941.7,786.7,941.7z"/>
					<g id="FACE">
						<path class="st27" d="M812,873.4c0,0-12.1-3.1-18.3,7.3c-4.1,6.9-1.1,32.5-1.1,32.5"/>
						<path class="st27" d="M776,873.4c0,0-12.5-1.8-23.1,5"/>
						
							<ellipse transform="matrix(0.9978 -6.662219e-02 6.662219e-02 0.9978 -57.4558 55.5791)" class="st7" cx="804.6" cy="889.2" rx="2.5" ry="4.8"/>
						
							<ellipse transform="matrix(0.9978 -6.662219e-02 6.662219e-02 0.9978 -57.5804 53.1865)" class="st7" cx="768.7" cy="889.9" rx="2.7" ry="5.2"/>
					</g>
					<path id="EAR" class="st27" d="M734.5,894.3c0.2-7.3-5.6-13.3-12.8-13.5c-0.1,0-0.2,0-0.3,0"/>
				</g>
			</g>
		</g>
	</g>
</g>
<text transform="matrix(1 0 0 1 960 540)" class="st28 st29">FDDA24</text>
<text transform="matrix(1 0 0 1 960 540)" class="st28 st29">FDDA24</text>
</svg>
